<svg fill="none" xmlns="http://www.w3.org/2000/svg" viewBox="0 0 120 29">
  <path
    fill-rule="evenodd"
    clip-rule="evenodd"
    d="M32.651.313c-.383-.483-1.103-.305-1.608-.136-.918.418-1.823.865-2.728 1.313-.753.373-1.505.745-2.266 1.1a7.664 7.664 0 0 1-.296.156c-.555.281-1.205.61-1.036 1.325.136.417.38.794.623 1.17.378.585.755 1.168.721 1.9.025 5.13.016 10.261.008 15.392l-.002 1.183c.056.778-.341 1.398-.74 2.019-.21.33-.421.659-.565 1.012-.116.41-.148 1.228.471 1.204 1.981.07 3.965.057 5.949.044.793-.006 1.587-.01 2.38-.01.61.13 1.094-.44.943-1.027-.167-.438-.456-.824-.743-1.208-.453-.606-.905-1.209-.874-2.013-.02-4.589-.016-9.178-.013-13.769.003-2.841.005-5.683.001-8.525a4.605 4.605 0 0 1-.017-.281c-.011-.299-.024-.606-.208-.849ZM1.691 1.687c-.528 0-1.063-.001-1.548.222-.374.71.058 1.344.467 1.943.127.186.25.368.348.548.516.696.517 1.576.518 2.409l.001.287c-.013 2.535-.01 5.07-.007 7.606.004 3.004.008 6.008-.016 9.011.02.791-.397 1.441-.808 2.082-.124.194-.247.386-.358.582-.359.462-.439 1.524.33 1.578 1.553.066 3.11.054 4.666.042a142.03 142.03 0 0 1 3.047-.001l.688.002c3.431.012 6.979.024 10.167-1.396 1.884-.807 3.607-2.349 4.078-4.41.309-1.738.226-3.675-.83-5.164-1.225-1.844-3.37-2.844-5.508-3.161.97-.427 1.952-.917 2.649-1.738 1.948-2.248 1.675-6.038-.52-8.029-1.886-1.832-4.647-2.277-7.17-2.384-1.76-.03-3.518-.026-5.277-.022-1.494.003-2.99.007-4.484-.01-.143.004-.288.004-.434.003ZM8.292 5.85c.062-.875.869-1.459 1.711-1.45 1.243-.083 2.619.119 3.556 1.008 1.124 1.015 1.486 2.604 1.468 4.06 0 1.314-.741 2.738-2.067 3.127-1.1.27-2.272.287-3.381.047-.875-.196-1.355-1.103-1.332-1.948-.002-.352-.007-.704-.012-1.055-.018-1.264-.036-2.529.057-3.789Zm-.056 12.254c.005-.88.01-1.76.002-2.639l.2.002c1.578.01 3.235.02 4.65.817 2.064 1.166 3.508 3.574 3.155 5.98-.154 1.393-1.237 2.662-2.64 2.903a11.123 11.123 0 0 1-3.214.026c-1.38-.216-2.082-1.687-2.127-2.957a109.577 109.577 0 0 1-.026-4.132Zm33.887-7.92c2.269-.597 4.9-.526 6.839.943.413-1.248 1.694-1.085 2.77-.947.168.021.33.042.483.057.438.083.885.135 1.333.186.858.1 1.719.199 2.514.522.798.74.06 1.666-.466 2.324l-.068.085c-.817.93-.795 2.162-.773 3.34.005.267.01.531.005.788.018.88.01 1.762.002 2.643-.013 1.29-.025 2.58.046 3.867.033.628.382 1.144.729 1.656.414.612.824 1.219.685 2.004l-.406.285c-1.379.095-2.765.078-4.15.06h-.001c-.507-.006-1.014-.012-1.52-.013-.53.11-.78-.303-1.016-.694a4.332 4.332 0 0 0-.185-.29c-3.289 2.399-8.298 1.456-10.9-1.552-1.986-2.206-2.38-5.403-1.971-8.242.46-3.241 2.936-6.059 6.05-7.023Zm2.429 1.642c-1.617.49-2.061 2.361-2.186 3.841-.157 3.073.4 6.216 1.747 8.992.424.828 1.133 1.78 2.183 1.694 1.23.02 1.922-1.302 2.052-2.37.14-1.216.121-2.442.102-3.668-.011-.749-.023-1.498.002-2.246l.002-.234c.014-1.563.028-3.246-.9-4.58-.624-.972-1.813-1.779-3.002-1.429Zm46.735-1.118c-2.061-.934-4.404-.993-6.61-.703-2.445.427-4.696 1.821-6.214 3.773-1.919 2.512-2.168 6.062-.94 8.933 1.073 2.396 3.26 4.185 5.715 5.039 3.671 1.174 8.07.646 10.926-2.097 2.598-2.316 3.39-6.216 2.31-9.464-.783-2.497-2.835-4.437-5.187-5.48Zm-7.634 3.215c.175-.768.486-1.637 1.26-1.987 1.172-.629 2.37.421 2.913 1.406 1.673 2.945 2.402 6.403 2.215 9.775-.08 1.095-.326 2.352-1.29 3.016-.759.422-1.788.235-2.367-.409-1.39-1.465-1.972-3.479-2.402-5.4-.46-2.091-.774-4.28-.329-6.4Zm20.71-3.944c.442-.166 1.13-.294 1.391.222.141.48.13.981.119 1.48-.005.214-.01.427-.003.638 2.592-3.743 9.096-3.168 11.193.806.946 1.697 1.087 3.629 1.226 5.534.036.49.071.978.12 1.46.047.48.071.964.094 1.448.048.989.095 1.977.342 2.938.112.387.326.754.539 1.12.4.689.8 1.376.523 2.193-.485.228-1.023.22-1.554.21a9.44 9.44 0 0 0-.581.004c-.917-.023-1.834-.015-2.752-.007-1.223.01-2.446.022-3.666-.04-.522-.037-.727-.555-.588-1.012.118-.433.36-.819.601-1.203.338-.538.674-1.074.666-1.733.005-1.294-.082-2.584-.169-3.873-.054-.801-.108-1.602-.14-2.403l-.024-.354c-.095-1.378-.193-2.8-.827-4.047-.581-1.157-2.361-1.284-3.155-.29-.804 1.09-.831 2.511-.834 3.81.009 1.018.006 2.036.003 3.054-.004 1.262-.008 2.523.012 3.785-.05.757.385 1.352.814 1.94.508.696 1.008 1.381.687 2.31-1.649.065-3.298.059-4.948.053a177.318 177.318 0 0 0-3.196.007 5.074 5.074 0 0 0-.352-.007c-.461.002-.95.004-1.217-.435-.138-.76.301-1.32.747-1.888.34-.433.683-.87.777-1.404.149-.85.133-1.712.117-2.573-.008-.423-.016-.847-.004-1.268-.013-.46-.005-.92.004-1.38.017-.929.034-1.856-.123-2.772-.091-.585-.523-.985-.951-1.381-.492-.455-.978-.905-.932-1.624.296-.528.845-.793 1.38-1.05.155-.076.309-.15.456-.23.638-.29 1.264-.608 1.889-.925.764-.388 1.529-.776 2.316-1.113Zm-45.406 1.56c-.045.132-.088.26-.134.373-.088.3-.19.6-.294.898-.257.746-.515 1.496-.551 2.288.193.972 1.468.892 2.127.46.588-.412 1.046-.981 1.503-1.55.652-.809 1.301-1.616 2.322-1.96.82-.165 1.658-.142 2.492-.12.348.01.695.018 1.04.014-1.487 2.232-2.956 4.476-4.424 6.72a983.339 983.339 0 0 1-4.425 6.718c-.44.614-.736 1.406-.424 2.147.326.477.892.475 1.419.474.11 0 .218 0 .322.004 2.163-.017 4.327-.013 6.492-.009 2.502.005 5.004.01 7.506-.018.637.04.85-.62 1.015-1.131l.05-.153c.116-.464.255-.925.393-1.385.279-.925.558-1.851.657-2.812-.226-.788-1.332-.522-1.922-.338-.689.457-1.225 1.103-1.761 1.748-.764.92-1.525 1.836-2.72 2.197-.904.184-1.827.162-2.747.14-.445-.011-.89-.022-1.331-.01 2.844-4.33 5.685-8.66 8.514-13.002l.176-.286c.464-.745.975-1.568.658-2.463-.25-.283-.625-.289-.984-.294a3.993 3.993 0 0 1-.336-.014c-1.991.011-3.983.008-5.974.006-2.47-.004-4.939-.007-7.408.017-.778-.051-1.034.702-1.25 1.34Z"
    fill="#000"
  />
</svg>
