<svg xmlns="http://www.w3.org/2000/svg" width="512" height="512" style="" viewBox="0 0 512 512" data-bbox="110.48936215072365 158.9569148857206 333.73328678655014 150.46946164095647">
  <defs transform="matrix(1, 0, 0, 1, 0, 0)" />
  <path text="Blueray" fill="rgba(10,6,117,0.52)" space="preserve" text-anchor="start" offset="0" font-scale="contain" font-size="48" font-family="Ubuntu" transform="matrix(1.262266755104065, 0, 0, 1.262266755104065, 223.06846618652344, 212.23233032226562)" data-fl-textpath="" font-weight="700" font-style="normal" d="M 14.93 0.43L 14.93 0.43Q 12.19 0.43  9.48 0.26Q 6.77 0.1  3.84-0.53L 3.84-0.53L 3.84-32.78Q 6.14-33.22  8.88-33.43Q 11.62-33.65  13.97-33.65L 13.97-33.65Q 17.14-33.65  19.8-33.19Q 22.46-32.74  24.38-31.63Q 26.3-30.53  27.38-28.73Q 28.46-26.93  28.46-24.29L 28.46-24.29Q 28.46-20.3  24.62-18L 24.62-18Q 27.79-16.8  28.94-14.74Q 30.1-12.67  30.1-10.08L 30.1-10.08Q 30.1-4.85  26.28-2.21Q 22.46 0.43  14.93 0.43ZM 15.84-14.5L 11.14-14.5L 11.14-5.9Q 11.95-5.81  12.91-5.76Q 13.87-5.71  15.02-5.71L 15.02-5.71Q 18.38-5.71  20.45-6.67Q 22.51-7.63  22.51-10.22L 22.51-10.22Q 22.51-12.53  20.78-13.51Q 19.06-14.5  15.84-14.5L 15.84-14.5ZM 11.14-27.46L 11.14-20.21L 14.78-20.21Q 18.24-20.21  19.73-21.1Q 21.22-21.98  21.22-23.95L 21.22-23.95Q 21.22-25.97  19.68-26.78Q 18.14-27.6  15.17-27.6L 15.17-27.6Q 14.21-27.6  13.1-27.58Q 12-27.55  11.14-27.46L 11.14-27.46ZM 46.706-5.42L 45.696 0.48Q 42.576 0.43  40.636-0.19Q 38.686-0.82  37.556-1.94Q 36.436-3.07  36.026-4.68Q 35.616-6.29  35.616-8.3L 35.616-8.3L 35.616-36.1L 42.766-37.25L 42.766-9.74Q 42.766-8.78  42.916-8.02Q 43.056-7.25  43.466-6.72Q 43.876-6.19  44.636-5.86Q 45.406-5.52  46.706-5.42L 46.706-5.42ZM 72.334-25.25L 72.334-0.86Q 70.514-0.34  67.634 0.12Q 64.75399999999999 0.58  61.584 0.58L 61.584 0.58Q 58.364 0.58  56.234-0.29Q 54.094-1.15  52.844-2.71Q 51.604-4.27  51.074-6.43Q 50.544-8.59  50.544-11.18L 50.544-11.18L 50.544-25.25L 57.694-25.25L 57.694-12.05Q 57.694-8.59  58.604-7.06Q 59.524-5.52  62.013999999999996-5.52L 62.013999999999996-5.52Q 62.784-5.52  63.644-5.59Q 64.514-5.66  65.184-5.76L 65.184-5.76L 65.184-25.25L 72.334-25.25ZM 77.856-12.43L 77.856-12.43Q 77.856-15.79  78.886-18.31Q 79.916-20.83  81.596-22.51Q 83.276-24.19  85.466-25.06Q 87.646-25.92  89.956-25.92L 89.956-25.92Q 95.326-25.92  98.446-22.63Q 101.566-19.34  101.566-12.96L 101.566-12.96Q 101.566-12.34  101.51599999999999-11.59Q 101.476-10.85  101.426-10.27L 101.426-10.27L 85.196-10.27Q 85.43599999999999-8.06  87.26599999999999-6.77Q 89.086-5.47  92.156-5.47L 92.156-5.47Q 94.126-5.47  96.026-5.83Q 97.916-6.19  99.116-6.72L 99.116-6.72L 100.076-0.91Q 99.506-0.62  98.54599999999999-0.34Q 97.586-0.05  96.406 0.17Q 95.23599999999999 0.38  93.886 0.53Q 92.54599999999999 0.67  91.196 0.67L 91.196 0.67Q 87.79599999999999 0.67  85.276-0.34Q 82.756-1.34  81.096-3.1Q 79.43599999999999-4.85  78.646-7.25Q 77.856-9.65  77.856-12.43ZM 85.196-15.17L 94.656-15.17Q 94.606-16.08  94.346-16.94Q 94.076-17.81  93.526-18.48Q 92.976-19.15  92.136-19.58Q 91.29599999999999-20.02  90.04599999999999-20.02L 90.04599999999999-20.02Q 88.846-20.02  87.98599999999999-19.61Q 87.116-19.2  86.54599999999999-18.53Q 85.966-17.86  85.656-16.97Q 85.346-16.08  85.196-15.17L 85.196-15.17ZM 123.508-24.82L 122.30799999999999-18.91Q 121.348-19.15  120.048-19.42Q 118.74799999999999-19.68  117.268-19.68L 117.268-19.68Q 116.588-19.68  115.65799999999999-19.56Q 114.71799999999999-19.44  114.238-19.3L 114.238-19.3L 114.238 0L 107.088 0L 107.088-23.9Q 109.008-24.58  111.628-25.18Q 114.238-25.78  117.458-25.78L 117.458-25.78Q 118.02799999999999-25.78  118.848-25.7Q 119.66799999999999-25.63  120.478-25.51Q 121.298-25.39  122.10799999999999-25.22Q 122.928-25.06  123.508-24.82L 123.508-24.82ZM 136.51399999999998-4.99L 136.51399999999998-4.99Q 137.564-4.99  138.524-5.04Q 139.48399999999998-5.09  140.064-5.18L 140.064-5.18L 140.064-10.61Q 139.634-10.7  138.76399999999998-10.8Q 137.904-10.9  137.184-10.9L 137.184-10.9Q 136.17399999999998-10.9  135.284-10.78Q 134.404-10.66  133.724-10.32Q 133.054-9.98  132.67399999999998-9.41Q 132.284-8.83  132.284-7.97L 132.284-7.97Q 132.284-6.29  133.414-5.64Q 134.54399999999998-4.99  136.51399999999998-4.99ZM 135.934-25.92L 135.934-25.92Q 139.10399999999998-25.92  141.214-25.2Q 143.32399999999998-24.48  144.60399999999998-23.14Q 145.874-21.79  146.404-19.87Q 146.92399999999998-17.95  146.92399999999998-15.6L 146.92399999999998-15.6L 146.92399999999998-0.72Q 145.394-0.38  142.654 0.07Q 139.92399999999998 0.53  136.034 0.53L 136.034 0.53Q 133.584 0.53  131.594 0.1Q 129.60399999999998-0.34  128.164-1.32Q 126.72399999999999-2.3  125.954-3.89Q 125.184-5.47  125.184-7.78L 125.184-7.78Q 125.184-9.98  126.07399999999998-11.52Q 126.96399999999998-13.06  128.444-13.97Q 129.934-14.88  131.85399999999998-15.29Q 133.774-15.7  135.844-15.7L 135.844-15.7Q 137.23399999999998-15.7  138.314-15.58Q 139.394-15.46  140.064-15.26L 140.064-15.26L 140.064-15.94Q 140.064-17.76  138.964-18.86Q 137.85399999999998-19.97  135.124-19.97L 135.124-19.97Q 133.29399999999998-19.97  131.524-19.7Q 129.744-19.44  128.444-18.96L 128.444-18.96L 127.53399999999999-24.72Q 128.164-24.91  129.094-25.13Q 130.034-25.34  131.134-25.51Q 132.244-25.68  133.464-25.8Q 134.684-25.92  135.934-25.92ZM 167.80399999999997-25.25L 175.20399999999998-25.25Q 173.04399999999998-17.95  170.68399999999997-11.57Q 168.33399999999997-5.18  165.55399999999997 0.82L 165.55399999999997 0.82Q 164.54399999999998 2.98  163.534 4.49Q 162.52399999999997 6  161.32399999999998 6.98Q 160.12399999999997 7.97  158.61399999999998 8.42Q 157.10399999999998 8.88  155.08399999999997 8.88L 155.08399999999997 8.88Q 153.40399999999997 8.88  151.99399999999997 8.57Q 150.57399999999998 8.26  149.664 7.87L 149.664 7.87L 150.914 2.16Q 152.01399999999998 2.54  152.884 2.69Q 153.74399999999997 2.83  154.70399999999998 2.83L 154.70399999999998 2.83Q 156.62399999999997 2.83  157.65399999999997 1.8Q 158.68399999999997 0.77  159.40399999999997-1.06L 159.40399999999997-1.06Q 156.96399999999997-5.86  154.51399999999998-11.83Q 152.06399999999996-17.81  149.90399999999997-25.25L 149.90399999999997-25.25L 157.48399999999998-25.25Q 157.96399999999997-23.38  158.61399999999998-21.19Q 159.26399999999998-19.01  159.98399999999998-16.78Q 160.70399999999998-14.54  161.444-12.43Q 162.194-10.32  162.86399999999998-8.59L 162.86399999999998-8.59Q 163.48399999999998-10.32  164.164-12.43Q 164.83399999999997-14.54  165.48399999999998-16.78Q 166.12399999999997-19.01  166.724-21.19Q 167.32399999999998-23.38  167.80399999999997-25.25L 167.80399999999997-25.25Z" />
  <path text="Capital" fill="#333747" space="preserve" text-anchor="start" offset="0" font-scale="contain" font-size="48" font-family="Ubuntu" transform="matrix(1.262266755104065, 0, 0, 1.262266755104065, 223.06846618652344, 272.9710998535156)" data-fl-textpath="" font-weight="700" font-style="normal" d="M 19.01 0.67L 19.01 0.67Q 10.9 0.67  6.65-3.84Q 2.4-8.35  2.4-16.66L 2.4-16.66Q 2.4-20.78  3.7-24.02Q 4.99-27.26  7.25-29.5Q 9.5-31.73  12.62-32.88Q 15.74-34.03  19.39-34.03L 19.39-34.03Q 21.5-34.03  23.23-33.72Q 24.96-33.41  26.26-33Q 27.55-32.59  28.42-32.16Q 29.28-31.73  29.66-31.49L 29.66-31.49L 27.5-25.44Q 25.97-26.26  23.93-26.83Q 21.89-27.41  19.3-27.41L 19.3-27.41Q 17.57-27.41  15.91-26.83Q 14.26-26.26  12.98-24.98Q 11.71-23.71  10.94-21.7Q 10.18-19.68  10.18-16.8L 10.18-16.8Q 10.18-14.5  10.68-12.5Q 11.18-10.51  12.31-9.07Q 13.44-7.63  15.26-6.79Q 17.09-5.95  19.68-5.95L 19.68-5.95Q 21.31-5.95  22.61-6.14Q 23.9-6.34  24.91-6.6Q 25.92-6.86  26.69-7.2Q 27.46-7.54  28.08-7.82L 28.08-7.82L 30.14-1.82Q 28.56-0.86  25.68-0.1Q 22.8 0.67  19.01 0.67ZM 44.594-4.99L 44.594-4.99Q 45.644000000000005-4.99  46.604-5.04Q 47.56400000000001-5.09  48.144000000000005-5.18L 48.144000000000005-5.18L 48.144000000000005-10.61Q 47.714-10.7  46.844-10.8Q 45.984-10.9  45.264-10.9L 45.264-10.9Q 44.254000000000005-10.9  43.364000000000004-10.78Q 42.484-10.66  41.804-10.32Q 41.134-9.98  40.754000000000005-9.41Q 40.364000000000004-8.83  40.364000000000004-7.97L 40.364000000000004-7.97Q 40.364000000000004-6.29  41.494-5.64Q 42.624-4.99  44.594-4.99ZM 44.014-25.92L 44.014-25.92Q 47.184000000000005-25.92  49.294000000000004-25.2Q 51.404-24.48  52.684000000000005-23.14Q 53.95400000000001-21.79  54.484-19.87Q 55.004000000000005-17.95  55.004000000000005-15.6L 55.004000000000005-15.6L 55.004000000000005-0.72Q 53.474000000000004-0.38  50.734 0.07Q 48.004000000000005 0.53  44.114000000000004 0.53L 44.114000000000004 0.53Q 41.664 0.53  39.67400000000001 0.1Q 37.684000000000005-0.34  36.244-1.32Q 34.804-2.3  34.034000000000006-3.89Q 33.264-5.47  33.264-7.78L 33.264-7.78Q 33.264-9.98  34.154-11.52Q 35.044000000000004-13.06  36.524-13.97Q 38.014-14.88  39.934000000000005-15.29Q 41.854-15.7  43.92400000000001-15.7L 43.92400000000001-15.7Q 45.31400000000001-15.7  46.394000000000005-15.58Q 47.474000000000004-15.46  48.144000000000005-15.26L 48.144000000000005-15.26L 48.144000000000005-15.94Q 48.144000000000005-17.76  47.044000000000004-18.86Q 45.934000000000005-19.97  43.204-19.97L 43.204-19.97Q 41.374-19.97  39.604-19.7Q 37.824000000000005-19.44  36.524-18.96L 36.524-18.96L 35.614000000000004-24.72Q 36.244-24.91  37.17400000000001-25.13Q 38.114000000000004-25.34  39.214000000000006-25.51Q 40.324000000000005-25.68  41.544000000000004-25.8Q 42.764-25.92  44.014-25.92ZM 77.66799999999999-12.43L 77.66799999999999-12.43Q 77.66799999999999-15.74  76.178-17.74Q 74.68799999999999-19.73  71.758-19.73L 71.758-19.73Q 70.79799999999999-19.73  69.988-19.66Q 69.16799999999999-19.58  68.63799999999999-19.49L 68.63799999999999-19.49L 68.63799999999999-6.58Q 69.30799999999999-6.14  70.38799999999999-5.86Q 71.46799999999999-5.57  72.57799999999999-5.57L 72.57799999999999-5.57Q 77.66799999999999-5.57  77.66799999999999-12.43ZM 84.958-12.62L 84.958-12.62Q 84.958-9.7  84.238-7.3Q 83.518-4.9  82.12799999999999-3.17Q 80.738-1.44  78.66799999999999-0.48Q 76.60799999999999 0.48  73.91799999999999 0.48L 73.91799999999999 0.48Q 72.428 0.48  71.13799999999999 0.19Q 69.838-0.1  68.63799999999999-0.62L 68.63799999999999-0.62L 68.63799999999999 8.88L 61.48799999999999 8.88L 61.48799999999999-24.38Q 62.44799999999999-24.67  63.69799999999999-24.94Q 64.948-25.2  66.30799999999999-25.39Q 67.678-25.58  69.098-25.7Q 70.508-25.82  71.80799999999999-25.82L 71.80799999999999-25.82Q 74.928-25.82  77.37799999999999-24.89Q 79.82799999999999-23.95  81.508-22.25Q 83.18799999999999-20.54  84.068-18.1Q 84.958-15.65  84.958-12.62ZM 97.63000000000001-25.25L 97.63000000000001 0L 90.48 0L 90.48-25.25L 97.63000000000001-25.25ZM 98.30000000000001-32.54L 98.30000000000001-32.54Q 98.30000000000001-30.58  97.03-29.45Q 95.76-28.32  94.03-28.32L 94.03-28.32Q 92.30000000000001-28.32  91.03-29.45Q 89.76-30.58  89.76-32.54L 89.76-32.54Q 89.76-34.51  91.03-35.64Q 92.30000000000001-36.77  94.03-36.77L 94.03-36.77Q 95.76-36.77  97.03-35.64Q 98.30000000000001-34.51  98.30000000000001-32.54ZM 104.11200000000001-10.32L 104.11200000000001-31.54L 111.262-32.69L 111.262-25.25L 119.852-25.25L 119.852-19.3L 111.262-19.3L 111.262-10.42Q 111.262-8.16  112.052-6.82Q 112.852-5.47  115.25200000000001-5.47L 115.25200000000001-5.47Q 116.402-5.47  117.622-5.69Q 118.852-5.9  119.852-6.29L 119.852-6.29L 120.86200000000001-0.72Q 119.572-0.19  117.982 0.19Q 116.402 0.58  114.092 0.58L 114.092 0.58Q 111.172 0.58  109.25200000000001-0.22Q 107.33200000000001-1.01  106.172-2.42Q 105.022-3.84  104.572-5.86Q 104.11200000000001-7.87  104.11200000000001-10.32L 104.11200000000001-10.32ZM 134.354-4.99L 134.354-4.99Q 135.404-4.99  136.364-5.04Q 137.324-5.09  137.904-5.18L 137.904-5.18L 137.904-10.61Q 137.47400000000002-10.7  136.604-10.8Q 135.744-10.9  135.024-10.9L 135.024-10.9Q 134.014-10.9  133.124-10.78Q 132.244-10.66  131.56400000000002-10.32Q 130.894-9.98  130.514-9.41Q 130.124-8.83  130.124-7.97L 130.124-7.97Q 130.124-6.29  131.25400000000002-5.64Q 132.38400000000001-4.99  134.354-4.99ZM 133.774-25.92L 133.774-25.92Q 136.94400000000002-25.92  139.054-25.2Q 141.16400000000002-24.48  142.44400000000002-23.14Q 143.714-21.79  144.244-19.87Q 144.764-17.95  144.764-15.6L 144.764-15.6L 144.764-0.72Q 143.234-0.38  140.494 0.07Q 137.764 0.53  133.874 0.53L 133.874 0.53Q 131.424 0.53  129.434 0.1Q 127.444-0.34  126.004-1.32Q 124.56400000000001-2.3  123.79400000000001-3.89Q 123.02400000000002-5.47  123.02400000000002-7.78L 123.02400000000002-7.78Q 123.02400000000002-9.98  123.914-11.52Q 124.804-13.06  126.284-13.97Q 127.774-14.88  129.69400000000002-15.29Q 131.614-15.7  133.684-15.7L 133.684-15.7Q 135.074-15.7  136.154-15.58Q 137.234-15.46  137.904-15.26L 137.904-15.26L 137.904-15.94Q 137.904-17.76  136.804-18.86Q 135.69400000000002-19.97  132.964-19.97L 132.964-19.97Q 131.13400000000001-19.97  129.364-19.7Q 127.584-19.44  126.284-18.96L 126.284-18.96L 125.37400000000001-24.72Q 126.004-24.91  126.93400000000001-25.13Q 127.87400000000001-25.34  128.97400000000002-25.51Q 130.084-25.68  131.304-25.8Q 132.524-25.92  133.774-25.92ZM 162.338-5.42L 161.328 0.48Q 158.208 0.43  156.268-0.19Q 154.318-0.82  153.18800000000002-1.94Q 152.068-3.07  151.65800000000002-4.68Q 151.24800000000002-6.29  151.24800000000002-8.3L 151.24800000000002-8.3L 151.24800000000002-36.1L 158.398-37.25L 158.398-9.74Q 158.398-8.78  158.548-8.02Q 158.68800000000002-7.25  159.098-6.72Q 159.508-6.19  160.268-5.86Q 161.038-5.52  162.338-5.42L 162.338-5.42Z" />
  <path text="Commercial Finance Solutions" fill="#000000" space="preserve" text-anchor="middle" offset="0.5" font-scale="contain" font-size="48" font-family="Open Sans" transform="matrix(0.47781915565731087, 0, 0, 0.47781915565731087, 284.35629910047567, 304.60609517718353)" font-weight="400" font-style="normal" data-fl-textpath="" d="M-317.3934375-31.2L-317.3934375-31.2Q-323.0434375-31.2 -326.3134375-27.43Q-329.5734375-23.67 -329.5734375-17.13L-329.5734375-17.13Q-329.5734375-10.41 -326.4234375-6.74Q-323.2734375-3.07 -317.4334375-3.07L-317.4334375-3.07Q-313.8534375-3.07 -309.2534375-4.36L-309.2534375-4.36L-309.2534375-0.87Q-312.8234375 0.47 -318.0434375 0.47L-318.0434375 0.47Q-325.6134375 0.47 -329.7334375-4.13Q-333.8434375-8.72 -333.8434375-17.18L-333.8434375-17.18Q-333.8434375-22.48 -331.8634375-26.46Q-329.8834375-30.45 -326.1434375-32.6Q-322.4034375-34.76 -317.3434375-34.76L-317.3434375-34.76Q-311.9534375-34.76 -307.9234375-32.79L-307.9234375-32.79L-309.6134375-29.37Q-313.5034375-31.2 -317.3934375-31.2ZM-280.1921875-12.87L-280.1921875-12.87Q-280.1921875-6.59 -283.3621875-3.06Q-286.5221875 0.47 -292.1021875 0.47L-292.1021875 0.47Q-295.5421875 0.47 -298.2221875-1.15Q-300.8921875-2.77 -302.3421875-5.79Q-303.7921875-8.81 -303.7921875-12.87L-303.7921875-12.87Q-303.7921875-19.15 -300.6521875-22.65Q-297.5121875-26.16 -291.9421875-26.16L-291.9421875-26.16Q-286.5421875-26.16 -283.3721875-22.57Q-280.1921875-18.98 -280.1921875-12.87ZM-299.7621875-12.87L-299.7621875-12.87Q-299.7621875-7.95 -297.7921875-5.37Q-295.8321875-2.79 -292.0121875-2.79L-292.0121875-2.79Q-288.1921875-2.79 -286.2021875-5.36Q-284.2221875-7.92 -284.2221875-12.87L-284.2221875-12.87Q-284.2221875-17.77 -286.2021875-20.31Q-288.1921875-22.85 -292.0521875-22.85L-292.0521875-22.85Q-295.8721875-22.85 -297.8221875-20.34Q-299.7621875-17.84 -299.7621875-12.87ZM-236.74 0L-240.63 0L-240.63-16.71Q-240.63-19.78 -241.95-21.32Q-243.26-22.85 -246.02-22.85L-246.02-22.85Q-249.66-22.85 -251.39-20.77Q-253.12-18.68 -253.12-14.34L-253.12-14.34L-253.12 0L-257.02 0L-257.02-16.71Q-257.02-19.78 -258.33-21.32Q-259.64-22.85 -262.43-22.85L-262.43-22.85Q-266.09-22.85 -267.79-20.66Q-269.48-18.47 -269.48-13.48L-269.48-13.48L-269.48 0L-273.37 0L-273.37-25.69L-270.21-25.69L-269.58-22.17L-269.39-22.17Q-268.29-24.05 -266.29-25.1Q-264.28-26.16 -261.8-26.16L-261.8-26.16Q-255.77-26.16 -253.92000000000002-21.8L-253.92000000000002-21.8L-253.73-21.8Q-252.59-23.81 -250.41-24.98Q-248.23-26.16 -245.44-26.16L-245.44-26.16Q-241.07999999999998-26.16 -238.91-23.92Q-236.74-21.68 -236.74-16.76L-236.74-16.76L-236.74 0ZM-192.0915625 0L-195.9815625 0L-195.9815625-16.71Q-195.9815625-19.78 -197.3015625-21.32Q-198.6115625-22.85 -201.3715625-22.85L-201.3715625-22.85Q-205.0115625-22.85 -206.7415625-20.77Q-208.4715625-18.68 -208.4715625-14.34L-208.4715625-14.34L-208.4715625 0L-212.3715625 0L-212.3715625-16.71Q-212.3715625-19.78 -213.68156249999998-21.32Q-214.9915625-22.85 -217.7815625-22.85L-217.7815625-22.85Q-221.4415625-22.85 -223.1415625-20.66Q-224.8315625-18.47 -224.8315625-13.48L-224.8315625-13.48L-224.8315625 0L-228.7215625 0L-228.7215625-25.69L-225.5615625-25.69L-224.9315625-22.17L-224.7415625-22.17Q-223.6415625-24.05 -221.6415625-25.1Q-219.6315625-26.16 -217.1515625-26.16L-217.1515625-26.16Q-211.1215625-26.16 -209.27156250000002-21.8L-209.27156250000002-21.8L-209.0815625-21.8Q-207.9415625-23.81 -205.7615625-24.98Q-203.5815625-26.16 -200.7915625-26.16L-200.7915625-26.16Q-196.43156249999998-26.16 -194.2615625-23.92Q-192.0915625-21.68 -192.0915625-16.76L-192.0915625-16.76L-192.0915625 0ZM-173.223125 0.47L-173.223125 0.47Q-178.923125 0.47 -182.213125-3Q-185.503125-6.47 -185.503125-12.63L-185.503125-12.63Q-185.503125-18.84 -182.453125-22.5Q-179.393125-26.16 -174.233125-26.16L-174.233125-26.16Q-169.403125-26.16 -166.593125-22.98Q-163.78312499999998-19.8 -163.78312499999998-14.6L-163.78312499999998-14.6L-163.78312499999998-12.14L-181.473125-12.14Q-181.363125-7.62 -179.193125-5.27Q-177.023125-2.93 -173.083125-2.93L-173.083125-2.93Q-168.933125-2.93 -164.883125-4.66L-164.883125-4.66L-164.883125-1.2Q-166.943125-0.3 -168.78312499999998 0.08Q-170.62312500000002 0.47 -173.223125 0.47ZM-174.283125-22.9L-174.283125-22.9Q-177.373125-22.9 -179.213125-20.88Q-181.053125-18.87 -181.383125-15.3L-181.383125-15.3L-167.953125-15.3Q-167.953125-18.98 -169.593125-20.94Q-171.233125-22.9 -174.283125-22.9ZM-145.4334375-26.16L-145.4334375-26.16Q-143.7234375-26.16 -142.3634375-25.88L-142.3634375-25.88L-142.8934375-22.27Q-144.4934375-22.62 -145.7134375-22.62L-145.7134375-22.62Q-148.8234375-22.62 -151.0434375-20.09Q-153.2534375-17.55 -153.2534375-13.78L-153.2534375-13.78L-153.2534375 0L-157.1434375 0L-157.1434375-25.69L-153.9334375-25.69L-153.4934375-20.93L-153.3034375-20.93Q-151.8734375-23.44 -149.8634375-24.8Q-147.8434375-26.16 -145.4334375-26.16ZM-127.2896875 0.47L-127.2896875 0.47Q-132.8696875 0.47 -135.9296875-2.96Q-138.9796875-6.4 -138.9796875-12.68L-138.9796875-12.68Q-138.9796875-19.13 -135.8796875-22.64Q-132.7696875-26.16 -127.0296875-26.16L-127.0296875-26.16Q-125.1796875-26.16 -123.3296875-25.76Q-121.4796875-25.36 -120.4196875-24.82L-120.4196875-24.82L-121.6196875-21.52Q-122.9096875-22.03 -124.4296875-22.37Q-125.9496875-22.71 -127.1296875-22.71L-127.1296875-22.71Q-134.9496875-22.71 -134.9496875-12.73L-134.9496875-12.73Q-134.9496875-7.99 -133.0396875-5.46Q-131.1296875-2.93 -127.3796875-2.93L-127.3796875-2.93Q-124.1696875-2.93 -120.7996875-4.31L-120.7996875-4.31L-120.7996875-0.87Q-123.3796875 0.47 -127.2896875 0.47ZM-110.808125-25.69L-110.808125 0L-114.698125 0L-114.698125-25.69L-110.808125-25.69ZM-115.028125-32.65L-115.028125-32.65Q-115.028125-33.98 -114.378125-34.61Q-113.718125-35.23 -112.738125-35.23L-112.738125-35.23Q-111.798125-35.23 -111.118125-34.59Q-110.438125-33.96 -110.438125-32.65L-110.438125-32.65Q-110.438125-31.34 -111.118125-30.69Q-111.798125-30.05 -112.738125-30.05L-112.738125-30.05Q-113.718125-30.05 -114.378125-30.69Q-115.028125-31.34 -115.028125-32.65ZM-83.8875 0L-86.7675 0L-87.5375-3.66L-87.72749999999999-3.66Q-89.64750000000001-1.24 -91.5575-0.39Q-93.4675 0.47 -96.3275 0.47L-96.3275 0.47Q-100.1475 0.47 -102.3175-1.5Q-104.4875-3.47 -104.4875-7.1L-104.4875-7.1Q-104.4875-14.88 -92.0375-15.26L-92.0375-15.26L-87.6775-15.4L-87.6775-16.99Q-87.6775-20.02 -88.97749999999999-21.46Q-90.2775-22.9 -93.1375-22.9L-93.1375-22.9Q-96.3475-22.9 -100.4075-20.93L-100.4075-20.93L-101.5975-23.91Q-99.7075-24.94 -97.4375-25.52Q-95.1775-26.11 -92.9075-26.11L-92.9075-26.11Q-88.3075-26.11 -86.0975-24.07Q-83.8875-22.03 -83.8875-17.53L-83.8875-17.53L-83.8875 0ZM-95.5575-2.74L-95.5575-2.74Q-91.9175-2.74 -89.8475-4.73Q-87.7775-6.73 -87.7775-10.31L-87.7775-10.31L-87.7775-12.63L-91.6675-12.47Q-96.3075-12.3 -98.3575-11.03Q-100.4075-9.75 -100.4075-7.05L-100.4075-7.05Q-100.4075-4.95 -99.1275-3.84Q-97.8475-2.74 -95.5575-2.74ZM-71.9721875-36.47L-71.9721875 0L-75.8621875 0L-75.8621875-36.47L-71.9721875-36.47ZM-46.6828125-14.65L-46.6828125 0L-50.6728125 0L-50.6728125-34.27L-31.5728125-34.27L-31.5728125-30.73L-46.6828125-30.73L-46.6828125-18.19L-32.4828125-18.19L-32.4828125-14.65L-46.6828125-14.65ZM-22.589375-25.69L-22.589375 0L-26.479375 0L-26.479375-25.69L-22.589375-25.69ZM-26.809375-32.65L-26.809375-32.65Q-26.809375-33.98 -26.159375-34.61Q-25.499375-35.23 -24.519375-35.23L-24.519375-35.23Q-23.579375-35.23 -22.899375-34.59Q-22.219375-33.96 -22.219375-32.65L-22.219375-32.65Q-22.219375-31.34 -22.899375-30.69Q-23.579375-30.05 -24.519375-30.05L-24.519375-30.05Q-25.499375-30.05 -26.159375-30.69Q-26.809375-31.34 -26.809375-32.65ZM 7.12125 0L 3.2312499999999993 0L 3.2312499999999993-16.62Q 3.2312499999999993-19.76  1.8012499999999996-21.3Q 0.37124999999999986-22.85 -2.6687499999999993-22.85L-2.6687499999999993-22.85Q-6.69875-22.85 -8.57875-20.67Q-10.44875-18.49 -10.44875-13.48L-10.44875-13.48L-10.44875 0L-14.338750000000001 0L-14.338750000000001-25.69L-11.17875-25.69L-10.54875-22.17L-10.35875-22.17Q-9.16875-24.07 -7.008749999999999-25.11Q-4.848750000000001-26.16 -2.1987500000000004-26.16L-2.1987500000000004-26.16Q 2.44125-26.16  4.78125-23.92Q 7.12125-21.68  7.12125-16.76L 7.12125-16.76L 7.12125 0ZM 33.7921875 0L 30.9121875 0L 30.1421875-3.66L 29.9521875-3.66Q 28.0321875-1.24  26.122187500000003-0.39Q 24.2121875 0.47  21.3521875 0.47L 21.3521875 0.47Q 17.5321875 0.47  15.362187500000001-1.5Q 13.1921875-3.47  13.1921875-7.1L 13.1921875-7.1Q 13.1921875-14.88  25.6421875-15.26L 25.6421875-15.26L 30.0021875-15.4L 30.0021875-16.99Q 30.0021875-20.02  28.7021875-21.46Q 27.4021875-22.9  24.5421875-22.9L 24.5421875-22.9Q 21.3321875-22.9  17.2721875-20.93L 17.2721875-20.93L 16.0821875-23.91Q 17.9721875-24.94  20.2421875-25.52Q 22.502187499999998-26.11  24.7721875-26.11L 24.7721875-26.11Q 29.3721875-26.11  31.5821875-24.07Q 33.7921875-22.03  33.7921875-17.53L 33.7921875-17.53L 33.7921875 0ZM 22.122187500000003-2.74L 22.122187500000003-2.74Q 25.7621875-2.74  27.8321875-4.73Q 29.9021875-6.73  29.9021875-10.31L 29.9021875-10.31L 29.9021875-12.63L 26.0121875-12.47Q 21.372187500000003-12.3  19.3221875-11.03Q 17.2721875-9.75  17.2721875-7.05L 17.2721875-7.05Q 17.2721875-4.95  18.5521875-3.84Q 19.8321875-2.74  22.122187500000003-2.74ZM 63.2775 0L 59.3875 0L 59.3875-16.62Q 59.3875-19.76  57.957499999999996-21.3Q 56.5275-22.85  53.4875-22.85L 53.4875-22.85Q 49.457499999999996-22.85  47.5775-20.67Q 45.707499999999996-18.49  45.707499999999996-13.48L 45.707499999999996-13.48L 45.707499999999996 0L 41.8175 0L 41.8175-25.69L 44.9775-25.69L 45.6075-22.17L 45.7975-22.17Q 46.9875-24.07  49.1475-25.11Q 51.3075-26.16  53.957499999999996-26.16L 53.957499999999996-26.16Q 58.5975-26.16  60.9375-23.92Q 63.2775-21.68  63.2775-16.76L 63.2775-16.76L 63.2775 0ZM 81.5384375 0.47L 81.5384375 0.47Q 75.9584375 0.47  72.8984375-2.96Q 69.8484375-6.4  69.8484375-12.68L 69.8484375-12.68Q 69.8484375-19.13  72.9484375-22.64Q 76.0584375-26.16  81.7984375-26.16L 81.7984375-26.16Q 83.6484375-26.16  85.4984375-25.76Q 87.3484375-25.36  88.4084375-24.82L 88.4084375-24.82L 87.2084375-21.52Q 85.9184375-22.03  84.3984375-22.37Q 82.8784375-22.71  81.6984375-22.71L 81.6984375-22.71Q 73.8784375-22.71  73.8784375-12.73L 73.8784375-12.73Q 73.8784375-7.99  75.7884375-5.46Q 77.6984375-2.93  81.4484375-2.93L 81.4484375-2.93Q 84.6584375-2.93  88.0284375-4.31L 88.0284375-4.31L 88.0284375-0.87Q 85.4484375 0.47  81.5384375 0.47ZM 104.98 0.47L 104.98 0.47Q 99.28 0.47  95.99-3Q 92.7-6.47  92.7-12.63L 92.7-12.63Q 92.7-18.84  95.75-22.5Q 98.81-26.16  103.97-26.16L 103.97-26.16Q 108.8-26.16  111.61-22.98Q 114.42-19.8  114.42-14.6L 114.42-14.6L 114.42-12.14L 96.73-12.14Q 96.84-7.62  99.01-5.27Q 101.18-2.93  105.12-2.93L 105.12-2.93Q 109.27-2.93  113.32-4.66L 113.32-4.66L 113.32-1.2Q 111.26-0.3  109.42 0.08Q 107.58 0.47  104.98 0.47ZM 103.92-22.9L 103.92-22.9Q 100.83-22.9  98.99-20.88Q 97.15-18.87  96.82-15.3L 96.82-15.3L 110.25-15.3Q 110.25-18.98  108.61-20.94Q 106.97-22.9  103.92-22.9ZM 153.4484375-9.12L 153.4484375-9.12Q 153.4484375-4.59  150.1684375-2.06Q 146.8784375 0.47  141.2584375 0.47L 141.2584375 0.47Q 135.1684375 0.47  131.8784375-1.1L 131.8784375-1.1L 131.8784375-4.95Q 133.9884375-4.05  136.4784375-3.54Q 138.9584375-3.02  141.3984375-3.02L 141.3984375-3.02Q 145.3784375-3.02  147.3984375-4.54Q 149.4184375-6.05  149.4184375-8.74L 149.4184375-8.74Q 149.4184375-10.52  148.6984375-11.66Q 147.9884375-12.8  146.3084375-13.76Q 144.6284375-14.72  141.2084375-15.94L 141.2084375-15.94Q 136.4284375-17.65  134.3784375-19.99Q 132.3284375-22.34  132.3284375-26.11L 132.3284375-26.11Q 132.3284375-30.07  135.3084375-32.41Q 138.2784375-34.76  143.1784375-34.76L 143.1784375-34.76Q 148.2884375-34.76  152.5784375-32.88L 152.5784375-32.88L 151.3384375-29.41Q 147.0984375-31.2  143.0884375-31.2L 143.0884375-31.2Q 139.9184375-31.2  138.1384375-29.84Q 136.3584375-28.48  136.3584375-26.06L 136.3584375-26.06Q 136.3584375-24.28  137.0184375-23.14Q 137.6684375-22.01  139.2284375-21.06Q 140.7884375-20.11  143.9984375-18.96L 143.9984375-18.96Q 149.3884375-17.04  151.4184375-14.84Q 153.4484375-12.63  153.4484375-9.12ZM 182.0421875-12.87L 182.0421875-12.87Q 182.0421875-6.59  178.8721875-3.06Q 175.7121875 0.47  170.1321875 0.47L 170.1321875 0.47Q 166.6921875 0.47  164.0121875-1.15Q 161.3421875-2.77  159.8921875-5.79Q 158.4421875-8.81  158.4421875-12.87L 158.4421875-12.87Q 158.4421875-19.15  161.5821875-22.65Q 164.7221875-26.16  170.2921875-26.16L 170.2921875-26.16Q 175.6921875-26.16  178.8621875-22.57Q 182.0421875-18.98  182.0421875-12.87ZM 162.4721875-12.87L 162.4721875-12.87Q 162.4721875-7.95  164.4421875-5.37Q 166.4021875-2.79  170.2221875-2.79L 170.2221875-2.79Q 174.0421875-2.79  176.0321875-5.36Q 178.0121875-7.92  178.0121875-12.87L 178.0121875-12.87Q 178.0121875-17.77  176.0321875-20.31Q 174.0421875-22.85  170.1821875-22.85L 170.1821875-22.85Q 166.3621875-22.85  164.4121875-20.34Q 162.4721875-17.84  162.4721875-12.87ZM 192.754375-36.47L 192.754375 0L 188.864375 0L 188.864375-36.47L 192.754375-36.47ZM 200.715-25.69L 204.655-25.69L 204.655-9.02Q 204.655-5.88  206.085-4.34Q 207.515-2.79  210.565-2.79L 210.565-2.79Q 214.595-2.79  216.45499999999998-4.99Q 218.325-7.2  218.325-12.19L 218.325-12.19L 218.325-25.69L 222.215-25.69L 222.215 0L 219.005 0L 218.435-3.45L 218.225-3.45Q 217.035-1.55  214.915-0.54Q 212.785 0.47  210.075 0.47L 210.075 0.47Q 205.385 0.47  203.055-1.76Q 200.715-3.98  200.715-8.88L 200.715-8.88L 200.715-25.69ZM 238.7559375-2.74L 238.7559375-2.74Q 239.7859375-2.74  240.7459375-2.89Q 241.7159375-3.05  242.2759375-3.21L 242.2759375-3.21L 242.2759375-0.23Q 241.6359375 0.07  240.4059375 0.27Q 239.1759375 0.47  238.1959375 0.47L 238.1959375 0.47Q 230.7459375 0.47  230.7459375-7.38L 230.7459375-7.38L 230.7459375-22.66L 227.0659375-22.66L 227.0659375-24.54L 230.7459375-26.16L 232.3859375-31.64L 234.6359375-31.64L 234.6359375-25.69L 242.0859375-25.69L 242.0859375-22.66L 234.6359375-22.66L 234.6359375-7.55Q 234.6359375-5.23  235.7359375-3.98Q 236.8359375-2.74  238.7559375-2.74ZM 251.30125-25.69L 251.30125 0L 247.41125 0L 247.41125-25.69L 251.30125-25.69ZM 247.08125-32.65L 247.08125-32.65Q 247.08125-33.98  247.73125-34.61Q 248.39125-35.23  249.37125-35.23L 249.37125-35.23Q 250.31125-35.23  250.99125-34.59Q 251.67125-33.96  251.67125-32.65L 251.67125-32.65Q 251.67125-31.34  250.99125-30.69Q 250.31125-30.05  249.37125-30.05L 249.37125-30.05Q 248.39125-30.05  247.73125-30.69Q 247.08125-31.34  247.08125-32.65ZM 281.721875-12.87L 281.721875-12.87Q 281.721875-6.59  278.551875-3.06Q 275.391875 0.47  269.811875 0.47L 269.811875 0.47Q 266.371875 0.47  263.691875-1.15Q 261.021875-2.77  259.571875-5.79Q 258.121875-8.81  258.121875-12.87L 258.121875-12.87Q 258.121875-19.15  261.261875-22.65Q 264.401875-26.16  269.971875-26.16L 269.971875-26.16Q 275.371875-26.16  278.541875-22.57Q 281.721875-18.98  281.721875-12.87ZM 262.151875-12.87L 262.151875-12.87Q 262.151875-7.95  264.121875-5.37Q 266.081875-2.79  269.901875-2.79L 269.901875-2.79Q 273.721875-2.79  275.711875-5.36Q 277.691875-7.92  277.691875-12.87L 277.691875-12.87Q 277.691875-17.77  275.711875-20.31Q 273.721875-22.85  269.861875-22.85L 269.861875-22.85Q 266.041875-22.85  264.091875-20.34Q 262.151875-17.84  262.151875-12.87ZM 310.0040625 0L 306.1140625 0L 306.1140625-16.62Q 306.1140625-19.76  304.6840625-21.3Q 303.2540625-22.85  300.2140625-22.85L 300.2140625-22.85Q 296.1840625-22.85  294.3040625-20.67Q 292.4340625-18.49  292.4340625-13.48L 292.4340625-13.48L 292.4340625 0L 288.5440625 0L 288.5440625-25.69L 291.7040625-25.69L 292.3340625-22.17L 292.5240625-22.17Q 293.7140625-24.07  295.8740625-25.11Q 298.0340625-26.16  300.6840625-26.16L 300.6840625-26.16Q 305.3240625-26.16  307.6640625-23.92Q 310.0040625-21.68  310.0040625-16.76L 310.0040625-16.76L 310.0040625 0ZM 334.575-7.01L 334.575-7.01Q 334.575-3.42  331.895-1.48Q 329.225 0.47  324.395 0.47L 324.395 0.47Q 319.285 0.47  316.425-1.15L 316.425-1.15L 316.425-4.76Q 318.285-3.82  320.405-3.28Q 322.525-2.74  324.495-2.74L 324.495-2.74Q 327.535-2.74  329.175-3.71Q 330.825-4.69  330.825-6.68L 330.825-6.68Q 330.825-8.18  329.515-9.25Q 328.215-10.31  324.445-11.77L 324.445-11.77Q 320.855-13.1  319.345-14.1Q 317.835-15.09  317.095-16.36Q 316.355-17.63  316.355-19.38L 316.355-19.38Q 316.355-22.52  318.915-24.34Q 321.465-26.16  325.925-26.16L 325.925-26.16Q 330.075-26.16  334.035-24.47L 334.035-24.47L 332.645-21.3Q 328.785-22.9  325.645-22.9L 325.645-22.9Q 322.875-22.9  321.465-22.03Q 320.065-21.16  320.065-19.64L 320.065-19.64Q 320.065-18.61  320.585-17.88Q 321.115-17.16  322.285-16.5Q 323.465-15.84  326.785-14.6L 326.785-14.6Q 331.355-12.94  332.965-11.25Q 334.575-9.56  334.575-7.01Z" />
  <defs id="_dmF63MJCSPdjPBpukcsAl" transform="matrix(1.2348278760910034, 0, 0, 1.2348278760910034, -91.17610168457031, 147.64195251464844)" />
  <defs id="_dmF63MJCSPdjPBpukcsAl" transform="matrix(1.2348278760910034, 0, 0, 1.2348278760910034, -91.17610168457031, 147.64195251464844)" />
  <g transform="matrix(1.0378978252410889, 0, 0, 1.0378978252410889, 8.409448623657227, -2.4752421379089355)">
    <path id="_6MPHG1sevqtgf3L4HujLx" d="M35,65.833c0-8.587,3.535-16.36,9.219-21.956c-3.063-1.406-6.458-2.21-10.052-2.21C20.82,41.667,10,52.487,10,65.833  C10,79.18,20.82,90,34.167,90c3.594,0,6.988-0.804,10.052-2.21C38.535,82.194,35,74.421,35,65.833z" stroke="none" fill="#4bd18e" transform="matrix(0.733622670173645, 0.7597140073776245, -0.7597140073776245, 0.733622670173645, 160.13726806640625, 140.86181640625)" stroke-width="1" />
    <path id="_UwTGw_7hHC6DiiaZ34aOB" d="M65.833,65c-8.587,0-16.36-3.535-21.956-9.222c-1.406,3.066-2.21,6.461-2.21,10.055C41.667,79.18,52.487,90,65.833,90  C79.18,90,90,79.18,90,65.833c0-3.594-0.804-6.988-2.21-10.055C82.194,61.465,74.421,65,65.833,65z" stroke="none" fill="#f09116" transform="matrix(0.733622670173645, 0.7597140073776245, -0.7597140073776245, 0.733622670173645, 159.7329559326172, 140.27281188964844)" stroke-width="1" />
    <path id="_fXbuTUJzsYN1P7VrFDvTy" d="M65.833,10c-3.594,0-6.988,0.804-10.055,2.21C61.465,17.806,65,25.579,65,34.167c0,8.587-3.535,16.36-9.222,21.956  c3.066,1.406,6.461,2.21,10.055,2.21C79.18,58.333,90,47.513,90,34.167C90,20.82,79.18,10,65.833,10z" stroke="none" fill="#8188f5" transform="matrix(0.733622670173645, 0.7597140073776245, -0.7597140073776245, 0.733622670173645, 159.0599365234375, 140.75901794433594)" stroke-width="1" />
    <path id="_Gv_eQ6BGYVEs_FudcIAac" d="M34.167,35c8.587,0,16.36,3.535,21.956,9.219c1.406-3.063,2.21-6.458,2.21-10.052C58.333,20.82,47.513,10,34.167,10  C20.82,10,10,20.82,10,34.167c0,3.594,0.804,6.988,2.21,10.052C17.806,38.535,25.579,35,34.167,35z" stroke="none" fill="#253bb1" transform="matrix(0.733622670173645, 0.7597140073776245, -0.7597140073776245, 0.733622670173645, 159.63014221191406, 141.35092163085938)" stroke-width="1" />
  </g>
</svg>