<svg xmlns="http://www.w3.org/2000/svg" xmlns:xlink="http://www.w3.org/1999/xlink" width="745" height="206" viewBox="0 0 745 206">
  <defs>
    <clipPath id="clip-BP-Logo-Orange">
      <rect width="745" height="206"/>
    </clipPath>
  </defs>
  <g id="BP-Logo-Orange" clip-path="url(#clip-BP-Logo-Orange)">
    <g id="Group_18437" data-name="Group 18437">
      <g id="Group_11" data-name="Group 11" transform="translate(-312.543 -52)">
        <path id="Path_12750" data-name="Path 12750" d="M267.134,58.587c12.706,0,19.784,3.057,25.254,7.883a30.039,30.039,0,0,1,10.454,22.679c0,7.4-3.538,14.961-7.239,18.819,9.973,4.987,16.89,16.247,16.89,28.794A34.011,34.011,0,0,1,302.2,161.048c-6.274,6.274-14.96,10.137-29.437,10.137H228.85V58.587Zm-16.569,43.431h15.28c6.756,0,9.812-1.61,12.064-4.021a11.66,11.66,0,0,0,0-16.086c-2.252-2.413-5.308-4.022-12.064-4.022h-15.28Zm21.715,49.863c7.559,0,11.742-1.931,14.477-4.986a15.186,15.186,0,0,0,0-20.59c-2.735-3.057-6.917-4.986-14.477-4.986H250.565v30.561Z" transform="translate(83.693 -0.152)" fill="#fd521e"/>
        <path id="Path_12751" data-name="Path 12751" d="M365.783,111.453a29.1,29.1,0,0,0-7.561-.8c-9.168,0-16.405,6.592-18.98,11.259v49.061H318.331V92.955h20.107v7.882c4.666-5.791,13.189-9.491,22.681-9.491a42.417,42.417,0,0,1,7.076.644Z" transform="translate(84.284 0.064)" fill="#fd521e"/>
        <path id="Path_12752" data-name="Path 12752" d="M384.733,52.194a13.355,13.355,0,1,1-13.674,13.351,13.39,13.39,0,0,1,13.674-13.351m10.454,119.033h-20.91V93.212h20.91Z" transform="translate(84.63 -0.194)" fill="#fd521e"/>
        <path id="Path_12753" data-name="Path 12753" d="M484.246,166.625c0,13.994-2.412,22.36-7.077,28.955-7.078,9.811-19.624,15.6-34.582,15.6-15.283,0-29.758-7.077-37.479-16.086L418.3,181.422c4.183,4.507,11.421,11.262,24.291,11.262,6.754,0,12.384-2.091,15.923-6.276,3.216-3.537,4.826-8.362,4.826-18.336V165.5a32.9,32.9,0,0,1-20.91,7.078,39.568,39.568,0,0,1-29.6-13.189,41.753,41.753,0,0,1-9.812-27.347c0-23,17.051-40.7,38.282-40.7a35.736,35.736,0,0,1,22.843,7.882V92.955h20.105ZM463.336,120.3a23.982,23.982,0,0,0-19.3-9.65c-12.225,0-20.108,10.132-20.108,21.391,0,12.225,8.848,21.233,20.59,21.233a22.844,22.844,0,0,0,18.821-9.652Z" transform="translate(84.842 0.064)" fill="#fd521e"/>
        <path id="Path_12754" data-name="Path 12754" d="M515.456,171.194H494.545V56.988h20.911V98.81a34.548,34.548,0,0,1,21.234-7.237,35.144,35.144,0,0,1,27.023,12.547c5.148,6.11,8.043,13.995,8.043,27.346v39.729H550.843V129.855c0-7.72-1.768-11.741-4.663-14.637a16.444,16.444,0,0,0-11.744-4.341c-8.846,0-16.084,5.627-18.98,9.65Z" transform="translate(85.444 -0.163)" fill="#fd521e"/>
        <path id="Path_12755" data-name="Path 12755" d="M632.808,92.955h20.107v6.273a35.737,35.737,0,0,1,22.841-7.882c21.232,0,38.284,17.693,38.284,40.7a41.76,41.76,0,0,1-9.812,27.346,39.576,39.576,0,0,1-29.6,13.19,32.889,32.889,0,0,1-20.91-7.078v44.073H632.808Zm20.912,50.668a22.835,22.835,0,0,0,18.819,9.651c11.741,0,20.59-9.007,20.59-21.232,0-11.259-7.884-21.392-20.108-21.392a23.98,23.98,0,0,0-19.3,9.651Z" transform="translate(86.355 0.064)" fill="#fd521e"/>
        <path id="Path_12756" data-name="Path 12756" d="M789.561,158.583c-7.56,9.009-19.946,13.995-32.01,13.995-23.325,0-40.857-16.085-40.857-40.535,0-21.715,14.8-40.7,37.961-40.7,21.554,0,36.838,18.176,36.838,39.892a34.148,34.148,0,0,1-.487,5.95H736.961c1.125,10.939,9.974,18.5,21.073,18.5,8.845,0,15.921-4.984,19.624-9.008ZM770.1,121.909a15.557,15.557,0,0,0-15.442-13.672c-8.685,0-15.764,6.593-16.73,13.672Z" transform="translate(86.907 0.064)" fill="#fd521e"/>
        <path id="Path_12757" data-name="Path 12757" d="M875.418,170.968H855.313v-6.274a32.6,32.6,0,0,1-21.717,7.884,39.233,39.233,0,0,1-29.437-13.189,41.887,41.887,0,0,1-9.971-27.347c0-23,17.05-40.7,38.281-40.7a35.735,35.735,0,0,1,22.843,7.882V92.955h20.106ZM854.507,120.3a23.98,23.98,0,0,0-19.3-9.65c-12.225,0-20.105,10.132-20.105,21.391,0,12.225,8.846,21.233,20.589,21.233a22.842,22.842,0,0,0,18.818-9.652Z" transform="translate(87.418 0.064)" fill="#fd521e"/>
        <path id="Path_12758" data-name="Path 12758" d="M936.711,111.453a29.1,29.1,0,0,0-7.56-.8c-9.168,0-16.407,6.592-18.98,11.259v49.061H889.262V92.955h20.1v7.882c4.663-5.791,13.19-9.491,22.682-9.491a42.442,42.442,0,0,1,7.076.644Z" transform="translate(88.044 0.064)" fill="#fd521e"/>
        <rect id="Rectangle_5384" data-name="Rectangle 5384" width="20.911" height="114.206" transform="translate(1033.598 56.826)" fill="#fd521e"/>
        <path id="Path_12759" data-name="Path 12759" d="M623.11,111.037V92.054H604.733V56.988H583.5V147.87c0,15.283,9.65,24.45,25.093,24.45,6.274,0,10.133-1.125,12.064-1.929v-17.7a30.915,30.915,0,0,1-6.594.646c-6.113,0-9.33-2.252-9.33-9.17V111.037Z" transform="translate(86.03 -0.163)" fill="#fd521e"/>
      </g>
    </g>
    <g id="Group_18441" data-name="Group 18441">
      <path id="Path_14189" data-name="Path 14189" d="M308.182,65.425A12.177,12.177,0,0,0,295.7,77.292c0,.132,0,.265,0,.4,0,7.555,5.389,10.475,11.365,12.266,5.656,1.791,8.336,3.778,8.336,7.7a6.6,6.6,0,0,1-6.418,6.768c-.137,0-.273,0-.41,0a6.992,6.992,0,0,1-7.229-6.746c0-.115,0-.23,0-.346,0-2.384,1.121-2.986,1.121-4.313A2.565,2.565,0,0,0,300,90.355c-.1,0-.2,0-.3.006-1.955,0-3.993,2.988-3.993,7.233,0,6.838,5.848,11.869,12.872,11.869A12.174,12.174,0,0,0,321.054,97.6c0-.134.006-.267,0-.4,0-7.5-5.389-10.475-11.42-12.266-5.583-1.718-8.279-3.778-8.279-7.7a6.518,6.518,0,0,1,6.339-6.7c.141,0,.28,0,.418,0a6.97,6.97,0,0,1,7.284,6.64c0,.043,0,.085,0,.128a2.8,2.8,0,0,0,5.59.081,1.919,1.919,0,0,0-.006-.222c-.124-6.838-5.835-11.745-12.8-11.745m28.5,43.978c3.154,0,5.583-1.056,5.583-3.184a2.631,2.631,0,0,0-2.568-2.651c-.922,0-1.577.395-3.086.395a7.488,7.488,0,0,1-7.289-7.626,7.658,7.658,0,0,1,7.34-7.961l.088,0c4.663,0,7.624,3.581,7.624,8.755v9.487a2.855,2.855,0,1,0,5.709,0V96.918c0-7.95-5.444-13.787-13.207-13.787a13.133,13.133,0,0,0-.194,26.264m28.9,17.778A12.178,12.178,0,0,0,378.066,115.3c0-.132,0-.265,0-.4,0-7.557-5.391-10.475-11.423-12.266-5.583-1.791-8.279-3.778-8.279-7.7a6.613,6.613,0,0,1,6.454-6.768c.1,0,.2,0,.305,0a7.038,7.038,0,0,1,7.284,6.783c0,.1,0,.207,0,.309,0,2.4-1.12,2.988-1.12,4.315a2.547,2.547,0,0,0,2.435,2.653c.085,0,.173,0,.26,0,2.038,0,4.076-2.988,4.076-7.233,0-6.838-5.905-11.871-12.942-11.871a12.12,12.12,0,0,0-12.409,11.82c0,.147,0,.3,0,.446,0,7.5,5.321,10.473,11.363,12.263,5.656,1.722,8.338,3.778,8.338,7.7a6.519,6.519,0,0,1-6.337,6.7c-.141,0-.282,0-.423,0a6.884,6.884,0,0,1-7.276-6.471q-.01-.147-.013-.295a2.75,2.75,0,0,0-2.706-2.792h-.058a2.685,2.685,0,0,0-2.826,2.533,2.926,2.926,0,0,0,.006.386c.055,6.921,5.767,11.758,12.8,11.758M394.1,109.4a16.117,16.117,0,0,0,8.6-2.326c1.97-1.255,2.751-2.324,2.751-3.511a2.4,2.4,0,0,0-2.4-2.395c-.075,0-.149,0-.222.011-2.04,0-3.673,3.048-8.671,3.048a7.863,7.863,0,0,1-7.886-7.839v-.113a7.756,7.756,0,0,1,7.542-7.963h.011c4.538,0,6.968,2.986,6.968,4.907,0,.534-.391.8-.92.8h-5.515a2.429,2.429,0,0,0-2.621,2.22l-.007.107a2.508,2.508,0,0,0,2.484,2.527c.047,0,.094,0,.143,0h7.553c2.888,0,4.661-1.524,4.661-4.115,0-6.5-5.515-11.6-12.816-11.6a13.066,13.066,0,0,0-13.066,13.066v.06A13.282,13.282,0,0,0,394.1,109.4" transform="translate(335.398 74.204)" fill="#041639"/>
      <path id="Path_14190" data-name="Path 14190" d="M268.149,71.11h4.636v11.8h.28a7.15,7.15,0,0,1,6.836-4.17c5.75,0,10,4.542,10,12.261s-4.185,12.325-9.952,12.325a7.268,7.268,0,0,1-6.883-4.172h-.388v3.707h-4.527Zm10.759,28.26c4.138,0,6.309-3.643,6.309-8.417,0-4.727-2.107-8.279-6.309-8.279-4.047,0-6.215,3.3-6.215,8.279,0,5,2.232,8.417,6.215,8.417" transform="translate(304.149 80.657)" fill="#041639"/>
      <path id="Path_14191" data-name="Path 14191" d="M281.133,107.057l1.116-3.8c2.542.7,4.2.435,5.378-2.73l.574-1.579L279.49,74.828h4.96l6.031,18.478h.248l6.029-18.478h4.977l-9.813,26.99c-1.379,3.752-3.8,5.75-7.626,5.75a8.829,8.829,0,0,1-3.163-.51" transform="translate(317.013 84.874)" fill="#041639"/>
    </g>
  </g>
</svg>
