<?xml version="1.0" encoding="UTF-8"?>
<svg xmlns="http://www.w3.org/2000/svg" xmlns:xlink="http://www.w3.org/1999/xlink" width="300px" height="83px" viewBox="0 0 300 83" version="1.1">
<g id="surface1">
<path style=" stroke:none;fill-rule:nonzero;fill:rgb(99.215686%,32.156863%,11.764706%);fill-opacity:1;" d="M 15.417969 2.59375 C 20.53125 2.59375 23.382812 3.824219 25.585938 5.769531 C 28.246094 8.058594 29.785156 11.394531 29.796875 14.90625 C 29.796875 17.886719 28.371094 20.933594 26.878906 22.488281 C 30.894531 24.5 33.683594 29.035156 33.683594 34.089844 C 33.671875 37.777344 32.179688 41.304688 29.535156 43.875 C 27.011719 46.402344 23.511719 47.960938 17.683594 47.960938 L 0 47.960938 L 0 2.59375 Z M 8.746094 20.089844 L 14.898438 20.089844 C 17.617188 20.089844 18.847656 19.441406 19.753906 18.472656 C 21.484375 16.65625 21.484375 13.804688 19.753906 11.992188 C 18.847656 11.019531 17.617188 10.371094 14.898438 10.371094 L 8.746094 10.371094 Z M 17.488281 40.183594 C 20.53125 40.183594 22.21875 39.402344 23.316406 38.171875 C 25.476562 35.828125 25.476562 32.21875 23.316406 29.878906 C 22.21875 28.644531 20.53125 27.867188 17.488281 27.867188 L 8.746094 27.867188 L 8.746094 40.183594 Z M 17.488281 40.183594 "/>
<path style=" stroke:none;fill-rule:nonzero;fill:rgb(99.215686%,32.156863%,11.764706%);fill-opacity:1;" d="M 55.378906 23.980469 C 54.382812 23.738281 53.359375 23.632812 52.335938 23.65625 C 48.640625 23.65625 45.726562 26.3125 44.691406 28.195312 L 44.691406 47.960938 L 36.269531 47.960938 L 36.269531 16.527344 L 44.367188 16.527344 L 44.367188 19.703125 C 46.246094 17.371094 49.679688 15.878906 53.5 15.878906 C 54.457031 15.886719 55.410156 15.972656 56.351562 16.136719 Z M 55.378906 23.980469 "/>
<path style=" stroke:none;fill-rule:nonzero;fill:rgb(99.215686%,32.156863%,11.764706%);fill-opacity:1;" d="M 63.148438 0 C 66.101562 0.0703125 68.445312 2.511719 68.398438 5.464844 C 68.351562 8.417969 65.929688 10.785156 62.976562 10.761719 C 60.023438 10.738281 57.644531 8.335938 57.644531 5.378906 C 57.648438 3.929688 58.230469 2.546875 59.269531 1.535156 C 60.304688 0.523438 61.703125 -0.03125 63.148438 0 M 67.359375 47.960938 L 58.9375 47.960938 L 58.9375 16.527344 L 67.359375 16.527344 Z M 67.359375 47.960938 "/>
<path style=" stroke:none;fill-rule:nonzero;fill:rgb(99.215686%,32.156863%,11.764706%);fill-opacity:1;" d="M 103.308594 46.210938 C 103.308594 51.847656 102.335938 55.21875 100.457031 57.875 C 97.605469 61.828125 92.554688 64.160156 86.53125 64.160156 C 80.378906 64.160156 74.546875 61.308594 71.4375 57.679688 L 76.75 52.171875 C 78.4375 53.988281 81.351562 56.710938 86.53125 56.710938 C 89.253906 56.710938 91.519531 55.867188 92.945312 54.179688 C 94.238281 52.753906 94.886719 50.8125 94.886719 46.792969 L 94.886719 45.757812 C 92.492188 47.648438 89.519531 48.65625 86.46875 48.609375 C 81.917969 48.621094 77.582031 46.6875 74.546875 43.292969 C 71.957031 40.214844 70.554688 36.304688 70.597656 32.277344 C 70.597656 23.007812 77.464844 15.878906 86.011719 15.878906 C 89.355469 15.835938 92.605469 16.957031 95.210938 19.054688 L 95.210938 16.527344 L 103.308594 16.527344 Z M 94.886719 27.542969 C 93.058594 25.089844 90.175781 23.648438 87.113281 23.65625 C 82.191406 23.65625 79.019531 27.738281 79.019531 32.273438 C 79.019531 37.199219 82.582031 40.832031 87.308594 40.832031 C 90.320312 40.851562 93.148438 39.402344 94.886719 36.941406 Z M 94.886719 27.542969 "/>
<path style=" stroke:none;fill-rule:nonzero;fill:rgb(99.215686%,32.156863%,11.764706%);fill-opacity:1;" d="M 116.117188 47.960938 L 107.695312 47.960938 L 107.695312 1.945312 L 116.117188 1.945312 L 116.117188 18.792969 C 118.5625 16.898438 121.574219 15.871094 124.667969 15.878906 C 128.863281 15.867188 132.851562 17.71875 135.550781 20.933594 C 137.621094 23.394531 138.789062 26.574219 138.789062 31.953125 L 138.789062 47.960938 L 130.367188 47.960938 L 130.367188 31.304688 C 130.367188 28.191406 129.65625 26.574219 128.488281 25.40625 C 127.203125 24.222656 125.503906 23.59375 123.761719 23.65625 C 120.199219 23.65625 117.28125 25.921875 116.117188 27.542969 Z M 116.117188 47.960938 "/>
<path style=" stroke:none;fill-rule:nonzero;fill:rgb(99.215686%,32.156863%,11.764706%);fill-opacity:1;" d="M 163.738281 16.527344 L 171.835938 16.527344 L 171.835938 19.054688 C 174.441406 16.960938 177.691406 15.835938 181.035156 15.878906 C 189.582031 15.878906 196.449219 23.007812 196.449219 32.277344 C 196.492188 36.304688 195.09375 40.214844 192.5 43.296875 C 189.464844 46.6875 185.128906 48.621094 180.578125 48.609375 C 177.527344 48.660156 174.554688 47.652344 172.160156 45.757812 L 172.160156 63.515625 L 163.738281 63.515625 Z M 172.160156 36.941406 C 173.898438 39.402344 176.730469 40.851562 179.738281 40.832031 C 184.464844 40.832031 188.03125 37.203125 188.03125 32.277344 C 188.03125 27.738281 184.855469 23.65625 179.933594 23.65625 C 176.871094 23.648438 173.988281 25.089844 172.160156 27.546875 Z M 172.160156 36.941406 "/>
<path style=" stroke:none;fill-rule:nonzero;fill:rgb(99.215686%,32.156863%,11.764706%);fill-opacity:1;" d="M 227.082031 42.96875 C 224.039062 46.597656 219.050781 48.609375 214.195312 48.609375 C 204.800781 48.609375 197.742188 42.128906 197.742188 32.277344 C 197.742188 23.527344 203.703125 15.878906 213.027344 15.878906 C 221.707031 15.878906 227.863281 23.199219 227.863281 31.949219 C 227.867188 32.753906 227.800781 33.554688 227.664062 34.347656 L 205.902344 34.347656 C 206.355469 38.753906 209.917969 41.800781 214.386719 41.800781 C 217.949219 41.800781 220.800781 39.792969 222.289062 38.171875 Z M 219.246094 28.191406 C 218.863281 25.046875 216.195312 22.683594 213.027344 22.683594 C 209.53125 22.683594 206.679688 25.339844 206.292969 28.191406 Z M 219.246094 28.191406 "/>
<path style=" stroke:none;fill-rule:nonzero;fill:rgb(99.215686%,32.156863%,11.764706%);fill-opacity:1;" d="M 261.863281 47.960938 L 253.765625 47.960938 L 253.765625 45.429688 C 251.335938 47.523438 248.226562 48.652344 245.023438 48.609375 C 240.492188 48.621094 236.175781 46.683594 233.167969 43.292969 C 230.554688 40.21875 229.132812 36.3125 229.152344 32.277344 C 229.152344 23.007812 236.019531 15.878906 244.566406 15.878906 C 247.910156 15.835938 251.160156 16.957031 253.765625 19.054688 L 253.765625 16.527344 L 261.863281 16.527344 Z M 253.441406 27.542969 C 251.613281 25.089844 248.730469 23.648438 245.671875 23.65625 C 240.746094 23.65625 237.574219 27.738281 237.574219 32.273438 C 237.574219 37.199219 241.136719 40.832031 245.867188 40.832031 C 248.875 40.851562 251.707031 39.398438 253.441406 36.941406 Z M 253.441406 27.542969 "/>
<path style=" stroke:none;fill-rule:nonzero;fill:rgb(99.215686%,32.156863%,11.764706%);fill-opacity:1;" d="M 286.796875 23.980469 C 285.800781 23.738281 284.777344 23.632812 283.753906 23.65625 C 280.0625 23.65625 277.144531 26.3125 276.109375 28.195312 L 276.109375 47.960938 L 267.691406 47.960938 L 267.691406 16.527344 L 275.785156 16.527344 L 275.785156 19.703125 C 277.660156 17.371094 281.09375 15.878906 284.917969 15.878906 C 285.871094 15.886719 286.824219 15.972656 287.765625 16.136719 Z M 286.796875 23.980469 "/>
<path style=" stroke:none;fill-rule:nonzero;fill:rgb(99.215686%,32.156863%,11.764706%);fill-opacity:1;" d="M 290.359375 1.945312 L 298.777344 1.945312 L 298.777344 47.960938 L 290.359375 47.960938 Z M 290.359375 1.945312 "/>
<path style=" stroke:none;fill-rule:nonzero;fill:rgb(99.215686%,32.156863%,11.764706%);fill-opacity:1;" d="M 159.703125 23.722656 L 159.703125 16.074219 L 152.304688 16.074219 L 152.304688 1.945312 L 143.753906 1.945312 L 143.753906 38.5625 C 143.753906 44.71875 147.640625 48.414062 153.859375 48.414062 C 156.382812 48.414062 157.9375 47.960938 158.714844 47.636719 L 158.714844 40.503906 C 157.84375 40.6875 156.953125 40.773438 156.058594 40.765625 C 153.597656 40.765625 152.304688 39.855469 152.304688 37.070312 L 152.304688 23.722656 Z M 159.703125 23.722656 "/>
<path style=" stroke:none;fill-rule:nonzero;fill:rgb(1.568627%,8.627451%,22.352941%);fill-opacity:1;" d="M 259.160156 56.257812 C 256.453125 56.191406 254.203125 58.332031 254.132812 61.039062 L 254.132812 61.199219 C 254.132812 64.246094 256.304688 65.421875 258.710938 66.144531 C 260.988281 66.863281 262.066406 67.664062 262.066406 69.246094 C 262.105469 70.710938 260.949219 71.933594 259.480469 71.972656 L 259.316406 71.972656 C 257.761719 72.027344 256.460938 70.808594 256.40625 69.253906 L 256.40625 69.113281 C 256.40625 68.152344 256.859375 67.910156 256.859375 67.378906 C 256.867188 67.101562 256.769531 66.835938 256.582031 66.632812 C 256.398438 66.433594 256.140625 66.3125 255.863281 66.304688 C 255.824219 66.304688 255.785156 66.304688 255.746094 66.304688 C 254.957031 66.304688 254.136719 67.507812 254.136719 69.21875 C 254.136719 71.976562 256.492188 74 259.320312 74 C 262.027344 74.070312 264.273438 71.929688 264.34375 69.222656 C 264.34375 69.167969 264.34375 69.113281 264.34375 69.0625 C 264.34375 66.039062 262.171875 64.839844 259.746094 64.117188 C 257.496094 63.425781 256.410156 62.597656 256.410156 61.015625 C 256.390625 60.320312 256.648438 59.644531 257.128906 59.136719 C 257.605469 58.628906 258.265625 58.335938 258.964844 58.316406 L 259.132812 58.316406 C 260.679688 58.246094 261.992188 59.441406 262.066406 60.992188 L 262.066406 61.042969 C 262.089844 61.640625 262.578125 62.113281 263.175781 62.121094 C 263.773438 62.132812 264.273438 61.671875 264.316406 61.078125 C 264.316406 61.046875 264.316406 61.015625 264.3125 60.988281 C 264.261719 58.230469 261.964844 56.253906 259.160156 56.253906 M 270.636719 73.972656 C 271.90625 73.972656 272.882812 73.546875 272.882812 72.691406 C 272.886719 72.113281 272.429688 71.636719 271.847656 71.621094 C 271.476562 71.621094 271.214844 71.78125 270.605469 71.78125 C 268.949219 71.738281 267.640625 70.367188 267.671875 68.710938 C 267.601562 67.007812 268.925781 65.570312 270.628906 65.5 L 270.664062 65.5 C 272.539062 65.5 273.734375 66.945312 273.734375 69.03125 L 273.734375 72.851562 C 273.726562 73.269531 273.941406 73.65625 274.300781 73.867188 C 274.660156 74.078125 275.105469 74.078125 275.464844 73.867188 C 275.820312 73.65625 276.039062 73.269531 276.03125 72.851562 L 276.03125 68.945312 C 276.03125 65.742188 273.839844 63.390625 270.714844 63.390625 C 267.8125 63.398438 265.460938 65.742188 265.4375 68.644531 C 265.417969 71.546875 267.734375 73.925781 270.636719 73.972656 M 282.273438 81.136719 C 284.980469 81.207031 287.234375 79.0625 287.300781 76.355469 L 287.300781 76.191406 C 287.300781 73.148438 285.128906 71.972656 282.699219 71.25 C 280.453125 70.527344 279.367188 69.726562 279.367188 68.148438 C 279.332031 66.675781 280.496094 65.457031 281.964844 65.421875 L 282.089844 65.421875 C 283.652344 65.363281 284.964844 66.589844 285.023438 68.152344 L 285.023438 68.277344 C 285.023438 69.246094 284.570312 69.480469 284.570312 70.015625 C 284.546875 70.582031 284.984375 71.0625 285.550781 71.085938 L 285.65625 71.085938 C 286.476562 71.085938 287.296875 69.882812 287.296875 68.171875 C 287.296875 65.417969 284.917969 63.386719 282.085938 63.386719 C 279.390625 63.324219 277.15625 65.457031 277.089844 68.152344 L 277.089844 68.332031 C 277.089844 71.351562 279.230469 72.550781 281.664062 73.273438 C 283.941406 73.964844 285.023438 74.792969 285.023438 76.375 C 285.0625 77.824219 283.921875 79.035156 282.472656 79.074219 L 282.300781 79.074219 C 280.773438 79.164062 279.460938 77.996094 279.371094 76.464844 C 279.367188 76.425781 279.367188 76.386719 279.367188 76.347656 C 279.375 75.734375 278.886719 75.230469 278.277344 75.222656 L 278.253906 75.222656 C 277.65625 75.191406 277.148438 75.648438 277.113281 76.242188 C 277.113281 76.296875 277.113281 76.347656 277.117188 76.398438 C 277.140625 79.1875 279.4375 81.136719 282.269531 81.136719 M 293.757812 73.976562 C 294.976562 73.996094 296.175781 73.671875 297.21875 73.039062 C 298.015625 72.535156 298.328125 72.101562 298.328125 71.625 C 298.328125 71.089844 297.894531 70.660156 297.363281 70.660156 C 297.332031 70.660156 297.300781 70.660156 297.273438 70.664062 C 296.449219 70.664062 295.792969 71.890625 293.78125 71.890625 C 292.03125 71.898438 290.609375 70.484375 290.605469 68.734375 L 290.605469 68.6875 C 290.558594 66.964844 291.917969 65.527344 293.640625 65.480469 L 293.648438 65.480469 C 295.472656 65.480469 296.453125 66.683594 296.453125 67.457031 C 296.453125 67.671875 296.296875 67.777344 296.082031 67.777344 L 293.863281 67.777344 C 293.324219 67.734375 292.851562 68.136719 292.804688 68.671875 L 292.804688 68.714844 C 292.800781 69.273438 293.246094 69.730469 293.804688 69.734375 L 296.902344 69.734375 C 298.066406 69.734375 298.78125 69.121094 298.78125 68.078125 C 298.78125 65.457031 296.558594 63.402344 293.617188 63.402344 C 290.710938 63.402344 288.355469 65.761719 288.355469 68.667969 L 288.355469 68.691406 C 288.394531 71.640625 290.808594 74.003906 293.757812 73.976562 "/>
<path style=" stroke:none;fill-rule:nonzero;fill:rgb(1.568627%,8.627451%,22.352941%);fill-opacity:1;" d="M 230.457031 61.148438 L 232.324219 61.148438 L 232.324219 65.902344 L 232.433594 65.902344 C 232.925781 64.832031 234.011719 64.167969 235.1875 64.222656 C 237.503906 64.222656 239.214844 66.054688 239.214844 69.164062 C 239.214844 72.273438 237.53125 74.128906 235.207031 74.128906 C 234.03125 74.179688 232.9375 73.515625 232.4375 72.449219 L 232.28125 72.449219 L 232.28125 73.941406 L 230.457031 73.941406 Z M 234.789062 72.535156 C 236.453125 72.535156 237.328125 71.066406 237.328125 69.144531 C 237.328125 67.238281 236.480469 65.808594 234.789062 65.808594 C 233.160156 65.808594 232.285156 67.136719 232.285156 69.144531 C 232.285156 71.160156 233.183594 72.535156 234.789062 72.535156 "/>
<path style=" stroke:none;fill-rule:nonzero;fill:rgb(1.568627%,8.627451%,22.352941%);fill-opacity:1;" d="M 240.863281 77.332031 L 241.3125 75.800781 C 242.335938 76.082031 243.003906 75.976562 243.480469 74.699219 L 243.710938 74.0625 L 240.203125 64.347656 L 242.199219 64.347656 L 244.628906 71.789062 L 244.726562 71.789062 L 247.15625 64.347656 L 249.160156 64.347656 L 245.207031 75.21875 C 244.652344 76.730469 243.679688 77.539062 242.136719 77.539062 C 241.703125 77.546875 241.273438 77.476562 240.863281 77.332031 "/>
</g>
</svg>
