<?xml version="1.0" encoding="UTF-8"?>
<svg xmlns="http://www.w3.org/2000/svg" xmlns:xlink="http://www.w3.org/1999/xlink" width="150px" height="41px" viewBox="0 0 148 41" version="1.1">
<g id="surface1">
<path style=" stroke:none;fill-rule:nonzero;fill:rgb(99.215686%,32.156863%,11.764706%);fill-opacity:1;" d="M 7.605469 1.28125 C 10.128906 1.28125 11.535156 1.890625 12.621094 2.851562 C 13.9375 3.980469 14.695312 5.628906 14.699219 7.363281 C 14.699219 8.835938 13.996094 10.339844 13.261719 11.109375 C 15.242188 12.101562 16.617188 14.34375 16.617188 16.839844 C 16.613281 18.660156 15.875 20.402344 14.570312 21.671875 C 13.324219 22.921875 11.601562 23.691406 8.722656 23.691406 L 0 23.691406 L 0 1.28125 Z M 4.3125 9.925781 L 7.347656 9.925781 C 8.691406 9.925781 9.296875 9.605469 9.746094 9.125 C 10.597656 8.226562 10.597656 6.820312 9.746094 5.921875 C 9.296875 5.441406 8.691406 5.121094 7.347656 5.121094 L 4.3125 5.121094 Z M 8.628906 19.847656 C 10.128906 19.847656 10.960938 19.464844 11.503906 18.855469 C 12.570312 17.699219 12.570312 15.917969 11.503906 14.757812 C 10.960938 14.148438 10.128906 13.765625 8.628906 13.765625 L 4.3125 13.765625 L 4.3125 19.847656 Z M 8.628906 19.847656 "/>
<path style=" stroke:none;fill-rule:nonzero;fill:rgb(99.215686%,32.156863%,11.764706%);fill-opacity:1;" d="M 27.320312 11.84375 C 26.828125 11.726562 26.324219 11.671875 25.816406 11.6875 C 23.996094 11.6875 22.558594 13 22.046875 13.925781 L 22.046875 23.691406 L 17.894531 23.691406 L 17.894531 8.164062 L 21.886719 8.164062 L 21.886719 9.734375 C 22.816406 8.582031 24.507812 7.84375 26.394531 7.84375 C 26.863281 7.847656 27.335938 7.890625 27.800781 7.972656 Z M 27.320312 11.84375 "/>
<path style=" stroke:none;fill-rule:nonzero;fill:rgb(99.215686%,32.156863%,11.764706%);fill-opacity:1;" d="M 31.152344 0 C 32.609375 0.0351562 33.765625 1.238281 33.742188 2.699219 C 33.71875 4.160156 32.527344 5.328125 31.070312 5.316406 C 29.613281 5.304688 28.4375 4.117188 28.4375 2.65625 C 28.4375 1.941406 28.726562 1.257812 29.238281 0.757812 C 29.75 0.257812 30.441406 -0.015625 31.152344 0 M 33.230469 23.691406 L 29.078125 23.691406 L 29.078125 8.164062 L 33.230469 8.164062 Z M 33.230469 23.691406 "/>
<path style=" stroke:none;fill-rule:nonzero;fill:rgb(99.215686%,32.156863%,11.764706%);fill-opacity:1;" d="M 50.964844 22.828125 C 50.964844 25.613281 50.484375 27.277344 49.558594 28.589844 C 48.152344 30.542969 45.660156 31.695312 42.6875 31.695312 C 39.652344 31.695312 36.777344 30.285156 35.242188 28.492188 L 37.863281 25.773438 C 38.695312 26.667969 40.132812 28.011719 42.691406 28.011719 C 44.03125 28.011719 45.148438 27.597656 45.851562 26.765625 C 46.492188 26.058594 46.8125 25.097656 46.8125 23.113281 L 46.8125 22.601562 C 45.628906 23.539062 44.164062 24.035156 42.65625 24.011719 C 40.414062 24.015625 38.273438 23.0625 36.777344 21.386719 C 35.5 19.863281 34.804688 17.933594 34.828125 15.945312 C 34.828125 11.367188 38.214844 7.84375 42.433594 7.84375 C 44.082031 7.820312 45.6875 8.375 46.972656 9.410156 L 46.972656 8.164062 L 50.964844 8.164062 Z M 46.8125 13.605469 C 45.910156 12.394531 44.484375 11.679688 42.976562 11.6875 C 40.546875 11.6875 38.980469 13.703125 38.980469 15.941406 C 38.980469 18.375 40.738281 20.167969 43.074219 20.167969 C 44.558594 20.179688 45.953125 19.460938 46.8125 18.25 Z M 46.8125 13.605469 "/>
<path style=" stroke:none;fill-rule:nonzero;fill:rgb(99.215686%,32.156863%,11.764706%);fill-opacity:1;" d="M 57.285156 23.691406 L 53.128906 23.691406 L 53.128906 0.960938 L 57.285156 0.960938 L 57.285156 9.285156 C 58.492188 8.347656 59.976562 7.839844 61.503906 7.84375 C 63.574219 7.835938 65.539062 8.753906 66.871094 10.339844 C 67.894531 11.558594 68.46875 13.125 68.46875 15.785156 L 68.46875 23.691406 L 64.3125 23.691406 L 64.3125 15.464844 C 64.3125 13.925781 63.964844 13.125 63.386719 12.550781 C 62.753906 11.964844 61.914062 11.65625 61.054688 11.6875 C 59.296875 11.6875 57.859375 12.804688 57.285156 13.605469 Z M 57.285156 23.691406 "/>
<path style=" stroke:none;fill-rule:nonzero;fill:rgb(99.215686%,32.156863%,11.764706%);fill-opacity:1;" d="M 80.777344 8.164062 L 84.773438 8.164062 L 84.773438 9.414062 C 86.058594 8.378906 87.660156 7.824219 89.308594 7.84375 C 93.527344 7.84375 96.914062 11.363281 96.914062 15.945312 C 96.9375 17.933594 96.246094 19.863281 94.964844 21.386719 C 93.46875 23.0625 91.332031 24.019531 89.085938 24.011719 C 87.582031 24.035156 86.113281 23.539062 84.933594 22.601562 L 84.933594 31.375 L 80.777344 31.375 Z M 84.933594 18.25 C 85.789062 19.464844 87.1875 20.179688 88.671875 20.167969 C 91.003906 20.167969 92.761719 18.375 92.761719 15.945312 C 92.761719 13.703125 91.195312 11.6875 88.765625 11.6875 C 87.257812 11.679688 85.835938 12.394531 84.933594 13.605469 Z M 84.933594 18.25 "/>
<path style=" stroke:none;fill-rule:nonzero;fill:rgb(99.215686%,32.156863%,11.764706%);fill-opacity:1;" d="M 112.027344 21.226562 C 110.527344 23.019531 108.066406 24.011719 105.667969 24.011719 C 101.035156 24.011719 97.550781 20.808594 97.550781 15.945312 C 97.550781 11.621094 100.492188 7.84375 105.09375 7.84375 C 109.375 7.84375 112.410156 11.460938 112.410156 15.78125 C 112.414062 16.179688 112.382812 16.574219 112.316406 16.96875 L 101.578125 16.96875 C 101.800781 19.144531 103.558594 20.648438 105.765625 20.648438 C 107.523438 20.648438 108.929688 19.65625 109.664062 18.855469 Z M 108.160156 13.925781 C 107.972656 12.375 106.65625 11.207031 105.09375 11.207031 C 103.367188 11.207031 101.960938 12.519531 101.769531 13.925781 Z M 108.160156 13.925781 "/>
<path style=" stroke:none;fill-rule:nonzero;fill:rgb(99.215686%,32.156863%,11.764706%);fill-opacity:1;" d="M 129.1875 23.691406 L 125.191406 23.691406 L 125.191406 22.441406 C 123.992188 23.476562 122.457031 24.035156 120.878906 24.011719 C 118.644531 24.015625 116.511719 23.0625 115.03125 21.386719 C 113.742188 19.867188 113.039062 17.9375 113.046875 15.945312 C 113.046875 11.367188 116.4375 7.84375 120.652344 7.84375 C 122.300781 7.820312 123.90625 8.375 125.191406 9.410156 L 125.191406 8.164062 L 129.1875 8.164062 Z M 125.03125 13.605469 C 124.128906 12.394531 122.707031 11.679688 121.199219 11.6875 C 118.769531 11.6875 117.203125 13.703125 117.203125 15.941406 C 117.203125 18.375 118.960938 20.167969 121.292969 20.167969 C 122.777344 20.179688 124.175781 19.460938 125.03125 18.25 Z M 125.03125 13.605469 "/>
<path style=" stroke:none;fill-rule:nonzero;fill:rgb(99.215686%,32.156863%,11.764706%);fill-opacity:1;" d="M 141.488281 11.84375 C 140.996094 11.726562 140.488281 11.671875 139.984375 11.6875 C 138.164062 11.6875 136.726562 13 136.214844 13.925781 L 136.214844 23.691406 L 132.058594 23.691406 L 132.058594 8.164062 L 136.054688 8.164062 L 136.054688 9.734375 C 136.980469 8.582031 138.671875 7.84375 140.558594 7.84375 C 141.03125 7.847656 141.5 7.890625 141.964844 7.972656 Z M 141.488281 11.84375 "/>
<path style=" stroke:none;fill-rule:nonzero;fill:rgb(99.215686%,32.156863%,11.764706%);fill-opacity:1;" d="M 143.242188 0.960938 L 147.398438 0.960938 L 147.398438 23.691406 L 143.242188 23.691406 Z M 143.242188 0.960938 "/>
<path style=" stroke:none;fill-rule:nonzero;fill:rgb(99.215686%,32.156863%,11.764706%);fill-opacity:1;" d="M 78.785156 11.71875 L 78.785156 7.941406 L 75.136719 7.941406 L 75.136719 0.960938 L 70.917969 0.960938 L 70.917969 19.046875 C 70.917969 22.089844 72.835938 23.914062 75.902344 23.914062 C 77.148438 23.914062 77.917969 23.691406 78.300781 23.53125 L 78.300781 20.007812 C 77.867188 20.097656 77.429688 20.140625 76.988281 20.136719 C 75.777344 20.136719 75.136719 19.6875 75.136719 18.3125 L 75.136719 11.71875 Z M 78.785156 11.71875 "/>
<path style=" stroke:none;fill-rule:nonzero;fill:rgb(1.568627%,8.627451%,22.352941%);fill-opacity:1;" d="M 127.851562 27.789062 C 126.515625 27.757812 125.40625 28.8125 125.371094 30.152344 L 125.371094 30.230469 C 125.371094 31.734375 126.441406 32.316406 127.628906 32.671875 C 128.753906 33.03125 129.285156 33.425781 129.285156 34.207031 C 129.304688 34.929688 128.734375 35.53125 128.011719 35.550781 L 127.929688 35.550781 C 127.164062 35.578125 126.519531 34.976562 126.492188 34.210938 L 126.492188 34.140625 C 126.492188 33.667969 126.714844 33.546875 126.714844 33.28125 C 126.722656 33.148438 126.671875 33.015625 126.582031 32.914062 C 126.488281 32.816406 126.363281 32.757812 126.226562 32.753906 C 126.207031 32.753906 126.1875 32.753906 126.167969 32.753906 C 125.777344 32.753906 125.375 33.347656 125.375 34.191406 C 125.375 35.554688 126.535156 36.554688 127.929688 36.554688 C 129.265625 36.589844 130.375 35.53125 130.410156 34.195312 C 130.410156 34.167969 130.410156 34.140625 130.410156 34.113281 C 130.410156 32.621094 129.339844 32.03125 128.140625 31.671875 C 127.03125 31.332031 126.496094 30.921875 126.496094 30.140625 C 126.484375 29.796875 126.613281 29.460938 126.851562 29.210938 C 127.085938 28.960938 127.410156 28.816406 127.753906 28.808594 L 127.839844 28.808594 C 128.601562 28.773438 129.25 29.363281 129.285156 30.128906 L 129.285156 30.152344 C 129.296875 30.449219 129.539062 30.683594 129.832031 30.6875 C 130.128906 30.691406 130.375 30.464844 130.394531 30.171875 C 130.394531 30.15625 130.394531 30.140625 130.394531 30.125 C 130.371094 28.765625 129.234375 27.789062 127.851562 27.789062 M 133.511719 36.542969 C 134.140625 36.542969 134.621094 36.332031 134.621094 35.90625 C 134.625 35.621094 134.398438 35.386719 134.113281 35.378906 C 133.929688 35.378906 133.800781 35.457031 133.5 35.457031 C 132.683594 35.4375 132.035156 34.757812 132.050781 33.941406 C 132.015625 33.101562 132.671875 32.390625 133.507812 32.355469 L 133.527344 32.355469 C 134.453125 32.355469 135.042969 33.070312 135.042969 34.097656 L 135.042969 35.988281 C 135.039062 36.191406 135.144531 36.382812 135.320312 36.488281 C 135.5 36.59375 135.71875 36.59375 135.894531 36.488281 C 136.074219 36.382812 136.179688 36.191406 136.175781 35.988281 L 136.175781 34.058594 C 136.175781 32.476562 135.09375 31.3125 133.550781 31.3125 C 132.121094 31.316406 130.960938 32.476562 130.949219 33.910156 C 130.9375 35.34375 132.082031 36.515625 133.511719 36.542969 M 139.253906 40.078125 C 140.589844 40.113281 141.703125 39.054688 141.734375 37.71875 L 141.734375 37.636719 C 141.734375 36.132812 140.664062 35.550781 139.464844 35.195312 C 138.355469 34.839844 137.820312 34.445312 137.820312 33.664062 C 137.804688 32.9375 138.378906 32.332031 139.101562 32.316406 L 139.164062 32.316406 C 139.9375 32.289062 140.582031 32.894531 140.609375 33.667969 L 140.609375 33.726562 C 140.609375 34.207031 140.386719 34.324219 140.386719 34.585938 C 140.375 34.867188 140.59375 35.101562 140.871094 35.113281 L 140.921875 35.113281 C 141.328125 35.113281 141.734375 34.519531 141.734375 33.675781 C 141.734375 32.3125 140.558594 31.3125 139.164062 31.3125 C 137.832031 31.28125 136.730469 32.332031 136.699219 33.664062 L 136.699219 33.753906 C 136.699219 35.246094 137.753906 35.839844 138.953125 36.195312 C 140.078125 36.539062 140.609375 36.945312 140.609375 37.726562 C 140.632812 38.445312 140.066406 39.039062 139.351562 39.058594 L 139.269531 39.058594 C 138.515625 39.105469 137.867188 38.527344 137.824219 37.773438 C 137.820312 37.753906 137.820312 37.734375 137.820312 37.714844 C 137.824219 37.410156 137.585938 37.164062 137.28125 37.15625 L 137.269531 37.15625 C 136.976562 37.140625 136.726562 37.367188 136.710938 37.664062 C 136.707031 37.6875 136.707031 37.714844 136.710938 37.738281 C 136.722656 39.117188 137.855469 40.078125 139.253906 40.078125 M 144.921875 36.542969 C 145.523438 36.550781 146.113281 36.390625 146.628906 36.078125 C 147.019531 35.828125 147.175781 35.617188 147.175781 35.378906 C 147.175781 35.117188 146.960938 34.902344 146.699219 34.902344 C 146.683594 34.902344 146.667969 34.902344 146.65625 34.90625 C 146.25 34.90625 145.925781 35.511719 144.933594 35.511719 C 144.070312 35.515625 143.367188 34.816406 143.367188 33.953125 L 143.367188 33.929688 C 143.34375 33.078125 144.011719 32.367188 144.863281 32.34375 L 144.867188 32.34375 C 145.765625 32.34375 146.25 32.941406 146.25 33.320312 C 146.25 33.429688 146.171875 33.480469 146.066406 33.480469 L 144.972656 33.480469 C 144.707031 33.460938 144.472656 33.65625 144.449219 33.921875 L 144.449219 33.945312 C 144.449219 34.21875 144.667969 34.445312 144.941406 34.449219 L 146.472656 34.449219 C 147.046875 34.449219 147.398438 34.144531 147.398438 33.628906 C 147.398438 32.335938 146.300781 31.320312 144.851562 31.320312 C 143.417969 31.320312 142.257812 32.484375 142.257812 33.921875 L 142.257812 33.933594 C 142.273438 35.390625 143.464844 36.558594 144.921875 36.542969 "/>
<path style=" stroke:none;fill-rule:nonzero;fill:rgb(1.568627%,8.627451%,22.352941%);fill-opacity:1;" d="M 113.691406 30.207031 L 114.613281 30.207031 L 114.613281 32.554688 L 114.667969 32.554688 C 114.910156 32.027344 115.445312 31.699219 116.027344 31.726562 C 117.167969 31.726562 118.011719 32.628906 118.011719 34.164062 C 118.011719 35.703125 117.179688 36.617188 116.035156 36.617188 C 115.453125 36.640625 114.914062 36.316406 114.667969 35.789062 L 114.589844 35.789062 L 114.589844 36.527344 L 113.691406 36.527344 Z M 115.828125 35.832031 C 116.652344 35.832031 117.082031 35.105469 117.082031 34.15625 C 117.082031 33.214844 116.664062 32.507812 115.828125 32.507812 C 115.023438 32.507812 114.59375 33.164062 114.59375 34.15625 C 114.59375 35.152344 115.039062 35.832031 115.828125 35.832031 "/>
<path style=" stroke:none;fill-rule:nonzero;fill:rgb(1.568627%,8.627451%,22.352941%);fill-opacity:1;" d="M 118.828125 38.199219 L 119.046875 37.445312 C 119.554688 37.582031 119.882812 37.53125 120.117188 36.898438 L 120.230469 36.585938 L 118.5 31.785156 L 119.484375 31.785156 L 120.683594 35.464844 L 120.734375 35.464844 L 121.929688 31.785156 L 122.917969 31.785156 L 120.96875 37.15625 C 120.695312 37.902344 120.214844 38.300781 119.453125 38.300781 C 119.242188 38.304688 119.027344 38.273438 118.828125 38.199219 "/>
</g>
</svg>
