<svg xmlns="http://www.w3.org/2000/svg" fill="none" viewBox="0 0 323 140"><path fill="#0A0675" fill-opacity=".52" d="M119.914 47.775c-2.306 0-4.599-.071-6.879-.215-2.281-.134-4.654-.467-7.119-.997V5.855c1.935-.37 4.056-.644 6.361-.82a80.645 80.645 0 0 1 6.425-.278c2.668 0 5.121.194 7.359.58 2.239.38 4.166 1.036 5.781 1.97 1.616.925 2.878 2.146 3.787 3.66.909 1.515 1.364 3.383 1.364 5.605 0 3.358-1.616 6.004-4.848 7.94 2.668 1.01 4.486 2.381 5.453 4.114.977 1.742 1.465 3.703 1.465 5.883 0 4.4-1.608 7.712-4.822 9.934-3.215 2.221-7.99 3.332-14.327 3.332Zm1.149-18.845h-5.933v10.855c.682.076 1.426.135 2.234.177.808.042 1.696.063 2.664.063 2.827 0 5.112-.404 6.854-1.212 1.733-.808 2.6-2.302 2.6-4.481 0-1.944-.728-3.328-2.184-4.153-1.447-.833-3.526-1.25-6.235-1.25Zm-5.933-16.36v9.152h4.595c2.911 0 4.994-.375 6.248-1.123 1.254-.741 1.881-1.94 1.881-3.598 0-1.7-.648-2.89-1.944-3.572-1.296-.69-3.194-1.035-5.693-1.035-.808 0-1.679.008-2.613.025-.926.025-1.75.076-2.474.151Zm44.894 27.82-1.275 7.448c-2.626-.042-4.755-.324-6.387-.846-1.641-.53-2.937-1.266-3.888-2.209-.942-.95-1.586-2.103-1.931-3.458s-.518-2.878-.518-4.57V1.665l9.026-1.452v34.725c0 .808.063 1.531.189 2.17.118.649.349 1.196.694 1.642.345.446.837.808 1.477 1.085.648.287 1.519.472 2.613.556Zm32.349-25.03v30.787c-1.531.437-3.509.85-5.932 1.237-2.424.387-4.97.58-7.637.58-2.71 0-4.961-.366-6.753-1.098-1.801-.723-3.227-1.742-4.279-3.054-1.044-1.313-1.789-2.878-2.235-4.696-.446-1.818-.669-3.816-.669-5.996V15.36h9.026v16.662c0 2.912.383 5.011 1.148 6.299.774 1.296 2.209 1.944 4.305 1.944.648 0 1.333-.03 2.057-.089.732-.059 1.38-.13 1.944-.214V15.36h9.025Zm6.97 16.182c0-2.827.434-5.301 1.301-7.422.866-2.12 2.007-3.888 3.42-5.301a14.319 14.319 0 0 1 4.885-3.22 15.318 15.318 0 0 1 5.668-1.085c4.519 0 8.091 1.385 10.717 4.153 2.625 2.769 3.938 6.837 3.938 12.206 0 .522-.021 1.098-.063 1.73a53.93 53.93 0 0 1-.114 1.666h-20.486c.201 1.86 1.072 3.332 2.612 4.418 1.532 1.094 3.589 1.64 6.173 1.64 1.658 0 3.286-.15 4.885-.454 1.59-.303 2.89-.677 3.9-1.123l1.212 7.334c-.48.244-1.123.483-1.931.72a25.68 25.68 0 0 1-2.701.643 48.2 48.2 0 0 1-3.181.454c-1.128.118-2.26.177-3.396.177-2.861 0-5.352-.425-7.473-1.275-2.12-.841-3.879-2.003-5.276-3.484-1.397-1.472-2.428-3.219-3.092-5.238-.665-2.02-.998-4.2-.998-6.539Zm9.266-3.458h11.941a9.53 9.53 0 0 0-.392-2.235 5.679 5.679 0 0 0-1.035-1.943 5.441 5.441 0 0 0-1.754-1.389c-.707-.37-1.587-.555-2.639-.555-1.009 0-1.876.172-2.6.517a5.32 5.32 0 0 0-1.817 1.364 5.966 5.966 0 0 0-1.124 1.969 13.605 13.605 0 0 0-.58 2.272Zm48.359-12.181-1.514 7.46a73.918 73.918 0 0 0-2.853-.644 17.883 17.883 0 0 0-3.509-.328c-.572 0-1.25.05-2.032.151-.791.101-1.389.21-1.793.329v24.361h-9.025V17.064c1.616-.572 3.526-1.11 5.731-1.616 2.196-.505 4.649-.757 7.359-.757.479 0 1.064.034 1.754.101.69.059 1.376.139 2.058.24.69.1 1.376.223 2.057.366.69.135 1.279.303 1.767.505Zm16.418 25.03c.883 0 1.729-.02 2.537-.063a20.089 20.089 0 0 0 1.944-.176V33.84a19.728 19.728 0 0 0-1.641-.24 17.393 17.393 0 0 0-4.393.025c-.741.101-1.397.295-1.969.58a3.407 3.407 0 0 0-1.326 1.15c-.328.488-.492 1.093-.492 1.817 0 1.414.476 2.394 1.426 2.941.951.547 2.256.82 3.914.82Zm-.733-26.419c2.668 0 4.89.303 6.665.91 1.776.605 3.202 1.472 4.279 2.6 1.069 1.136 1.826 2.511 2.272 4.127.438 1.616.657 3.412.657 5.39v18.783c-1.288.286-3.084.618-5.39.997-2.297.387-5.083.58-8.356.58-2.062 0-3.93-.18-5.605-.542-1.674-.37-3.118-.968-4.329-1.793a8.147 8.147 0 0 1-2.79-3.244c-.648-1.33-.972-2.966-.972-4.91 0-1.851.374-3.425 1.123-4.721a8.647 8.647 0 0 1 2.992-3.093c1.254-.765 2.689-1.32 4.304-1.666a24.058 24.058 0 0 1 5.037-.517c1.169 0 2.209.05 3.118.151.908.101 1.645.236 2.209.404v-.858c0-1.532-.463-2.76-1.389-3.686-.934-.934-2.55-1.401-4.847-1.401-1.54 0-3.055.114-4.544.34-1.498.22-2.794.53-3.888.935l-1.149-7.27c.531-.16 1.187-.333 1.969-.518a39.65 39.65 0 0 1 2.576-.48 54.95 54.95 0 0 1 2.941-.366c1.026-.101 2.066-.152 3.117-.152Zm40.229.846h9.341c-1.818 6.143-3.72 11.9-5.706 17.268a207.692 207.692 0 0 1-6.475 15.64c-.85 1.817-1.7 3.361-2.55 4.632-.85 1.27-1.78 2.318-2.79 3.143a9.645 9.645 0 0 1-3.42 1.818c-1.271.387-2.756.58-4.456.58-1.414 0-2.714-.13-3.901-.391-1.195-.26-2.175-.555-2.941-.884l1.578-7.207c.926.32 1.755.543 2.487.669.724.118 1.489.176 2.297.176 1.616 0 2.857-.433 3.724-1.3.867-.866 1.603-2.07 2.209-3.61-2.053-4.039-4.111-8.57-6.173-13.594-2.061-5.032-4.001-10.68-5.819-16.94h9.568c.404 1.574.88 3.282 1.427 5.125a258.232 258.232 0 0 0 3.572 11.057 185.12 185.12 0 0 0 1.792 4.847 158.007 158.007 0 0 0 1.641-4.847 228.472 228.472 0 0 0 1.666-5.49 522.592 522.592 0 0 0 1.566-5.567c.504-1.843.959-3.551 1.363-5.125Z"/><path fill="#333747" d="M125.064 108.817c-6.825 0-12.025-1.898-15.602-5.693-3.576-3.795-5.364-9.19-5.364-16.182 0-3.467.547-6.564 1.641-9.29 1.085-2.727 2.579-5.033 4.481-6.918 1.893-1.876 4.153-3.298 6.778-4.266 2.626-.968 5.474-1.452 8.546-1.452 1.775 0 3.391.13 4.847.391 1.455.261 2.73.564 3.824.91 1.086.344 1.995.698 2.727 1.06.724.361 1.245.643 1.565.845l-2.726 7.637c-1.288-.69-2.79-1.275-4.507-1.754-1.716-.489-3.665-.733-5.844-.733-1.456 0-2.882.244-4.279.733-1.389.48-2.621 1.257-3.699 2.335-1.068 1.068-1.927 2.448-2.575 4.14-.639 1.7-.959 3.761-.959 6.185 0 1.936.21 3.745.631 5.428.421 1.674 1.107 3.118 2.058 4.33.951 1.211 2.192 2.17 3.723 2.877 1.54.707 3.4 1.061 5.58 1.061 1.371 0 2.604-.08 3.698-.24a30.63 30.63 0 0 0 2.903-.58 14.59 14.59 0 0 0 2.247-.758c.648-.286 1.233-.547 1.755-.783l2.6 7.574c-1.33.808-3.206 1.531-5.63 2.171-2.423.648-5.23.972-8.419.972Zm32.294-7.145c.883 0 1.729-.021 2.537-.063a20.287 20.287 0 0 0 1.944-.176v-6.855a19.78 19.78 0 0 0-1.641-.24 17.393 17.393 0 0 0-4.393.026c-.74.1-1.397.294-1.969.58-.564.287-1.006.67-1.325 1.15-.329.487-.493 1.093-.493 1.817 0 1.414.476 2.394 1.427 2.941.951.547 2.255.82 3.913.82Zm-.732-26.419c2.667 0 4.889.303 6.664.909 1.776.606 3.202 1.473 4.279 2.6 1.069 1.136 1.827 2.512 2.273 4.128.437 1.616.656 3.412.656 5.39v18.782c-1.288.286-3.084.619-5.39.997-2.297.388-5.083.581-8.356.581-2.062 0-3.93-.181-5.605-.543-1.674-.37-3.117-.967-4.329-1.792a8.15 8.15 0 0 1-2.79-3.244c-.648-1.33-.972-2.966-.972-4.91 0-1.852.375-3.425 1.124-4.721a8.645 8.645 0 0 1 2.991-3.093c1.254-.766 2.689-1.32 4.305-1.666a24.048 24.048 0 0 1 5.036-.518c1.17 0 2.209.051 3.118.152.909.101 1.645.236 2.209.404v-.858c0-1.532-.463-2.76-1.389-3.686-.934-.934-2.549-1.401-4.847-1.401-1.54 0-3.054.113-4.544.34-1.498.22-2.794.53-3.888.934l-1.148-7.27c.53-.16 1.186-.332 1.969-.518a39.49 39.49 0 0 1 2.575-.48 54.95 54.95 0 0 1 2.941-.365 31.82 31.82 0 0 1 3.118-.152Zm42.48 17.028c0-2.785-.627-5.02-1.881-6.703-1.254-1.674-3.113-2.511-5.579-2.511-.808 0-1.553.029-2.234.088-.69.067-1.258.139-1.704.215v16.295c.563.371 1.3.674 2.209.909.908.244 1.83.366 2.764.366 4.283 0 6.425-2.886 6.425-8.659Zm9.202-.24c0 2.458-.303 4.696-.909 6.716-.606 2.019-1.494 3.757-2.663 5.213-1.17 1.456-2.626 2.587-4.368 3.395-1.733.808-3.732 1.212-5.996 1.212-1.253 0-2.423-.122-3.509-.366a17.437 17.437 0 0 1-3.155-1.023v11.992h-9.026V77.197c.808-.244 1.738-.48 2.79-.707a50.462 50.462 0 0 1 3.295-.568c1.152-.16 2.326-.29 3.521-.391 1.187-.101 2.327-.152 3.421-.152 2.626 0 4.969.392 7.031 1.174 2.062.791 3.799 1.902 5.213 3.333 1.414 1.439 2.491 3.185 3.231 5.238.749 2.062 1.124 4.368 1.124 6.917ZM224.303 76.1v31.872h-9.025V76.099h9.025Zm.846-9.202c0 1.65-.534 2.95-1.603 3.9-1.069.951-2.331 1.427-3.787 1.427s-2.718-.476-3.787-1.427c-1.068-.95-1.603-2.25-1.603-3.9 0-1.658.535-2.962 1.603-3.913 1.069-.951 2.331-1.427 3.787-1.427s2.718.476 3.787 1.427c1.069.95 1.603 2.255 1.603 3.913Zm7.336 28.047V68.16l9.026-1.451v9.39h10.842v7.511h-10.842v11.21c0 1.901.332 3.416.997 4.543.673 1.136 2.019 1.704 4.039 1.704.968 0 1.965-.092 2.992-.277a14.37 14.37 0 0 0 2.814-.758l1.275 7.031a24.665 24.665 0 0 1-3.635 1.149c-1.33.328-2.966.492-4.91.492-2.457 0-4.494-.336-6.11-1.01-1.615-.664-2.911-1.59-3.887-2.777-.968-1.195-1.641-2.642-2.02-4.342-.387-1.691-.581-3.568-.581-5.63Zm38.174 6.728c.883 0 1.729-.021 2.537-.063a20.287 20.287 0 0 0 1.944-.176v-6.855a19.78 19.78 0 0 0-1.641-.24 17.39 17.39 0 0 0-4.393.026c-.74.1-1.397.294-1.969.58-.564.287-1.006.67-1.325 1.15-.328.487-.493 1.093-.493 1.817 0 1.414.476 2.394 1.427 2.941.951.547 2.255.82 3.913.82Zm-.732-26.419c2.667 0 4.889.303 6.664.909 1.776.606 3.202 1.473 4.28 2.6 1.068 1.136 1.826 2.512 2.272 4.128.437 1.616.656 3.412.656 5.39v18.782c-1.287.286-3.084.619-5.39.997-2.297.388-5.083.581-8.356.581-2.062 0-3.93-.181-5.605-.543-1.674-.37-3.117-.967-4.329-1.792a8.15 8.15 0 0 1-2.79-3.244c-.648-1.33-.972-2.966-.972-4.91 0-1.852.375-3.425 1.124-4.721a8.645 8.645 0 0 1 2.991-3.093c1.254-.766 2.689-1.32 4.305-1.666a24.048 24.048 0 0 1 5.036-.518c1.17 0 2.209.051 3.118.152.909.101 1.645.236 2.209.404v-.858c0-1.532-.463-2.76-1.389-3.686-.934-.934-2.549-1.401-4.847-1.401-1.54 0-3.054.113-4.544.34-1.498.22-2.794.53-3.888.934l-1.148-7.27c.53-.16 1.186-.332 1.969-.518a39.49 39.49 0 0 1 2.575-.48 54.95 54.95 0 0 1 2.941-.365 31.835 31.835 0 0 1 3.118-.152Zm36.055 25.877-1.275 7.447c-2.625-.042-4.754-.324-6.387-.846-1.641-.53-2.937-1.266-3.888-2.209-.942-.951-1.586-2.103-1.931-3.458s-.517-2.878-.517-4.57v-35.09l9.025-1.452v34.725c0 .807.063 1.531.189 2.17.118.649.349 1.196.694 1.642.345.446.838.808 1.477 1.085.648.286 1.519.471 2.613.556Z"/><path fill="#000" d="M10.7 124.698c-1.8 0-3.221.601-4.263 1.802-1.038 1.197-1.557 2.838-1.557 4.921 0 2.141.501 3.796 1.505 4.965 1.003 1.169 2.435 1.753 4.295 1.753 1.14 0 2.444-.205 3.909-.616v1.667c-1.137.427-2.537.641-4.2.641-2.411 0-4.273-.733-5.586-2.198-1.309-1.462-1.964-3.541-1.964-6.236 0-1.688.316-3.166.946-4.434.631-1.271 1.542-2.249 2.734-2.934 1.19-.688 2.593-1.032 4.204-1.032 1.717 0 3.218.314 4.501.941l-.807 1.635c-1.24-.583-2.478-.875-3.717-.875Zm17.775 8.759c0 2-.505 3.563-1.515 4.687-1.006 1.124-2.398 1.687-4.176 1.687-1.096 0-2.07-.258-2.924-.774-.85-.516-1.507-1.255-1.969-2.217-.462-.962-.693-2.09-.693-3.383 0-2.001.5-3.559 1.5-4.673 1.001-1.119 2.388-1.678 4.163-1.678 1.72 0 3.085.572 4.095 1.716 1.012 1.143 1.519 2.688 1.519 4.635Zm-9.351 0c0 1.567.314 2.761.941 3.583.625.822 1.545 1.233 2.762 1.233s2.142-.409 2.776-1.228c.631-.815.946-2.012.946-3.588 0-1.561-.315-2.746-.946-3.555-.634-.809-1.565-1.214-2.795-1.214-1.217 0-2.136.4-2.757 1.199-.618.797-.927 1.986-.927 3.57Zm30.113 6.149H47.38v-7.984c0-.978-.21-1.712-.631-2.203-.417-.487-1.066-.731-1.945-.731-1.16 0-2.015.331-2.566.994-.55.666-.826 1.69-.826 3.072v6.852h-1.864v-7.984c0-.978-.209-1.712-.626-2.203-.417-.487-1.07-.731-1.959-.731-1.166 0-2.02.349-2.561 1.046-.538.698-.808 1.842-.808 3.431v6.441h-1.858v-12.275h1.51l.3 1.682h.091a3.628 3.628 0 0 1 1.482-1.4c.64-.338 1.355-.507 2.145-.507 1.92 0 3.176.695 3.765 2.084h.091c.363-.641.892-1.147 1.587-1.52.694-.376 1.485-.564 2.374-.564 1.39 0 2.43.357 3.12 1.071.692.713 1.037 1.854 1.037 3.421v8.008Zm21.334 0h-1.859v-7.984c0-.978-.21-1.712-.63-2.203-.418-.487-1.066-.731-1.945-.731-1.16 0-2.015.331-2.566.994-.551.666-.827 1.69-.827 3.072v6.852h-1.863v-7.984c0-.978-.209-1.712-.626-2.203-.417-.487-1.07-.731-1.959-.731-1.166 0-2.02.349-2.561 1.046-.538.698-.808 1.842-.808 3.431v6.441H53.07v-12.275h1.51l.3 1.682h.091a3.628 3.628 0 0 1 1.482-1.4c.64-.338 1.355-.507 2.145-.507 1.92 0 3.176.695 3.765 2.084h.091c.363-.641.892-1.147 1.586-1.52.695-.376 1.486-.564 2.375-.564 1.389 0 2.429.357 3.12 1.071.691.713 1.037 1.854 1.037 3.421v8.008Zm9.016.225c-1.816 0-3.248-.553-4.296-1.658-1.048-1.106-1.572-2.639-1.572-4.602 0-1.978.486-3.55 1.458-4.716.974-1.166 2.283-1.749 3.927-1.749 1.539 0 2.756.507 3.65 1.52.896 1.013 1.343 2.348 1.343 4.004v1.175h-8.452c.035 1.44.398 2.534 1.09 3.283.69.745 1.664 1.118 2.919 1.118 1.322 0 2.628-.275 3.918-.827v1.654a9.504 9.504 0 0 1-1.864.611c-.586.125-1.293.187-2.121.187Zm-.507-11.167c-.984 0-1.77.322-2.355.965-.586.641-.932 1.529-1.037 2.666h6.417c0-1.172-.261-2.07-.784-2.694-.522-.625-1.27-.937-2.24-.937Zm13.785-1.558a7.32 7.32 0 0 1 1.467.134l-.253 1.725a6.432 6.432 0 0 0-1.347-.167c-.991 0-1.84.403-2.547 1.209-.704.809-1.056 1.814-1.056 3.015v6.584H87.27v-12.275h1.534l.21 2.274h.09c.456-.799 1.004-1.416 1.645-1.849a3.713 3.713 0 0 1 2.116-.65Zm8.67 12.725c-1.778 0-3.154-.547-4.129-1.639-.971-1.096-1.457-2.644-1.457-4.645 0-2.054.494-3.641 1.481-4.759.99-1.121 2.4-1.682 4.229-1.682.589 0 1.179.064 1.768.191.589.128 1.053.278 1.39.45l-.573 1.576a9.137 9.137 0 0 0-1.343-.406 6.002 6.002 0 0 0-1.29-.162c-2.49 0-3.736 1.589-3.736 4.768 0 1.51.304 2.668.912 3.474.609.806 1.51 1.209 2.705 1.209 1.022 0 2.07-.22 3.144-.659v1.643c-.822.427-1.856.641-3.101.641Zm7.875-12.5v12.275h-1.859v-12.275h1.859Zm-2.016-3.326c0-.423.103-.736.31-.936.21-.198.472-.296.784-.296.299 0 .557.101.774.305.216.201.325.51.325.927 0 .418-.109.73-.325.937a1.091 1.091 0 0 1-.774.306c-.312 0-.574-.102-.784-.306-.207-.207-.31-.519-.31-.937Zm14.879 15.601h-1.376l-.368-1.749h-.091c-.611.771-1.221 1.292-1.83 1.563-.608.274-1.368.411-2.279.411-1.217 0-2.171-.314-2.862-.942-.691-.627-1.037-1.519-1.037-2.675 0-2.479 1.983-3.778 5.949-3.899l2.083-.067v-.76c0-.965-.207-1.677-.621-2.136-.414-.459-1.077-.688-1.988-.688-1.022 0-2.18.314-3.473.941l-.569-1.424a8.585 8.585 0 0 1 1.988-.769 8.532 8.532 0 0 1 2.164-.282c1.465 0 2.55.325 3.254.975.704.65 1.056 1.691 1.056 3.125v8.376Zm-5.576-1.309c1.159 0 2.069-.317 2.728-.951.66-.637.989-1.526.989-2.666v-1.109l-1.858.077c-1.478.054-2.544.283-3.197.688-.653.408-.979 1.041-.979 1.901 0 .669.203 1.181.611 1.534.408.351.976.526 1.706.526Zm11.269-16.117v17.426h-1.858V122.18h1.858Zm12.084 10.426v7h-1.906v-16.375h9.126v1.692h-7.22v5.992h6.785v1.691h-6.785Zm11.513-5.275v12.275h-1.859v-12.275h1.859Zm-2.017-3.326c0-.423.104-.736.311-.936.21-.198.471-.296.783-.296.3 0 .558.101.774.305.217.201.325.51.325.927 0 .418-.108.73-.325.937a1.088 1.088 0 0 1-.774.306 1.08 1.08 0 0 1-.783-.306c-.207-.207-.311-.519-.311-.937Zm16.213 15.601H163.9v-7.941c0-1-.228-1.746-.683-2.236-.456-.494-1.168-.741-2.136-.741-1.284 0-2.225.347-2.824 1.042-.596.694-.893 1.839-.893 3.435v6.441h-1.859v-12.275h1.51l.301 1.682h.091c.379-.605.912-1.074 1.6-1.405.688-.334 1.454-.502 2.299-.502 1.478 0 2.589.357 3.335 1.071.745.713 1.118 1.854 1.118 3.421v8.008Zm12.744 0h-1.376l-.368-1.749h-.091c-.612.771-1.222 1.292-1.83 1.563-.609.274-1.368.411-2.279.411-1.217 0-2.171-.314-2.862-.942-.692-.627-1.037-1.519-1.037-2.675 0-2.479 1.983-3.778 5.948-3.899l2.084-.067v-.76c0-.965-.207-1.677-.621-2.136-.415-.459-1.077-.688-1.988-.688-1.023 0-2.181.314-3.474.941l-.568-1.424a8.577 8.577 0 0 1 1.987-.769 8.54 8.54 0 0 1 2.165-.282c1.465 0 2.55.325 3.254.975.704.65 1.056 1.691 1.056 3.125v8.376Zm-5.576-1.309c1.159 0 2.069-.317 2.728-.951.659-.637.989-1.526.989-2.666v-1.109l-1.859.077c-1.478.054-2.543.283-3.196.688-.653.408-.98 1.041-.98 1.901 0 .669.204 1.181.612 1.534.407.351.976.526 1.706.526Zm19.664 1.309h-1.858v-7.941c0-1-.228-1.746-.684-2.236-.455-.494-1.167-.741-2.135-.741-1.284 0-2.226.347-2.824 1.042-.596.694-.894 1.839-.894 3.435v6.441h-1.859v-12.275h1.51l.301 1.682h.091c.379-.605.913-1.074 1.601-1.405.688-.334 1.454-.502 2.298-.502 1.478 0 2.59.357 3.335 1.071.746.713 1.118 1.854 1.118 3.421v8.008Zm8.726.225c-1.778 0-3.154-.547-4.129-1.639-.971-1.096-1.457-2.644-1.457-4.645 0-2.054.494-3.641 1.481-4.759.991-1.121 2.401-1.682 4.229-1.682.589 0 1.179.064 1.768.191.589.128 1.053.278 1.39.45l-.573 1.576a9.1 9.1 0 0 0-1.343-.406 6.002 6.002 0 0 0-1.29-.162c-2.491 0-3.736 1.589-3.736 4.768 0 1.51.304 2.668.912 3.474.609.806 1.51 1.209 2.705 1.209 1.022 0 2.07-.22 3.144-.659v1.643c-.822.427-1.856.641-3.101.641Zm11.201 0c-1.816 0-3.248-.553-4.296-1.658-1.048-1.106-1.572-2.639-1.572-4.602 0-1.978.486-3.55 1.457-4.716.975-1.166 2.284-1.749 3.928-1.749 1.539 0 2.755.507 3.651 1.52.895 1.013 1.342 2.348 1.342 4.004v1.175h-8.452c.035 1.44.398 2.534 1.089 3.283.691.745 1.664 1.118 2.92 1.118 1.321 0 2.628-.275 3.918-.827v1.654a9.53 9.53 0 0 1-1.864.611c-.586.125-1.293.187-2.121.187Zm-.507-11.167c-.984 0-1.769.322-2.356.965-.586.641-.931 1.529-1.036 2.666h6.417c0-1.172-.261-2.07-.784-2.694-.522-.625-1.269-.937-2.241-.937Zm23.666 6.584c0 1.443-.523 2.568-1.567 3.374-1.048.806-2.468 1.209-4.258 1.209-1.94 0-3.434-.25-4.482-.75v-1.84a11.46 11.46 0 0 0 2.198.674c.79.165 1.574.248 2.351.248 1.268 0 2.223-.242 2.867-.726.643-.481.965-1.15.965-2.007 0-.567-.115-1.032-.344-1.395-.226-.363-.607-.698-1.142-1.004-.535-.305-1.347-.653-2.437-1.041-1.522-.545-2.61-1.19-3.263-1.935-.653-.749-.98-1.724-.98-2.925 0-1.261.475-2.265 1.424-3.01.946-.749 2.2-1.123 3.761-1.123 1.627 0 3.124.3 4.491.898l-.592 1.658c-1.351-.57-2.665-.855-3.942-.855-1.01 0-1.799.217-2.366.65-.567.433-.85 1.035-.85 1.806 0 .567.105 1.032.315 1.395.207.36.559.692 1.056.994.497.303 1.257.637 2.279 1.004 1.717.611 2.899 1.267 3.546 1.968.646.704.97 1.615.97 2.733Zm13.662-1.791c0 2-.504 3.563-1.514 4.687-1.007 1.124-2.399 1.687-4.176 1.687-1.096 0-2.071-.258-2.925-.774-.85-.516-1.506-1.255-1.968-2.217-.462-.962-.693-2.09-.693-3.383 0-2.001.5-3.559 1.5-4.673 1-1.119 2.388-1.678 4.162-1.678 1.72 0 3.085.572 4.095 1.716 1.013 1.143 1.519 2.688 1.519 4.635Zm-9.351 0c0 1.567.314 2.761.942 3.583.624.822 1.545 1.233 2.762 1.233 1.216 0 2.142-.409 2.776-1.228.63-.815.946-2.012.946-3.588 0-1.561-.316-2.746-.946-3.555-.634-.809-1.566-1.214-2.796-1.214-1.216 0-2.135.4-2.757 1.199-.618.797-.927 1.986-.927 3.57Zm14.47-11.277v17.426h-1.859V122.18h1.859Zm3.804 5.151h1.882v7.965c0 1 .228 1.746.684 2.236.455.494 1.169.741 2.14.741 1.284 0 2.222-.35 2.815-1.051.595-.704.893-1.851.893-3.44v-6.451h1.859v12.275h-1.534l-.272-1.648h-.101a3.697 3.697 0 0 1-1.581 1.39c-.679.322-1.45.483-2.313.483-1.494 0-2.612-.355-3.354-1.066-.746-.707-1.118-1.841-1.118-3.402v-8.032Zm18.176 10.966c.328 0 .645-.024.951-.072.309-.051.553-.102.731-.153v1.424c-.204.096-.501.175-.893.239a6.62 6.62 0 0 1-1.056.096c-2.373 0-3.56-1.251-3.56-3.751v-7.301h-1.758v-.899l1.758-.774.784-2.618h1.075v2.843h3.559v1.448h-3.559v7.22c0 .739.175 1.307.525 1.705.351.395.832.593 1.443.593Zm5.995-10.966v12.275h-1.859v-12.275h1.859Zm-2.017-3.326c0-.423.104-.736.311-.936.21-.198.471-.296.784-.296.299 0 .557.101.774.305.216.201.325.51.325.927 0 .418-.109.73-.325.937a1.091 1.091 0 0 1-.774.306 1.08 1.08 0 0 1-.784-.306c-.207-.207-.311-.519-.311-.937Zm16.552 9.452c0 2-.505 3.563-1.514 4.687-1.007 1.124-2.399 1.687-4.177 1.687-1.095 0-2.07-.258-2.924-.774-.85-.516-1.507-1.255-1.968-2.217-.462-.962-.693-2.09-.693-3.383 0-2.001.5-3.559 1.5-4.673 1-1.119 2.388-1.678 4.162-1.678 1.72 0 3.085.572 4.095 1.716 1.013 1.143 1.519 2.688 1.519 4.635Zm-9.351 0c0 1.567.314 2.761.942 3.583.624.822 1.545 1.233 2.761 1.233 1.217 0 2.143-.409 2.777-1.228.63-.815.946-2.012.946-3.588 0-1.561-.316-2.746-.946-3.555-.634-.809-1.566-1.214-2.796-1.214-1.217 0-2.136.4-2.757 1.199-.618.797-.927 1.986-.927 3.57Zm22.865 6.149h-1.859v-7.941c0-1-.227-1.746-.683-2.236-.455-.494-1.167-.741-2.136-.741-1.284 0-2.225.347-2.824 1.042-.595.694-.893 1.839-.893 3.435v6.441h-1.859v-12.275h1.51l.301 1.682h.091c.379-.605.912-1.074 1.6-1.405.689-.334 1.455-.502 2.299-.502 1.478 0 2.59.357 3.335 1.071.745.713 1.118 1.854 1.118 3.421v8.008Zm11.741-3.349c0 1.143-.427 2.024-1.281 2.642-.851.621-2.045.932-3.584.932-1.627 0-2.897-.258-3.808-.774v-1.725a9.302 9.302 0 0 0 1.902.707 7.91 7.91 0 0 0 1.954.258c.968 0 1.714-.155 2.236-.464.526-.312.789-.785.789-1.419 0-.478-.209-.887-.626-1.228-.414-.337-1.222-.739-2.423-1.204-1.143-.423-1.956-.795-2.437-1.113-.481-.315-.839-.675-1.075-1.08-.235-.405-.353-.886-.353-1.443 0-1 .407-1.79 1.223-2.37.812-.58 1.929-.87 3.349-.87 1.322 0 2.614.27 3.875.808l-.664 1.515c-1.229-.51-2.344-.765-3.344-.765-.883 0-1.549.139-1.998.416-.446.277-.669.658-.669 1.142 0 .328.083.608.249.841.169.229.439.449.812.659.376.21 1.093.513 2.15.908 1.456.529 2.44 1.062 2.953 1.601.513.538.77 1.213.77 2.026Z"/><path fill="#4BD18E" d="M27.356 56.45c6.77-6.539 15.591-9.67 24.332-9.45a26.324 26.324 0 0 0-5.912-9.608C35.614 26.868 18.843 26.575 8.32 36.737-2.204 46.9-2.497 63.67 7.666 74.194a26.326 26.326 0 0 0 9.396 6.243c.084-8.742 3.522-17.448 10.294-23.987Z"/><path fill="#F09116" d="M51.07 79.516c-6.538-6.771-9.67-15.592-9.446-24.334a26.349 26.349 0 0 0-9.611 5.913c-10.525 10.163-10.818 26.933-.656 37.457 10.163 10.524 26.933 10.817 37.457.654a26.352 26.352 0 0 0 6.246-9.399c-8.745-.082-17.451-3.52-23.99-10.291Z"/><path fill="#8188F5" d="M93.74 38.142a26.353 26.353 0 0 0-9.4-6.246c-.082 8.746-3.52 17.452-10.29 23.99-6.772 6.54-15.592 9.67-24.335 9.447a26.348 26.348 0 0 0 5.913 9.611c10.163 10.524 26.933 10.817 37.457.655 10.524-10.162 10.817-26.933.654-37.457Z"/><path fill="#253BB1" d="M50.507 32.823c6.538 6.771 9.67 15.592 9.449 24.332a26.324 26.324 0 0 0 9.608-5.91C80.09 41.08 80.382 24.31 70.22 13.787 60.057 3.264 43.287 2.97 32.763 13.133a26.33 26.33 0 0 0-6.244 9.397c8.743.084 17.449 3.522 23.988 10.293Z"/></svg>