<svg xmlns="http://www.w3.org/2000/svg" fill="none" viewBox="0 0 1271 156"><path fill="#071D4F" d="M49.853 8.704c19.467-10.28 43.267-11.173 63.96-4.16 18.027 6.267 32.04 21.427 38.587 39.16-8.12 3.187-16.267 6.32-24.387 9.507-3.506-9.067-9.36-17.654-18.173-22.24-11.653-6.307-25.88-6.614-38.507-3.4-13.04 3.493-23.093 14.36-27.093 27.04-9.187.013-18.36.013-27.533.013C20.8 35.651 32.44 17.864 49.853 8.704ZM1052.2 15.037c16.95-15.253 44.81-16.36 63.03-2.706 9.09 6.813 14.78 17.533 16.25 28.72 2.31 15.133-2.31 30.493-9.81 43.546-10.44 18.227-26.12 33.014-43.63 44.4 20.08.107 40.16.014 60.24.054.01 8 .01 16 0 24h-103.76c-.01-7 0-14-.01-20.987 20.14-12.6 40.21-26.093 55.86-44.2 8.78-10.48 16.27-23.227 16.2-37.293.11-8.294-3.33-17.534-11.4-21.08-8.74-3.414-19.98-2.627-26.72 4.493-6.36 6.507-8.22 15.96-8.74 24.72-8.39-.613-16.78-1.2-25.15-1.853-.01-15.507 5.96-31.347 17.64-41.814ZM211.947 3.544h20.066c19.8 49.613 39.6 99.213 59.374 148.84h-29.014a8766.353 8766.353 0 0 1-11.413-30.827c-19.413-.026-38.827 0-58.24-.013-3.813 10.267-7.547 20.56-11.347 30.84-9.68 0-19.36 0-29.026-.013 19.853-49.614 39.706-99.227 59.6-148.827Zm10.026 39.187c-6.706 18.093-13.386 36.2-20.08 54.306 13.36.067 26.707.107 40.067.174-6.653-18.16-13.32-36.334-19.987-54.48ZM311.067 3.544c16.626.013 33.253-.04 49.88.026 11.506.16 23.573 1.8 33.333 8.347 7.48 4.76 12.693 12.64 14.613 21.253 2.88 12.614 2.16 26.667-4.626 37.947-5.6 9.36-15.787 15.093-26.2 17.467-13.227 3.12-26.92 1.867-40.387 2.133-.013 20.547.013 41.107-.013 61.653-8.867.014-17.734.014-26.6 0 0-49.6-.014-99.213 0-148.826ZM337.56 28.05v37.987c8.2-.053 16.387.133 24.587-.093 6.706-.44 14.293-2.04 18.453-7.84 3.693-5.667 3.547-13.093 1.6-19.36-2.28-6.64-9.573-9.494-16-10.174-9.52-1.013-19.107-.333-28.64-.52ZM436.053 152.371c0-49.614-.026-99.214 0-148.827 8.894 0 17.8-.013 26.694 0 .013 49.613.013 99.227 0 148.827-8.907.013-17.8.013-26.694 0ZM483.267 3.544H603.32c0 8.173.013 16.333 0 24.493-15.52.027-31.04 0-46.56.014-.013 41.44 0 82.88-.013 124.32-8.974.013-17.947.013-26.907 0-.013-41.44 0-82.88 0-124.32-15.533-.027-31.053.013-46.573-.014-.014-8.16-.014-16.32 0-24.493ZM591.773 152.371c19.867-49.6 39.734-99.227 59.627-148.827h20.067c19.813 49.6 39.6 99.213 59.386 148.827-9.68.013-19.36.013-29.04.013-3.813-10.28-7.573-20.56-11.386-30.84-19.427 0-38.84-.013-58.267.013-3.773 10.28-7.56 20.547-11.333 30.827-9.694-.013-19.374 0-29.054-.013Zm49.587-55.334c13.36.054 26.72.12 40.093.174-6.653-18.16-13.346-36.32-20-54.48-6.746 18.093-13.4 36.213-20.093 54.306ZM750.493 3.544c8.907 0 17.814-.013 26.734 0 .013 41.44 0 82.88 0 124.32 21.226.027 42.453 0 63.68.013-.014 8.174 0 16.334-.014 24.494-30.133.013-60.266.013-90.4 0V3.544ZM912.56 4.718c17.467 0 34.933-.04 52.413.013 11.667.187 24.014 2.32 33.44 9.68 18.547 14.04 16.797 46.893-3.426 58.64 9.603 3.427 18.103 10.626 21.483 20.44 3.78 11.36 3.57 24.2-1.02 35.293-4.84 11.587-16.01 19.68-28.077 22.387-6 1.56-12.213 1.893-18.373 1.88-18.813-.013-37.627 0-56.44-.013-.013-49.44-.013-98.88 0-148.32Zm26.587 24.493c-.014 11.507-.014 23 0 34.493 11.64-.56 23.6 1.36 35.026-1.467 11.84-3.16 13.68-20.066 5.614-27.92-3.92-3.68-9.414-5.013-14.654-5.093-8.666-.04-17.333 0-25.986-.013Zm0 59c-.014 13.44-.014 26.893 0 40.333 9.96 0 19.92-.013 29.88.014 5.906-.054 12.146-1.32 16.733-5.294 7.453-6.066 8.547-17.573 4.373-25.826-3.64-6.574-11.533-8.867-18.56-9.16-10.813-.174-21.626-.014-32.426-.067ZM1164.04 153.037c.01-49.44-.01-98.893.01-148.333 18.54.08 37.07-.147 55.59.12 13.75.507 28.76 4.853 37.03 16.64 10.81 16.053 7.28 41.56-10.19 51.56 9.45 3.466 17.95 10.453 21.36 20.147 3.95 11.373 3.75 24.306-.81 35.48-4.8 11.546-15.87 19.693-27.88 22.44-5.91 1.533-12.02 1.986-18.1 1.96-19 0-38.01 0-57.01-.014Zm26.59-123.813v34.48c8.37-.027 16.73.066 25.12-.027 5.92-.106 12.46-1.12 16.7-5.68 4.5-5.253 4.59-13.173 1.96-19.306-2.98-6.547-10.58-9.4-17.38-9.454-8.8-.08-17.6 0-26.4-.013Zm0 58.986v40.334c9.69.013 19.37-.027 29.06.027 5.95.013 12.31-1.04 17.06-4.907 8.01-6.067 9.28-18.32 4.54-26.76-3.94-6.453-11.94-8.453-19.02-8.667-10.55-.08-21.1 0-31.64-.026ZM16.787 101.024c9.2-.013 18.413-.013 27.626 0 3.52 10.28 10.427 19.813 20.48 24.493 12.48 5.787 27.387 6.107 40.24 1.32 11.147-4.106 19.174-14.066 22.894-25.12a7614.559 7614.559 0 0 0 24.933 9.48c-5.693 15.56-16.733 29.574-31.813 36.867-19.694 9.693-43.467 9.92-63.894 2.427-21.093-7.92-35.973-27.734-40.466-49.467Z"/><path fill="#11B5E4" d="M.693 54.637c5.334-.027 10.667-.013 16.014-.013 9.173 0 18.346 0 27.533-.014 12.427.014 24.867-.013 37.307.014.013 5.64.013 11.266 0 16.893-26.96-.173-53.907.547-80.854 0-.026-5.627-.026-11.253 0-16.88ZM.693 84.104c22.107-.44 44.214.013 66.32 0 .027 5.64.027 11.266 0 16.906-7.533.014-15.066 0-22.6.014-9.213-.014-18.426-.014-27.626 0-5.374-.014-10.734 0-16.094-.027-.026-5.627-.026-11.253 0-16.893Z"/></svg>