<?xml version="1.0" encoding="utf-8"?>
<!-- Generator: Adobe Illustrator 23.0.3, SVG Export Plug-In . SVG Version: 6.00 Build 0)  -->
<svg version="1.1" id="Layer_1" xmlns="http://www.w3.org/2000/svg" xmlns:xlink="http://www.w3.org/1999/xlink" x="0px" y="0px"
	 viewBox="0 0 2000 2000" style="enable-background:new 0 0 2000 2000;" xml:space="preserve">
<style type="text/css">
	.st0{fill:#0369C6;}
	.st1{display:none;}
	.st2{display:inline;fill:none;stroke:#000000;stroke-width:4.0666;stroke-miterlimit:10;}
	.st3{display:inline;fill:none;stroke:#000000;stroke-width:32.5326;stroke-miterlimit:10;}
</style>
<g>
	<path class="st0" d="M492.89,1046.23c14.98,0,27.23-5.93,36.75-17.79l19.55,20.13c-15.51,17.46-33.78,26.19-54.83,26.19
		c-21.05,0-38.38-6.65-51.99-19.94c-13.62-13.29-20.43-30.07-20.43-50.33s6.94-37.17,20.82-50.72
		c13.88-13.55,30.85-20.33,50.92-20.33c22.41,0,41.17,8.54,56.29,25.61l-18.96,21.5c-9.65-11.99-21.63-17.98-35.96-17.98
		c-11.47,0-21.28,3.75-29.42,11.24c-8.15,7.49-12.22,17.59-12.22,30.3c0,12.7,3.84,22.9,11.53,30.59
		C472.63,1042.39,481.95,1046.23,492.89,1046.23z"/>
	<path class="st0" d="M625.61,993.84c-8.73,0-15.25,3.1-19.55,9.29s-6.45,14.37-6.45,24.53v45.54h-29.32V968.04h29.32v13.88
		c3.78-4.3,8.5-7.95,14.17-10.95c5.67-3,11.43-4.56,17.3-4.69l0.2,27.56H625.61z"/>
	<path class="st0" d="M741.71,1057.95c-11.86,11.21-25.77,16.81-41.73,16.81c-15.96,0-29.16-4.92-39.58-14.76
		c-10.43-9.84-15.64-23.03-15.64-39.58c0-16.55,5.31-29.71,15.93-39.48c10.62-9.77,23.16-14.66,37.63-14.66
		c14.46,0,26.74,4.37,36.84,13.1c10.1,8.73,15.15,20.72,15.15,35.96v15.64h-76.62c0.91,5.74,3.91,10.43,8.99,14.07
		c5.08,3.65,10.81,5.47,17.2,5.47c10.29,0,18.76-3.45,25.41-10.36L741.71,1057.95z M713.56,995.6c-4.04-3.39-8.96-5.08-14.76-5.08
		c-5.8,0-11.11,1.76-15.93,5.28c-4.82,3.52-7.62,8.28-8.4,14.27h46.13C719.95,1003.81,717.6,998.99,713.56,995.6z"/>
	<path class="st0" d="M813.54,1074.76c-12.44,0-23.55-5.28-33.33-15.83c-9.77-10.55-14.66-23.65-14.66-39.29
		c0-15.63,4.75-28.44,14.27-38.41c9.51-9.97,20.65-14.95,33.42-14.95c12.77,0,23.19,4.5,31.27,13.49v-51.6h29.32v145.03h-29.32
		v-13.88C836.31,1069.62,825.98,1074.76,813.54,1074.76z M795.07,1020.82c0,8.47,2.54,15.41,7.62,20.82
		c5.08,5.41,11.01,8.11,17.79,8.11c6.77,0,12.54-2.7,17.3-8.11c4.76-5.41,7.13-12.38,7.13-20.91s-2.38-15.64-7.13-21.31
		c-4.76-5.67-10.59-8.5-17.49-8.5c-6.91,0-12.84,2.87-17.79,8.6C797.54,1005.25,795.07,1012.35,795.07,1020.82z"/>
	<path class="st0" d="M904.04,954.65c-3.32-3.32-4.98-7.39-4.98-12.22c0-4.82,1.66-8.89,4.98-12.22c3.32-3.32,7.39-4.98,12.22-4.98
		c4.82,0,8.89,1.66,12.22,4.98c3.32,3.32,4.98,7.4,4.98,12.22c0,4.82-1.66,8.89-4.98,12.22c-3.32,3.32-7.4,4.98-12.22,4.98
		C911.43,959.64,907.36,957.98,904.04,954.65z M930.91,1073.2h-29.32V968.04h29.32V1073.2z"/>
	<path class="st0" d="M993.65,989.15v47.11c0,4.04,1.04,7.2,3.13,9.48c2.08,2.28,4.56,3.42,7.43,3.42c5.47,0,10.1-2.47,13.88-7.43
		l10.95,20.52c-9.12,8.34-18.73,12.51-28.83,12.51c-10.1,0-18.64-3.32-25.61-9.97c-6.97-6.65-10.46-15.7-10.46-27.17v-48.47h-12.31
		v-21.11h12.31v-31.47h29.51v31.47h25.41v21.11H993.65z"/>
	<path d="M1092.35,1055.61l4.5-7.43c9.38,9.77,26.78,17.2,45.15,17.2c27.36,0,39.48-11.92,39.48-26.78
		c0-41.04-85.41-16.42-85.41-66.84c0-19.35,14.85-36.35,48.47-36.35c15.05,0,30.69,4.69,41.24,12.31l-3.71,8.01
		c-11.34-7.82-25.21-11.53-37.53-11.53c-26.58,0-38.5,12.31-38.5,27.36c0,41.04,85.41,16.81,85.41,66.45
		c0,19.35-15.44,36.16-49.25,36.16C1121.86,1074.18,1102.32,1066.55,1092.35,1055.61z"/>
	<path d="M1272.76,1066.75c-5.08,4.89-13.29,7.23-20.91,7.23c-17.98,0-27.75-10.55-27.75-27.75v-66.65h-18.76v-8.4h18.76V948.9h9.77
		v22.28h32.44v8.4h-32.44v65.67c0,13.09,6.45,20.33,18.96,20.33c6.06,0,11.73-1.95,15.83-5.67L1272.76,1066.75z"/>
	<path d="M1285.07,1022.19c0-30.29,21.69-51.79,51.01-51.79c29.32,0,51.01,21.5,51.01,51.79c0,30.29-21.69,51.79-51.01,51.79
		C1306.77,1073.98,1285.07,1052.48,1285.07,1022.19z M1377.13,1022.19c0-25.6-17.59-43-41.04-43c-23.45,0-41.04,17.39-41.04,43
		c0,25.6,17.59,43,41.04,43C1359.54,1065.19,1377.13,1047.79,1377.13,1022.19z"/>
	<path d="M1465.67,970.39v9.58c-0.78,0-1.56-0.19-2.35-0.19c-22.67,0-36.16,15.05-36.16,40.26v53.16h-9.77V971.18h9.38v22.28
		C1433.03,978.6,1446.52,970.39,1465.67,970.39z"/>
	<path d="M1577.86,1024.53h-87.75c0.98,24.23,18.76,40.65,43.19,40.65c12.9,0,24.82-4.69,32.64-14.27l5.67,6.45
		c-8.99,10.95-23.06,16.61-38.5,16.61c-30.88,0-52.57-21.5-52.57-51.79c0-30.29,20.91-51.79,48.86-51.79
		c27.95,0,48.67,21.11,48.67,51.4C1578.06,1022.58,1577.86,1023.56,1577.86,1024.53z M1490.3,1016.91h78.18
		c-1.37-22.09-17.39-37.92-39.09-37.92C1507.7,978.99,1491.87,994.63,1490.3,1016.91z"/>
</g>
</svg>
