<svg xmlns="http://www.w3.org/2000/svg" fill="none" viewBox="0 0 1158 150"><path fill="#0369C6" d="M71.89 121.23c14.98 0 27.23-5.93 36.75-17.79l19.55 20.13c-15.51 17.46-33.78 26.19-54.83 26.19-21.05 0-38.38-6.65-51.99-19.94C7.75 116.53.94 99.75.94 79.49c0-20.26 6.94-37.17 20.82-50.72C35.64 15.22 52.61 8.44 72.68 8.44c22.41 0 41.17 8.54 56.29 25.61l-18.96 21.5c-9.65-11.99-21.63-17.98-35.96-17.98-11.47 0-21.28 3.75-29.42 11.24-8.15 7.49-12.22 17.59-12.22 30.3 0 12.7 3.84 22.9 11.53 30.59 7.69 7.69 17.01 11.53 27.95 11.53ZM204.61 68.84c-8.73 0-15.25 3.1-19.55 9.29-4.3 6.19-6.45 14.37-6.45 24.53v45.54h-29.32V43.04h29.32v13.88c3.78-4.3 8.5-7.95 14.17-10.95 5.67-3 11.43-4.56 17.3-4.69l.2 27.56h-5.67ZM320.71 132.95c-11.86 11.21-25.77 16.81-41.73 16.81-15.96 0-29.16-4.92-39.58-14.76-10.43-9.84-15.64-23.03-15.64-39.58 0-16.55 5.31-29.71 15.93-39.48 10.62-9.77 23.16-14.66 37.63-14.66 14.46 0 26.74 4.37 36.84 13.1 10.1 8.73 15.15 20.72 15.15 35.96v15.64h-76.62c.91 5.74 3.91 10.43 8.99 14.07 5.08 3.65 10.81 5.47 17.2 5.47 10.29 0 18.76-3.45 25.41-10.36l16.42 17.79ZM292.56 70.6c-4.04-3.39-8.96-5.08-14.76-5.08-5.8 0-11.11 1.76-15.93 5.28-4.82 3.52-7.62 8.28-8.4 14.27h46.13c-.65-6.26-3-11.08-7.04-14.47ZM392.54 149.76c-12.44 0-23.55-5.28-33.33-15.83-9.77-10.55-14.66-23.65-14.66-39.29 0-15.63 4.75-28.44 14.27-38.41 9.51-9.97 20.65-14.95 33.42-14.95 12.77 0 23.19 4.5 31.27 13.49V3.17h29.32V148.2h-29.32v-13.88c-8.2 10.3-18.53 15.44-30.97 15.44Zm-18.47-53.94c0 8.47 2.54 15.41 7.62 20.82s11.01 8.11 17.79 8.11c6.77 0 12.54-2.7 17.3-8.11 4.76-5.41 7.13-12.38 7.13-20.91s-2.38-15.64-7.13-21.31c-4.76-5.67-10.59-8.5-17.49-8.5-6.91 0-12.84 2.87-17.79 8.6-4.96 5.73-7.43 12.83-7.43 21.3ZM483.04 29.65c-3.32-3.32-4.98-7.39-4.98-12.22 0-4.82 1.66-8.89 4.98-12.22 3.32-3.32 7.39-4.98 12.22-4.98 4.82 0 8.89 1.66 12.22 4.98 3.32 3.32 4.98 7.4 4.98 12.22s-1.66 8.89-4.98 12.22c-3.32 3.32-7.4 4.98-12.22 4.98-4.83.01-8.9-1.65-12.22-4.98Zm26.87 118.55h-29.32V43.04h29.32V148.2ZM572.65 64.15v47.11c0 4.04 1.04 7.2 3.13 9.48 2.08 2.28 4.56 3.42 7.43 3.42 5.47 0 10.1-2.47 13.88-7.43l10.95 20.52c-9.12 8.34-18.73 12.51-28.83 12.51-10.1 0-18.64-3.32-25.61-9.97-6.97-6.65-10.46-15.7-10.46-27.17V64.15h-12.31V43.04h12.31V11.57h29.51v31.47h25.41v21.11h-25.41Z"/><path fill="#000" d="m671.35 130.61 4.5-7.43c9.38 9.77 26.78 17.2 45.15 17.2 27.36 0 39.48-11.92 39.48-26.78 0-41.04-85.41-16.42-85.41-66.84 0-19.35 14.85-36.35 48.47-36.35 15.05 0 30.69 4.69 41.24 12.31l-3.71 8.01c-11.34-7.82-25.21-11.53-37.53-11.53-26.58 0-38.5 12.31-38.5 27.36 0 41.04 85.41 16.81 85.41 66.45 0 19.35-15.44 36.16-49.25 36.16-20.34.01-39.88-7.62-49.85-18.56ZM851.76 141.75c-5.08 4.89-13.29 7.23-20.91 7.23-17.98 0-27.75-10.55-27.75-27.75V54.58h-18.76v-8.4h18.76V23.9h9.77v22.28h32.44v8.4h-32.44v65.67c0 13.09 6.45 20.33 18.96 20.33 6.06 0 11.73-1.95 15.83-5.67l4.1 6.84ZM864.07 97.19c0-30.29 21.69-51.79 51.01-51.79 29.32 0 51.01 21.5 51.01 51.79s-21.69 51.79-51.01 51.79c-29.31 0-51.01-21.5-51.01-51.79Zm92.06 0c0-25.6-17.59-43-41.04-43s-41.04 17.39-41.04 43c0 25.6 17.59 43 41.04 43s41.04-17.4 41.04-43ZM1044.67 45.39v9.58c-.78 0-1.56-.19-2.35-.19-22.67 0-36.16 15.05-36.16 40.26v53.16h-9.77V46.18h9.38v22.28c6.26-14.86 19.75-23.07 38.9-23.07ZM1156.86 99.53h-87.75c.98 24.23 18.76 40.65 43.19 40.65 12.9 0 24.82-4.69 32.64-14.27l5.67 6.45c-8.99 10.95-23.06 16.61-38.5 16.61-30.88 0-52.57-21.5-52.57-51.79s20.91-51.79 48.86-51.79 48.67 21.11 48.67 51.4c-.01.79-.21 1.77-.21 2.74Zm-87.56-7.62h78.18c-1.37-22.09-17.39-37.92-39.09-37.92-21.69 0-37.52 15.64-39.09 37.92Z"/></svg>