<svg xmlns="http://www.w3.org/2000/svg" fill="none" viewBox="0 0 1070 120">
  <path
    fill="#425BB2"
    fill-rule="evenodd"
    d="M71.22 8.706C94.827 13.845 112.504 34.855 112.504 60c0 24.654-16.995 45.332-39.906 50.975v7.696C99.686 112.883 120 88.816 120 60c0-29.302-21.006-53.693-48.78-58.948v7.654ZM55.337 66.33l.232 1.387 2.203-.982c-.356.366-2.752 2.684-2.998 2.75l-.193-1.246-2.169.97c.557-.542 2.49-2.567 2.925-2.878Z"
    clip-rule="evenodd"
  />
  <path
    fill="#8ACF27"
    fill-rule="evenodd"
    d="m59.592 69.994-1.544.246.993-3.034c-.39.57-2.855 4.344-2.918 4.668l1.389-.242-.98 2.986c.574-.878 2.734-3.98 3.06-4.624Z"
    clip-rule="evenodd"
  />
  <path
    fill="#425BB2"
    fill-rule="evenodd"
    d="m62.448 69.755-1.188.751-.74-2.296c-.033.51-.16 3.842-.046 4.07l1.058-.689.726 2.261c.03-.776.25-3.565.19-4.097Z"
    clip-rule="evenodd"
  />
  <path
    fill="#8ACF27"
    fill-rule="evenodd"
    d="m70.353 52.634-.232-1.387-2.203.983c.357-.367 2.752-2.685 3-2.752l.191 1.249 2.17-.97c-.558.54-2.49 2.566-2.926 2.877Z"
    clip-rule="evenodd"
  />
  <path
    fill="#425BB2"
    fill-rule="evenodd"
    d="m66.1 48.971 1.544-.247-.994 3.034c.39-.57 2.854-4.343 2.918-4.667l-1.389.241.98-2.986c-.574.879-2.733 3.98-3.06 4.625Z"
    clip-rule="evenodd"
  />
  <path
    fill="#8ACF27"
    fill-rule="evenodd"
    d="m63.242 49.211 1.188-.753.738 2.296c.037-.51.163-3.842.047-4.07l-1.057.69-.726-2.261c-.03.776-.248 3.565-.19 4.098Z"
    clip-rule="evenodd"
  />
  <path
    fill="#8ACF27"
    fill-rule="evenodd"
    d="M56.516 7.614v14c-4.274.413-7.772 1.479-10.496 3.173-2.741 1.677-4.905 3.877-6.492 6.6-1.587 2.705-2.38 5.644-2.38 8.818 0 3.282.721 6.168 2.163 8.656.894 1.533 2.07 2.978 3.534 4.335a8.376 8.376 0 0 0 4.713 8.871c2.489 1.17 5.108 2.243 7.64 3.434l1.555-3.31 4.107 1.922c.53.247 1.165.017 1.413-.513a1.064 1.064 0 0 0-.512-1.413l-4.103-1.92 1.04-2.217 1.116-2.371L64 57.637c.53.248 1.166.017 1.414-.512v-.001a1.064 1.064 0 0 0-.513-1.413l-4.182-1.957 1.543-3.283-7.58-3.562a8.359 8.359 0 0 0-7.219.046 14.43 14.43 0 0 1-.397-.456c-1.497-1.766-2.236-3.913-2.236-6.438 0-1.983.469-3.786 1.407-5.41a10.566 10.566 0 0 1 3.86-3.913c.881-.529 1.917-.942 3.106-1.242l.022-.006c.88-.221 1.844-.382 2.889-.482 4.19-.492 7.775.068 10.75 1.678v.001c2.63 1.305 4.913 3.435 6.855 6.398l5.627-4.544c-2.253-3.192-4.6-5.59-7.05-7.212-2.454-1.642-5.411-2.76-8.856-3.39V.099A60.018 60.018 0 0 0 60 0c-1.169 0-2.33.037-3.484.103v7.512Z"
    clip-rule="evenodd"
  />
  <path
    fill="#8ACF27"
    fill-rule="evenodd"
    d="M50.108 111.567c-24.267-4.626-42.61-25.952-42.61-51.568 0-25.129 17.653-46.128 41.235-51.284V1.06C20.982 6.333 0 30.714 0 60c0 29.766 21.678 54.467 50.108 59.183v-7.616Z"
    clip-rule="evenodd"
  />
  <path
    fill="#425BB2"
    fill-rule="evenodd"
    d="M60 120c1.62 0 3.227-.065 4.815-.193v-19.5c4.11-.522 7.357-1.37 9.72-2.542 3.605-1.786 6.491-4.31 8.62-7.52 2.128-3.228 3.191-6.78 3.191-10.658 0-4.688-1.443-8.98-4.328-12.857l-.04-.055a8.38 8.38 0 0 0-4.59-9.509c-2.485-1.17-5.109-2.243-7.64-3.432l-3.5 7.449-3.562 7.58 7.579 3.561a8.345 8.345 0 0 0 6.546.246c1.384 2.223 2.07 4.6 2.07 7.144 0 3.083-1.281 5.878-3.841 8.385a15.262 15.262 0 0 1-3.727 2.671c-.021.036-.045.049-.069.036l-.014.006c-.7.355-1.439.667-2.217.936-3.445 1.243-7.152 1.633-11.124 1.172v.03a25.94 25.94 0 0 1-6.387-1.435l-.003-.001c-4.711-1.721-8.783-4.85-12.22-9.384l-5.627 4.328a28.643 28.643 0 0 0 6.204 7.16c2.49 2.073 5.032 3.606 7.63 4.633 2.613 1.01 6.075 1.696 10.403 2.056v19.652c.701.024 1.404.041 2.11.041Z"
    clip-rule="evenodd"
  />
  <path
    fill="#8ACF27"
    d="m263.136 22.917-15.254 14.484c-10.37-10.929-22.015-16.393-34.986-16.393-10.929 0-20.159 3.74-27.64 11.194-7.506 7.453-11.247 16.63-11.247 27.56 0 7.612 1.672 14.377 4.987 20.265 3.316 5.915 8.011 10.557 14.06 13.926 6.074 3.368 12.81 5.04 20.238 5.04 6.312 0 12.095-1.168 17.321-3.528 5.252-2.361 11.008-6.658 17.267-12.866l14.776 15.438c-8.435 8.25-16.419 13.98-23.927 17.163-7.506 3.209-16.1 4.8-25.729 4.8-17.772 0-32.335-5.623-43.66-16.896-11.327-11.247-16.977-25.704-16.977-43.29 0-11.406 2.573-21.511 7.745-30.37 5.146-8.861 12.52-15.969 22.148-21.355C191.862 2.704 202.206 0 213.321 0c9.416 0 18.487 1.988 27.241 5.968 8.727 3.979 16.26 9.629 22.574 16.95Zm42.15 24.669h6.896c7.003 0 11.803-.902 14.457-2.732 2.625-1.83 3.952-4.854 3.952-9.099 0-2.493-.664-4.668-1.963-6.524-1.3-1.858-3.05-3.184-5.253-3.98-2.175-.82-6.207-1.22-12.068-1.22h-6.021v23.555ZM283.641 2.865h23.103c12.627 0 21.645 1.113 27.002 3.368 5.385 2.255 9.682 6.021 12.945 11.247s4.908 11.406 4.908 18.568c0 7.506-1.804 13.792-5.384 18.832-3.608 5.067-9.02 8.887-16.261 11.46l26.976 50.795h-23.767l-25.676-48.38h-2.201v48.38h-21.645V2.865Z"
  />
  <path
    fill="#8ACF27"
    fill-rule="evenodd"
    d="m527.252 60-23.468 16.514-23.466 16.516V26.97l23.466 16.516 23.468 16.514Zm-69.813 57.136V2.863l31.967.103c18.804.194 32.452 4.622 40.942 13.282 7.918 7.82 13.202 17.35 15.851 28.587 2.325 10.588 2.393 21.228.203 31.922-2.796 12.781-9.033 23.03-18.707 30.746-6.961 5.476-15.156 8.438-24.581 8.879-3.93.617-19.155.867-45.675.754Z"
    clip-rule="evenodd"
  />
  <path
    fill="#425BB2"
    d="M849.066 2.865h11.459v69.019c0 8.17.159 13.29.477 15.305.557 4.51 1.883 8.276 3.952 11.3 2.069 3.024 5.253 5.57 9.55 7.613 4.297 2.042 8.62 3.076 12.997 3.076 3.766 0 7.401-.795 10.875-2.414 3.449-1.591 6.367-3.819 8.701-6.685 2.334-2.837 4.032-6.285 5.119-10.318.769-2.917 1.167-8.86 1.167-17.877V2.864h11.459V71.83c0 10.212-1.007 18.462-2.997 24.748-1.989 6.288-5.995 11.778-11.963 16.419-5.994 4.669-13.236 7.003-21.751 7.003-9.231 0-17.136-2.201-23.714-6.604-6.605-4.404-11.008-10.212-13.236-17.48-1.405-4.456-2.095-12.467-2.095-24.086V2.865Z"
  />
  <path
    fill="#8ACF27"
    d="M374.68 2.865h62.386V24.19h-40.743v20.53h40.743v21.008h-40.743v30.08h40.743v21.326H374.68V2.865Zm192.445 0h21.644v114.27h-21.644V2.865Zm34.987 0h63.183v21.484h-20.848v92.786h-22.122V24.349h-20.213V2.865Z"
  />
  <path
    fill="#425BB2"
    d="M692.352 14.005v38.833l19.364.239c7.825 0 13.554-.717 17.188-2.149 3.633-1.432 6.498-3.714 8.568-6.896 2.068-3.183 3.103-6.763 3.103-10.69 0-3.82-1.035-7.348-3.103-10.53-2.07-3.184-4.829-5.439-8.224-6.791-3.395-1.353-8.938-2.016-16.684-2.016h-20.212Zm-11.459-11.14h22.785c13.051 0 21.883.556 26.445 1.697 6.526 1.618 11.857 4.907 15.995 9.92 4.165 4.988 6.234 11.274 6.234 18.834 0 7.613-2.016 13.872-6.075 18.833-4.032 4.934-9.602 8.25-16.684 9.974-5.199 1.246-14.881 1.856-29.072 1.856h-8.169v53.156h-11.459V2.865Zm94.191 0h11.46v103.131h44.084v11.139h-55.544V2.865ZM1063.26 22.015l-8.86 8.383c-6.39-6.26-13.39-11.008-21.01-14.244-7.61-3.236-15.03-4.854-22.28-4.854-8.99 0-17.556 2.2-25.674 6.604-8.143 4.403-14.456 10.37-18.912 17.932-4.483 7.533-6.711 15.49-6.711 23.899 0 8.594 2.308 16.764 6.924 24.536 4.614 7.745 11.007 13.82 19.15 18.249 8.17 4.43 17.083 6.658 26.793 6.658 11.78 0 21.75-3.315 29.89-9.921 8.15-6.604 12.97-15.198 14.49-25.73h-36.45v-11.14h49.34c-.11 17.64-5.36 31.671-15.76 42.043-10.42 10.371-24.32 15.57-41.78 15.57-21.165 0-37.929-7.187-50.289-21.591-9.496-11.087-14.244-23.9-14.244-38.462 0-10.796 2.731-20.876 8.17-30.213 5.464-9.31 12.945-16.604 22.44-21.856C988.01 2.625 998.753 0 1010.74 0c9.71 0 18.86 1.75 27.43 5.226 8.57 3.5 16.95 9.07 25.09 16.79Z"
  />
</svg>
