<?xml version="1.0" encoding="UTF-8" standalone="no"?>
<!-- Created with Inkscape (http://www.inkscape.org/) -->

<svg
   version="1.1"
   id="svg2"
   width="1334.6667"
   height="1334.6667"
   viewBox="0 0 1334.6667 1334.6667"
   sodipodi:docname="Credit Plug_RGB_1.eps"
   xmlns:inkscape="http://www.inkscape.org/namespaces/inkscape"
   xmlns:sodipodi="http://sodipodi.sourceforge.net/DTD/sodipodi-0.dtd"
   xmlns="http://www.w3.org/2000/svg"
   xmlns:svg="http://www.w3.org/2000/svg">
  <defs
     id="defs6" />
  <sodipodi:namedview
     id="namedview4"
     pagecolor="#ffffff"
     bordercolor="#000000"
     borderopacity="0.25"
     inkscape:showpageshadow="2"
     inkscape:pageopacity="0.0"
     inkscape:pagecheckerboard="0"
     inkscape:deskcolor="#d1d1d1" />
  <g
     id="g8"
     inkscape:groupmode="layer"
     inkscape:label="ink_ext_XXXXXX"
     transform="matrix(1.3333333,0,0,-1.3333333,0,1334.6667)">
    <g
       id="g10"
       transform="scale(0.1)">
      <path
         d="m 2580.65,2999.07 -113.31,-107.59 c -77.04,81.18 -163.54,121.77 -259.9,121.77 -81.18,0 -149.75,-27.78 -205.32,-83.15 -55.76,-55.37 -83.55,-123.54 -83.55,-204.73 0,-56.55 12.42,-106.8 37.05,-150.54 24.63,-43.94 59.51,-78.42 104.44,-103.45 45.12,-25.02 95.16,-37.44 150.34,-37.44 46.89,0 89.85,8.68 128.67,26.21 39.01,17.54 81.77,49.46 128.27,95.57 l 109.76,-114.68 c -62.66,-61.28 -121.97,-103.85 -177.74,-127.49 -55.76,-23.84 -119.6,-35.66 -191.13,-35.66 -132.02,0 -240.2,41.77 -324.33,125.51 -84.14,83.55 -126.11,190.94 -126.11,321.58 0,84.73 19.11,159.8 57.53,225.61 38.23,65.82 93.01,118.62 164.53,158.63 71.34,40 148.18,60.09 230.75,60.09 69.95,0 137.33,-14.77 202.36,-44.33 64.83,-29.56 120.79,-71.53 167.69,-125.91 v 0"
         style="fill:#8acf27;fill-opacity:1;fill-rule:nonzero;stroke:none"
         id="path12" />
      <path
         d="m 2893.76,2815.82 h 51.23 c 52.02,0 87.68,6.7 107.39,20.29 19.5,13.6 29.36,36.06 29.36,67.59 0,18.52 -4.93,34.68 -14.58,48.47 -9.66,13.8 -22.66,23.65 -39.02,29.56 -16.16,6.1 -46.11,9.06 -89.65,9.06 h -44.73 v -174.97 z m -160.79,332.21 h 171.62 c 93.8,0 160.79,-8.27 200.59,-25.02 40,-16.75 71.92,-44.73 96.16,-83.55 24.24,-38.82 36.46,-84.73 36.46,-137.93 0,-55.76 -13.4,-102.46 -40,-139.9 -26.8,-37.64 -67,-66.01 -120.79,-85.12 l 200.39,-377.34 h -176.55 l -190.74,359.4 h -16.35 v -359.4 h -160.79 v 848.86 0"
         style="fill:#8acf27;fill-opacity:1;fill-rule:nonzero;stroke:none"
         id="path14" />
      <path
         d="m 4542.62,2723.6 -174.33,-122.68 -174.32,-122.69 v 490.74 l 174.32,-122.69 174.33,-122.68 z m -518.6,-424.44 c 0,565.92 0,848.88 0,848.88 158.3,-0.51 237.46,-0.77 237.46,-0.77 139.69,-1.44 241.07,-34.33 304.14,-98.66 58.82,-58.09 98.07,-128.88 117.75,-212.36 17.27,-78.65 17.78,-157.69 1.51,-237.13 -20.77,-94.95 -67.1,-171.08 -138.97,-228.4 -51.71,-40.68 -112.58,-62.68 -182.6,-65.96 -29.19,-4.58 -142.29,-6.44 -339.29,-5.6 v 0"
         style="fill:#8acf27;fill-opacity:1;fill-rule:evenodd;stroke:none"
         id="path16" />
      <path
         d="m 6933.23,3148.03 h 85.12 v -512.71 c 0,-60.69 1.18,-98.72 3.54,-113.69 4.14,-33.5 13.99,-61.48 29.36,-83.94 15.37,-22.47 39.02,-41.38 70.94,-56.56 31.92,-15.17 64.04,-22.85 96.55,-22.85 27.98,0 54.98,5.91 80.79,17.93 25.62,11.82 47.29,28.37 64.63,49.66 17.34,21.08 29.95,46.69 38.03,76.65 5.71,21.67 8.67,65.81 8.67,132.8 v 512.71 h 85.12 v -512.31 c 0,-75.86 -7.48,-137.14 -22.26,-183.84 -14.78,-46.71 -44.54,-87.49 -88.87,-121.97 -44.53,-34.68 -98.32,-52.02 -161.58,-52.02 -68.57,0 -127.29,16.35 -176.16,49.06 -49.06,32.71 -81.77,75.86 -98.32,129.85 -10.44,33.1 -15.56,92.61 -15.56,178.92 v 512.31 0"
         style="fill:#425bb2;fill-opacity:1;fill-rule:nonzero;stroke:none"
         id="path18" />
      <path
         d="m 5521.49,7229.48 c 748.07,-162.85 1308.26,-828.67 1308.26,-1625.54 0,-781.32 -538.57,-1436.61 -1264.66,-1615.43 V 3744.6 c 858.47,183.44 1502.26,946.13 1502.26,1859.34 0,928.58 -665.69,1701.56 -1545.86,1868.09 v -242.55 0"
         style="fill:#425bb2;fill-opacity:1;fill-rule:evenodd;stroke:none"
         id="path20" />
      <path
         d="m 3409.24,3148.03 h 463.44 V 2989.61 H 3570.02 V 2837.1 h 302.66 v -156.06 h -302.66 v -223.45 h 302.66 v -158.42 h -463.44 v 848.86 0"
         style="fill:#8acf27;fill-opacity:1;fill-rule:nonzero;stroke:none"
         id="path22" />
      <path
         d="m 4838.82,3148.03 h 160.78 v -848.86 h -160.78 v 848.86 0"
         style="fill:#8acf27;fill-opacity:1;fill-rule:nonzero;stroke:none"
         id="path24" />
      <path
         d="m 5098.72,3148.03 h 469.36 v -159.6 h -154.87 v -689.26 h -164.34 v 689.26 h -150.15 v 159.6 0"
         style="fill:#8acf27;fill-opacity:1;fill-rule:nonzero;stroke:none"
         id="path26" />
      <path
         d="M 5769.08,3065.27 V 2776.8 l 143.84,-1.77 c 58.13,0 100.69,5.32 127.68,15.96 26.99,10.64 48.27,27.59 63.65,51.23 15.36,23.64 23.05,50.24 23.05,79.41 0,28.37 -7.69,54.58 -23.05,78.22 -15.38,23.65 -35.87,40.4 -61.09,50.45 -25.22,10.05 -66.4,14.97 -123.94,14.97 h -150.14 z m -85.13,82.76 h 169.26 c 96.95,0 162.56,-4.13 196.45,-12.61 48.48,-12.02 88.08,-36.45 118.82,-73.69 30.94,-37.05 46.31,-83.75 46.31,-139.91 0,-56.55 -14.98,-103.05 -45.13,-139.9 -29.95,-36.65 -71.33,-61.28 -123.94,-74.09 -38.62,-9.26 -110.54,-13.79 -215.96,-13.79 h -60.68 v -394.87 h -85.13 v 848.86 0"
         style="fill:#425bb2;fill-opacity:1;fill-rule:nonzero;stroke:none"
         id="path28" />
      <path
         d="m 6383.65,3148.03 h 85.13 v -766.11 h 327.48 v -82.75 h -412.61 v 848.86 0"
         style="fill:#425bb2;fill-opacity:1;fill-rule:nonzero;stroke:none"
         id="path30" />
      <path
         d="m 5018.1,5403.31 7.38,-43.93 69.81,31.13 c -11.3,-11.61 -87.22,-85.08 -95.02,-87.19 l -6.12,39.52 -68.73,-30.75 c 17.66,17.17 78.88,81.35 92.68,91.22 v 0"
         style="fill:#425bb2;fill-opacity:1;fill-rule:evenodd;stroke:none"
         id="path32" />
      <path
         d="m 5152.93,5287.21 -48.93,-7.79 31.47,96.15 c -12.35,-18.08 -90.46,-137.66 -92.46,-147.93 l 44.01,7.68 -31.08,-94.65 c 18.23,27.83 86.66,126.12 96.99,146.54 v 0"
         style="fill:#8acf27;fill-opacity:1;fill-rule:evenodd;stroke:none"
         id="path34" />
      <path
         d="m 5243.45,5294.79 -37.64,-23.82 -23.44,72.78 c -1.05,-16.18 -5.08,-121.75 -1.46,-129 l 33.52,21.84 23.01,-71.65 c 0.97,24.61 7.9,112.98 6.01,129.85 v 0"
         style="fill:#425bb2;fill-opacity:1;fill-rule:evenodd;stroke:none"
         id="path36" />
      <path
         d="m 5493.98,5837.35 -7.37,43.96 -69.81,-31.15 c 11.33,11.62 87.23,85.1 95.05,87.21 l 6.09,-39.57 68.73,30.72 c -17.65,-17.13 -78.87,-81.29 -92.69,-91.17 v 0"
         style="fill:#8acf27;fill-opacity:1;fill-rule:evenodd;stroke:none"
         id="path38" />
      <path
         d="m 5359.17,5953.43 48.95,7.83 -31.51,-96.15 c 12.39,18.07 90.45,137.65 92.47,147.9 l -44,-7.63 31.07,94.62 c -18.22,-27.84 -86.65,-126.09 -96.98,-146.57 v 0"
         style="fill:#425bb2;fill-opacity:1;fill-rule:evenodd;stroke:none"
         id="path40" />
      <path
         d="m 5268.63,5945.84 37.65,23.88 23.39,-72.79 c 1.16,16.18 5.16,121.76 1.48,128.97 l -33.5,-21.82 -23,71.64 c -0.97,-24.6 -7.88,-112.99 -6.02,-129.88 v 0"
         style="fill:#8acf27;fill-opacity:1;fill-rule:evenodd;stroke:none"
         id="path42" />
      <path
         d="m 5055.45,7264.06 v -443.65 c -135.45,-13.11 -246.29,-46.88 -332.61,-100.55 -86.87,-53.16 -155.45,-122.88 -205.73,-209.17 -50.3,-85.73 -75.42,-178.87 -75.42,-279.45 0,-104.02 22.85,-195.45 68.54,-274.32 28.32,-48.56 65.6,-94.37 112,-137.38 -17.81,-113.52 40.12,-229.8 149.36,-281.13 78.85,-37.06 161.88,-71.07 242.13,-108.8 l 49.24,104.86 130.17,-60.88 c 16.8,-7.85 36.93,-0.54 44.79,16.25 v 0.01 c 7.87,16.81 0.55,36.95 -16.24,44.77 l -130.04,60.83 33,70.26 35.35,75.16 132.66,-62.06 c 16.78,-7.86 36.94,-0.55 44.79,16.23 v 0.03 c 7.88,16.79 0.55,36.93 -16.24,44.76 l -132.55,62.02 48.9,104.05 -240.21,112.88 c -75.45,35.45 -159.18,32.28 -228.76,-1.46 -4.34,4.78 -8.56,9.62 -12.6,14.47 -47.43,55.96 -70.84,123.99 -70.84,204.01 0,62.84 14.84,120 44.57,171.45 29.71,51.99 70.27,93.15 122.3,124.01 27.95,16.75 60.79,29.84 98.45,39.36 l 0.7,0.18 c 27.89,7.01 58.46,12.1 91.55,15.29 132.82,15.57 246.41,-2.16 340.69,-53.2 v -0.02 c 83.32,-41.37 155.71,-108.86 217.24,-202.76 l 178.31,144.02 c -71.4,101.15 -145.74,177.14 -223.43,228.54 -77.75,52.03 -171.47,87.47 -280.62,107.44 v 96.04 85.73 272.25 238.07 c -36.07,2.07 -72.41,3.17 -109,3.17 -37.07,0 -73.89,-1.16 -110.45,-3.25 v -238.06 0"
         style="fill:#8acf27;fill-opacity:1;fill-rule:evenodd;stroke:none"
         id="path44" />
      <path
         d="m 4852.42,3969.72 c -769.05,146.61 -1350.35,822.46 -1350.35,1634.22 0,796.36 559.46,1461.84 1306.77,1625.25 v 242.57 C 3929.39,7304.67 3264.46,6532.02 3264.46,5603.94 c 0,-943.33 686.99,-1726.11 1587.96,-1875.57 v 241.35 0"
         style="fill:#8acf27;fill-opacity:1;fill-rule:evenodd;stroke:none"
         id="path46" />
      <path
         d="m 5165.9,3702.49 c 51.36,0 102.28,2.07 152.59,6.11 v 238.52 189.73 189.72 c 130.28,16.54 233.16,43.43 308.02,80.55 114.28,56.6 205.73,136.59 273.18,238.32 67.44,102.29 101.15,214.89 101.15,337.76 0,148.58 -45.73,284.6 -137.17,407.45 l -1.29,1.73 c 28.44,119.66 -29.71,246.97 -145.43,301.36 -78.76,37.07 -161.91,71.08 -242.11,108.77 l -110.95,-236.07 -112.86,-240.22 240.17,-112.86 c 67.92,-31.95 142.48,-32.55 207.46,-7.77 43.85,-70.45 65.57,-145.79 65.57,-226.42 0,-97.7 -40.58,-186.27 -121.7,-265.73 -34.4,-33.63 -73.75,-61.88 -118.1,-84.64 -0.68,-1.12 -1.42,-1.53 -2.18,-1.14 l -0.45,-0.19 c -22.18,-11.23 -45.61,-21.13 -70.26,-29.66 -109.18,-39.39 -226.67,-51.76 -352.52,-37.14 v -0.93 c -71.15,7.01 -138.61,22.13 -202.42,45.45 l -0.11,0.05 c -149.28,54.53 -278.34,153.67 -387.22,297.37 l -178.34,-137.15 c 52.6,-85.72 117.73,-161.75 196.61,-226.9 78.87,-65.71 159.44,-114.28 241.76,-146.83 82.83,-32.03 192.56,-53.75 329.72,-65.16 v -192.51 -192.52 -237.75 c 22.21,-0.75 44.47,-1.3 66.88,-1.3 v 0"
         style="fill:#425bb2;fill-opacity:1;fill-rule:evenodd;stroke:none"
         id="path48" />
      <path
         d="m 8524.38,3005.77 -65.81,-62.27 c -47.49,46.5 -99.51,81.77 -156.06,105.81 -56.55,24.04 -111.72,36.06 -165.52,36.06 -66.8,0 -130.44,-16.35 -190.74,-49.06 -60.49,-32.71 -107.39,-77.04 -140.49,-133.21 -33.3,-55.96 -49.85,-115.07 -49.85,-177.53 0,-63.84 17.14,-124.53 51.43,-182.27 34.28,-57.53 81.77,-102.66 142.26,-135.56 60.69,-32.91 126.9,-49.46 199.02,-49.46 87.49,0 161.57,24.63 222.07,73.7 60.49,49.06 96.35,112.9 107.58,191.13 h -270.74 v 82.76 h 366.5 c -0.78,-131.04 -39.8,-235.27 -117.04,-312.32 -77.44,-77.04 -180.69,-115.66 -310.34,-115.66 -157.25,0 -281.78,53.39 -373.6,160.39 -70.54,82.36 -105.81,177.54 -105.81,285.71 0,80.2 20.29,155.08 60.69,224.44 40.59,69.16 96.16,123.34 166.7,162.36 70.74,39.02 150.54,58.52 239.6,58.52 72.12,0 140.1,-13 203.75,-38.82 63.64,-26 125.91,-67.38 186.4,-124.72 v 0"
         style="fill:#425bb2;fill-opacity:1;fill-rule:nonzero;stroke:none"
         id="path50" />
      <path
         d="M 10005,10005 H 5 V 5 h 10000 z"
         style="fill:none;stroke:#ffffff;stroke-width:10;stroke-linecap:butt;stroke-linejoin:miter;stroke-miterlimit:10;stroke-dasharray:none;stroke-opacity:1"
         id="path52" />
    </g>
  </g>
</svg>
