<svg xmlns="http://www.w3.org/2000/svg" fill="none" viewBox="0 0 202 38"><path fill="#fff" d="m17.063 22.97 1.66 14.553 7.218-8.338-4.13-4.362 16.599 8.879L57.324 1.238 17.064 22.97ZM15.91 9.78.38 13.478l13.076 5.747 10.823-4.403-8.37-5.042ZM26.43 13.68l-7.798-4.505 15.596-3.798 4.94 3.025L26.43 13.68ZM55.555.87 41.186 7.438l-4.529-2.703L55.555.87ZM67.256 24.21V7.41H74.6c1.824 0 3.424.353 4.8 1.057s2.448 1.68 3.216 2.928c.768 1.248 1.152 2.72 1.152 4.416 0 1.68-.384 3.152-1.152 4.416-.768 1.248-1.84 2.224-3.216 2.928-1.376.704-2.976 1.056-4.8 1.056h-7.344Zm3.12-2.64h4.08c1.264 0 2.352-.24 3.264-.72.928-.48 1.64-1.151 2.136-2.015.512-.864.768-1.872.768-3.024 0-1.168-.256-2.176-.768-3.024-.496-.864-1.208-1.536-2.136-2.016-.912-.48-2-.72-3.264-.72h-4.08v11.52ZM85.644 24.21V11.396h3V24.21h-3Zm1.512-14.927c-.56 0-1.024-.176-1.392-.528a1.734 1.734 0 0 1-.528-1.272c0-.512.176-.936.528-1.272.368-.352.832-.528 1.392-.528.56 0 1.016.168 1.368.504.368.32.552.728.552 1.224 0 .528-.176.976-.528 1.344-.352.352-.816.528-1.392.528ZM97.238 29.035c-1.184 0-2.344-.16-3.48-.48-1.12-.304-2.04-.752-2.76-1.344l1.344-2.256c.56.464 1.264.832 2.112 1.104a8.225 8.225 0 0 0 2.616.432c1.408 0 2.44-.328 3.096-.984.656-.64.984-1.608.984-2.904v-2.28l.24-2.904-.096-2.904v-3.12h2.856v10.872c0 2.32-.592 4.024-1.776 5.112-1.184 1.104-2.896 1.656-5.136 1.656Zm-.384-5.4c-1.216 0-2.32-.256-3.312-.768a6.113 6.113 0 0 1-2.328-2.184c-.56-.928-.84-2.016-.84-3.264 0-1.232.28-2.312.84-3.24a5.934 5.934 0 0 1 2.328-2.16c.992-.512 2.096-.768 3.312-.768 1.088 0 2.064.216 2.928.648.864.432 1.552 1.104 2.064 2.016.528.912.792 2.08.792 3.504s-.264 2.6-.792 3.528c-.512.912-1.2 1.592-2.064 2.04-.864.432-1.84.648-2.928.648Zm.456-2.544c.752 0 1.424-.152 2.016-.456a3.45 3.45 0 0 0 1.368-1.296c.336-.56.504-1.2.504-1.92s-.168-1.352-.504-1.896a3.099 3.099 0 0 0-1.368-1.272c-.592-.304-1.264-.456-2.016-.456s-1.432.152-2.04.456a3.243 3.243 0 0 0-1.392 1.272c-.32.544-.48 1.176-.48 1.896s.16 1.36.48 1.92c.336.544.8.976 1.392 1.296.608.304 1.288.456 2.04.456ZM106.942 24.21V11.396h3V24.21h-3Zm1.512-14.927c-.56 0-1.024-.176-1.392-.528a1.734 1.734 0 0 1-.528-1.272c0-.512.176-.936.528-1.272.368-.352.832-.528 1.392-.528.56 0 1.016.168 1.368.504.368.32.552.728.552 1.224 0 .528-.176.976-.528 1.344-.352.352-.816.528-1.392.528ZM117.551 24.379c-1.408 0-2.496-.36-3.264-1.08-.768-.736-1.152-1.816-1.152-3.24V8.563h3v11.424c0 .608.152 1.08.456 1.416.32.336.76.504 1.32.504.672 0 1.232-.176 1.68-.528l.84 2.136a3.525 3.525 0 0 1-1.296.648 5.823 5.823 0 0 1-1.584.216Zm-6.528-10.488v-2.4h8.544v2.4h-8.544ZM129.643 24.21V21.62l-.168-.552V16.53c0-.88-.264-1.56-.792-2.04-.528-.496-1.328-.744-2.4-.744-.72 0-1.432.112-2.136.336-.688.224-1.272.536-1.752.936l-1.176-2.184c.688-.528 1.504-.92 2.448-1.176.96-.272 1.952-.408 2.976-.408 1.856 0 3.288.448 4.296 1.344 1.024.88 1.536 2.248 1.536 4.104v7.512h-2.832Zm-4.032.169c-.96 0-1.8-.16-2.52-.48-.72-.336-1.28-.792-1.68-1.368a3.582 3.582 0 0 1-.576-1.992c0-.72.168-1.368.504-1.944.352-.576.92-1.032 1.704-1.368.784-.336 1.824-.504 3.12-.504h3.72v1.992h-3.504c-1.024 0-1.712.168-2.064.504-.352.32-.528.72-.528 1.2 0 .544.216.976.648 1.296.432.32 1.032.48 1.8.48.736 0 1.392-.168 1.968-.504a2.844 2.844 0 0 0 1.272-1.488l.504 1.8c-.288.752-.808 1.336-1.56 1.752-.736.416-1.672.624-2.808.624ZM135.173 24.21V6.404h3V24.21h-3ZM141.928 24.21V7.41h6.024c1.408 0 2.616.225 3.624.673 1.008.448 1.784 1.096 2.328 1.944.544.832.816 1.848.816 3.048 0 1.168-.272 2.176-.816 3.024-.544.848-1.32 1.496-2.328 1.944-1.008.448-2.216.672-3.624.672H142.6l.552-.576v6.072h-1.224Zm1.224-6-.552-.6h5.352c1.808 0 3.176-.391 4.104-1.175.944-.8 1.416-1.92 1.416-3.36 0-1.456-.472-2.576-1.416-3.36-.928-.8-2.296-1.2-4.104-1.2H142.6l.552-.6V18.21ZM165.093 24.21v-2.855l-.048-.432v-4.704c0-1.168-.32-2.056-.96-2.664-.624-.608-1.544-.912-2.76-.912-.864 0-1.672.152-2.424.456a6.34 6.34 0 0 0-1.896 1.128l-.6-.864c.624-.56 1.376-.992 2.256-1.296.88-.32 1.8-.48 2.76-.48 1.552 0 2.744.392 3.576 1.176.832.784 1.248 1.952 1.248 3.504v7.944h-1.152Zm-4.512.097c-.928 0-1.736-.144-2.424-.432-.672-.304-1.192-.728-1.56-1.272-.352-.544-.528-1.168-.528-1.872 0-.64.144-1.216.432-1.728.304-.528.8-.952 1.488-1.272.688-.336 1.608-.504 2.76-.504h4.608v.936h-4.584c-1.296 0-2.208.24-2.736.72-.512.48-.768 1.08-.768 1.8 0 .8.304 1.44.912 1.92.608.48 1.464.72 2.568.72 1.056 0 1.944-.24 2.664-.72.736-.48 1.28-1.176 1.632-2.088l.336.816a4.388 4.388 0 0 1-1.728 2.184c-.8.528-1.824.792-3.072.792ZM173.685 24.307c-1.104 0-1.952-.304-2.544-.912-.576-.608-.864-1.44-.864-2.496V8.947h1.2v11.832c0 .8.2 1.416.6 1.848.4.432.976.648 1.728.648.784 0 1.432-.232 1.944-.696l.504.84c-.32.304-.712.528-1.176.672a4.52 4.52 0 0 1-1.392.216Zm-5.712-11.592v-1.032h7.488v1.032h-7.488ZM184.567 11.587c1.024 0 1.912.2 2.664.6.768.384 1.36.976 1.776 1.776.432.784.648 1.76.648 2.928v7.32h-1.2v-7.224c0-1.408-.36-2.48-1.08-3.216-.704-.736-1.696-1.104-2.976-1.104-.976 0-1.824.2-2.544.6-.72.4-1.272.96-1.656 1.68-.368.72-.552 1.584-.552 2.592v6.672h-1.2V6.403h1.2v8.76l-.216-.384a4.694 4.694 0 0 1 1.896-2.328c.88-.576 1.96-.864 3.24-.864ZM196.612 24.307a9.201 9.201 0 0 1-2.928-.456c-.896-.304-1.592-.688-2.088-1.152l.552-.96c.48.416 1.12.776 1.92 1.08.8.288 1.664.432 2.592.432 1.312 0 2.256-.216 2.832-.648.576-.432.864-1 .864-1.704 0-.512-.152-.912-.456-1.2-.288-.304-.68-.536-1.176-.696-.496-.16-1.04-.288-1.632-.384a69.806 69.806 0 0 1-1.776-.36 7.251 7.251 0 0 1-1.632-.552 3.16 3.16 0 0 1-1.2-.984c-.288-.432-.432-1-.432-1.704 0-.64.176-1.216.528-1.728.352-.512.88-.92 1.584-1.224.704-.32 1.584-.48 2.64-.48.784 0 1.568.112 2.352.336.8.224 1.448.52 1.944.888l-.552.96a5.099 5.099 0 0 0-1.776-.864 7.655 7.655 0 0 0-1.992-.264c-1.216 0-2.112.224-2.688.672-.56.448-.84 1.008-.84 1.68 0 .528.144.952.432 1.272.304.304.704.544 1.2.72a13.5 13.5 0 0 0 1.632.408c.592.096 1.184.208 1.776.336a7.251 7.251 0 0 1 1.632.552c.496.224.888.544 1.176.96.304.4.456.944.456 1.632s-.192 1.288-.576 1.8c-.368.512-.92.912-1.656 1.2-.736.288-1.64.432-2.712.432Z"/></svg>