<svg version="1.0" xmlns="http://www.w3.org/2000/svg" viewBox="0 0 393 118"><path d="M41.9 31.1c-8.4 4.9-15.8 9.4-16.4 10-.5.5 3.4.9 10.7.9h11.6l5.7 10c4.3 7.6 5.5 10.5 4.9 11.9-.5.9-3.1 5.6-5.9 10.4l-5 8.6-11.5.3-11.5.3L42 93.2c17 9.5 17.5 9.7 19 7.8.8-1.1 6.2-10.3 11.8-20.5L83.2 62l-4.8-8.2C63.5 27.9 59.8 22 58.7 22c-.7 0-8.3 4.1-16.8 9.1zM344.1 24.2c-9.6 1.7-15.5 8.7-15.5 18.3 0 11 6.7 17.7 18.4 18.3 5.3.3 7.5 0 10.8-1.7 5.6-2.8 6-4 2.7-6.7-2.8-2.2-2.9-2.2-5.3-.3-1.6 1.2-4 1.9-6.9 1.9-3.8 0-5-.5-7.9-3.4-2.9-2.9-3.4-4.1-3.4-8.1s.5-5.2 3.4-8.1c2.9-2.9 4.1-3.4 7.9-3.4 2.8 0 5.3.7 6.8 1.9 2.4 1.9 2.5 1.9 5.3-.4 3.2-2.6 2.9-3.8-1.7-6.2-4.5-2.3-9.4-3-14.6-2.1zM102 42.5v18.7l11.8-.3c10.6-.4 12.1-.7 16.4-3.1 3.2-1.9 5.2-4.1 6.7-7.1 4.3-8.8 1.5-18.6-6.7-23.5-4.3-2.4-5.8-2.7-16.4-3.1l-11.8-.3v18.7zm22.4-10c4.1 2 5.8 4.8 5.8 10 0 7.8-4.7 11.5-14.6 11.5H110V31h5.6c3.1 0 7 .7 8.8 1.5zM140.8 27.2c12.2 20 12.2 19.9 12.2 27V61h9v-7c0-6.8.1-7.1 7-18.5l6.9-11.5h-4.2c-4.2 0-4.2.1-8.5 7.5-2.4 4.1-4.7 7.7-5.2 8-.4.3-2.9-3.1-5.5-7.5l-4.7-8h-9l2 3.2zM179 42.5V61h8.9l.3-10.9.3-11 8.9 11c8.1 9.9 9.3 10.9 12.3 10.9h3.3V24h-7.9l-.3 11.1-.3 11.1-9-11.1c-8.6-10.5-9.2-11.1-12.7-11.1H179v18.5zM231.8 28.7c-1.1 2.6-4.7 10.6-7.9 17.7-3.3 7.1-5.9 13.3-5.9 13.7 0 .5 1.8.9 4 .9 3.8 0 4.1-.3 5.6-4l1.6-4h17.5l1.6 4c1.4 3.8 1.8 4 5.6 4 2.3 0 4.1-.4 4.1-.8 0-.5-3.5-8.7-7.8-18.3l-7.9-17.4-4.2-.3c-4.1-.3-4.2-.3-6.3 4.5zm9 10.1c1.2 3.2 2.2 6.3 2.2 7 0 .8-1.9 1.2-5.6 1.2-4.1 0-5.5-.3-5.1-1.3 3.2-8 5.3-12.7 5.7-12.7.3 0 1.5 2.6 2.8 5.8zM263 42.5V61h8V39.5l5.2 8.7c6.8 11.5 7.7 11.5 14.3.2l5-8.5.3 10.5.3 10.6h7.9V24h-3.4c-3.3 0-3.7.4-10.1 11.5-6 10.2-6.9 11.4-8 9.8-.6-1-3.8-6.2-7-11.6-5.5-9.2-5.9-9.7-9.1-9.7H263v18.5zM313 42.5V61h8V24h-8v18.5zM131 89.5c0 5.7.4 9.5 1 9.5s1-2 1-4.5V90h4c2.2 0 4-.5 4-1 0-.6-1.8-1-4-1-3.8 0-4-.2-4-3 0-2.9.2-3 4.5-3 2.5 0 4.5-.5 4.5-1 0-.6-2.5-1-5.5-1H131v9.5zM158 87.5c0 8.6 1.8 11.5 7 11.5s7-2.9 7-11.5c0-5.9-.3-7.5-1.5-7.5-1.1 0-1.5 1.7-1.7 7.6-.2 6-.7 7.9-2 8.8-1.3.8-2.3.8-3.5 0-1.4-.9-1.9-2.8-2.1-8.8-.2-5.9-.6-7.6-1.7-7.6-1.2 0-1.5 1.6-1.5 7.5zM189 89.5c0 11.1 1.8 13 2.2 2.3l.3-7.1 4.5 7.1c2.4 4 5 7.2 5.7 7.2 1 0 1.3-2.5 1.3-9.5 0-5.7-.4-9.5-1-9.5s-1 2.8-1 6.5c0 3.6-.3 6.5-.7 6.5-.5-.1-2.6-3-4.8-6.5-5.5-9-6.5-8.6-6.5 3zM221 89.6v9.7l4.7-.6c6.1-.7 8.3-3.2 8.3-9.7 0-4.1-.4-5.2-2.6-6.9-1.7-1.3-4.1-2.1-6.5-2.1H221v9.6zm9-5.6c2.8 2.8 2.6 7.5-.5 10.5-1.3 1.4-3.3 2.5-4.5 2.5-1.8 0-2-.6-2-7.5 0-7.3.1-7.5 2.5-7.5 1.4 0 3.4.9 4.5 2zM251 89.6c0 7.2.3 9.5 1.3 9.2.8-.3 1.3-3.4 1.5-9.6.2-7.7 0-9.2-1.3-9.2-1.2 0-1.5 1.6-1.5 9.6zM271 89.5c0 8 .2 9.5 1.6 9.5 1.3 0 1.5-1.1 1.2-6.5-.1-3.6 0-6.5.3-6.5.4 0 2.6 2.9 4.9 6.5 6 9.1 7 8.7 7-3 0-7.6-.3-9.5-1.5-9.5-1.1 0-1.5 1.6-1.7 6.7l-.3 6.8-4.3-6.8c-6-9.5-7.2-9-7.2 2.8zM304.7 81.8c-1.2 1.3-1.7 3.6-1.7 7.3 0 6.6 2.4 9.9 7.1 9.9 5.1 0 6.9-1.6 6.9-6 0-3.9-.1-4-3.5-4-1.9 0-3.5.4-3.5 1 0 .5.9 1 2 1 2.5 0 3.6 2.5 2 4.5-1.7 2.1-4.6 1.9-7-.5-2.6-2.6-2.7-9-.2-11.3 2.3-2.1 6.1-2.2 6.8-.2.6 1.6 3.4 2.1 3.4.7 0-3.9-9.4-5.6-12.3-2.4z"/></svg>