<svg xmlns="http://www.w3.org/2000/svg" fill="none" viewBox="0 0 343 96"><path fill="#38393B" d="M35.668 11.25S11.83 24.782.513 31.492h23.935c3.672-6.71 11.22-20.242 11.22-20.242Z"/><path fill="#57585A" d="m60.902 52.222-25.237-40.96-11.217 20.23 12.418 20.73-12.418 20.831 12.418 20.33 24.036-41.16Z"/><path fill="#BABFC0" d="M24.432 31.492H.536l11.994 20.93 24.342-.191-12.44-20.74Z"/><path fill="#919699" d="m24.442 73.055-23.819.192 11.905-20.821 24.336-.188-12.422 20.817Z"/><path fill="#393A3C" d="M36.868 93.39.638 73.248l23.812-.192L36.868 93.39Z"/><path fill="#000" d="M79.341 50.992v-36.4h16.536c3.952 0 7.436.762 10.452 2.288 3.016 1.49 5.374 3.588 7.072 6.292 1.699 2.704 2.548 5.91 2.548 9.62 0 3.674-.849 6.881-2.548 9.62-1.698 2.704-4.056 4.818-7.072 6.344-3.016 1.49-6.5 2.236-10.452 2.236H79.341Zm8.424-6.916h7.696c2.427 0 4.524-.45 6.292-1.352 1.803-.936 3.19-2.254 4.16-3.952 1.006-1.699 1.508-3.692 1.508-5.98 0-2.323-.502-4.316-1.508-5.98-.97-1.699-2.357-2.999-4.16-3.9-1.768-.936-3.865-1.404-6.292-1.404h-7.696v22.568Zm42.531 6.916V36.12l1.924 5.096-16.016-26.624h8.944l12.272 20.436h-5.148l12.324-20.436h8.268l-16.016 26.624 1.872-5.096v14.872h-8.424Zm26.308 0v-36.4h6.968L185.048 40.8h-3.38V14.592h8.32v36.4h-6.916l-21.528-26.208h3.38v26.208h-8.32Zm37.732 0 16.224-36.4h8.32l16.276 36.4h-8.84l-13.312-32.136h3.328l-13.364 32.136h-8.632Zm8.112-7.8 2.236-6.396h18.72l2.288 6.396h-23.244Zm37.005 7.8v-36.4h6.968l15.496 25.688h-3.692l15.236-25.688h6.916l.104 36.4h-7.904l-.052-24.284h1.456l-12.168 20.436h-3.796l-12.428-20.436h1.768v24.284h-7.904Zm50.184 0v-36.4h8.424v36.4h-8.424Zm35.002.624c-2.808 0-5.425-.45-7.852-1.352-2.392-.936-4.472-2.254-6.24-3.952a18.55 18.55 0 0 1-4.16-5.98c-.971-2.288-1.456-4.802-1.456-7.54 0-2.739.485-5.252 1.456-7.54a18.55 18.55 0 0 1 4.16-5.98c1.803-1.699 3.9-2.999 6.292-3.9 2.392-.936 5.009-1.404 7.852-1.404 3.155 0 5.997.554 8.528 1.664 2.565 1.074 4.715 2.67 6.448 4.784l-5.408 4.992c-1.248-1.422-2.635-2.479-4.16-3.172-1.525-.728-3.189-1.092-4.992-1.092-1.699 0-3.259.277-4.68.832a10.611 10.611 0 0 0-3.692 2.392 11.248 11.248 0 0 0-2.444 3.692c-.555 1.421-.832 2.998-.832 4.732 0 1.733.277 3.31.832 4.732a11.25 11.25 0 0 0 2.444 3.692 10.613 10.613 0 0 0 3.692 2.392c1.421.554 2.981.832 4.68.832 1.803 0 3.467-.347 4.992-1.04 1.525-.728 2.912-1.82 4.16-3.276l5.408 4.992c-1.733 2.114-3.883 3.726-6.448 4.836-2.531 1.11-5.391 1.664-8.58 1.664Z"/><path fill="#FF0500" d="M107.739 89.992V69.949h13.521v2.365h-10.869v6.207h9.407v2.365h-9.407v9.106h-2.652Zm41.053-20.043h2.652v11.58c0 2.014-.228 3.614-.683 4.799-.456 1.185-1.281 2.15-2.475 2.898-1.185.738-2.744 1.108-4.676 1.108-1.877 0-3.413-.324-4.607-.971-1.194-.647-2.047-1.582-2.557-2.803-.51-1.23-.766-2.907-.766-5.031v-11.58h2.653v11.566c0 1.741.159 3.026.478 3.856.328.82.884 1.453 1.668 1.9.793.447 1.759.67 2.899.67 1.95 0 3.34-.442 4.17-1.326.829-.884 1.244-2.584 1.244-5.1V69.95Zm17.974 20.043V69.949h2.721l10.527 15.736V69.95h2.543v20.043h-2.72l-10.528-15.75v15.75h-2.543Zm31.182 0V69.949h6.904c1.559 0 2.749.096 3.569.287 1.148.264 2.128.743 2.939 1.435 1.058.894 1.846 2.038 2.366 3.432.528 1.386.792 2.971.792 4.758 0 1.522-.177 2.871-.533 4.047-.355 1.176-.811 2.15-1.367 2.926-.556.765-1.167 1.371-1.832 1.818-.656.437-1.454.77-2.393.998-.929.228-2 .342-3.212.342h-7.233Zm2.653-2.366h4.279c1.321 0 2.356-.123 3.103-.369.757-.246 1.358-.592 1.805-1.039.629-.629 1.117-1.472 1.463-2.529.355-1.066.533-2.356.533-3.87 0-2.096-.346-3.704-1.039-4.825-.684-1.13-1.518-1.887-2.502-2.27-.711-.273-1.855-.41-3.432-.41h-4.21v15.313Zm28.953 2.366V69.949h2.652v20.043h-2.652Zm18.234 0V69.949h2.721l10.527 15.736V69.95h2.543v20.043h-2.721l-10.527-15.75v15.75h-2.543Zm40.561-7.862V79.78l8.49-.014v7.438c-1.303 1.039-2.648 1.823-4.033 2.351-1.386.52-2.807.78-4.266.78-1.969 0-3.76-.42-5.373-1.258-1.604-.848-2.816-2.07-3.637-3.664-.82-1.595-1.23-3.377-1.23-5.346 0-1.95.406-3.769 1.217-5.455.82-1.695 1.996-2.953 3.527-3.773 1.531-.82 3.295-1.231 5.291-1.231 1.449 0 2.757.237 3.924.71 1.176.466 2.096 1.118 2.762 1.956.665.839 1.171 1.932 1.517 3.281l-2.392.656c-.301-1.02-.675-1.822-1.121-2.406-.447-.583-1.085-1.048-1.914-1.394-.83-.356-1.75-.534-2.762-.534-1.212 0-2.261.187-3.145.561-.884.365-1.599.848-2.146 1.45a7.021 7.021 0 0 0-1.258 1.982c-.51 1.24-.766 2.584-.766 4.033 0 1.786.306 3.281.916 4.484.62 1.203 1.518 2.097 2.694 2.68a8.317 8.317 0 0 0 3.746.875 8.982 8.982 0 0 0 3.363-.656c1.094-.447 1.923-.92 2.488-1.422V82.13h-5.892Z"/></svg>