<svg xmlns="http://www.w3.org/2000/svg" viewBox="0 0 499 150"><path style="stroke:none;fill-rule:nonzero;fill:#000;fill-opacity:1" d="M53.203 39.535c-10.668 6.227-20.062 11.95-20.824 12.711-.637.637 4.316 1.145 13.586 1.145H60.69L67.93 66.1c5.46 9.66 6.984 13.348 6.222 15.13-.636 1.14-3.937 7.117-7.492 13.218l-6.347 10.934-14.602.379-14.602.383 22.22 12.328c21.585 12.078 22.218 12.332 24.124 9.918 1.016-1.399 7.871-13.094 14.984-26.059l13.204-23.52-6.094-10.421C80.629 35.465 75.93 27.965 74.53 27.965c-.886 0-10.539 5.215-21.328 11.57Zm383.707-8.773c-12.187 2.16-19.68 11.058-19.68 23.265 0 13.98 8.508 22.5 23.364 23.262 6.73.379 9.523 0 13.71-2.16 7.114-3.563 7.622-5.086 3.43-8.52-3.554-2.796-3.683-2.796-6.73-.379-2.031 1.524-5.078 2.415-8.762 2.415-4.824 0-6.347-.637-10.031-4.325-3.68-3.683-4.316-5.21-4.316-10.293 0-5.086.636-6.613 4.316-10.297 3.684-3.687 5.207-4.324 10.031-4.324 3.555 0 6.73.89 8.637 2.414 3.047 2.418 3.172 2.418 6.726-.508 4.067-3.304 3.684-4.828-2.156-7.878-5.715-2.926-11.937-3.817-18.539-2.672ZM129.512 54.027v23.77l14.984-.383c13.457-.508 15.363-.887 20.82-3.941 4.063-2.414 6.606-5.211 8.508-9.024 5.461-11.187 1.906-23.644-8.508-29.87-5.457-3.052-7.363-3.434-20.82-3.942l-14.984-.383Zm28.441-12.715c5.207 2.543 7.363 6.102 7.363 12.715 0 9.914-5.964 14.618-18.535 14.618h-7.113V39.406h7.113c3.934 0 8.887.89 11.172 1.907Zm20.824-6.734c15.489 25.422 15.489 25.293 15.489 34.32v8.645h11.43v-8.898c0-8.645.124-9.028 8.886-23.516l8.762-14.621h-5.332c-5.332 0-5.332.129-10.793 9.535-3.047 5.21-5.969 9.789-6.602 10.168-.508.383-3.683-3.941-6.984-9.531l-5.969-10.172h-11.426Zm48.504 19.45v23.515h11.301l.379-13.856.383-13.984 11.3 13.984c10.282 12.583 11.805 13.856 15.618 13.856h4.187V30.508h-10.031l-.379 14.11-.383 14.112-11.426-14.113c-10.917-13.347-11.68-14.11-16.125-14.11h-4.824Zm67.04-17.544c-1.395 3.305-5.97 13.473-10.032 22.5-4.187 9.024-7.488 16.907-7.488 17.414 0 .637 2.285 1.145 5.078 1.145 4.824 0 5.203-.383 7.11-5.086l2.03-5.086h22.22l2.034 5.086c1.778 4.832 2.286 5.086 7.11 5.086 2.918 0 5.203-.508 5.203-1.016 0-.636-4.441-11.062-9.902-23.265l-10.032-22.117-5.332-.383c-5.207-.38-5.332-.38-8 5.722ZM305.75 49.32c1.523 4.07 2.793 8.012 2.793 8.899 0 1.02-2.414 1.527-7.113 1.527-5.203 0-6.98-.383-6.473-1.652 4.063-10.172 6.727-16.145 7.238-16.145.38 0 1.903 3.305 3.555 7.371Zm28.188 4.707v23.516h10.156V50.211l6.601 11.059c8.637 14.62 9.778 14.62 18.16.257l6.348-10.808.379 13.347.383 13.477h10.031V30.508h-4.316c-4.192 0-4.7.508-12.825 14.62-7.62 12.966-8.761 14.49-10.16 12.458-.761-1.273-4.824-7.883-8.886-14.746-6.985-11.695-7.493-12.332-11.555-12.332h-4.317Zm63.484 0v23.516h10.16V30.508h-10.16Zm-231.09 59.743c0 7.246.508 12.078 1.27 12.078.761 0 1.27-2.543 1.27-5.72v-5.722h5.081c2.793 0 5.078-.636 5.078-1.27 0-.765-2.285-1.273-5.078-1.273-4.828 0-5.082-.254-5.082-3.812 0-3.688.254-3.813 5.715-3.813 3.176 0 5.715-.636 5.715-1.273 0-.762-3.176-1.27-6.985-1.27h-6.984Zm34.285-2.54c0 10.93 2.285 14.618 8.887 14.618 6.601 0 8.887-3.688 8.887-14.618 0-7.5-.38-9.535-1.903-9.535-1.398 0-1.906 2.16-2.16 9.66-.254 7.63-.887 10.043-2.539 11.188-1.648 1.016-2.922 1.016-4.445 0-1.778-1.145-2.41-3.559-2.664-11.188-.254-7.5-.762-9.66-2.16-9.66-1.524 0-1.903 2.035-1.903 9.535Zm39.36 2.54c0 14.113 2.285 16.527 2.793 2.925l.382-9.027 5.711 9.027c3.051 5.086 6.352 9.153 7.239 9.153 1.27 0 1.652-3.18 1.652-12.078 0-7.243-.508-12.075-1.27-12.075-.761 0-1.27 3.559-1.27 8.262 0 4.578-.382 8.262-.89 8.262-.633-.125-3.3-3.813-6.094-8.262-6.984-11.441-8.253-10.93-8.253 3.813Zm40.632.128v12.332l5.965-.765c7.746-.887 10.54-4.067 10.54-12.328 0-5.215-.509-6.61-3.301-8.774-2.157-1.652-5.208-2.668-8.254-2.668h-4.95Zm11.426-7.117c3.555 3.559 3.3 9.531-.633 13.348-1.652 1.777-4.191 3.176-5.714 3.176-2.286 0-2.54-.762-2.54-9.535 0-9.278.125-9.532 3.172-9.532 1.778 0 4.32 1.145 5.715 2.543Zm26.664 7.117c0 9.153.383 12.075 1.653 11.696 1.015-.383 1.648-4.324 1.902-12.203.254-9.79 0-11.696-1.649-11.696-1.523 0-1.906 2.035-1.906 12.203Zm25.395-.128c0 10.171.254 12.078 2.031 12.078 1.652 0 1.906-1.399 1.523-8.262-.125-4.578 0-8.266.383-8.266.508 0 3.301 3.688 6.219 8.266 7.621 11.566 8.89 11.059 8.89-3.816 0-9.66-.382-12.075-1.906-12.075-1.394 0-1.902 2.035-2.156 8.516l-.383 8.644-5.46-8.644c-7.618-12.074-9.141-11.441-9.141 3.559Zm42.789-9.786c-1.524 1.653-2.156 4.575-2.156 9.278 0 8.39 3.046 12.586 9.011 12.586 6.477 0 8.762-2.035 8.762-7.63 0-4.956-.125-5.081-4.441-5.081-2.414 0-4.446.508-4.446 1.27 0 .636 1.145 1.273 2.54 1.273 3.175 0 4.57 3.175 2.538 5.718-2.156 2.668-5.84 2.415-8.886-.636-3.301-3.305-3.43-11.442-.254-14.364 2.918-2.668 7.746-2.796 8.633-.253.761 2.035 4.316 2.668 4.316.89 0-4.957-11.934-7.12-15.617-3.05Zm0 0"/></svg>