<svg width="885.987" height="180.253" xmlns="http://www.w3.org/2000/svg"><text xml:space="preserve" transform="matrix(1.33333 0 0 1.33333 235.596 117.148)" style="font-variant:normal;font-size:80.9089px;font-family:Museo;-inkscape-font-specification:Museo-700;writing-mode:lr-tb;fill:#3972c1;fill-opacity:1;fill-rule:nonzero;stroke:none"><tspan x="0 42.558083 94.177963 146.20238 196.52501 220.71677 272.74118 322.25626 343.69711 406.23917 457.85828" y="0">Funding Hut</tspan></text><text xml:space="preserve" transform="matrix(1.33333 0 0 1.33333 245.721 142.68)" style="font-variant:normal;font-weight:400;font-size:19.6133px;font-family:Hero;-inkscape-font-specification:Hero;writing-mode:lr-tb;fill:#80cc2a;fill-opacity:1;fill-rule:nonzero;stroke:none"><tspan x="0 18.220701 31.263199 43.795898 50.601551 63.134251 68.880844 75.726067 88.709946 101.75244 114.24611 118.60011 131.64261 144.15579 149.90239 162.9454 175.2823 186.3438 198.87601 205.87796 211.62505 222.50983 230.04112 242.37801 254.93074" y="0">where funding never stops</tspan></text><path d="M1599.56 68.469h-77.57V1283.45h77.57V68.469" style="fill:#80cc2a;fill-opacity:1;fill-rule:evenodd;stroke:none" transform="matrix(.13333 0 0 -.13333 0 180.253)"/><path d="M581.656 604.453c3.231.039 5.614.547 5.594 4.805-.125 27.539-.105 55.058-.023 82.578 0 3.512-1.383 5.129-4.848 5.062-1.641-.043-3.301.024-4.961.024-43.84 0-87.699 0-131.563.023-7.281 0-7.281.082-7.3 7.274-.02 27.519-.125 55.035.019 82.574.024 4.598-1.597 6.109-6.062 6.09-17.262-.172-34.52.336-51.735-.195-19.347-.618-34.179-15.938-34.117-34.454.172-53.226.063-106.457.063-159.66h-.153V203.629C197.496 307.871 99.727 480.637 99.727 675.957c0 317.738 258.511 576.223 576.226 576.223 66.039 0 129.457-11.32 188.598-31.86v104.63c-59.906 17.43-123.133 26.96-188.598 26.96C303.242 1351.91 0 1048.69 0 675.957 0 386.992 182.32 139.91 437.914 43.398v55.313c.406 1.25.469 3.109.469 5.918.047 53.371.086 439.211.129 492.629 0 6.707.383 7.176 7.191 7.148 31.184-.078 62.379-.293 93.578-.343 14.11-.02 28.239.285 42.375.39" style="fill:#3972c1;fill-opacity:1;fill-rule:nonzero;stroke:none" transform="matrix(.13333 0 0 -.13333 0 180.253)"/><path d="M719.066 721.859v7.832c-.019 61.489-.039 122.946-.062 184.43 0 9.086-.02 9.086-8.852 9.086-108.836.027-217.672.172-326.504-.082-12.535 0-25.156-1.512-37.585-3.34-17.579-2.597-33.727-9.597-48.84-18.73-19.071-11.532-35.5-25.832-49.118-43.907-11.347-15.062-18.835-31.492-25.179-48.906-5.129-14.129-6.129-28.922-7.938-43.582-.679-5.488.809-6.98 6.875-6.98 25.688-.043 51.395-.024 77.082 0 7.914 0 7.914.699 9.239 8.703 1.254 7.855 2.679 16.07 6.129 23.09 13.812 28.05 36.605 42.183 68.144 42.101 78.738-.195 157.465-.215 236.188-.324 8.66 0 8.679 0 8.66-8.742-.297-95.242-.641-190.477-.856-285.692-.019-14.257.641-28.515.746-42.753.129-19.278.024-38.543.039-57.821 0-7.09.454-7.578 7.434-7.578 25.348-.039 50.668-.039 75.996 0 8.043 0 8.445.43 8.445 8.281V622.5c0 7.551 0 7.578 7.555 7.578 58.91 0 117.816.02 176.75.039 3.383 0 5.531-.019 6.895-.469v92.364c-1.039-.192-2.536-.192-4.684-.192-59.824 0-119.645.024-179.469.039h-7.09" style="fill:#80cc2a;fill-opacity:1;fill-rule:nonzero;stroke:none" transform="matrix(.13333 0 0 -.13333 0 180.253)"/><path d="M956.086 1290.89v-111.64c.422-.23.852-.49 1.277-.72-.043-80.64-.152-339.042-.129-364.796 0-12.765.446-25.558.383-38.347-.082-15.387-.894-277.301-.894-338.59 0-7.598.535-8.133 8.132-8.133 25.344 0 50.645-.019 75.995 0 7.36 0 8.22.918 8.22 8.301.02 39.648.08 79.297-.03 118.894-.14 57.618-.47 115.27-.63 172.875-.09 28.094-.07 56.164-.09 84.235 0 12.664.17 25.304 0 37.969-.11 8.128-.49 169.592-.7 264.872 125.01-105.77 204.56-263.662 204.56-439.853 0-317.734-258.489-576.227-576.227-576.227-50.605 0-99.683 6.598-146.504 18.942V16.18C576.648 5.68 625.645 0 675.953 0 1048.68 0 1351.9 303.219 1351.9 675.957c0 272.832-162.54 508.233-395.814 614.933" style="fill:#80cc2a;fill-opacity:1;fill-rule:nonzero;stroke:none" transform="matrix(.13333 0 0 -.13333 0 180.253)"/></svg>