<svg xmlns="http://www.w3.org/2000/svg" viewBox="0 0 393 80.83"><path d="M7 43.42v37.42h75V6H26.17v34.67H17V6H7v37.42m45.26-26.51c.19.19.24.98.24 4.17v3.93h-1.67c-1 0-1.67.07-1.67.17 0 .09-.44.17-1 .17-.78 0-1 .06-1 .25s-.19.25-.75.25c-.41 0-.75.08-.75.17s-.19.17-.42.17-.42.08-.42.17-.15.17-.33.17-.33.11-.33.25-.11.25-.25.25-.25.08-.25.17-.11.17-.25.17c-.34 0-1.25.89-1.25 1.23 0 .15-.08.27-.17.27s-.17.19-.17.42-.08.42-.17.42c-.1 0-.17.81-.17 2.08s.06 2.08.17 2.08c.09 0 .17.15.17.33s.08.33.17.33.17.11.17.25.1.25.21.25.32.15.45.33c.13.18.37.33.52.33s.32.11.38.25c.05.14.25.25.43.25s.34.08.34.17.19.17.42.17.42.08.42.17.26.17.58.17.58.08.58.17.22.17.5.17c.33 0 .5.08.5.25s.18.25.58.25c.32 0 .58.08.58.17s.44.17 1 .17 1 .07 1 .17.34.17.75.17c.56 0 .75.06.75.25s.21.25.92.25c.5 0 .92.08.92.17s.44.17 1 .17 1 .07 1 .17.33.17.73.17c.5 0 .76.08.83.25.06.17.32.25.77.25.37 0 .67.08.67.17s.26.17.58.17.58.08.58.17.34.17.75.17.75.08.75.17.26.17.58.17c.41 0 .58.08.58.25 0 .16.16.25.42.25.23 0 .42.08.42.17s.26.17.58.17.58.08.58.17.15.17.33.17.33.11.33.25c0 .15.15.25.38.25.21 0 .49.15.62.33s.41.33.62.33.38.08.38.17.15.17.33.17.33.08.33.18c0 .19.41.65.58.65.14 0 .58.44.58.58s.44.58.58.58c.17 0 .92.81.92.99 0 .1.11.17.25.17s.25.15.25.33.07.33.17.33.17.11.17.25.07.25.17.25.17.15.17.33.07.33.17.33.17.26.17.58c0 .41.08.58.25.58s.25.18.25.58c0 .32.07.58.17.58s.17.41.17.92.07.92.17.92.17.64.17 1.58-.07 1.58-.17 1.58c-.09 0-.17.41-.17.92s-.07.92-.17.92-.17.33-.17.73c0 .5-.08.76-.25.83-.14.05-.25.25-.25.43s-.07.34-.17.34-.17.19-.17.42-.07.42-.17.42-.17.15-.17.33-.07.33-.17.33-.17.19-.17.42-.08.42-.18.42c-.27 0-.65.44-.65.75 0 .27-.37.75-.58.75-.14 0-.58.44-.58.58s-.44.58-.58.58c-.17 0-.92.81-.92.99 0 .1-.17.17-.38.17s-.49.15-.62.33c-.13.18-.41.33-.62.33-.23 0-.38.1-.38.25 0 .14-.13.25-.3.25s-.4.15-.54.33c-.16.22-.43.33-.79.33-.3 0-.55.07-.55.17s-.19.17-.42.17c-.26 0-.42.09-.42.25 0 .18-.18.25-.58.25-.32 0-.58.07-.58.17s-.26.17-.58.17-.58.07-.58.17-.34.17-.75.17c-.56 0-.75.06-.75.25s-.21.25-.92.25c-.5 0-.92.07-.92.17 0 .11-1.64.17-4.58.17s-4.58-.06-4.58-.17c0-.09-.44-.17-1-.17-.78 0-1-.06-1-.25 0-.18-.18-.25-.58-.25-.32 0-.58-.07-.58-.17s-.26-.17-.58-.17-.58-.07-.58-.17-.22-.17-.48-.17-.52-.11-.58-.25c-.05-.14-.25-.25-.43-.25s-.34-.07-.34-.17-.19-.17-.42-.17-.42-.07-.42-.17-.15-.17-.33-.17-.33-.07-.33-.17-.19-.17-.42-.17c-.26 0-.42-.09-.42-.25 0-.14-.15-.25-.33-.25s-.33-.07-.33-.17-.11-.17-.25-.17-.25-.07-.25-.17-.15-.17-.33-.17-.33-.11-.33-.25-.08-.25-.17-.25c-.22 0-1.33-1.1-1.33-1.33 0-.09-.08-.17-.17-.17-.23 0-.99-.77-.99-.99 0-.1-.08-.17-.18-.17-.28 0-.65-.45-.65-.78 0-.17-.15-.42-.33-.55-.18-.13-.33-.37-.33-.54s-.11-.3-.25-.3c-.16 0-.25-.16-.25-.42 0-.23-.08-.42-.17-.42s-.17-.19-.17-.42-.08-.42-.17-.42-.17-.15-.17-.33-.11-.33-.25-.33c-.17 0-.25-.18-.25-.58 0-.32-.08-.58-.17-.58s-.17-.41-.17-.92-.08-.92-.17-.92-.17-.5-.17-1.17v-1.17h4.35c5.06 0 4.82-.08 4.82 1.57 0 .62.07 1.1.17 1.1s.17.15.17.33.08.33.17.33.17.19.17.42c0 .26.09.42.25.42.14 0 .25.15.25.34 0 .31.67 1.16.92 1.16.14 0 .58.45.58.58 0 .21.48.58.75.58.31 0 .75.38.75.65 0 .1.19.18.42.18s.42.08.42.17.26.17.58.17.58.08.58.17.22.17.5.17.5.08.5.17.38.17.83.17c.63 0 .83.06.83.25 0 .21.46.25 3.17.25s3.19-.04 3.27-.25c.07-.19.37-.25 1.16-.25.6 0 1.06-.07 1.06-.17s.26-.17.58-.17.58-.08.58-.17.26-.17.58-.17.58-.08.58-.17.15-.17.34-.17.38-.11.43-.25c.05-.14.22-.25.37-.25s.39-.15.52-.33c.13-.18.34-.33.45-.33s.21-.08.21-.17c0-.23.77-.99.99-.99.1 0 .17-.19.17-.42s.08-.42.17-.42.17-.15.17-.33.07-.33.17-.33.17-.83.17-2.17-.06-2.17-.17-2.17c-.09 0-.17-.15-.17-.33s-.08-.33-.17-.33-.17-.19-.17-.42c0-.26-.1-.42-.25-.42-.14 0-.25-.08-.25-.17s-.15-.17-.33-.17-.33-.08-.33-.17-.11-.17-.25-.17-.25-.11-.25-.25-.15-.25-.33-.25-.33-.08-.33-.17-.19-.17-.42-.17-.42-.08-.42-.17-.15-.17-.33-.17-.33-.08-.33-.17-.19-.17-.42-.17c-.26 0-.42-.1-.42-.25 0-.19-.19-.25-.75-.25-.41 0-.75-.08-.75-.17s-.26-.17-.58-.17-.58-.08-.58-.17-.34-.17-.75-.17c-.56 0-.75-.06-.75-.25s-.22-.25-1-.25c-.56 0-1-.07-1-.17s-.34-.17-.75-.17-.75-.08-.75-.17-.4-.17-.9-.17c-.64 0-.92-.07-.99-.25-.07-.18-.35-.25-1.02-.25-.51 0-.92-.08-.92-.17s-.26-.17-.58-.17-.58-.08-.58-.17-.34-.17-.75-.17-.75-.08-.75-.17-.26-.17-.58-.17c-.41 0-.58-.08-.58-.25 0-.17-.17-.25-.5-.25-.28 0-.5-.08-.5-.17s-.19-.17-.42-.17-.42-.08-.42-.17-.19-.17-.42-.17c-.26 0-.42-.1-.42-.25 0-.14-.15-.25-.33-.25s-.33-.08-.33-.17-.19-.17-.42-.17-.42-.08-.42-.17-.15-.17-.33-.17-.33-.08-.33-.17-.19-.17-.42-.17-.42-.08-.42-.18c0-.19-.41-.65-.58-.65s-.58-.46-.58-.65c0-.1-.15-.18-.33-.18s-.33-.08-.33-.17-.11-.17-.25-.17-.25-.15-.25-.33-.08-.33-.17-.33-.17-.08-.17-.18c0-.19-.41-.65-.58-.65-.23 0-.58-.49-.58-.82 0-.19-.08-.35-.17-.35s-.17-.15-.17-.32-.08-.37-.17-.43c-.09-.06-.17-.25-.17-.43s-.11-.32-.25-.32c-.17 0-.25-.18-.25-.58 0-.32-.08-.58-.17-.58s-.17-.5-.17-1.17-.07-1.17-.17-1.17-.17-.56-.17-1.33.07-1.33.17-1.33.17-.5.17-1.17.07-1.17.17-1.17.17-.15.17-.33.11-.33.25-.33c.17 0 .25-.18.25-.58 0-.32.08-.58.17-.58s.17-.17.17-.38.15-.49.33-.62c.18-.13.33-.34.33-.46s.19-.4.42-.61.42-.51.42-.66.08-.27.17-.27.17-.11.17-.25.08-.25.17-.25c.19 0 .99-.75.99-.92 0-.22.49-.58.78-.58.17 0 .42-.15.55-.33.13-.18.41-.33.62-.33s.38-.08.38-.18c0-.29.45-.65.82-.65.19 0 .35-.08.35-.17s.15-.17.33-.17.33-.11.33-.25c0-.16.16-.25.42-.25.23 0 .42-.08.42-.17s.26-.17.58-.17.58-.08.58-.17.26-.17.58-.17.58-.08.58-.17.23-.17.51-.17c.29 0 .54-.1.6-.25.07-.18.35-.25 1-.25.49 0 .9-.08.9-.17 0-.1.61-.17 1.5-.17s1.5-.07 1.5-.17c0-.26 1.82-.2 2.1.07m289.24 9.03c0 .82.36.99.47.22.03-.22.12-.49.21-.59.19-.23.02-.4-.38-.4-.25 0-.31.13-.31.76M147.69 35.8c-.07.19-.39.25-1.32.25-.67 0-1.27.08-1.33.17-.06.09-.29.17-.51.17s-.41.08-.41.17-.17.17-.38.17-.58.19-.83.42c-.25.23-.57.42-.71.42s-.26.08-.26.17-.08.17-.18.17c-.19 0-.65.41-.65.58 0 .06-.19.29-.42.52-.23.23-.42.53-.42.66s-.07.24-.17.24-.17.15-.17.33-.07.33-.17.33-.17.26-.17.58-.08.58-.17.58c-.1 0-.17.61-.17 1.5s.07 1.5.17 1.5c.09 0 .17.26.17.58s.07.58.17.58.17.15.17.35.09.45.21.58c.45.5.62.73.62.83 0 .17.81.92.99.92.1 0 .17.08.17.17s.1.17.23.17.32.11.44.25c.11.14.35.25.52.25s.31.08.31.17.26.17.58.17.58.08.58.17.14.17.31.17.41.11.52.25c.13.16.5.25 1.02.25.45 0 .81.08.81.17s.34.17.75.17.75.08.75.17.41.17.9.17c.65 0 .93.07 1 .25.06.15.31.25.6.25.28 0 .5.08.5.17s.19.17.42.17.42.08.42.17.15.17.33.17.33.08.33.17.11.17.25.17c.16 0 .25.16.25.42 0 .23.08.42.17.42s.17.19.17.42-.08.42-.17.42-.17.11-.17.24c0 .33-.92 1.26-1.24 1.26-.14 0-.26.08-.26.17s-.26.17-.58.17-.58.08-.58.17c0 .1-.69.17-1.74.17-.98 0-1.79-.07-1.84-.17-.06-.09-.32-.17-.59-.17s-.49-.08-.49-.17-.15-.17-.35-.17c-.35 0-.82-.36-.82-.62 0-.08-.15-.25-.33-.38s-.33-.37-.33-.52-.11-.37-.25-.48c-.14-.12-.25-.48-.25-.85v-.65h-5.33v1.42c0 1.11.06 1.44.25 1.52.16.06.25.31.25.66 0 .31.08.57.17.57s.17.15.17.34.19.53.42.76c.23.23.42.47.42.53 0 .29.82 1.03 1.14 1.03.2 0 .36.08.36.18 0 .23.42.65.65.65.1 0 .18.08.18.17s.12.17.26.17.38.11.51.25c.14.14.43.25.65.25s.41.08.41.17.19.17.42.17.42.08.42.17c0 .11 1.36.17 3.75.17s3.75-.06 3.75-.17c0-.09.26-.17.58-.17s.58-.08.58-.17.18-.17.4-.17.52-.11.65-.25c.14-.14.37-.25.51-.25s.26-.08.26-.17.1-.17.21-.17.35-.19.52-.42c.17-.23.38-.42.46-.42.22 0 .7-.51.96-1.04.13-.25.29-.46.37-.46s.14-.14.14-.31.11-.36.25-.41c.14-.05.25-.27.25-.48s.08-.47.18-.57c.41-.41 0-5.39-.45-5.39-.13 0-.23-.16-.23-.35 0-.44-1.91-2.32-2.35-2.32-.17 0-.32-.07-.32-.15 0-.22-.98-.68-1.44-.68-.21 0-.39-.08-.39-.17s-.26-.17-.58-.17-.58-.07-.58-.15-.38-.2-.83-.26c-.46-.06-.88-.18-.93-.27-.05-.08-.46-.15-.92-.15s-.82-.08-.82-.17-.34-.17-.75-.17-.75-.08-.75-.17-.25-.17-.57-.17c-.35 0-.6-.1-.66-.25-.05-.14-.29-.25-.52-.25-.67 0-1.25-.69-1.25-1.5 0-.67.55-1.5.99-1.5.1 0 .18-.08.18-.17s.18-.17.4-.17.49-.11.6-.25c.24-.29 3.41-.37 3.58-.09.05.09.51.36 1.01.6.5.25.91.55.91.68s.07.23.17.23.17.18.17.41.07.45.17.51c.09.06.17.28.17.49 0 .7.3.77 2.86.72l2.39-.05.05-1.46c.03-.93-.01-1.46-.12-1.46-.1 0-.17-.18-.17-.41s-.07-.45-.17-.51c-.09-.06-.17-.24-.17-.41s-.25-.57-.56-.88c-.3-.32-.6-.7-.66-.85a.8.8 0 0 0-.4-.39c-.16-.06-.49-.31-.72-.56-.23-.24-.59-.5-.79-.56-.2-.07-.37-.19-.37-.27s-.15-.16-.33-.16-.33-.08-.33-.17-.19-.17-.42-.17-.42-.08-.42-.17-.48-.17-1.1-.17c-.75 0-1.17-.08-1.35-.25-.18-.18-.61-.25-1.49-.25-.95 0-1.27.06-1.34.25m34.05 0c-.18.17-.6.25-1.42.25-.64 0-1.21.08-1.27.17-.06.09-.29.17-.51.17s-.41.08-.41.17-.2.17-.44.17c-.25 0-.6.18-.83.42-.21.23-.5.42-.64.42s-.26.08-.26.17-.11.17-.25.17-.25.08-.25.17-.1.17-.21.17-.33.13-.47.29-.46.44-.7.62c-.25.18-.45.43-.45.54s-.08.21-.17.21-.17.15-.17.33-.1.33-.22.33-.32.19-.44.42c-.12.23-.29.42-.36.42s-.14.15-.14.32-.07.37-.16.42c-.26.16-.68 1.11-.68 1.53 0 .22-.07.39-.17.39s-.17.26-.17.58-.07.58-.17.58c-.11 0-.17 1.31-.17 3.58s.06 3.58.17 3.58c.09 0 .17.26.17.58s.07.58.17.58.17.18.17.4c0 .43.5 1.43.71 1.43.07 0 .12.14.12.3s.15.46.33.66c.18.2.33.44.33.53s.11.17.25.17.25.13.25.3.15.4.33.54c.18.13.33.32.33.42s.19.29.42.41c.23.12.42.29.42.36s.15.14.33.14.33.11.33.25.11.25.25.25.25.08.25.17.15.17.33.17.33.08.33.17.11.17.25.17.25.07.25.15.17.2.38.26c.4.11 1.03.36 1.5.6.41.21 6.79.19 6.79-.02 0-.09.18-.17.39-.17.46 0 1.39-.44 1.85-.87.18-.17.42-.3.54-.3s.22-.08.22-.17c0-.69.49-.04.53.71l.05.88 2.3.05c3.24.06 2.94.81 2.94-7.16 0-4.55-.05-6.58-.19-6.88l-.19-.42h-11.45v5h6.17v.38c0 .21-.19.58-.42.83-.23.25-.42.57-.42.72 0 .26-.38.74-.58.74-.11 0-.4.23-1.01.79-.22.21-.55.38-.74.38s-.34.08-.34.17-.18.17-.41.17-.45.08-.51.17c-.06.09-.83.17-1.76.17-.99 0-1.66-.07-1.66-.17 0-.09-.23-.17-.5-.17s-.5-.08-.5-.17-.16-.17-.35-.17c-.37 0-.82-.36-.82-.65 0-.1-.06-.18-.12-.18-.17 0-1.04-.76-1.04-.91 0-.18-.45-.59-.65-.59-.1 0-.18-.15-.18-.32s-.07-.37-.17-.43c-.09-.06-.17-.25-.17-.43s-.08-.32-.17-.32-.17-.3-.17-.66-.07-.7-.17-.76c-.09-.06-.17-.86-.17-1.83s.07-1.78.17-1.83c.09-.06.17-.4.17-.76s.08-.66.17-.66.17-.19.17-.42.07-.42.17-.42.17-.15.17-.33.11-.33.25-.33.25-.11.25-.25.06-.25.13-.25.22-.21.33-.46c.11-.25.47-.6.79-.78s.59-.38.59-.46.1-.14.23-.14c.33 0 1.27-.5 1.27-.68 0-.28 3.45-.19 3.56.1.05.14.25.25.43.25s.34.08.34.17.15.17.33.17.33.08.33.17.08.17.17.17c.2 0 .55.27.96.73.15.17.41.45.57.62.16.17.29.38.29.47s.08.17.17.17.17.15.17.33c0 .32.11.33 2.83.33h2.83v-.74c0-.41-.07-.79-.17-.84-.09-.06-.17-.29-.17-.51s-.07-.41-.17-.41-.17-.15-.17-.34-.11-.38-.25-.43c-.14-.05-.25-.2-.25-.33s-.08-.23-.17-.23-.17-.12-.17-.26c0-.33-2.76-3.07-3.1-3.07-.23 0-.4-.11-.98-.62-.13-.12-.39-.21-.58-.21s-.35-.08-.35-.17-.26-.17-.58-.17-.58-.08-.58-.17-.53-.17-1.26-.17c-.9 0-1.33-.07-1.51-.25-.14-.14-.5-.25-.81-.25s-.67.11-.81.25m74.12 0c-.07.19-.38.25-1.24.25-.65 0-1.15.07-1.15.17s-.26.17-.58.17-.58.08-.58.17-.11.17-.26.17c-.24 0-1.05.44-1.24.68-.05.06-.33.21-.62.34-.3.13-.54.27-.54.32 0 .07-.31.47-1 1.28-.09.11-.17.28-.17.38s-.07.17-.17.17-.17.22-.17.5-.08.5-.17.5-.17.37-.17.82c0 .48-.08.85-.19.88-.11.03-.2.32-.2.63s.09.59.2.63c.11.04.19.41.19.88 0 .45.08.82.17.82s.17.24.17.52.13.64.3.79c.17.15.44.5.61.79.17.28.55.62.86.74.3.12.59.32.64.44.05.12.2.22.34.22s.26.08.26.17.11.17.25.17.25.08.25.17.22.17.5.17.5.08.5.17.25.17.56.17c.35 0 .6.1.66.25.06.16.32.25.76.25.36 0 .71.08.77.17.06.09.44.17.84.17s.74.08.74.17.4.17.9.17c.65 0 .93.07 1 .25.06.15.3.25.6.25.28 0 .51.08.51.17s.15.17.34.17c.43 0 .93.29 1.53.88.54.53.69 1.79.22 1.79-.14 0-.25.06-.25.12 0 .46-1.27 1.38-1.9 1.38-.22 0-.46.08-.51.17-.06.1-.89.17-1.93.17-1.1 0-1.82-.07-1.82-.17 0-.09-.23-.17-.5-.17s-.5-.08-.5-.17-.16-.17-.35-.17c-.37 0-.82-.36-.82-.65 0-.1-.07-.18-.17-.18s-.17-.12-.17-.26-.11-.3-.25-.35c-.15-.06-.25-.31-.25-.63 0-.29-.09-.73-.21-.98l-.21-.45h-5.24v1.24c0 .68.07 1.29.17 1.34.09.06.17.36.17.68 0 .4.08.57.25.57.16 0 .25.16.25.42 0 .23.08.42.17.42s.17.15.17.33.06.33.14.33.24.19.36.42c.12.23.29.42.37.42.21 0 .96.78.96.99 0 .1.11.17.25.17s.25.08.25.17.15.17.33.17.33.08.33.17.08.17.18.17.29.11.43.25.39.25.56.25.36.08.41.17c.06.09.32.17.59.17s.49.08.49.17c0 .11 1.36.17 3.74.17s3.78-.06 3.84-.17c.06-.09.28-.17.5-.17s.44-.08.5-.17c.06-.09.25-.17.43-.17s.37-.11.43-.25c.05-.14.27-.25.49-.25s.4-.08.4-.17.1-.17.23-.17c.32 0 2.11-1.7 2.11-2.01 0-.14.15-.36.33-.49.22-.16.33-.43.33-.79 0-.38.08-.55.25-.55.19 0 .25-.22.25-.97 0-.53.08-1.05.18-1.15.13-.13.13-.28 0-.52-.1-.19-.18-.76-.18-1.27 0-.67-.07-.96-.25-1.03-.14-.06-.25-.3-.25-.58s-.07-.48-.17-.48-.17-.08-.17-.17c0-.23-.77-.99-.99-.99-.1 0-.17-.08-.17-.17 0-.3-.8-.99-1.16-.99-.19 0-.34-.11-.34-.25 0-.16-.16-.25-.42-.25-.23 0-.42-.08-.42-.17s-.23-.17-.5-.17-.5-.08-.5-.17-.26-.17-.58-.17-.58-.07-.58-.15-.38-.2-.83-.26c-.46-.06-.83-.18-.83-.27s-.34-.15-.75-.15-.75-.08-.75-.17-.41-.17-.92-.17-.92-.08-.92-.17-.25-.17-.57-.17c-.35 0-.6-.1-.66-.25a.402.402 0 0 0-.35-.25c-.28 0-.86-.3-1.21-.61-.58-.53.07-2.39.84-2.39.14 0 .31-.08.36-.17.06-.09.25-.17.43-.17s.32-.11.32-.25c0-.2.24-.25 1.17-.25h1.17v-5.33h-.84c-.59 0-.87.07-.93.25m24 0c-.07.19-.37.25-1.15.25-.58 0-1.1.08-1.16.17-.06.09-.25.17-.43.17s-.32.08-.32.17-.22.17-.49.17c-.32 0-.6.14-.82.42-.18.23-.47.42-.64.42s-.42.15-.55.33c-.13.18-.33.33-.44.33-.28 0-2.06 1.75-2.06 2.03 0 .13-.19.37-.42.54-.23.17-.42.45-.42.62s-.06.31-.12.31c-.17 0-.54.82-.54 1.18 0 .16-.06.31-.12.34-.25.11-.71 1.18-.71 1.64 0 .26-.08.52-.17.58-.1.06-.17 1.33-.17 3.25s.07 3.19.17 3.25c.09.06.17.34.17.63s.12.68.25.86c.14.18.24.46.24.62s.08.3.17.3.17.15.17.33.07.33.17.33.17.19.17.42.08.42.17.42.17.12.17.26.11.3.25.35c.14.05.25.18.25.29s.15.3.33.44c.18.13.33.34.33.46s.11.26.25.31c.14.05.25.18.25.29 0 .2 1.04.94 1.33.94.09 0 .17.08.17.18 0 .29.45.65.82.65.19 0 .35.08.35.17s.14.17.32.17.36.11.41.25c.05.14.25.25.43.25s.34.08.34.17.26.17.58.17.58.08.58.17c0 .11 1.22.17 3.32.17s3.36-.06 3.43-.17c.06-.09.25-.17.43-.17s.32-.08.32-.17.23-.17.51-.17c.3 0 .54-.1.6-.25.05-.14.26-.25.46-.25s.47-.15.6-.33c.13-.18.36-.33.5-.33s.48-.26.76-.58c.27-.32.59-.58.71-.58.11 0 .21-.07.21-.14s.23-.38.5-.67c.27-.29.5-.59.5-.67s.19-.36.42-.63c.23-.27.42-.62.42-.78 0-.16.08-.29.17-.29s.17-.18.17-.4.11-.49.25-.6c.34-.28.33-1.43-.01-1.57-.89-.34-5.57-.06-5.57.33 0 .12-.13.38-.29.58l-.58.69c-.16.19-.29.41-.29.49s-.1.14-.23.14-.37.19-.54.42c-.17.23-.48.42-.69.42s-.38.08-.38.17-.15.17-.33.17-.33.08-.33.17c0 .1-.69.17-1.75.17s-1.75-.07-1.75-.17c0-.09-.19-.17-.42-.17s-.42-.08-.42-.17-.15-.17-.33-.17-.33-.08-.33-.17-.11-.17-.25-.17-.25-.08-.25-.17c0-.23-.77-.99-.99-.99-.1 0-.17-.11-.17-.25s-.08-.25-.17-.25-.17-.08-.17-.18-.14-.38-.31-.62c-.17-.24-.36-.65-.42-.9s-.18-.46-.27-.46-.16-.3-.16-.66-.08-.7-.17-.76c-.09-.06-.17-.77-.17-1.58s.08-1.53.17-1.58c.09-.06.17-.33.17-.6s.11-.62.25-.75c.14-.14.25-.43.25-.66s.06-.4.13-.4.23-.23.35-.51c.24-.54 1.76-2.16 2.03-2.16.09 0 .16-.08.16-.17s.15-.17.33-.17.33-.08.33-.17.15-.17.34-.17.38-.11.43-.25c.08-.2.43-.25 1.76-.25 1.25 0 1.72.06 1.91.25.14.14.4.25.57.25s.32.08.32.17.11.17.25.17.25.08.25.17.11.17.24.17c.31 0 1.26.96 1.26 1.26 0 .13.08.24.17.24s.17.11.17.25.07.25.16.25.2.15.26.33c.18.55 5.74.51 5.77-.04.04-.78-.05-1.21-.28-1.39-.13-.1-.24-.35-.24-.54s-.08-.36-.17-.36-.17-.15-.17-.33-.07-.33-.17-.33-.17-.14-.17-.31-.26-.54-.58-.81c-.32-.27-.58-.61-.58-.76s-.24-.41-.54-.6c-.3-.18-.65-.49-.79-.68-.14-.19-.34-.34-.46-.34s-.21-.08-.21-.17-.12-.17-.26-.17-.42-.15-.62-.35c-.2-.19-.58-.39-.83-.44-.25-.05-.46-.16-.46-.24s-.26-.15-.58-.15-.58-.08-.58-.17-.49-.17-1.15-.17c-.87 0-1.17-.06-1.24-.25-.07-.19-.38-.25-1.27-.25s-1.2.06-1.27.25m100.84-.02c-.08.22-.36.27-1.42.27-.77 0-1.32.07-1.32.17 0 .09-.18.17-.41.17s-.45.08-.51.17c-.06.09-.29.17-.51.17s-.41.07-.41.16-.17.21-.38.27c-.21.06-.5.26-.64.43-.15.17-.37.31-.5.31-.26 0-.81.39-.81.57 0 .15-.44.6-.58.6-.16 0-.58.45-.58.62 0 .08-.15.25-.33.38-.18.13-.33.37-.33.54s-.11.3-.25.3-.25.11-.25.25-.08.25-.17.25-.17.15-.17.33-.07.33-.17.33-.17.15-.17.34-.11.38-.25.43c-.14.05-.25.28-.25.49s-.08.4-.17.4-.17.22-.17.49-.08.54-.17.59c-.09.06-.17.53-.17 1.06s-.08 1.04-.18 1.14c-.24.24-.25 3.19 0 3.44.1.1.18.66.18 1.24s.07 1.05.17 1.05.17.26.17.58.08.58.17.58.17.19.17.42c0 .26.1.42.25.42.14 0 .25.15.25.33s.07.33.17.33.17.17.17.38.19.52.42.69c.23.17.42.43.42.57 0 .26 2.43 2.7 2.7 2.7.08 0 .31.15.51.33.2.18.46.33.59.33s.34.11.48.25c.14.14.43.25.65.25s.4.08.4.17.15.17.32.17.37.08.43.17c.06.1 1.39.17 3.43.17s3.32-.06 3.32-.17c0-.09.19-.17.42-.17s.42-.07.42-.15.25-.19.55-.25c.3-.06.65-.25.79-.43.13-.18.37-.33.53-.33s.33-.08.39-.17c.23-.38.4-.12.45.71l.05.88 2.15.05c1.61.03 2.19 0 2.29-.17.07-.12.14-3.38.14-7.26v-7.04H381.8v5h3.08c2.94 0 3.08.01 3.08.32 0 .18-.08.37-.17.43-.09.06-.17.25-.17.43s-.11.32-.25.32-.25.06-.25.13c0 .21-1.11 1.37-1.31 1.37-.1 0-.19.08-.19.18 0 .29-.45.65-.82.65-.19 0-.35.08-.35.17s-.23.17-.5.17-.5.08-.5.17c0 .1-.69.17-1.74.17-.98 0-1.79-.07-1.84-.17-.06-.09-.25-.17-.43-.17s-.32-.08-.32-.17-.17-.17-.38-.17-.52-.19-.69-.42c-.17-.23-.42-.42-.54-.42s-.23-.08-.23-.17-.11-.17-.25-.17-.25-.15-.25-.33-.08-.33-.17-.33-.17-.11-.17-.25-.08-.25-.17-.25-.17-.12-.17-.26-.11-.3-.25-.35c-.14-.05-.25-.23-.25-.4s-.07-.35-.17-.41-.17-.32-.17-.58-.08-.53-.17-.58c-.1-.06-.17-1-.17-2.26 0-1.33.06-2.16.17-2.16.09 0 .17-.3.17-.67s.07-.67.17-.67.17-.13.17-.29c0-.16.19-.47.42-.68.23-.22.41-.5.41-.64 0-.27.39-.72.63-.72.08 0 .25-.19.37-.42.12-.23.36-.42.53-.42s.3-.08.3-.17.11-.17.25-.17.25-.08.25-.17.15-.17.33-.17.33-.11.33-.25c0-.21.32-.25 1.9-.25s1.92.05 2 .25c.05.14.25.25.43.25s.34.08.34.17.14.17.31.17c.38 0 2.36 1.9 2.36 2.26 0 .65.37.74 3.23.74 2.56 0 2.76-.02 2.85-.32.12-.38-.06-1.18-.26-1.18-.08 0-.15-.15-.15-.33s-.08-.33-.17-.33-.17-.19-.17-.42-.07-.42-.17-.42-.17-.12-.17-.26-.19-.43-.42-.64c-.23-.21-.42-.51-.42-.66s-.08-.27-.17-.27-.17-.11-.17-.25-.07-.25-.15-.25-.49-.34-.91-.75c-.42-.41-.88-.75-1.02-.75s-.26-.06-.26-.14-.26-.28-.58-.46-.58-.37-.58-.44-.26-.13-.58-.13-.58-.08-.58-.17-.15-.17-.32-.17-.37-.08-.43-.17c-.06-.09-.69-.17-1.41-.17-.8 0-1.33-.07-1.37-.18-.11-.33-1.61-.4-1.73-.09M105.96 48.65l.04 12.54h5.5l.04-12.54.04-12.54h-5.67l.04 12.54m9.13.17c0 9.41.05 12.43.2 12.58.14.14.96.2 2.63.2s2.5-.06 2.63-.2c.15-.15.21-2.19.22-8.04.01-4.31.06-7.67.09-7.47.04.21.14.38.23.38s.15.11.15.25.07.25.17.25.17.15.17.33.07.33.17.33.17.15.17.34.11.38.25.43c.14.05.25.24.25.41s.07.32.17.32.17.11.17.25.07.25.17.25.17.15.17.33.11.33.25.33c.15 0 .25.16.25.42 0 .23.07.42.17.42s.17.15.17.33.07.33.17.33.17.11.17.25.07.25.17.25.17.15.17.33.11.33.25.33c.15 0 .25.16.25.42 0 .23.06.42.14.42s.24.26.36.58.33.58.45.58.22.15.22.33.07.33.17.33.17.19.17.42.07.42.17.42.17.1.17.21.19.41.42.66c.23.25.42.57.42.71s.07.26.17.26.17.15.17.34.19.54.42.79c.23.25.42.54.42.66s.07.21.17.21.17.13.17.29c0 .36.38.88.64.88.1 0 .19.08.19.17 0 .11 1.02.15 2.96.12l2.96-.05.04-12.54.04-12.54h-5.67v7.67c0 7.17-.09 8.62-.43 7.25-.06-.23-.17-.42-.25-.42s-.15-.11-.15-.24c0-.29-.83-1.82-1.03-1.9-.08-.03-.14-.16-.14-.29s-.07-.24-.17-.24-.17-.12-.17-.28c0-.27-.78-1.42-1.04-1.53-.07-.03-.13-.24-.13-.46s-.07-.4-.17-.4-.17-.12-.17-.26c0-.24-.44-1.05-.68-1.24-.06-.05-.21-.33-.34-.62-.13-.3-.29-.54-.36-.54s-.13-.15-.13-.34-.11-.38-.25-.43c-.14-.05-.25-.24-.25-.41s-.07-.32-.17-.32-.17-.11-.17-.25-.07-.25-.17-.25-.17-.15-.17-.33-.07-.33-.16-.33-.21-.19-.27-.42c-.06-.23-.17-.42-.25-.42s-.15-.15-.15-.33-.07-.33-.17-.33-.17-.11-.17-.25-.07-.25-.17-.25-.17-.15-.17-.33-.11-.33-.25-.33-.25-.15-.25-.35c0-.76-.27-.82-3.65-.82h-3.18v12.38m47.2-12.18c-.15.15-.2 3.1-.2 12.25 0 14.42-.42 12.75 3.13 12.68l2.45-.05.04-12.54.04-12.54h-2.63c-1.83 0-2.7.06-2.83.2m35.34 12.34.04 12.54h5.17l.04-5.12.04-5.12h9.41l-.05 4.79c-.03 3.49 0 4.89.15 5.17.26.49 5.19.6 5.38.11.05-.15.1-5.81.1-12.59V36.43l-2.79.05-2.79.05-.05 4.71-.04 4.71h-9.33v-9.5h-5.34l.04 12.54m22.13-10.05c0 3.07-.28 2.84 3.57 2.84h2.93v9.65c0 5.31.05 9.77.1 9.92.09.22.48.26 2.67.26h2.57V41.78l3.21-.05 3.21-.04.05-2.62.05-2.62h-18.34v2.49m80.67-2.24c0 .14-.08.25-.17.25s-.17.29-.17.65c0 .42-.09.68-.25.75-.14.05-.25.24-.25.42s-.07.38-.17.43-.17.36-.17.67-.08.61-.17.67c-.09.06-.17.25-.17.44s-.11.45-.25.58c-.14.14-.25.43-.25.66s-.08.4-.17.4-.17.22-.17.49-.07.54-.17.59-.17.32-.17.59-.08.49-.17.49-.17.22-.17.48-.11.52-.25.58c-.16.06-.25.31-.25.68 0 .32-.08.59-.17.59s-.17.19-.17.42-.07.42-.17.42-.17.23-.17.51-.11.62-.25.76-.25.43-.25.66-.08.4-.17.4-.17.22-.17.5-.08.5-.17.5-.17.26-.17.58-.07.58-.15.58-.2.26-.26.58c-.06.32-.18.58-.27.58s-.16.26-.16.58-.08.58-.17.58-.17.19-.17.42-.08.42-.17.42-.17.25-.17.56-.11.66-.25.77c-.14.11-.25.34-.25.51s-.07.35-.17.41c-.09.06-.17.32-.17.58s-.08.53-.17.58c-.09.06-.17.32-.17.59s-.07.49-.15.49c-.24 0-.37.58-.25 1.07l.11.43h2.63c2.88 0 2.81.02 3.18-1.08.12-.37.28-.74.35-.83.07-.09.14-.35.14-.58 0-.23.12-.57.25-.75.14-.18.24-.46.24-.62s.08-.3.17-.3.17-.19.17-.42v-.42h9.17v.58c0 .32.08.58.17.58s.17.26.17.57c0 .35.1.6.25.66.15.06.25.31.25.6 0 .28.07.51.17.51s.17.24.17.52c0 .87.29.97 3.12.97h2.54V60.5c0-.61-.07-1.08-.17-1.08s-.17-.19-.17-.42-.08-.42-.17-.42-.17-.26-.17-.58c0-.41-.08-.58-.25-.58s-.25-.18-.25-.58c0-.32-.07-.58-.17-.58s-.17-.26-.17-.58-.08-.58-.17-.58-.17-.18-.17-.4-.11-.49-.25-.6c-.14-.11-.25-.42-.25-.69s-.08-.48-.17-.48-.17-.19-.17-.42-.07-.42-.17-.42-.17-.21-.17-.46c0-.6-.41-1.76-.65-1.84-.1-.03-.18-.32-.18-.63s-.08-.57-.17-.57-.17-.22-.17-.49-.07-.54-.17-.59c-.09-.06-.17-.32-.17-.59 0-.32-.08-.49-.25-.49s-.25-.18-.25-.58c0-.32-.08-.58-.17-.58s-.17-.22-.17-.49-.08-.54-.17-.59c-.09-.06-.17-.32-.17-.58s-.07-.53-.17-.58c-.09-.06-.17-.24-.17-.41s-.11-.4-.25-.51c-.14-.11-.25-.46-.25-.77s-.08-.56-.17-.56-.17-.19-.17-.42-.08-.42-.17-.42-.17-.25-.17-.57c0-.35-.1-.6-.25-.66-.15-.06-.25-.31-.25-.6 0-.28-.07-.51-.17-.51s-.17-.26-.17-.58v-.58h-3.42c-2.93 0-3.42.04-3.42.25m16.87 12.29.04 12.54h17.33l.05-2.62.05-2.62h-12.18V36.45h-5.34l.04 12.54m19.5 0 .04 12.54 2.55.05c2.05.04 2.6 0 2.79-.2.21-.21.24-2.01.24-12.59V36.44h-5.67l.04 12.54m9.17 0 .04 12.54h5.17l.04-7.96c.03-5.11.1-7.96.21-7.96.09 0 .16.15.16.33s.08.33.17.33.17.14.17.31.19.45.42.62c.23.17.42.48.42.69s.07.38.17.38.17.14.17.32.11.36.25.41c.14.05.25.23.25.4s.15.41.33.54.33.41.33.62.07.38.17.38.17.14.17.32.11.36.25.41c.14.05.25.23.25.4s.15.41.33.54.33.41.33.62c0 .23.1.38.25.38.14 0 .25.15.25.32s.07.37.17.43c.09.06.17.25.17.43s.07.32.15.32.27.26.43.58c.15.32.35.58.43.58s.16.19.16.42.07.42.17.42.17.12.17.26.09.37.21.49c.49.55.62.74.62.9 0 .1.08.17.17.17s.17.12.17.26c0 .26.2.62.97 1.79l.41.62h2.96c2.29 0 3-.05 3.14-.23.14-.16.18-3.58.15-12.54l-.04-12.31h-5.67l-.04 7.62c-.03 4.89-.1 7.62-.21 7.62-.09 0-.16-.15-.16-.35s-.09-.45-.21-.58c-.49-.55-.62-.74-.62-.9 0-.1-.08-.17-.17-.17s-.17-.15-.17-.33-.07-.33-.17-.33-.17-.17-.17-.38-.19-.52-.42-.69c-.23-.17-.42-.45-.42-.62s-.08-.31-.17-.31-.17-.15-.17-.33-.07-.33-.17-.33-.17-.15-.17-.34-.11-.38-.25-.43c-.14-.05-.25-.24-.25-.41s-.06-.32-.13-.32-.26-.28-.42-.62c-.31-.67-.64-1.24-.8-1.38-.05-.05-.2-.33-.33-.62-.13-.3-.29-.54-.36-.54s-.13-.15-.13-.34-.11-.38-.25-.43c-.14-.05-.25-.24-.25-.41s-.06-.32-.14-.32-.24-.26-.36-.58-.33-.58-.45-.58-.22-.18-.22-.42-.08-.42-.17-.42-.17-.15-.17-.33-.07-.33-.17-.33-.17-.15-.17-.33-.08-.33-.17-.33-.17-.11-.17-.25c0-.21-.47-.25-3.25-.25h-3.25l.04 12.54m-41.86-4.54c.09 0 .16.26.16.58s.07.58.17.58.17.19.17.42c0 .42.03.51.55 1.55.15.31.28.74.28.96s.08.4.17.4.17.26.17.57.06.6.14.62c.08.03.19.3.24.6l.11.54h-2.58c-2.42 0-2.58-.02-2.58-.31 0-.17.11-.36.25-.41.15-.06.25-.31.25-.6 0-.28.08-.51.17-.51s.17-.26.17-.58.08-.58.17-.58.17-.25.17-.56c0-.35.1-.6.25-.66.15-.06.25-.31.25-.6 0-.28.07-.51.17-.51s.17-.26.17-.58.08-.58.17-.58.17-.23.17-.51c0-.78.4-1.12.47-.39.03.31.12.57.21.57M0 0" style="fill:#fff;fill-rule:evenodd"/></svg>