<svg xmlns="http://www.w3.org/2000/svg" viewBox="0 0 400 86.342"><path d="M7 43.417v37.416h75V6H26.167v34.667H17V6H7v37.417m45.262-26.512c.193.193.238.984.238 4.166V25h-1.667c-1 0-1.666.067-1.666.167 0 .092-.445.166-1 .166-.778 0-1 .056-1 .25 0 .186-.195.25-.75.25-.413 0-.75.075-.75.167 0 .092-.188.167-.417.167-.229 0-.417.075-.417.166 0 .092-.15.167-.333.167-.185 0-.333.111-.333.25 0 .137-.113.25-.25.25-.138 0-.25.075-.25.167 0 .091-.114.166-.252.166-.343 0-1.248.889-1.248 1.227 0 .15-.075.273-.167.273-.092 0-.167.188-.167.417 0 .229-.075.417-.166.417-.103 0-.167.805-.167 2.083s.064 2.083.167 2.083c.091 0 .166.15.166.334 0 .183.075.333.167.333.092 0 .167.112.167.25 0 .137.096.25.213.25.117 0 .321.15.453.333.132.184.366.334.519.334.154 0 .322.112.375.25.053.137.248.25.434.25.187 0 .339.075.339.166 0 .092.188.167.417.167.229 0 .416.075.416.167 0 .091.263.166.584.166.32 0 .583.075.583.167 0 .092.225.167.5.167.333 0 .5.083.5.25 0 .174.176.25.583.25.321 0 .584.075.584.166 0 .093.444.167 1 .167.555 0 1 .074 1 .167 0 .091.337.166.75.166.555 0 .75.065.75.25 0 .192.213.25.916.25.504 0 .917.075.917.167 0 .093.444.167 1 .167s1 .074 1 .166c0 .092.329.167.732.167.497 0 .763.08.828.25.064.165.325.25.768.25.37 0 .672.075.672.167 0 .091.262.166.583.166.321 0 .584.075.584.167 0 .092.337.167.75.167.412 0 .75.075.75.166 0 .092.262.167.583.167.407 0 .583.075.583.25 0 .156.158.25.417.25.229 0 .417.075.417.167 0 .091.262.166.583.166.321 0 .583.075.583.167 0 .092.15.167.334.167.185 0 .333.111.333.25 0 .149.153.25.38.25.209 0 .488.15.62.333.132.183.411.333.62.333.209 0 .38.075.38.167 0 .092.15.167.333.167.184 0 .334.08.334.178 0 .194.41.655.583.655.139 0 .583.444.583.583 0 .137.444.584.579.584.173 0 .921.806.921.992 0 .096.113.174.25.174.139 0 .25.148.25.334 0 .183.075.333.167.333.092 0 .167.112.167.25 0 .137.075.25.166.25.092 0 .167.15.167.333 0 .184.075.334.167.334.091 0 .166.262.166.583 0 .407.076.583.25.583.175 0 .25.176.25.584 0 .32.075.583.167.583.092 0 .167.413.167.917s.075.916.166.916c.1 0 .167.639.167 1.584 0 .944-.067 1.583-.167 1.583-.091 0-.166.413-.166.917s-.075.916-.167.916c-.092 0-.167.33-.167.733 0 .497-.08.762-.25.828-.137.052-.25.248-.25.434s-.075.339-.166.339c-.092 0-.167.187-.167.416 0 .23-.075.417-.167.417-.091 0-.166.15-.166.333 0 .184-.075.334-.167.334-.092 0-.167.187-.167.416 0 .23-.08.417-.178.417-.27 0-.655.441-.655.75 0 .269-.374.75-.583.75-.139 0-.584.444-.584.583 0 .137-.443.584-.579.584-.172 0-.921.806-.921.992 0 .096-.171.174-.38.174-.208 0-.488.15-.62.334-.132.183-.411.333-.62.333-.226 0-.38.101-.38.25 0 .137-.133.25-.296.25-.163 0-.405.15-.537.333-.156.217-.431.334-.787.334-.3 0-.546.075-.546.166 0 .092-.188.167-.417.167-.259 0-.417.094-.417.25 0 .175-.176.25-.583.25-.321 0-.583.075-.583.167 0 .091-.263.166-.584.166-.321 0-.583.075-.583.167 0 .092-.337.167-.75.167-.556 0-.75.064-.75.25 0 .192-.213.25-.917.25-.504 0-.916.075-.916.166 0 .107-1.639.167-4.584.167-2.944 0-4.583-.06-4.583-.167 0-.092-.444-.166-1-.166-.778 0-1-.056-1-.25 0-.175-.176-.25-.583-.25-.321 0-.584-.075-.584-.167 0-.092-.262-.167-.583-.167-.321 0-.583-.075-.583-.166 0-.092-.217-.167-.483-.167-.274 0-.523-.107-.578-.25-.052-.138-.248-.25-.434-.25s-.339-.075-.339-.167c0-.091-.187-.166-.416-.166-.229 0-.417-.075-.417-.167 0-.092-.15-.167-.333-.167-.184 0-.334-.075-.334-.166 0-.092-.187-.167-.416-.167-.26 0-.417-.094-.417-.25 0-.139-.148-.25-.333-.25-.184 0-.334-.075-.334-.167 0-.091-.112-.166-.25-.166-.137 0-.25-.075-.25-.167 0-.092-.15-.167-.333-.167-.185 0-.333-.111-.333-.25 0-.137-.078-.25-.173-.25-.224 0-1.327-1.103-1.327-1.327a.175.175 0 0 0-.175-.173c-.226 0-.992-.766-.992-.992a.177.177 0 0 0-.179-.174c-.282 0-.654-.447-.654-.785 0-.17-.15-.417-.334-.549-.183-.132-.333-.373-.333-.536 0-.164-.113-.297-.25-.297-.156 0-.25-.157-.25-.417 0-.229-.075-.416-.167-.416-.091 0-.166-.188-.166-.417 0-.229-.075-.417-.167-.417-.092 0-.167-.15-.167-.333 0-.185-.111-.333-.25-.333-.174 0-.25-.176-.25-.584 0-.321-.075-.583-.166-.583-.092 0-.167-.413-.167-.917s-.075-.916-.167-.916c-.095 0-.166-.5-.166-1.167v-1.167h4.345c5.055 0 4.821-.076 4.821 1.572 0 .619.073 1.095.167 1.095.092 0 .167.15.167.333 0 .184.075.334.166.334.092 0 .167.187.167.416 0 .26.094.417.25.417.141 0 .25.149.25.341 0 .31.675 1.159.921 1.159.136 0 .579.447.579.583 0 .21.481.584.75.584.309 0 .75.384.75.654 0 .099.188.179.417.179.229 0 .416.075.416.167 0 .091.263.166.584.166.32 0 .583.075.583.167 0 .092.225.167.5.167s.5.075.5.166c0 .092.375.167.833.167.63 0 .834.061.834.25 0 .213.463.25 3.172.25 2.665 0 3.187-.04 3.267-.25.072-.186.368-.25 1.162-.25.599 0 1.065-.073 1.065-.167 0-.091.263-.166.584-.166.32 0 .583-.075.583-.167 0-.092.262-.167.583-.167.321 0 .584-.075.584-.166 0-.092.152-.167.338-.167.186 0 .382-.113.435-.25a.427.427 0 0 1 .374-.25c.154 0 .387-.15.519-.333.132-.184.337-.334.454-.334.117 0 .213-.078.213-.174 0-.226.766-.992.992-.992.096 0 .175-.188.175-.417 0-.229.075-.417.166-.417.092 0 .167-.15.167-.333 0-.183.075-.333.167-.333.102 0 .166-.834.166-2.167 0-1.333-.064-2.167-.166-2.167-.092 0-.167-.15-.167-.333 0-.183-.075-.333-.167-.333-.091 0-.166-.188-.166-.417 0-.259-.095-.417-.25-.417-.138 0-.25-.075-.25-.166 0-.092-.15-.167-.334-.167-.183 0-.333-.075-.333-.167 0-.091-.113-.166-.25-.166a.25.25 0 0 1-.25-.25c0-.139-.148-.25-.333-.25-.184 0-.334-.075-.334-.167 0-.092-.187-.167-.416-.167-.229 0-.417-.075-.417-.166 0-.092-.15-.167-.333-.167-.184 0-.334-.075-.334-.167 0-.091-.187-.166-.416-.166-.26 0-.417-.095-.417-.25 0-.186-.194-.25-.75-.25-.413 0-.75-.075-.75-.167 0-.092-.263-.167-.583-.167-.321 0-.584-.075-.584-.166 0-.092-.337-.167-.75-.167-.555 0-.75-.065-.75-.25 0-.194-.222-.25-1-.25-.555 0-1-.074-1-.167 0-.091-.337-.166-.75-.166-.412 0-.75-.075-.75-.167 0-.092-.404-.167-.899-.167-.645 0-.925-.07-.994-.25-.07-.18-.352-.25-1.018-.25-.507 0-.922-.075-.922-.166 0-.092-.263-.167-.583-.167-.321 0-.584-.075-.584-.167 0-.091-.337-.166-.75-.166-.412 0-.75-.075-.75-.167 0-.092-.262-.167-.583-.167-.407 0-.583-.075-.583-.25 0-.166-.167-.25-.5-.25-.275 0-.5-.075-.5-.166 0-.092-.188-.167-.417-.167-.229 0-.417-.075-.417-.167 0-.091-.187-.166-.416-.166-.26 0-.417-.095-.417-.25 0-.139-.148-.25-.333-.25-.184 0-.334-.075-.334-.167 0-.092-.187-.167-.416-.167-.229 0-.417-.075-.417-.166 0-.092-.15-.167-.333-.167-.184 0-.334-.075-.334-.167 0-.091-.187-.166-.416-.166-.229 0-.417-.081-.417-.179 0-.194-.41-.655-.583-.655s-.584-.46-.584-.654c0-.099-.15-.179-.333-.179-.183 0-.333-.075-.333-.167 0-.091-.113-.166-.25-.166-.139 0-.25-.148-.25-.334 0-.183-.075-.333-.167-.333-.092 0-.167-.08-.167-.179 0-.194-.41-.654-.583-.654-.232 0-.583-.495-.583-.822 0-.19-.075-.345-.167-.345-.092 0-.167-.146-.167-.323 0-.178-.075-.37-.166-.427-.092-.057-.167-.249-.167-.427 0-.177-.113-.323-.25-.323-.175 0-.25-.176-.25-.583 0-.321-.075-.584-.167-.584-.095 0-.166-.5-.166-1.166 0-.667-.072-1.167-.167-1.167-.097 0-.167-.556-.167-1.333 0-.778.07-1.334.167-1.334.095 0 .167-.5.167-1.166 0-.667.071-1.167.166-1.167.092 0 .167-.15.167-.333 0-.186.111-.334.25-.334.175 0 .25-.176.25-.583 0-.321.075-.583.167-.583.091 0 .166-.171.166-.38s.15-.488.334-.62c.183-.132.333-.34.333-.462 0-.121.188-.395.417-.607.229-.212.416-.509.416-.659 0-.15.075-.272.167-.272.092 0 .167-.113.167-.25 0-.138.078-.25.174-.25.186 0 .992-.749.992-.921 0-.218.491-.579.785-.579.17 0 .417-.15.549-.334.132-.183.411-.333.62-.333.209 0 .38-.08.38-.179 0-.294.452-.654.821-.654.19 0 .345-.075.345-.167 0-.092.15-.167.334-.167.185 0 .333-.111.333-.25 0-.155.157-.25.417-.25.229 0 .416-.075.416-.166 0-.092.263-.167.584-.167.32 0 .583-.075.583-.167 0-.091.262-.166.583-.166.321 0 .584-.075.584-.167 0-.092.227-.167.505-.167.295 0 .545-.104.601-.25.069-.179.35-.25.995-.25.494 0 .899-.075.899-.166 0-.099.611-.167 1.5-.167s1.5-.068 1.5-.167c0-.264 1.821-.202 2.095.072M341.5 25.931c0 .819.365.991.474.223.032-.222.125-.486.207-.586.187-.228.024-.401-.375-.401-.252 0-.306.134-.306.764m-193.773 9.986c-.073.19-.386.25-1.318.25-.673 0-1.269.075-1.326.166-.056.092-.286.167-.51.167-.223 0-.406.075-.406.167 0 .091-.17.166-.377.166s-.579.188-.826.417c-.247.229-.565.417-.707.417-.141 0-.257.075-.257.166 0 .092-.08.167-.179.167-.191 0-.654.409-.654.579 0 .057-.188.29-.417.519-.229.23-.417.526-.417.66 0 .133-.075.242-.166.242-.092 0-.167.15-.167.333 0 .184-.075.334-.167.334-.091 0-.166.262-.166.583 0 .321-.075.583-.167.583-.099 0-.167.611-.167 1.5s.068 1.5.167 1.5c.092 0 .167.263.167.584 0 .32.075.583.166.583.092 0 .167.155.167.345 0 .19.094.45.208.578.449.5.625.734.625.828 0 .168.81.916.993.916a.17.17 0 0 1 .174.166c0 .092.103.167.23.167.126 0 .323.112.437.25.114.137.348.25.52.25.172 0 .313.075.313.167 0 .091.262.166.583.166.321 0 .584.075.584.167 0 .092.14.167.313.167a.77.77 0 0 1 .52.25c.133.159.501.25 1.02.25.448 0 .813.075.813.166 0 .092.338.167.75.167.413 0 .75.075.75.167 0 .091.405.166.899.166.645 0 .926.071.995.25.056.146.306.25.601.25.278 0 .505.075.505.167 0 .092.188.167.417.167.229 0 .417.075.417.166 0 .092.15.167.333.167.183 0 .333.075.333.167 0 .091.113.166.25.166.156 0 .25.158.25.417 0 .229.075.417.167.417.092 0 .167.187.167.416 0 .23-.075.417-.167.417-.092 0-.167.11-.167.244 0 .326-.921 1.256-1.244 1.256-.141 0-.256.075-.256.167 0 .091-.262.166-.583.166-.321 0-.583.075-.583.167 0 .1-.691.167-1.74.167-.981 0-1.786-.073-1.844-.167-.056-.092-.323-.167-.593-.167-.269 0-.49-.075-.49-.166 0-.092-.155-.167-.345-.167-.349 0-.822-.356-.822-.618 0-.078-.15-.25-.333-.382-.183-.132-.333-.365-.333-.516 0-.152-.113-.37-.25-.484-.144-.119-.25-.483-.25-.854V52.5h-5.334v1.422c0 1.11.055 1.443.25 1.518.155.059.25.312.25.661 0 .311.075.566.167.566.092 0 .167.153.167.341 0 .187.187.528.416.757.23.229.417.47.417.534.001.291.824 1.034 1.144 1.034.196 0 .356.081.356.179 0 .231.424.655.655.655.098 0 .178.075.178.166 0 .092.118.167.262.167.144 0 .375.112.512.25.138.137.432.25.655.25.223 0 .405.075.405.167 0 .091.187.166.416.166.23 0 .417.075.417.167 0 .106 1.361.167 3.75.167 2.389 0 3.75-.061 3.75-.167 0-.092.262-.167.583-.167.321 0 .584-.075.584-.166 0-.092.182-.167.404-.167.223 0 .518-.113.655-.25.138-.138.368-.25.512-.25.144 0 .262-.075.262-.167 0-.091.095-.166.21-.166.116 0 .352-.188.524-.417.172-.229.38-.417.463-.417.22 0 .696-.515.961-1.041.128-.252.294-.459.37-.459.076 0 .139-.142.139-.315 0-.174.112-.359.25-.412.137-.052.25-.27.25-.484 0-.214.079-.468.176-.565.41-.41-.002-5.39-.445-5.39-.127 0-.231-.157-.231-.349 0-.436-1.908-2.318-2.349-2.318-.175 0-.318-.07-.318-.154 0-.22-.977-.679-1.442-.679-.215 0-.391-.075-.391-.167 0-.092-.263-.167-.584-.167-.321 0-.583-.068-.583-.151 0-.083-.375-.202-.833-.265-.458-.063-.875-.183-.927-.266-.051-.083-.464-.151-.917-.151-.452 0-.823-.075-.823-.167 0-.091-.338-.166-.75-.166-.413 0-.75-.075-.75-.167 0-.092-.254-.167-.566-.167-.348 0-.602-.095-.661-.25-.053-.137-.289-.25-.525-.25-.674 0-1.248-.69-1.248-1.5 0-.672.548-1.5.992-1.5a.172.172 0 0 0 .175-.166c0-.092.178-.167.396-.167.218 0 .49-.113.604-.25.238-.287 3.406-.37 3.576-.094.053.086.508.357 1.01.603.503.246.914.55.914.677s.075.231.166.231c.092 0 .167.183.167.406 0 .224.075.454.167.51.091.057.166.277.166.49 0 .696.304.773 2.856.723l2.394-.046.048-1.458c.031-.929-.014-1.459-.125-1.459-.095 0-.173-.183-.173-.406 0-.224-.075-.454-.166-.51-.092-.057-.167-.242-.167-.413 0-.17-.25-.566-.556-.881-.305-.315-.604-.698-.663-.851a.783.783 0 0 0-.402-.391c-.163-.061-.485-.311-.716-.556-.231-.245-.587-.498-.791-.563-.205-.065-.372-.188-.372-.273 0-.086-.15-.156-.333-.156-.184 0-.334-.075-.334-.166 0-.092-.187-.167-.416-.167-.229 0-.417-.075-.417-.167 0-.094-.476-.166-1.095-.166-.752 0-1.174-.079-1.345-.25-.178-.178-.611-.25-1.494-.25-.951 0-1.266.058-1.339.25m34.047 0c-.175.174-.602.25-1.419.25-.643 0-1.215.075-1.272.166-.056.092-.286.167-.51.167-.223 0-.406.075-.406.167 0 .091-.198.166-.44.166-.254 0-.601.176-.825.417-.212.229-.502.417-.644.417-.142 0-.258.075-.258.166 0 .092-.113.167-.25.167-.138 0-.25.075-.25.167 0 .091-.096.166-.213.166-.117 0-.328.132-.468.292-.14.16-.456.441-.703.623-.247.182-.449.426-.449.542 0 .115-.075.21-.167.21-.092 0-.167.15-.167.333 0 .184-.099.334-.222.334-.122 0-.322.187-.444.416-.123.23-.286.417-.362.417-.076 0-.138.146-.138.323 0 .178-.071.367-.156.42-.256.159-.678 1.112-.678 1.533 0 .215-.075.391-.166.391-.092 0-.167.262-.167.583 0 .321-.075.583-.167.583-.106 0-.166 1.306-.166 3.584 0 2.277.06 3.583.166 3.583.092 0 .167.262.167.583 0 .321.075.584.167.584.091 0 .166.181.166.403 0 .426.497 1.427.709 1.429.068.001.125.137.125.303 0 .166.15.463.333.66.183.196.333.436.333.531 0 .096.113.174.25.174.138 0 .25.133.25.296 0 .163.15.405.334.537.183.132.333.324.333.425 0 .102.188.286.417.408.229.123.416.286.416.362 0 .076.15.138.334.138.185 0 .333.111.333.25 0 .138.112.25.25.25.137 0 .25.075.25.167 0 .092.15.167.333.167.184 0 .334.075.334.166 0 .092.112.167.25.167.137 0 .25.07.25.155 0 .086.168.203.375.261.402.113 1.03.365 1.497.603.411.209 6.794.191 6.794-.019 0-.092.176-.167.391-.167.457 0 1.386-.435 1.849-.866.178-.165.422-.3.542-.3.12 0 .218-.075.218-.167 0-.69.49-.038.533.708l.051.875 2.302.047c3.24.065 2.935.807 2.942-7.164.004-4.551-.051-6.575-.188-6.875l-.193-.424h-11.447v5H189v.376c0 .208-.187.579-.417.826-.229.248-.416.571-.416.719 0 .263-.375.745-.579.745-.113 0-.401.227-1.005.792-.221.206-.555.375-.742.375-.188 0-.341.075-.341.167 0 .091-.183.166-.407.166-.224 0-.453.075-.51.167-.057.093-.835.167-1.76.167-.993 0-1.656-.067-1.656-.167 0-.092-.225-.167-.5-.167s-.5-.075-.5-.166c0-.092-.156-.167-.346-.167-.369 0-.821-.361-.821-.655 0-.098-.056-.178-.125-.179-.169 0-1.042-.759-1.042-.906 0-.181-.454-.593-.654-.593-.099 0-.179-.146-.179-.324 0-.178-.075-.37-.167-.426-.091-.057-.166-.249-.166-.427s-.075-.323-.167-.323c-.092 0-.167-.296-.167-.657 0-.361-.075-.703-.166-.76-.094-.058-.167-.86-.167-1.833 0-.974.073-1.776.167-1.834.091-.056.166-.398.166-.76 0-.361.075-.656.167-.656.092 0 .167-.188.167-.417 0-.229.075-.417.166-.417.092 0 .167-.15.167-.333 0-.185.111-.333.25-.333.137 0 .25-.113.25-.25 0-.138.057-.25.126-.25s.218-.207.33-.46c.112-.254.467-.603.79-.777.323-.174.587-.379.587-.456 0-.077.101-.141.225-.141.334 0 1.275-.501 1.275-.679 0-.283 3.451-.19 3.561.096.052.137.248.25.434.25s.339.075.339.167c0 .091.15.166.333.166.183 0 .333.075.333.167a.17.17 0 0 0 .174.167c.198 0 .555.272.963.733.154.174.411.455.572.625.16.17.291.383.291.475 0 .092.075.167.167.167.092 0 .167.15.167.333 0 .32.111.333 2.833.333h2.833v-.74c0-.407-.075-.786-.166-.843-.092-.057-.167-.286-.167-.51 0-.224-.075-.407-.167-.407-.091 0-.166-.152-.166-.338 0-.186-.113-.382-.25-.435-.138-.052-.25-.2-.25-.328S192.592 41 192.5 41c-.092 0-.167-.119-.167-.265 0-.332-2.765-3.068-3.101-3.068-.23 0-.4-.109-.976-.625a.998.998 0 0 0-.577-.209c-.19 0-.346-.075-.346-.166 0-.092-.262-.167-.583-.167-.321 0-.583-.075-.583-.167 0-.096-.532-.166-1.262-.166-.9 0-1.334-.072-1.512-.25-.138-.138-.502-.25-.81-.25-.307 0-.672.112-.809.25m74.12 0c-.073.188-.378.25-1.245.25-.655 0-1.149.071-1.149.166 0 .092-.263.167-.583.167-.321 0-.584.075-.584.167 0 .091-.115.166-.256.166-.236 0-1.05.443-1.244.677-.046.055-.327.206-.625.336-.298.129-.541.273-.542.32 0 .072-.311.474-.996 1.285-.094.111-.17.28-.17.375a.17.17 0 0 1-.167.174c-.091 0-.166.225-.166.5s-.075.5-.167.5c-.092 0-.167.369-.167.819 0 .477-.081.847-.194.885-.107.035-.195.319-.195.629 0 .311.088.594.195.63.113.038.194.408.194.884 0 .451.075.82.167.82.092 0 .167.235.167.522 0 .295.132.639.303.791.167.149.44.504.606.79.167.285.552.617.857.736.304.12.591.317.638.439.047.122.2.222.34.222.141 0 .256.075.256.166 0 .092.112.167.25.167.137 0 .25.075.25.167 0 .091.225.166.5.166s.5.075.5.167c0 .092.254.167.565.167.349 0 .602.095.662.25.063.164.323.25.758.25.364 0 .708.075.765.166.056.092.436.167.843.167s.74.075.74.167c0 .091.404.166.899.166.645 0 .926.071.995.25.056.146.305.25.601.25.278 0 .505.075.505.167 0 .092.151.167.336.167.426 0 .933.291 1.528.88.538.533.692 1.786.219 1.786-.137 0-.25.057-.25.125-.001.461-1.267 1.375-1.904 1.375-.225 0-.456.075-.512.167-.059.095-.891.167-1.927.167-1.104 0-1.823-.066-1.823-.167 0-.092-.225-.167-.5-.167s-.5-.075-.5-.166c0-.092-.156-.167-.346-.167-.369 0-.821-.361-.821-.655 0-.098-.075-.178-.167-.178-.091 0-.166-.115-.166-.256a.412.412 0 0 0-.25-.351c-.15-.057-.25-.309-.25-.628a2.77 2.77 0 0 0-.209-.981l-.208-.448-2.625-.002L247 52.5v1.24c0 .682.075 1.287.167 1.343.091.057.166.361.166.677 0 .399.077.573.25.573.156 0 .25.158.25.417 0 .229.075.417.167.417.092 0 .167.15.167.333 0 .183.062.333.138.333.076 0 .239.188.362.417.122.229.288.417.369.417.205 0 .964.781.964.992 0 .096.112.174.25.174.137 0 .25.075.25.167 0 .092.15.167.333.167.184 0 .334.075.334.166 0 .092.08.167.178.167.098 0 .291.112.429.25.137.137.39.25.561.25.172 0 .358.075.415.167.057.091.324.166.593.166.27 0 .49.075.49.167 0 .106 1.358.167 3.74.167 2.314 0 3.78-.064 3.844-.167.056-.092.281-.167.5-.167.218 0 .443-.075.5-.166.056-.092.251-.167.431-.167.181 0 .372-.113.425-.25.053-.138.275-.25.495-.25.219 0 .399-.075.399-.167 0-.091.102-.166.227-.166.322 0 2.106-1.699 2.106-2.005 0-.14.15-.363.333-.495.217-.157.334-.432.334-.787 0-.375.078-.547.25-.547.193 0 .25-.218.25-.966 0-.532.082-1.049.182-1.149.131-.132.131-.276 0-.522-.1-.188-.182-.761-.182-1.274 0-.675-.069-.959-.25-1.028-.143-.055-.25-.304-.25-.578 0-.266-.075-.483-.167-.483a.17.17 0 0 1-.167-.174c0-.226-.766-.992-.992-.992a.175.175 0 0 1-.174-.175c0-.303-.805-.992-1.159-.992-.192 0-.341-.109-.341-.25 0-.156-.158-.25-.417-.25-.229 0-.417-.075-.417-.167 0-.091-.225-.166-.5-.166s-.5-.075-.5-.167c0-.092-.262-.167-.583-.167-.321 0-.583-.068-.583-.151 0-.083-.375-.202-.834-.265-.458-.063-.833-.183-.833-.266 0-.083-.338-.151-.75-.151-.413 0-.75-.075-.75-.167 0-.091-.413-.166-.917-.166s-.916-.075-.916-.167c0-.092-.255-.167-.566-.167-.349 0-.602-.095-.661-.25a.414.414 0 0 0-.354-.25c-.277 0-.857-.295-1.205-.613-.577-.528.075-2.387.837-2.387.144 0 .309-.075.365-.166.057-.092.249-.167.427-.167s.323-.113.323-.25c0-.198.241-.25 1.167-.25h1.167v-5.333h-.839c-.592 0-.867.073-.934.25m24 0c-.072.185-.367.25-1.152.25-.581 0-1.102.075-1.159.166-.056.092-.248.167-.426.167s-.324.075-.324.167c0 .091-.219.166-.488.166-.321 0-.599.142-.815.417-.18.229-.469.417-.642.417-.173 0-.423.15-.555.333-.132.183-.331.333-.442.333-.283 0-2.058 1.748-2.058 2.026 0 .126-.187.369-.416.541-.229.173-.417.453-.417.623 0 .171-.056.311-.125.312-.166.001-.542.823-.542 1.184 0 .158-.056.312-.125.342-.248.111-.708 1.177-.708 1.643 0 .262-.075.523-.167.579-.101.063-.166 1.332-.166 3.25 0 1.919.065 3.188.166 3.25.092.057.169.343.172.635.003.293.116.678.25.856.135.177.245.459.245.625 0 .165.075.301.167.301.091 0 .166.15.166.333 0 .184.075.334.167.334.092 0 .167.187.167.416 0 .23.075.417.166.417.092 0 .167.115.167.255 0 .141.112.299.25.351.137.053.25.184.25.292 0 .107.15.303.333.435.184.132.334.339.334.459s.112.262.25.314c.137.053.251.182.252.287.002.203 1.044.94 1.329.94.093 0 .169.081.169.179 0 .294.452.655.821.655.19 0 .345.075.345.166 0 .092.142.167.316.167.173 0 .359.112.411.25.053.137.249.25.435.25s.338.075.338.167c0 .091.263.166.584.166.32 0 .583.075.583.167 0 .106 1.219.167 3.323.167 2.036 0 3.364-.065 3.427-.167.057-.092.249-.167.427-.167.177 0 .323-.075.323-.166 0-.092.227-.167.505-.167.296 0 .545-.104.601-.25.053-.138.259-.25.458-.25s.471-.15.603-.333c.132-.184.355-.334.496-.334.141 0 .481-.261.755-.579.274-.319.592-.582.707-.584.115-.002.208-.067.208-.145 0-.078.225-.378.5-.665.275-.288.5-.588.5-.666 0-.078.188-.36.417-.626.229-.267.416-.616.416-.776.001-.161.076-.292.167-.292.092 0 .167-.178.167-.396 0-.218.112-.49.25-.604.342-.284.332-1.433-.014-1.566-.893-.342-5.569-.063-5.569.334 0 .125-.132.385-.292.577-.16.193-.423.505-.583.695-.161.189-.292.408-.292.486 0 .077-.102.141-.227.141-.124 0-.367.187-.539.416-.173.23-.483.417-.69.417-.208 0-.377.075-.377.167 0 .091-.15.166-.334.166-.183 0-.333.075-.333.167 0 .101-.694.167-1.75.167s-1.75-.066-1.75-.167c0-.092-.187-.167-.417-.167-.229 0-.416-.075-.416-.166 0-.092-.15-.167-.334-.167-.183 0-.333-.075-.333-.167 0-.091-.113-.166-.25-.166-.138 0-.25-.079-.25-.175 0-.226-.766-.992-.992-.992-.096 0-.175-.113-.175-.25 0-.138-.075-.25-.166-.25-.092 0-.167-.082-.167-.183 0-.1-.139-.381-.309-.625a3.222 3.222 0 0 1-.42-.9c-.061-.252-.184-.459-.274-.459-.09 0-.164-.295-.164-.656 0-.362-.075-.704-.166-.76-.092-.057-.167-.769-.167-1.584 0-.814.075-1.526.167-1.583.091-.057.166-.329.166-.605 0-.276.113-.615.25-.752.138-.138.25-.432.25-.655 0-.223.057-.405.126-.405.07 0 .228-.23.352-.51.239-.541 1.761-2.156 2.03-2.156A.163.163 0 0 0 278 42c0-.092.15-.167.333-.167.184 0 .334-.075.334-.166 0-.092.152-.167.338-.167.186 0 .382-.113.435-.25.076-.199.434-.25 1.756-.25 1.254 0 1.722.061 1.911.25.138.137.395.25.572.25.176 0 .321.075.321.167 0 .091.112.166.25.166.137 0 .25.075.25.167 0 .092.107.167.237.167.308 0 1.263.955 1.263 1.262 0 .131.075.238.167.238.091 0 .166.112.166.25 0 .137.07.25.156.25.085 0 .203.15.261.333.176.554 5.741.514 5.768-.042.039-.776-.049-1.214-.28-1.393-.131-.102-.238-.346-.238-.542 0-.196-.075-.356-.167-.356-.091 0-.166-.15-.166-.334 0-.183-.075-.333-.167-.333-.092 0-.167-.14-.167-.312s-.262-.536-.583-.811c-.321-.274-.583-.614-.583-.757 0-.143-.244-.411-.542-.596-.298-.185-.652-.491-.787-.68-.135-.189-.341-.344-.458-.344-.117 0-.213-.075-.213-.167 0-.091-.116-.166-.257-.166-.142 0-.423-.155-.625-.345a2.03 2.03 0 0 0-.827-.438c-.252-.051-.458-.158-.458-.238 0-.08-.263-.146-.583-.146-.321 0-.584-.075-.584-.167 0-.095-.494-.166-1.149-.166-.867 0-1.172-.062-1.244-.25-.073-.19-.381-.25-1.273-.25-.893 0-1.201.06-1.273.25m100.841-.022c-.084.219-.358.272-1.419.272-.766 0-1.316.069-1.316.166 0 .092-.183.167-.407.167-.224 0-.453.075-.51.167-.056.091-.286.166-.51.166-.223 0-.406.07-.406.156 0 .085-.169.208-.375.274a1.674 1.674 0 0 0-.645.428c-.148.17-.373.311-.5.314-.263.006-.814.39-.814.567 0 .148-.438.595-.583.595-.156 0-.583.452-.583.618 0 .078-.15.25-.334.382-.183.132-.333.373-.333.536 0 .164-.113.297-.25.297a.25.25 0 0 0-.25.25c0 .137-.075.25-.167.25-.091 0-.166.15-.166.333 0 .184-.075.334-.167.334-.092 0-.167.152-.167.338 0 .186-.112.382-.25.435-.137.052-.25.275-.25.494 0 .22-.075.399-.166.399-.092 0-.167.221-.167.49 0 .27-.075.537-.167.594-.091.056-.166.533-.166 1.06 0 .526-.081 1.037-.18 1.136-.242.242-.246 3.194-.005 3.435.101.102.185.658.185 1.235 0 .589.073 1.05.166 1.05.092 0 .167.263.167.584 0 .32.075.583.167.583.091 0 .166.188.166.417 0 .259.095.416.25.416.139 0 .25.148.25.334 0 .183.075.333.167.333.092 0 .167.17.167.377 0 .208.187.518.416.69.23.172.417.427.417.566 0 .265 2.432 2.7 2.696 2.7.083 0 .312.15.509.334.197.183.462.333.588.333.127 0 .343.112.481.25.137.137.432.25.655.25.222 0 .404.075.404.167 0 .091.146.166.324.166.178 0 .37.075.426.167.063.102 1.391.167 3.427.167 2.104 0 3.323-.061 3.323-.167 0-.092.188-.167.417-.167.229 0 .417-.066.417-.148 0-.081.246-.194.547-.251.301-.056.655-.252.787-.435.131-.183.368-.332.526-.332.158 0 .333-.075.39-.167.234-.379.402-.115.449.708l.051.875 2.153.047c1.611.035 2.188-.007 2.289-.166.075-.118.137-3.383.138-7.256l.003-7.041h-11.167v5h3.084c2.941 0 3.083.015 3.083.323 0 .178-.075.37-.167.427-.091.056-.166.248-.166.426s-.113.324-.25.324c-.138 0-.25.06-.25.134 0 .213-1.109 1.366-1.314 1.366a.182.182 0 0 0-.186.178c0 .294-.453.655-.822.655-.19 0-.345.075-.345.167 0 .091-.225.166-.5.166s-.5.075-.5.167c0 .1-.691.167-1.74.167-.98 0-1.785-.073-1.843-.167-.057-.092-.249-.167-.427-.167s-.323-.075-.323-.166c0-.092-.17-.167-.377-.167-.208 0-.518-.187-.69-.417-.173-.229-.415-.416-.54-.416-.125 0-.227-.075-.227-.167 0-.092-.112-.167-.25-.167-.139 0-.25-.148-.25-.333 0-.183-.075-.333-.166-.333-.092 0-.167-.113-.167-.25 0-.138-.075-.25-.167-.25-.091 0-.166-.115-.166-.256a.412.412 0 0 0-.25-.351c-.138-.052-.25-.233-.25-.401s-.075-.352-.167-.409c-.092-.057-.167-.319-.167-.583 0-.265-.075-.527-.166-.584-.098-.06-.167-1.001-.167-2.26 0-1.326.064-2.156.167-2.156.091 0 .166-.3.166-.667 0-.367.075-.667.167-.667.092 0 .168-.131.17-.291.001-.161.189-.469.416-.684.228-.216.414-.503.414-.637 0-.271.391-.721.627-.721.082 0 .25-.187.373-.417.123-.229.36-.416.528-.416.168 0 .305-.075.305-.167 0-.092.113-.167.25-.167.138 0 .25-.075.25-.166 0-.092.15-.167.334-.167.185 0 .333-.111.333-.25 0-.208.322-.25 1.899-.25 1.534 0 1.917.048 1.995.25.052.137.248.25.434.25s.339.075.339.167c0 .091.138.166.307.166.377 0 2.359 1.901 2.359 2.263 0 .652.373.737 3.227.737 2.564 0 2.758-.021 2.852-.319.122-.384-.056-1.181-.263-1.181-.082 0-.149-.15-.149-.333 0-.183-.075-.333-.167-.333-.091 0-.166-.188-.166-.417 0-.229-.075-.417-.167-.417-.092 0-.167-.116-.167-.258 0-.142-.187-.431-.416-.644-.229-.212-.417-.509-.417-.658 0-.15-.075-.273-.167-.273-.091 0-.166-.113-.166-.25 0-.138-.067-.25-.148-.25-.082 0-.491-.338-.909-.75-.419-.413-.877-.75-1.019-.75-.142 0-.258-.063-.258-.14 0-.078-.262-.282-.583-.455-.321-.173-.583-.372-.583-.443 0-.071-.263-.129-.584-.129-.321 0-.583-.075-.583-.166 0-.092-.146-.167-.323-.167-.178 0-.37-.075-.427-.167-.057-.091-.692-.166-1.413-.166-.803 0-1.333-.071-1.37-.183-.109-.326-1.611-.403-1.732-.089M106.041 48.708l.042 12.542h5.5l.043-12.542.043-12.541H105.998l.043 12.541m9.126.175c0 9.41.048 12.432.2 12.584.137.137.963.2 2.633.2s2.496-.063 2.633-.2c.15-.15.206-2.191.223-8.042.013-4.313.055-7.673.095-7.467.04.207.142.375.227.375.086 0 .155.113.155.25 0 .138.075.25.167.25.092 0 .167.15.167.334 0 .183.075.333.166.333.092 0 .167.152.167.339 0 .186.112.381.25.434.138.053.25.238.25.411 0 .174.075.316.167.316.091 0 .166.112.166.25 0 .137.075.25.167.25.092 0 .167.15.167.333 0 .186.111.334.25.334.155 0 .25.157.25.416 0 .23.075.417.166.417.092 0 .167.15.167.333 0 .184.075.334.167.334.091 0 .166.112.166.25 0 .137.075.25.167.25.092 0 .167.15.167.333 0 .185.111.333.25.333.155 0 .25.158.25.417 0 .229.061.417.135.417.075 0 .239.262.365.583.126.321.327.583.447.583.121 0 .219.15.219.334 0 .183.075.333.167.333.092 0 .167.188.167.417 0 .229.075.416.166.416.092 0 .167.095.167.21 0 .116.188.413.417.66.229.247.416.565.416.706 0 .142.075.258.167.258.092 0 .167.153.167.34 0 .188.187.543.416.79.23.247.417.544.417.66 0 .115.075.21.167.21.091 0 .169.131.172.291.006.361.382.875.638.875.104 0 .19.077.19.171 0 .111 1.023.155 2.958.125l2.958-.046.043-12.541.043-12.542H130.5v7.667c0 7.166-.087 8.623-.432 7.25-.057-.229-.171-.417-.253-.417-.081 0-.148-.11-.148-.244 0-.293-.825-1.816-1.026-1.895-.077-.03-.141-.162-.141-.292 0-.129-.075-.236-.167-.236-.091 0-.166-.124-.166-.276 0-.271-.778-1.421-1.035-1.529-.073-.031-.132-.237-.132-.459 0-.221-.075-.402-.167-.402-.091 0-.166-.115-.166-.256 0-.236-.443-1.051-.677-1.244-.055-.046-.206-.327-.336-.625-.129-.298-.292-.542-.361-.542-.07 0-.126-.152-.126-.339 0-.186-.113-.381-.25-.434-.138-.053-.25-.238-.25-.411 0-.174-.075-.316-.167-.316-.092 0-.167-.113-.167-.25 0-.138-.075-.25-.166-.25-.092 0-.167-.15-.167-.333 0-.184-.074-.334-.163-.334-.09 0-.211-.187-.269-.416-.057-.229-.171-.417-.253-.417-.081 0-.148-.15-.148-.333 0-.184-.075-.334-.167-.334-.092 0-.167-.112-.167-.25 0-.137-.075-.25-.166-.25-.092 0-.167-.15-.167-.333 0-.185-.111-.333-.25-.333-.142 0-.25-.15-.25-.346 0-.76-.272-.821-3.655-.821h-3.178v12.383m47.2-12.183c-.152.152-.2 3.1-.2 12.25 0 14.425-.415 12.746 3.129 12.679l2.454-.046.043-12.541.042-12.542h-2.634c-1.827 0-2.696.061-2.834.2m35.34 12.342.043 12.541h5.167l.044-5.125.044-5.125h9.412l-.047 4.792c-.035 3.491.007 4.893.153 5.167.264.494 5.19.596 5.376.111.055-.145.101-5.809.101-12.587V36.492l-2.792.046-2.791.045-.045 4.709-.044 4.708H203v-9.5h-5.335l.042 12.542m22.126-10.048c0 3.066-.285 2.839 3.573 2.839h2.927v9.653c0 5.31.046 9.772.101 9.917.087.225.482.264 2.667.264h2.566V41.841l3.208-.046 3.208-.045.046-2.625.046-2.625h-18.342v2.494M300.5 36.75c0 .137-.075.25-.167.25-.091 0-.166.292-.166.649 0 .423-.087.682-.25.745-.138.052-.25.243-.25.424s-.075.375-.167.432c-.092.057-.167.357-.167.667 0 .31-.075.61-.166.666-.092.057-.167.254-.167.439a.96.96 0 0 1-.25.585c-.138.138-.25.432-.25.655 0 .223-.075.405-.167.405-.091 0-.166.22-.166.49 0 .269-.075.536-.167.593-.092.057-.167.324-.167.593 0 .27-.075.49-.166.49-.092 0-.167.217-.167.483 0 .274-.107.523-.25.578-.157.06-.25.315-.25.684 0 .324-.075.589-.167.589-.091 0-.166.187-.166.416 0 .23-.075.417-.167.417-.092 0-.167.23-.167.512 0 .281-.112.624-.25.762-.137.137-.25.432-.25.655 0 .222-.075.404-.166.404-.092 0-.167.225-.167.5s-.075.5-.167.5c-.091 0-.166.263-.166.584 0 .32-.067.583-.148.583-.082 0-.198.262-.258.583-.06.321-.181.584-.269.584-.087 0-.159.262-.159.583 0 .321-.075.583-.166.583-.092 0-.167.188-.167.417 0 .229-.075.417-.167.417-.091 0-.166.253-.166.563 0 .309-.113.656-.25.77a.76.76 0 0 0-.25.511c0 .166-.075.349-.167.406-.092.056-.167.319-.167.583 0 .264-.075.527-.166.583-.092.057-.167.324-.167.594 0 .269-.07.49-.155.49-.236 0-.372.584-.25 1.069l.108.431h2.628c2.883 0 2.813.023 3.182-1.084.122-.366.281-.738.354-.825.073-.087.135-.349.138-.583a1.49 1.49 0 0 1 .25-.749c.135-.177.245-.459.245-.625 0-.165.075-.301.167-.301.091 0 .166-.187.166-.417v-.416h9.167v.583c0 .321.075.583.167.583.091 0 .166.255.166.566 0 .349.096.602.25.661.146.056.25.306.25.601 0 .278.075.506.167.506.092 0 .167.235.167.523 0 .874.294.965 3.125.971l2.541.006v-1.084c0-.611-.072-1.083-.166-1.083-.092 0-.167-.187-.167-.417 0-.229-.075-.416-.167-.416-.091 0-.166-.263-.166-.584 0-.407-.076-.583-.25-.583-.175 0-.25-.176-.25-.583 0-.321-.075-.584-.167-.584-.092 0-.167-.262-.167-.583 0-.321-.075-.583-.166-.583-.092 0-.167-.179-.167-.397 0-.218-.113-.489-.25-.603-.138-.114-.25-.424-.25-.687 0-.264-.075-.48-.167-.48-.091 0-.166-.187-.166-.417 0-.229-.075-.416-.167-.416-.092 0-.168-.207-.169-.459-.003-.599-.412-1.763-.647-1.841-.101-.034-.184-.318-.184-.631s-.075-.569-.167-.569c-.091 0-.166-.221-.166-.49 0-.27-.075-.537-.167-.594-.092-.056-.167-.323-.167-.593 0-.324-.084-.49-.25-.49-.174 0-.25-.176-.25-.583 0-.321-.075-.584-.166-.584-.092 0-.167-.22-.167-.49 0-.269-.075-.536-.167-.593-.091-.057-.166-.319-.166-.583 0-.265-.075-.527-.167-.584-.092-.056-.167-.239-.167-.406a.76.76 0 0 0-.25-.51c-.137-.114-.25-.461-.25-.771 0-.309-.075-.563-.166-.563-.092 0-.167-.187-.167-.416 0-.229-.075-.417-.167-.417-.091 0-.166-.254-.166-.566 0-.348-.096-.602-.25-.661-.146-.056-.25-.306-.25-.601 0-.278-.075-.505-.167-.505-.092 0-.167-.263-.167-.584V36.5h-3.416c-2.926 0-3.417.036-3.417.25m16.874 12.292.043 12.541h17.333l.046-2.625.046-2.625h-12.175V36.5h-5.336l.043 12.542m19.5 0 .043 12.541 2.549.046c2.054.037 2.596-.001 2.792-.196.207-.208.242-2.007.242-12.588V36.5H336.831l.043 12.542m9.167 0 .042 12.541h5.167l.043-7.958c.028-5.113.103-7.958.209-7.958.09 0 .165.15.165.333 0 .183.075.333.166.333.092 0 .167.14.167.31 0 .171.188.451.417.623.229.173.416.483.416.69 0 .208.075.377.167.377.092 0 .167.142.167.316 0 .173.112.359.25.411.137.053.25.232.25.398s.15.41.333.542c.183.132.333.411.333.62 0 .209.075.38.167.38.092 0 .167.142.167.316 0 .173.112.358.25.411.137.053.25.232.25.398s.15.41.333.542c.183.132.333.411.333.62 0 .226.101.38.25.38.138 0 .25.145.25.323 0 .178.075.37.167.427.092.056.167.248.167.426s.066.324.147.324c.082 0 .273.262.425.583.152.321.348.583.435.583.088 0 .159.188.159.417 0 .229.075.417.167.417.092 0 .167.118.167.262 0 .144.093.366.208.494.495.551.625.74.625.903a.17.17 0 0 0 .167.174c.091 0 .166.115.166.256 0 .256.198.622.966 1.786l.413.625h2.957c2.29 0 2.999-.051 3.145-.227.137-.165.177-3.583.145-12.542l-.042-12.315h-5.667l-.043 7.625c-.028 4.892-.103 7.625-.209 7.625-.09 0-.165-.155-.165-.345 0-.19-.093-.45-.208-.577-.495-.552-.625-.74-.625-.904a.17.17 0 0 0-.167-.174c-.091 0-.166-.15-.166-.333 0-.183-.075-.333-.167-.333-.092 0-.167-.17-.167-.377 0-.208-.187-.518-.416-.69-.229-.173-.417-.453-.417-.623 0-.171-.075-.31-.167-.31-.091 0-.166-.15-.166-.334 0-.183-.075-.333-.167-.333-.092 0-.167-.152-.167-.339 0-.186-.112-.381-.25-.434-.137-.053-.25-.238-.25-.411 0-.174-.057-.316-.127-.316s-.258-.281-.417-.625c-.309-.665-.643-1.238-.802-1.375-.054-.046-.203-.327-.333-.625-.129-.298-.292-.542-.361-.542-.07 0-.126-.152-.126-.338 0-.186-.113-.382-.25-.435-.138-.052-.25-.238-.25-.411 0-.174-.061-.316-.136-.316-.074 0-.238-.262-.364-.583-.126-.321-.328-.583-.448-.583-.122 0-.219-.184-.219-.417 0-.229-.075-.417-.167-.417-.091 0-.166-.15-.166-.333 0-.183-.075-.333-.167-.333-.092 0-.167-.15-.167-.334 0-.183-.075-.333-.166-.333-.092 0-.167-.113-.167-.25 0-.214-.472-.25-3.251-.25h-3.251l.043 12.542M304.177 44.5c.086 0 .156.262.156.583 0 .321.075.584.167.584.092 0 .167.188.167.419 0 .418.033.511.555 1.553.153.305.278.736.278.958 0 .222.075.403.167.403.091 0 .166.256.166.569 0 .314.063.595.141.625.077.031.187.3.245.598l.106.541h-2.579c-2.42 0-2.579-.019-2.579-.315 0-.174.112-.359.25-.412.146-.056.25-.305.25-.601 0-.278.075-.505.166-.505.092 0 .167-.263.167-.583 0-.321.075-.584.167-.584.091 0 .166-.254.166-.565 0-.349.096-.602.25-.662.146-.056.25-.305.25-.601 0-.278.075-.505.167-.505.092 0 .167-.263.167-.583 0-.321.075-.584.166-.584.092 0 .167-.228.167-.507 0-.779.402-1.116.468-.392.029.311.123.566.209.566" fill="#040404" fill-rule="evenodd"/></svg>