<?xml version="1.0" standalone="no"?>
<!DOCTYPE svg PUBLIC "-//W3C//DTD SVG 20010904//EN"
 "http://www.w3.org/TR/2001/REC-SVG-20010904/DTD/svg10.dtd">
<svg version="1.0" xmlns="http://www.w3.org/2000/svg"
 width="720.000000pt" height="720.000000pt" viewBox="0 0 720.000000 720.000000"
 preserveAspectRatio="xMidYMid meet">

<g transform="translate(0.000000,720.000000) scale(0.100000,-0.100000)"
fill="#000000" stroke="none">
<path d="M0 3600 l0 -3600 3600 0 3600 0 0 3600 0 3600 -3600 0 -3600 0 0
-3600z m1050 -1055 l0 -2155 -290 0 -290 0 0 2155 0 2155 290 0 290 0 0 -2155z
m1795 2122 c106 -35 163 -70 234 -140 69 -68 121 -164 153 -282 20 -72 22
-110 26 -392 l4 -313 -290 0 -290 0 -4 238 c-3 222 -4 240 -25 278 -48 90
-111 117 -273 117 -118 0 -173 -17 -222 -69 -56 -62 -59 -88 -56 -559 3 -495
-2 -465 100 -539 35 -24 198 -117 363 -206 496 -268 590 -332 647 -437 47 -85
49 -131 46 -813 -4 -575 -6 -641 -22 -700 -66 -238 -214 -383 -445 -437 -65
-15 -124 -18 -406 -18 -369 0 -395 3 -534 71 -129 63 -227 182 -282 341 -34
99 -49 226 -49 416 l0 177 289 0 289 0 3 -162 c4 -157 5 -165 32 -210 18 -31
44 -57 75 -75 43 -26 56 -28 177 -31 127 -4 131 -3 185 25 43 23 59 39 80 78
l25 49 0 456 c0 385 -2 460 -15 485 -27 54 -125 118 -477 314 -191 107 -383
217 -425 244 -140 88 -202 177 -228 329 -7 42 -10 259 -8 663 3 583 4 602 26
680 56 205 171 341 342 406 118 45 156 48 525 46 l350 -3 80 -27z m2313 18
c43 -9 114 -34 160 -56 197 -96 299 -275 322 -564 5 -69 10 -768 10 -1632 l0
-1513 163 -2 162 -3 3 -263 2 -263 -872 3 c-860 3 -874 4 -949 25 -227 64
-364 205 -425 438 -18 67 -19 145 -19 1685 l0 1615 22 85 c55 207 170 345 343
411 116 44 155 47 588 48 333 1 428 -2 490 -14z"/>
<path d="M4490 4171 c-104 -15 -170 -71 -190 -163 -8 -39 -10 -439 -8 -1493
l3 -1440 28 -47 c18 -31 44 -57 75 -75 l47 -28 308 -3 307 -3 0 1533 c0 1092
-3 1544 -11 1573 -14 51 -82 119 -134 135 -48 14 -348 22 -425 11z"/>
</g>
</svg>
