<svg version="1.0" xmlns="http://www.w3.org/2000/svg" viewBox="0 0 720 720"><path d="M0 360v360h720V0H0v360zm105 105.5V681H47V250h58v215.5zm179.5-212.2c10.6 3.5 16.3 7 23.4 14 6.9 6.8 12.1 16.4 15.3 28.2 2 7.2 2.2 11 2.6 39.2l.4 31.3h-58l-.4-23.8c-.3-22.2-.4-24-2.5-27.8-4.8-9-11.1-11.7-27.3-11.7-11.8 0-17.3 1.7-22.2 6.9-5.6 6.2-5.9 8.8-5.6 55.9.3 49.5-.2 46.5 10 53.9 3.5 2.4 19.8 11.7 36.3 20.6 49.6 26.8 59 33.2 64.7 43.7 4.7 8.5 4.9 13.1 4.6 81.3-.4 57.5-.6 64.1-2.2 70-6.6 23.8-21.4 38.3-44.5 43.7-6.5 1.5-12.4 1.8-40.6 1.8-36.9 0-39.5-.3-53.4-7.1-12.9-6.3-22.7-18.2-28.2-34.1-3.4-9.9-4.9-22.6-4.9-41.6V580h57.8l.3 16.2c.4 15.7.5 16.5 3.2 21 1.8 3.1 4.4 5.7 7.5 7.5 4.3 2.6 5.6 2.8 17.7 3.1 12.7.4 13.1.3 18.5-2.5 4.3-2.3 5.9-3.9 8-7.8l2.5-4.9V567c0-38.5-.2-46-1.5-48.5-2.7-5.4-12.5-11.8-47.7-31.4-19.1-10.7-38.3-21.7-42.5-24.4-14-8.8-20.2-17.7-22.8-32.9-.7-4.2-1-25.9-.8-66.3.3-58.3.4-60.2 2.6-68 5.6-20.5 17.1-34.1 34.2-40.6 11.8-4.5 15.6-4.8 52.5-4.6l35 .3 8 2.7zm231.3-1.8c4.3.9 11.4 3.4 16 5.6 19.7 9.6 29.9 27.5 32.2 56.4.5 6.9 1 76.8 1 163.2V628l16.3.2 16.2.3.3 26.3.2 26.3-87.2-.3c-86-.3-87.4-.4-94.9-2.5-22.7-6.4-36.4-20.5-42.5-43.8-1.8-6.7-1.9-14.5-1.9-168.5V304.5l2.2-8.5c5.5-20.7 17-34.5 34.3-41.1 11.6-4.4 15.5-4.7 58.8-4.8 33.3-.1 42.8.2 49 1.4z"/><path d="M449 302.9c-10.4 1.5-17 7.1-19 16.3-.8 3.9-1 43.9-.8 149.3l.3 144 2.8 4.7c1.8 3.1 4.4 5.7 7.5 7.5l4.7 2.8 30.8.3 30.7.3V474.8c0-109.2-.3-154.4-1.1-157.3-1.4-5.1-8.2-11.9-13.4-13.5-4.8-1.4-34.8-2.2-42.5-1.1z"/></svg>