<svg xmlns="http://www.w3.org/2000/svg" fill="none" viewBox="0 0 1072 362"><path fill="#263681" d="M134.6 6.68c29.96-7.893 61.973-7.827 91.92.147 31.52 8.226 60.493 25.466 83.187 48.8-6.054 6.066-12.08 12.146-18.2 18.146-23.867-24.813-56.174-41.453-90.36-45.88-35.054-4.906-71.707 2.76-101.787 21.454-31.973 19.626-56.427 51.24-67.08 87.24-10.013 33.186-8.44 69.746 4.467 101.92 14.48 36.573 43.533 67.053 79.333 83.346 32.28 14.867 69.76 17.96 104.053 8.734 31.147-8.16 59.214-26.654 79.72-51.387 5.974 6.133 12.094 12.133 18.12 18.213-23.28 27.68-55.08 48.12-89.986 57.627-37.987 10.387-79.44 8.067-115.88-6.96-37.987-15.413-70.214-44.373-89.854-80.32C6.173 238.52-1.507 204.68.44 171.373c1.72-35.786 14.667-70.88 36.4-99.346C60.92 40.16 95.907 16.667 134.6 6.68ZM631.64 155.547c11.12.04 22.24-.027 33.373.04-.04 3.333-.053 6.68-.04 10.013-2.426 1.067-5.786 1.16-6.973 3.92a49.063 49.063 0 0 1-1.133-2.933c2.48-.507 4.986-.947 7.493-1.387 0-2.48 0-4.96.013-7.44-10.946-.4-21.906.213-32.813-.693l.08-1.52ZM672.973 166.2c-.746-3.52-.826-7.133-.093-10.653 10.613.493 21.427-.96 31.92.733l-1.067 1.147c-10.08.56-20.186-.294-30.266.453a832.94 832.94 0 0 1-.467 8.04l-.027.28ZM344.307 169.707c1.533 12.533.28 25.2.813 37.786 2.173.267 4.36.52 6.547.774.066 3.626.24 7.24.226 10.866-6.973-.293-13.96.28-20.906-.546-1.214-2.134-2.52-4.214-3.987-6.174l-.08-.88 1.933-1.453c.68 2.76 1.387 5.52 2.12 8.267 6.08-.667 12.227.146 18.267-.547l1.493-1.067c.414-2.693.627-5.426.88-8.133-2.773-.36-5.533-.72-8.306-1.067-.107-12.6-1.267-25.346 1-37.826ZM461.587 271.107c1.28 1.813 2.52 3.626 3.813 5.453-3.853-.013-7.76.12-11.453 1.387-.667-.96-2.027-2.88-2.707-3.84.467.04 1.4.146 1.867.2.413.48 1.253 1.453 1.68 1.946 1.72.067 5.16.2 6.893.28.44-1.08.853-2.16 1.267-3.253-.334-.533-1.014-1.627-1.36-2.173ZM428.92 278.147c2.933-.92 4.293 5.413 1.24 5.653a248.907 248.907 0 0 0-1.24-5.653Z"/><path fill="#334D9C" d="M87.853 76.413c25.734-23.026 60.307-35.933 94.854-35.12 36.826.214 72.906 16.28 98.466 42.654-5.96 6.2-12.106 12.213-18.186 18.293-17.894-18.813-42.347-31.373-68.16-34.453-23-2.92-46.88 1.28-67.374 12.173C104.4 92.067 85.72 112.307 75.56 136.293c-9.92 23.174-11.933 49.667-5.293 74 7.36 28.414 26.346 53.534 51.506 68.6 18.974 11.507 41.4 17.24 63.574 16.12 33.346-.96 65.52-18.093 85.68-44.56a1470.04 1470.04 0 0 0 18.253 18.28c-19.96 24.987-48.813 42.707-80.147 49.147-25.826 5.533-53.186 3.333-77.88-5.987C102.08 301 76.88 279.947 60.88 253.253 44.933 226.92 38.08 195.2 41.8 164.64c3.813-33.747 20.573-65.8 46.053-88.227ZM865 128.093c5.787 0 11.573 0 17.373-.026-.04 4.76-.026 9.506-.026 14.253a1851.75 1851.75 0 0 0-17.32 0c-.014-4.747-.014-9.493-.027-14.227ZM459.36 127.8c8.707 0 17.413-.027 26.12.013-.107 11.774.227 23.547-.227 35.32 2.907-2.733 5.734-5.786 9.547-7.253 7.6-2.92 17.293-1.64 22.787 4.72 4.613 5.053 5.56 12.213 5.773 18.773.147 9.094.04 18.187.027 27.28 2.706.547 5.426 1.12 8.16 1.667.026 3.453.026 6.907.013 10.36-10.84-.04-21.68-.067-32.52.013l-.04-10.36c2.427-.586 4.853-1.2 7.293-1.8-.213-9.506.094-19.026-.133-28.546-.013-3.627-1.4-7.667-4.907-9.267-5.28-2.227-12.293-.653-15.546 4.24-.654 11.147.106 22.347-.36 33.52 2.493.653 5.013 1.307 7.52 1.947 0 3.413 0 6.826-.014 10.24-10.853-.027-21.706-.014-32.546-.014.013-3.453.013-6.906.026-10.36 2.72-.56 5.44-1.12 8.16-1.693.04-22.2-.066-44.413.054-66.627-3.054-.653-6.12-1.28-9.174-1.88-.013-3.426-.013-6.866-.013-10.293ZM561.093 127.787c8.68.013 17.374 0 26.067 0-.027 11.133 0 22.266-.04 33.386 5.587-5.08 13.2-8.266 20.8-6.253 10.36 1.853 16.347 12.173 18.053 21.787 1.787 11.12 1.747 23.533-4.426 33.386-5.387 9-17.707 12.067-27.16 8.187-3.334-1.413-5.774-4.2-8.36-6.613-.48 2.346-.934 4.693-1.387 7.04-4.88-.08-9.76-.067-14.627-.04 0-26.28-.013-52.56.014-78.84a749.037 749.037 0 0 0-8.92-1.694c-.014-3.453-.014-6.893-.014-10.346Zm32.894 40.506c-3.427 1.307-7.24 4.214-6.827 8.32.173 8.16-.44 16.387.307 24.507 3.853 6.6 14.866 7.52 19.346 1.133 3.107-4.786 3.054-10.746 2.987-16.24-.2-5.453-.867-11.52-4.867-15.613-2.8-2.893-7.28-3.147-10.946-2.107ZM1000.35 128.093c8.58-.013 17.18 0 25.78-.013-.09 11.8.04 23.6-.09 35.4 6.43-8.853 19.63-11.827 28.84-5.613 6.59 4.293 8.61 12.626 8.92 20.026.07 9.574 0 19.16-.03 28.734 2.7.666 5.43 1.28 8.15 1.88.01 3.28 0 6.573.03 9.866-10.78-.013-21.54.014-32.3-.013.03-3.227-.1-6.467.24-9.68 2.4-.92 4.92-1.467 7.4-2.16-.17-9.013.07-18.04-.09-27.053-.07-4.227-1.24-9.334-5.57-11.107-5.54-2.04-11.54.013-15.56 4.067.04 11.413.09 22.826-.03 34.24 2.36.626 4.76 1.226 7.16 1.813 0 3.293 0 6.587.01 9.893-10.73-.013-21.48 0-32.21-.013.08-3.24-.28-6.547.44-9.733 2.63-.934 5.4-1.414 8.11-2.134-.07-22.226.04-44.44-.06-66.666-3-.667-6.02-1.254-9.04-1.747-.05-3.333-.08-6.653-.1-9.987Z"/><path fill="#334D9C" d="M170.32 134.227c11.387.04 22.773-.054 34.16.053 7.52 19.347 15.12 38.653 22.933 57.88 3-5.08 4.6-10.8 6.747-16.253 5.373-14.054 10.547-28.187 16.04-42.2 11.387.093 22.773.04 34.147.026.013 3.467.013 6.947.026 10.414a264.34 264.34 0 0 1-9.093 1.666c-.16 20.267-.053 40.534-.053 60.8 3.04.6 6.08 1.187 9.133 1.76v10.294c-11.747-.04-23.507-.014-35.267-.014V208.4a618.66 618.66 0 0 0 9.747-1.92c-.267-17.16.32-34.32-.16-51.467-3.373 3.987-4.493 9.214-6.467 13.92-6.373 16.054-12.226 32.32-18.933 48.24-4.267.014-8.52.014-12.787-.013-4.173-11.933-10.08-23.24-13.613-35.373-.92-2.2-1.84-4.414-2.68-6.654-3.067-7.653-6.653-15.08-9.893-22.653.266 6.747.12 13.493-.04 20.24 1.146 11.267.84 22.6.746 33.893 3.334.68 6.68 1.294 10.04 1.854.014 3.293.014 6.6.027 9.906-11.587 0-23.173-.013-34.76 0 0-3.293 0-6.586.027-9.88 3.066-.586 6.146-1.2 9.213-1.866-.173-20.24-.08-40.494-.053-60.734-3.067-.653-6.134-1.293-9.2-1.933 0-3.24.013-6.493.013-9.733ZM737.427 134.253c11.373-.053 22.746 0 34.133-.026 7.787 19.68 15.32 39.466 23.187 59.12 7.92-19.547 14.986-39.427 22.573-59.107 11.333-.027 22.693.013 34.04-.027 0 3.24.013 6.494.04 9.747-3.027.627-6.027 1.253-9.04 1.88-.013 20.28.053 40.56-.027 60.84 2.974.653 5.987 1.24 9 1.8.027 3.293.027 6.6.04 9.893-11.56-.013-23.12-.013-34.68 0 0-3.32 0-6.626.04-9.933 3.147-.56 6.294-1.147 9.454-1.813-.334-18.16.333-36.32-.187-54.48-9.013 21.466-16.84 43.44-25.533 65.053-4.227-.027-8.44-.027-12.667-.013-6.773-16.8-13.44-33.654-20.173-50.467-1.867-4.6-3.374-9.387-6.027-13.613.28 17.84.8 35.68.627 53.52 3.346.68 6.72 1.28 10.093 1.853.013 3.293.013 6.587.027 9.893-11.627-.013-23.254 0-34.867 0 0-3.293 0-6.573.04-9.866 3.04-.574 6.067-1.187 9.107-1.854-.174-20.266-.107-40.546-.04-60.826-3.014-.614-6.04-1.214-9.054-1.8-.04-3.254-.08-6.52-.106-9.774ZM362.16 140.08c5.653.04 11.307.027 16.96.027-.013 5.173-.027 10.346.013 15.533 3.787-.04 7.587-.04 11.387-.04-.027 4.04-.04 8.093-.013 12.133-3.814-.026-7.627-.04-11.44-.04.093 10.094.013 20.2.026 30.294.134 2.413-.2 5.28 1.72 7.133 2.934 2.027 6.68.92 10 1.067.414 4.013.787 8.04 1.2 12.08-7.226 1.546-15.36 3.026-22.12-.88-5.453-2.987-7.613-9.52-7.68-15.4-.12-11.427 0-22.867-.026-34.294-2.894 0-5.787.014-8.68.027-.014-4.04-.014-8.067-.04-12.093 2.88-.014 5.76-.014 8.653.013.08-5.187.053-10.373.04-15.56ZM902.827 140.387c5.546-.014 11.08-.014 16.64 0-.027 5.133-.027 10.266-.014 15.4 3.934 0 7.88 0 11.827.013-.027 3.8-.04 7.6-.013 11.4-3.934.227-7.867.307-11.8.333-.014 10.134-.04 20.28-.027 30.414.16 2.573 0 5.826 2.373 7.493 2.654 2.227 6.24.76 9.307.56.4 4.04.973 8.067 1.44 12.107-7.533 1.586-16.24 3.093-23.013-1.587-5.587-3.76-6.534-11.013-6.667-17.213-.08-10.587.013-21.174-.027-31.747-2.853-.16-5.72-.333-8.56-.467 0-3.76 0-7.533-.013-11.293 2.853-.013 5.72-.013 8.587-.027-.014-5.133-.014-10.253-.04-15.386ZM294.893 160.467c11.547-6.027 25.774-8.454 38.067-3.267 5.467 2.24 9.32 7.067 11.347 12.507-2.267 12.48-1.107 25.226-1 37.826 2.773.347 5.533.707 8.306 1.067-.253 2.707-.466 5.44-.88 8.133l-1.493 1.067c-6.04.693-12.187-.12-18.267.547a444.945 444.945 0 0 1-2.12-8.267l-1.933 1.453.08.88-.36 1.054c-7.187 7.866-20.133 8.426-28.587 2.346-8.826-6.56-9.12-21.48-.56-28.4 8.494-6.973 20.134-6.506 30.494-6.426-.374-4.08.453-9.014-2.88-12.094-4.507-4.04-11.16-2.52-16.28-.693a402.297 402.297 0 0 0-1.6 8.933 1283.92 1283.92 0 0 0-12.254-.013c.04-5.547-.026-11.107-.08-16.653Zm17.88 32.493c-5.093 2.213-6.293 10.707-1.026 13.347 5.64 2.373 11.813-.267 16.04-4.174 0-3.506.04-7.026.133-10.533-5.027.067-10.44-.813-15.147 1.36ZM409.973 160.24c12.454-9.533 30.974-6.747 42.574 2.88-.054 6.04-.12 12.093-.054 18.147-4.36-.014-8.706-.027-13.053.013-.987-3.907-.973-8.227-2.92-11.787-5.36-4.44-14.387-2.88-17.827 3.187-3.653 6.467-3.52 14.32-2.586 21.467.56 5.333 3.88 9.813 8.333 12.64 1.593 1.011 5.619 1.003 7.2.16 3.747-2 5.8-5.667 8.04-9.067 4.76-.347 9.533-.093 14.307-.12-1.52 6.613-3.734 13.853-9.694 17.827-7.64 5-17.666 5.293-26.253 2.826-10.627-3.16-17.8-13.52-19.027-24.253-1.84-12.067.787-26.133 10.96-33.92ZM856.707 155.8c8.56-.013 17.133-.027 25.706.013-.173 16.934.014 33.88-.106 50.827 2.706.64 5.426 1.253 8.146 1.84 0 3.293 0 6.587.014 9.893-10.947-.013-21.894 0-32.84 0 .026-3.346.053-6.68.133-10.013 2.72-.52 5.427-1.107 8.133-1.707-.133-13.08.067-26.16-.106-39.24-3.04-.493-6.054-1.04-9.067-1.613 0-3.333 0-6.667-.013-10ZM947.133 163.787c11.347-12.96 33.094-11.534 45.387-.707.707 6.04-.013 12.16.253 18.227-4.16.013-8.333.026-12.48.026-.813-3.973-1.6-7.96-2.426-11.933-4.774-2.867-11.347-3.76-15.894-.013-4.853 4.013-5.76 10.733-5.84 16.64-.026 6.093.24 13.053 4.867 17.626 3.747 4.067 10.693 4.44 14.92.92 2.04-1.8 2.92-4.466 4.133-6.826 4.774-.027 9.534-.027 14.32-.014-1.4 6.147-3.213 12.827-8.413 16.894-7.4 5.64-17.627 6.026-26.347 3.866-10.533-2.733-17.96-12.573-19.613-23.053-1.8-10.853-.453-23.16 7.133-31.653ZM631.56 157.067c10.907.906 21.867.293 32.813.693-.013 2.48-.013 4.96-.013 7.44-2.507.44-5.013.88-7.493 1.387.346.986.72 1.96 1.133 2.933 4.067 9.4 6.827 19.307 10.667 28.8 4.093-10.36 7.706-20.907 11.746-31.293-2.48-.36-4.96-.72-7.413-1.107.173-2.68.32-5.36.467-8.04 10.08-.747 20.186.107 30.266-.453.067 2.8.08 5.613.094 8.413-2.294.293-4.574.573-6.854.88-8.066 20.147-15.906 40.387-23.866 60.587-2.347 5.853-5.934 11.746-11.854 14.533-5.946 2.893-12.813 2.08-19.04.72.72-4 1.32-8.027 1.814-12.053 3.626-.04 7.72.773 10.893-1.507 3.267-2.16 4.267-6.227 5.787-9.6-7.347-17.387-14.32-34.92-21.4-52.413a730.323 730.323 0 0 1-7.707-.96l-.04-8.96ZM911.587 250.907c2.693 0 5.4-.014 8.133-.027.013 2.307.04 4.627.067 6.947h-8.227c0-2.307 0-4.614.027-6.92ZM491.827 250.88c4.253 0 8.52 0 12.773-.013-.08 12.653-.013 25.32-.04 37.986.987.174 2.96.534 3.947.707 0 1.24.013 3.707.013 4.947-4.04-.734-10.067 2.053-12.28-2.654-3.96 4.374-11.453 4.4-15.32-.066-4.173-4.867-4.307-11.96-3.067-17.947.854-4.6 4.08-9.213 8.92-10.067 3.4-.8 6.494 1.16 9.52 2.36v-9.506c-1.506-.28-3.013-.56-4.506-.84.013-1.227.026-3.68.04-4.907Zm-5.054 21.907c-2.173 4.84-1.453 10.48.574 15.28 3.16.88 6.333.493 9-1.507-.134-4.627.226-9.267-.267-13.88-2.027-3.307-7.507-3.573-9.307.107ZM545 250.88c2.88-.013 5.773-.013 8.667-.013-.014 2.293-.014 4.6 0 6.906-2.907-.013-5.787-.026-8.667-.026-.013-2.294 0-4.587 0-6.867ZM566.24 250.84c2.88.013 5.76.027 8.653.053 0 2.267 0 4.534.014 6.814-2.894.026-5.774.053-8.654.106-.013-2.333-.013-4.653-.013-6.973ZM589.88 253.04c3.547-3.627 8.987-2.68 13.533-2.427-.213 2.04-.44 4.08-.653 6.12-2.293.267-4.907-.306-6.88 1.16-.587 2.027-.72 4.16-1.013 6.24 2.306.08 4.626.134 6.96.174-.014 1.84-.027 3.693-.027 5.546-2.28-.013-4.547-.026-6.8-.013-.053 6.427-.093 12.853.067 19.28 1.76.187 3.52.36 5.293.547 0 1.2-.027 3.586-.04 4.786-5.68.014-11.36-.013-17.027.04-.04-1.186-.106-3.56-.133-4.746l4.053-.8c.08-6.387.027-12.774-.306-19.147-1.12.04-3.347.093-4.467.133-.013-1.946-.013-3.88-.013-5.8 1.093.027 3.28.08 4.373.12.28-3.84-.253-8.48 3.08-11.213ZM646.373 253.747c5.16-4.774 12.894-3.294 19.067-1.787-.347 1.96-.68 3.92-1.013 5.893-3.467-.306-7.147-1.626-10.52-.333-2.667 1.08-2.694 4.253-3.414 6.6 6.227.267 12.467.133 18.694.147.08 8.293-.32 16.613.36 24.906 1.053.12 3.186.347 4.24.467l-.054 4.813c-5.32 0-10.64 0-15.96.04l-.16-4.72c1.014-.213 3.027-.626 4.027-.84.027-6.373.027-12.746 0-19.12-3.533-.013-7.067 0-10.587.04-.026 6.36-.013 12.707-.013 19.054 1.307.28 2.627.573 3.96.853-.013 1.173-.04 3.533-.04 4.707-5.347-.014-10.68-.014-16.013 0l-.16-4.72c1.493-.267 3-.52 4.506-.774.04-6.386.04-12.76 0-19.146-1.213 0-3.613-.014-4.813-.014-.013-1.84-.013-3.693 0-5.533 1.533-.013 3.08-.013 4.64-.013.307-3.667.16-7.947 3.253-10.52ZM829.2 250.92c2.773-.013 5.56-.013 8.36-.013-.013 2.306-.027 4.626-.027 6.933-2.786 0-5.573-.013-8.333-.013a611.627 611.627 0 0 1 0-6.907ZM403.56 253.667c9.32.52 19.2-1.507 28.093 2.053 6.894 3.133 6.974 13.227 1.027 17.427 4.64 2.88 7.147 8.293 5.253 13.64-1.466 4.76-6.546 7.333-11.253 7.586-7.707.32-15.44 0-23.16.12.013-1.24.027-3.706.04-4.946a448.06 448.06 0 0 1 4.587-.747c.053-9.627-.054-19.253.08-28.88a373.147 373.147 0 0 0-4.694-1.32c.014-1.24.014-3.707.027-4.933Zm12.72 6.48c.013 3.52.027 7.04.027 10.56 3.853-.387 8.72.84 11.626-2.387 1-2.387.774-5.613-1.56-7.133-3.226-1.2-6.72-.907-10.093-1.04Zm.053 16.64c-.013 3.706-.013 7.413-.04 11.12 4.68-.48 11.92 1.853 13.867-4.107 3.053-.24 1.693-6.573-1.24-5.653-3.88-2.027-8.413-1.16-12.587-1.36ZM765.04 268.2c2.853-2.053 5.787-4.867 9.627-4.333 4.346-.334 8.253 3.426 8.666 7.653.467 5.787.12 11.613.227 17.413 1.013.214 3.053.627 4.067.84-.04 1.174-.107 3.547-.147 4.72-5.12-.04-10.227-.04-15.32-.026l-.107-4.267c1.2-.507 2.387-1.08 3.547-1.693.227-5.44.72-11.054-.493-16.387-1.987-3.64-6.934-1.92-9.587.053.08 5.6.067 11.214.053 16.814.854.2 2.574.6 3.44.8-.106 1.56-.186 3.133-.266 4.706-5-.053-10-.04-15 0l-.16-4.733 4.146-.8c.014-6.347.027-12.707-.013-19.053-1.56-.36-3.107-.707-4.64-1.054.133-1.146.427-3.453.573-4.613 3.774.027 7.56.027 11.347.027.013.973.027 2.946.04 3.933ZM940.6 268.067c2.667-1.76 5.227-4.534 8.733-4.2 4.534-.574 8.8 2.92 9.334 7.426.706 5.854.2 11.774.333 17.667 1.333.253 2.667.52 4.027.773-.014 1.187-.054 3.547-.067 4.734-5.133-.014-10.253-.027-15.373.04-.027-1.187-.067-3.56-.094-4.747.947-.2 2.814-.587 3.747-.787-.133-5.36.587-10.826-.453-16.12-1.467-4.466-7.24-2.786-10.04-.626.026 5.573.013 11.16.053 16.733l3.587.8c-.014 1.173-.04 3.533-.067 4.707-5.067-.014-10.147-.014-15.2-.014l-.053-4.72c1.306-.266 2.626-.506 3.96-.76.013-6.373.026-12.733-.014-19.106-1.48-.32-2.946-.64-4.413-.947.04-1.56.08-3.107.147-4.653 3.84.013 7.68 0 11.533-.027l.32 3.827ZM446.52 270.067c4.04-7.334 15.693-8.934 21.12-2.374 3.507 3.814 2.747 9.307 3 14.067-6.053.093-12.12.027-18.173.067.986 2.253 1.493 5.32 4.133 6.293 3.68 1.933 7.72-.36 11.307-1.373.733 1.72 1.466 3.44 2.226 5.16-5.813 3.28-13.506 4.8-19.44 1-7.453-4.747-8.013-15.614-4.173-22.84Zm6.587 4.24c-.467-.054-1.4-.16-1.867-.2.68.96 2.04 2.88 2.707 3.84 3.693-1.267 7.6-1.4 11.453-1.387-1.293-1.827-2.533-3.64-3.813-5.453-3.08-3.334-7.48-.414-8.48 3.2ZM513.84 264.173c4.027.014 8.053.014 12.093-.013.08.773.24 2.333.334 3.107 2.72-2.707 6.146-4.187 10.066-3.52-.36 2.613-.706 5.226-1.04 7.853-2.853.4-7.266-1.107-8.6 2.427-.52 4.906-.133 9.866-.186 14.786.96.174 2.866.507 3.826.667 0 1.267.014 3.787.027 5.053-5.36-.066-10.707-.053-16.067-.026v-5a341.44 341.44 0 0 1 3.987-.667c.013-6.253 0-12.493.027-18.747-1.507-.333-3-.666-4.494-1 .014-1.226.027-3.693.027-4.92ZM540.92 264.187c4.253 0 8.493 0 12.747-.014-.04 8.227-.04 16.454-.014 24.68 1 .174 3 .507 4 .68 0 1.254.014 3.747.014 5-5.44-.013-10.88 0-16.32-.026.066-1.694.133-3.374.226-5.054.92-.146 2.747-.426 3.667-.56.32-6.346.32-12.706-.04-19.04-1.44-.2-2.867-.4-4.28-.6v-5.066ZM562.24 264.173c4.24.014 8.467.014 12.707.014-.014 9.066.106 18.133-.454 27.186-.32 4.054.854 8.92-2.36 12.12-2.853 3.36-7.6 3.12-11.586 3.147 0-2.027.013-4.04.026-6.053 1.747-.12 3.44-.48 5.067-1.067 1.413-2.493 1.107-5.453 1.04-8.2-.333-7.147-.093-14.307-.16-21.453a240.17 240.17 0 0 0-4.28-.6v-5.094ZM613.8 265.133c5.6-2.466 11.933-.96 17.547.68.04 2.814.066 5.64.106 8.467l-4.826-.053c-1.16-2.32-2.027-5.72-5.347-5.147-2.6-.64-6.667 2.613-4.12 4.987 4.147 3.44 10.933 2.48 14.347 7.16 2.84 4.533.493 11.36-4.8 12.88-5.867 1.6-12.147.6-17.8-1.36-.027-2.827-.04-5.64-.054-8.454a622.7 622.7 0 0 0 4.894-.066c1.133 1.733 1.2 4.853 3.733 5.146 2.6.374 6.52.814 7.64-2.306.88-1.64-1.147-3.147-2.453-3.68-4.014-1.734-9.04-1.814-12.067-5.32-3.547-4.014-1.653-10.907 3.2-12.934ZM679.093 264.253c3.627.027 7.267-.186 10.894.187.333.827 1 2.467 1.333 3.293 4.453-4.88 14.04-5.8 16.933 1.174 1.734 6.453.56 13.333.894 19.973 1.36.293 2.72.6 4.08.92l-.16 4.68c-5.094-.027-10.187-.027-15.267 0l-.16-4.68c.973-.213 2.933-.667 3.92-.88-.4-5.867 1.24-12.213-1.307-17.72-2.56-1.92-6.84-1.547-8.773 1.12-.76 5.547-.187 11.2-.253 16.8.866.147 2.613.453 3.48.6v4.72c-5.134.027-10.254 0-15.374.067-.04-1.187-.12-3.56-.146-4.747 1.026-.2 3.08-.573 4.106-.773.027-6.387.04-12.774-.013-19.16-1.093-.214-3.267-.64-4.347-.867l.16-4.707ZM720.947 266.613c5.053-2.413 10.826-3.64 16.346-2.16 3.72 1 7.254 4.134 7.307 8.24.24 5.52-.013 11.054.08 16.574l3.533.48-.373 4.706c-3.147 0-6.293.014-9.427.027-.52-.933-1.026-1.853-1.533-2.773-3.787 3.053-9.307 4.44-13.707 1.853-4.68-2.76-5.413-10.053-1.266-13.627 4.2-3.76 10.266-3.026 15.453-3.826-.72-2.08-.613-4.76-2.627-6.12-2.12-1.64-4.893-.36-7.266-.147-.16 1.12-.507 3.347-.667 4.467-1.92.026-3.827.053-5.733.093-.054-2.6-.08-5.2-.12-7.787Zm6.306 18.12c-1.466 6.44 10.254 5.587 9.534-.186l.373-3.214c-3.333.134-8.8-.866-9.907 3.4ZM795.16 270.52c4.333-8.187 16.68-8.707 23.067-2.773 1.226 2.573.36 5.68.666 8.453-1.96.08-3.906.147-5.853.213-1.08-2.293-.68-6.08-3.787-6.68-3.666-1.44-7.44 2.014-7.96 5.56-1.24 4.894-.586 12.507 5.387 13.814 3.107.32 4.813-2.627 6.547-4.64 2.12 0 4.253 0 6.386.026-1.146 4-2.986 8.494-7.386 9.787-4.707 1.067-10.334 1.067-14.134-2.347-5.88-5.226-6.413-14.706-2.933-21.413ZM825.147 264.267c4.133.013 8.266 0 12.4.013 0 8.24-.014 16.48 0 24.72 1.333.227 2.68.467 4.04.707-.014 1.213-.04 3.64-.04 4.853-5.227-.027-10.44-.013-15.654.013a643.74 643.74 0 0 1-.08-4.813c.974-.213 2.947-.613 3.92-.813.014-6.36.027-12.734-.013-19.094-1.547-.306-3.08-.613-4.613-.92.013-1.16.026-3.493.04-4.666ZM855.827 293.933c-12.134-4.92-11.227-26.266 1.533-29.773 4.547-.813 9.947-.32 13.013 3.573 3.44 3.747 2.707 9.12 2.907 13.8-6.053.067-12.107-.026-18.147.107.934 2.307 1.534 5.227 3.974 6.48 3.68 2.107 7.8.013 11.453-1.04.76 1.56 1.48 3.093 2.28 4.667-5.053 3.026-11.387 4.186-17.013 2.186Zm-.56-17.64c3.72.08 7.44.067 11.16-.093-.934-2.693-1.52-6.293-4.987-6.627-3.867-.12-5.013 3.84-6.173 6.72ZM880.307 264.253c3.746.027 7.52-.186 11.266.227.32.813.974 2.453 1.294 3.28 2.16-3.093 5.546-4.307 9.253-4.053-.2 2.426-.373 4.853-.547 7.293-2.946.347-6.626-.267-8.706 2.36-.734 5.187-.187 10.48-.24 15.707 1 .16 3.026.48 4.026.64l-.106 4.8c-5.24-.067-10.467-.054-15.707-.04-.013-1.187-.053-3.56-.067-4.76.974-.16 2.934-.48 3.92-.654.067-6.426.08-12.853-.026-19.293-1.534-.28-3.067-.56-4.574-.827l.214-4.68ZM907.56 264.267c4.053.013 8.12 0 12.187.013-.014 8.24-.04 16.493 0 24.747l3.84.693c-.014 1.587 0 3.187.013 4.787-5.28.053-10.56.04-15.84.053-.013-1.213-.027-3.64-.04-4.853 1.347-.227 2.707-.454 4.067-.68 0-6.4.026-12.8-.027-19.187-1.453-.307-2.893-.613-4.32-.893.027-1.174.08-3.52.12-4.68ZM968.867 275.293c.533-5.653 4.8-11.853 11.08-11.426 3.346-.48 5.786 2.16 8.333 3.866.053-.866.173-2.6.24-3.466 3.48 0 6.987 0 10.493.013.027 1.16.054 3.48.08 4.64-.893.213-2.666.627-3.546.827-.134 8.506.146 17.026-.094 25.546-.266 5.014-4.066 9.387-8.88 10.64-5 1.667-10.173.014-15.04-1.226.454-1.934.934-3.84 1.414-5.76 3.773.866 7.96 2.693 11.706.826 2.827-1.386 2.6-4.893 3.24-7.506-4.146 2.373-9.68 4-13.906.92-5.68-3.934-5.84-11.694-5.12-17.894Zm11.48-4.826c-3.267 1.586-3.707 5.733-3.814 8.96-.04 3.2.307 7.333 3.547 8.946 2.44.427 5.613.467 7.093-1.933.427-4.667.467-9.413-.04-14.067-1.573-2.04-4.4-2.84-6.786-1.906ZM1013.31 294.093c-12.18-4.48-11.96-25.053.02-29.573 4.84-1.44 10.98-.853 14.26 3.427 3.28 3.746 2.61 8.986 2.84 13.6-6.08.053-12.15-.04-18.22.08.95 2.36 1.46 5.48 4.11 6.613 3.71 1.933 7.75-.133 11.39-1.213.7 1.573 1.41 3.146 2.13 4.733-4.92 2.96-11 4.08-16.53 2.333Zm-1.08-17.893c3.78.173 7.58.173 11.37-.08-1.13-2.44-1.59-6.013-4.83-6.507-4.01-.44-5.24 3.734-6.54 6.587ZM1036.36 264.24c3.97.027 7.95.04 11.93.04.04 1 .1 3 .14 4.013 2.64-1.96 5.25-4.866 8.9-4.426 3.99-.44 7.99 2.32 8.87 6.28 1.47 6.226.44 12.706.83 19.04 1 .12 3 .346 4 .453-.02 1.213-.04 3.64-.06 4.853-5.14-.053-10.28-.053-15.4 0-.02-1.186-.06-3.56-.09-4.746l3.41-.747c.03-5.613-.01-11.213 0-16.827-2.76-2.586-7.57-3.04-10.01.214-.67 5.506-.15 11.08-.23 16.6.83.2 2.48.586 3.31.773-.05 1.187-.13 3.533-.19 4.72-4.94-.027-9.88-.027-14.81-.027-.03-1.186-.05-3.573-.07-4.773.96-.133 2.87-.413 3.82-.547.1-6.466.1-12.933 0-19.4-1.14-.2-3.42-.586-4.56-.786.05-1.174.16-3.52.21-4.707Z"/></svg>