<svg xmlns="http://www.w3.org/2000/svg" fill="none" viewBox="0 0 424 149"><path fill="#A0102D" fill-rule="evenodd" d="M192.627 7.653c10.613-9.16 27.8-9.52 38.6-.48 7.613 6.054 11.413 16.534 9.453 26.054-1.333 8.093-6.56 15.466-13.84 19.28-5.373 3.24-11.773 3.813-17.893 3.933-9.187-1.747-18.307-6.68-22.494-15.413-5.986-10.814-3.12-25.36 6.174-33.374Zm15.626 2.667c-7.12 1.6-12.88 7.627-14.013 14.867-2.587 12.026 9.667 24.373 21.693 21.373 9.84-1.92 16.827-12.827 14.107-22.547-1.893-9.573-12.32-16.16-21.787-13.693ZM10.6 1.333c-3.413.254-6.84.2-10.253.04C.3 11.674.307 21.975.314 32.278c.005 7.728.01 15.457-.007 23.189 3.146-.014 6.306-.014 9.453 0 .029-4.642.014-9.285 0-13.929v-.002C9.732 33.359 9.706 25.18 9.92 17c5.573 10.893 11.147 21.787 16.573 32.76h.008c2.224.04 4.448.08 6.659.133 1.102-2.134 2.213-4.265 3.324-6.396 4.63-8.88 9.263-17.765 13.263-26.937.39 8.393.352 16.802.314 25.21v.004c-.02 4.535-.041 9.069.006 13.6 3.093.053 6.186.08 9.293.106l.08-7.48a4146.75 4146.75 0 0 1-.031-24.156c.005-7.434.01-14.867-.022-22.297l-2.368.015c-3.157.019-6.315.038-9.472.091-4.826 9.708-9.756 19.368-14.687 29.03l-.003.005-.018.036-.021.042c-.9 1.762-1.8 3.525-2.698 5.287-5.96-11.16-11.787-22.386-17.293-33.773l-.517-.222c-.57-.245-1.136-.489-1.71-.725Zm130.787.236c-3.6.018-7.2.035-10.8-.009 0 5.98.003 11.96.006 17.941V19.52c.006 11.975.011 23.952-.006 35.934 3.482-.024 6.965-.012 10.446 0H141.043c4.019.015 8.037.03 12.05-.013 8.747-.027 17.827-3.813 22.947-11.093 4.587-6.16 6.013-14.414 4.44-21.867-1.987-11.28-12.44-20.387-23.893-20.813-5.067-.148-10.134-.123-15.2-.098Zm5.659 44.66c-2.234-.095-4.454-.19-6.593-.056.04-11.933.027-23.88.014-35.813 1.823.069 3.685.023 5.557-.023 5.383-.132 10.845-.266 15.683 2.316 11 5.894 11.626 24 1.226 30.8-4.696 3.252-10.336 3.012-15.887 2.776ZM260.32 1.64c-3.44-.067-6.893-.067-10.333.013.002 3.583.006 7.165.01 10.747.015 14.324.03 28.649-.024 42.973 2.315.036 4.624.06 6.935.084h.003l3.449.036c.004-3.638-.004-7.277-.011-10.917v-.038c-.018-8.766-.037-17.535.104-26.298 5.601 7.73 11.334 15.365 17.067 23l.001.001.007.01c3.559 4.74 7.118 9.48 10.645 14.242 3.254-.026 6.507-.04 9.774-.04l.001-13.463V41.978c.003-13.478.005-26.95-.015-40.431l-.385-.019c-3.191-.154-6.37-.308-9.561-.141a2002.36 2002.36 0 0 0-.031 17.501v.006c.007 6.517.014 13.032-.049 19.546-9.36-12.147-18.494-24.453-27.587-36.8Zm51.573-.12c1.174.178 2.502.095 3.847.01 3.086-.194 6.259-.394 7.847 2.55 2.82 3.724 5.583 7.493 8.345 11.262v.001h.001v.002l.002.001.002.003v.001h.001c5.591 7.63 11.181 15.258 17.249 22.503.226-7.588.194-15.187.162-22.787-.018-4.498-.037-8.996-.002-13.493 3.333.014 6.666.014 10.013 0 .027 17.96.027 35.92-.013 53.88l-9.867-.04c-4.622-6.332-9.327-12.609-14.032-18.887l-.002-.003-.003-.004c-4.577-6.106-9.154-12.213-13.656-18.372-.042 6.47-.037 12.942-.031 19.415.004 5.974.009 11.948-.023 17.918h-.002c-3.439-.027-6.878-.053-10.318-.12a4342.16 4342.16 0 0 1-.006-17.309V38.038c.003-2.887.006-5.775.006-8.665.054-3.091.021-6.187-.012-9.283v-.005c-.065-6.197-.13-12.396.492-18.565Zm-212 .12a387.363 387.363 0 0 0-11.133-.027C82.614 15.897 76.342 30.14 70.07 44.378v.003l-.001.002-.004.01-.004.008v.002l-.002.001v.002l-.001.002v.001l-.001.002c-1.616 3.667-3.23 7.334-4.844 11.002 3.6.027 7.214.027 10.814 0 1.6-3.92 3.24-7.812 4.879-11.705v-.001c8.654.066 17.307.106 25.961-.04.846 1.693 1.58 3.438 2.312 5.182h.001v.001c.917 2.183 1.833 4.362 2.967 6.43 2.755.288 5.517.228 8.281.168h.001c.941-.02 1.883-.041 2.824-.048-5.164-11.555-10.166-23.177-15.169-34.801a5058.94 5058.94 0 0 0-8.19-18.959Zm3.694 33.52c-6.4.08-12.8.093-19.187-.027 1.392-3.115 2.708-6.262 4.025-9.41 1.862-4.45 3.724-8.904 5.802-13.27 2.96 7.64 6.159 15.173 9.359 22.706l.001.001ZM388.84 1.6c3.693-.027 7.373-.027 11.067.013 3.543 8.079 7.034 16.18 10.526 24.28l.001.002v.001l.001.002.001.002.001.002c4.246 9.85 8.491 19.701 12.83 29.511-3.827.04-7.64.04-11.44-.093-1.4-3.987-3.04-7.893-4.96-11.667-3.921.144-7.842.115-11.762.086-4.451-.033-8.9-.065-13.345.154-2.11 1.986-3.096 4.773-4.075 7.538v.001c-.487 1.376-.971 2.746-1.592 4.008l-2.167.001h-.001c-2.89.002-5.781.004-8.672-.028A7982.097 7982.097 0 0 0 388.84 1.6Zm-4.307 33.6 2.937.007c5.381.015 10.762.03 16.143-.06-.573-1.369-1.148-2.736-1.723-4.104-2.608-6.2-5.214-12.397-7.65-18.656-3.347 7.56-6.547 15.173-9.707 22.813ZM86.093 94.667c-10.627-4.214-23.653-1.4-31.507 6.92-6.093 6.573-8.973 16.213-6.786 25 2.147 10 10.24 18.413 20.187 20.893 10.266 3.04 21.546-1.133 28.893-8.547a478.52 478.52 0 0 0-6.147-6.586c-7.107 7.053-19.933 8.84-27.253 1.2-9.36-8.107-6.653-25.48 5.027-29.947 7.64-3.747 16.706-.547 22.266 5.347 2.053-2.533 4.053-5.107 6.053-7.68-3.32-2.587-6.72-5.187-10.733-6.6Zm36.32-.787c3.76-.187 7.534-.2 11.294-.147 7.64 17.974 15.44 35.88 23.253 53.787-3.72.08-7.427.093-11.133.107-1.6-3.76-3.147-7.534-4.68-11.32l-1.903-.009h-.002c-8.287-.038-16.584-.076-24.869.035a684.564 684.564 0 0 1-3.815 9.583l-.001.002-.265.654-.399.988c-3.653.053-7.32.027-10.986 0 8.026-17.813 15.893-35.693 23.506-53.68Zm-4.08 33.4c6.28.053 12.56.053 18.84-.013-2.729-7.122-5.724-14.139-8.716-21.149v-.001l-.001-.001-.669-1.569c-1.514 3.813-3.12 7.59-4.727 11.366-1.607 3.777-3.213 7.554-4.727 11.367Zm54.034-33.598c-3.105.022-6.209.044-9.314.025.049 10.984.043 21.968.037 32.949v.004c-.003 6.986-.007 13.971.003 20.953h.022c3.446-.013 6.906-.026 10.352-.066a576.6 576.6 0 0 1 .04-16c1.59-.008 3.18.006 4.77.021h.003c3.769.034 7.538.068 11.307-.195 6.026-.466 12.146-3.653 14.92-9.213 2.906-5.92 3.066-13.213.226-19.173-2.853-5.827-9.413-8.96-15.68-9.187-5.562-.197-11.124-.157-16.686-.118Zm1.073 28.665v-19.894c1.863.104 3.786.042 5.72-.022 5.004-.163 10.086-.329 14.413 2.382 5.507 4.32 4.027 15.507-3.373 17.027-3.779.637-7.608.578-11.435.519h-.002c-1.776-.027-3.552-.055-5.323-.012Zm41.787-28.614c3.453-.026 6.92-.026 10.4-.026-.04 10.783-.037 21.562-.034 32.341v.001c.002 7.187.004 14.375-.006 21.564-3.454-.013-6.894-.026-10.334-.066-.012-8.159-.01-16.314-.009-24.469v-.001c.002-9.783.004-19.563-.017-29.344Zm23.108-.006h-.01l-5.725.033c0 2.867-.013 5.747-.04 8.613 4.276.678 8.605.634 12.93.591 1.38-.013 2.76-.027 4.137-.017.005 6.382.004 12.765.002 19.148-.002 8.511-.004 17.021.011 25.532l10.547-.04.003-14.582v-.3c.003-9.925.006-19.851-.003-29.772 2.181.006 4.365.007 6.549.008h.001c3.275.001 6.552.003 9.823.019.307-3.04.587-6.08.867-9.12-13.022-.267-26.065-.19-39.092-.113Zm97.918-.047c3.454 0 6.92.027 10.387.12-.015 8.44-.013 16.876-.011 25.313.002 6.33.003 12.661-.002 18.994 7.733-.014 15.466-.014 23.213.026 0 3.147.013 6.307.04 9.467l-4.816.006c-9.618.013-19.23.026-28.851-.019.035-9.407.03-18.818.025-28.231V119.33c-.005-8.549-.01-17.099.015-25.65Zm-29.586 0c-3.667 0-7.334.013-11 .053a4434.53 4434.53 0 0 0-7.047 16.162c-5.47 12.589-10.941 25.179-16.673 37.652 2.715.04 5.429.057 8.139.075.91.006 1.819.011 2.727.018 1.627-3.747 3.147-7.52 4.64-11.32 2.099-.006 4.199-.02 6.299-.035 6.879-.046 13.764-.093 20.648.142.315.827.621 1.658.927 2.491 1.055 2.871 2.113 5.747 3.54 8.455 2.933.371 5.891.288 8.848.204.767-.022 1.533-.043 2.298-.057-4.362-10.013-8.7-20.035-13.038-30.057-3.432-7.928-6.863-15.857-10.308-23.783Zm3.6 33.6c-6.254.067-12.494.053-18.747-.013 2.907-7.68 6.213-15.2 9.52-22.707 1.428 3.655 2.932 7.28 4.436 10.905 1.63 3.925 3.259 7.85 4.791 11.815Z" clip-rule="evenodd"/></svg>