<svg xmlns="http://www.w3.org/2000/svg" fill="none" viewBox="0 0 127 43">
  <path
    fill="url(#a)"
    d="m30.7 38.7-9.5-9.5-9.5 9.5-8.2-8 9.5-9.6-9.5-9.5 8.1-8.1 9.5 9.5 9.5-9.5 8.1 8.1h3.5L30.7 0l-1.8 1.7-7.8 7.8-7.8-7.8L11.6 0 9.8 1.7 1.7 9.8 0 11.6l1.7 1.7 7.8 7.8-7.8 7.8L0 30.7l1.7 1.7 8.1 8.1 1.7 1.7 1.7-1.7 7.8-7.8 7.8 7.8 1.7 1.7 11.7-11.5h-3.5l-8 8Z"
  />
  <path
    fill="#000"
    d="m38.1 14.2-3.3 5.4-1.3-2-2.1-3.4h-4v14h3.8v-8l3.5 5.4h.1l1.2-1.9 2.3-3.6v8h3.8v-14l-4 .1Zm6.1 7.8v-7.8h3.9V22c0 2 1 3 2.6 3s2.6-.9 2.6-2.9v-7.9h3.9v7.7c0 4.5-2.6 6.5-6.5 6.5s-6.5-2-6.5-6.4Zm15.9-7.8H64v10.5h6.8v3.4H60.1V14.2Zm13.6 3.4h-4.2v-3.4h12.2v3.4h-4.2v10.5h-3.8V17.6Zm9.9-3.4h3.9v14h-3.9v-14Zm6.9 0h6c3.5 0 5.8 1.8 5.8 4.9 0 3.3-2.5 5-6 5h-1.9v4h-3.9V14.2Zm5.7 6.9c1.4 0 2.2-.7 2.2-1.8 0-1.2-.9-1.8-2.2-1.8h-1.8v3.7l1.8-.1Zm8.1-6.9h3.9v10.5h6.8v3.4h-10.7V14.2Zm13.2 8.7-5.3-8.7h4.4l2.9 5.1 2.9-5.1h4.3l-5.3 8.7v5.3h-3.9v-5.3Z"
  />
  <path
    fill="#F66633"
    d="M55.9 31.8H58a2.7 2.7 0 0 1 2.8 2.7 2.7 2.7 0 0 1-2.8 2.6h-2.1v-5.3Zm1.2 1.1v3.2h.9a1.5 1.5 0 0 0 1.6-1.6 1.499 1.499 0 0 0-1.6-1.7l-.9.1Zm6.6-1.1h1.2v5.4h-1.2v-5.4Zm4 2.7a2.8 2.8 0 0 1 2.8-2.8 2.9 2.9 0 0 1 2.1.7l-.7.9a2 2 0 0 0-1.4-.5 1.6 1.6 0 0 0-1.5 1.7 1.601 1.601 0 0 0 1.6 1.7 1.9 1.9 0 0 0 1.1-.3v-.8h-1.3V34h2.3v2.3a3.5 3.5 0 0 1-2.3.9 2.7 2.7 0 0 1-2.7-2.7Zm8-2.7h1.2v5.4h-1.2v-5.4Zm5.4 1.1h-1.7v-1.1h4.4v1.1h-1.6v4.3h-1.1v-4.3Zm6.5-1.2h1.1l2.3 5.4h-1.2l-.5-1.2H87l-.5 1.2h-1.1l2.2-5.4Zm1.2 3.2-.7-1.7-.7 1.7h1.4Zm4.7-3.1h1.2v4.3h2.7v1.1h-3.9v-5.4Z"
  />
  <defs>
    <linearGradient
      id="a"
      x1="0"
      x2="42"
      y1="21"
      y2="21"
      gradientUnits="userSpaceOnUse"
    >
      <stop stop-color="#FDA43A" />
      <stop offset="1" stop-color="#F66733" />
    </linearGradient>
  </defs>
</svg>
