<svg fill="none" xmlns="http://www.w3.org/2000/svg" viewBox="0 0 743 141">
  <path
    d="M69.415 3.762C28.782 3.762 0 32.732 0 72.048s28.782 68.285 69.415 68.285c40.632 0 69.414-28.969 69.414-68.285 0-39.316-28.782-68.286-69.415-68.286Zm0 30.099c21.444 0 36.682 15.613 36.682 38.187 0 22.573-15.237 38.187-36.682 38.187-21.446 0-36.683-15.614-36.683-38.187 0-22.574 15.237-38.187 36.683-38.187ZM237.804 46.787a1.17 1.17 0 0 0-1.17-1.17h-27.007c-.646 0-1.169.524-1.169 1.17V95.75c0 11.757-6.396 17.119-15.143 17.119-8.842 0-15.144-5.362-15.144-17.119V46.787c0-.646-.523-1.17-1.169-1.17h-27.101a1.17 1.17 0 0 0-1.17 1.17V98.29c0 28.969 19.941 42.043 44.584 42.043 24.548 0 44.489-13.074 44.489-41.95V46.788ZM335.655 46.787c0-.646-.523-1.17-1.169-1.17h-40.833a1.17 1.17 0 0 1-1.17-1.169V19.887c0-.646-.523-1.17-1.169-1.17h-27.101a1.17 1.17 0 0 0-1.17 1.17v24.561c0 .646-.523 1.17-1.169 1.17H247c-.646 0-1.169.523-1.169 1.17v23.714c0 .646.523 1.17 1.169 1.17h14.874c.646 0 1.169.523 1.169 1.169v29.587c0 23.138 11.193 37.905 35.93 37.905 7.965 0 18.782-3.206 21.777-4.144.481-.151.797-.595.797-1.099v-21.806c0-2.717-2.96-4.4-5.42-3.245-3.404 1.6-7.083 2.83-10.57 2.83-7.43 0-13.074-3.575-13.074-14.203V72.841c0-.646.524-1.17 1.17-1.17h40.833c.646 0 1.169-.523 1.169-1.169V46.787Z"
    fill="#0A213B"
  />
  <path
    d="M389.118 46.787c0-.646-.523-1.17-1.169-1.17h-23.527a1.17 1.17 0 0 1-1.17-1.169v-5.32c0-7.995 3.198-11.663 9.688-11.663 5.225 0 9.32 1.531 13.407 3.55a1.182 1.182 0 0 0 1.543-.455l11.703-19.879a1.151 1.151 0 0 0-.309-1.519C392.148 4.002 382.831 0 368.99 0c-21.539 0-35.178 13.638-35.178 38.47v98.248c0 .646.524 1.17 1.17 1.17h27.101a1.17 1.17 0 0 0 1.169-1.17V72.841c0-.646.524-1.17 1.17-1.17h23.527c.646 0 1.169-.523 1.169-1.169V46.787ZM486.614 46.787c0-.646-.523-1.17-1.169-1.17h-27.007a1.17 1.17 0 0 0-1.17 1.17V95.75c0 11.757-6.395 17.119-15.143 17.119-8.841 0-15.143-5.362-15.143-17.119V46.787c0-.646-.523-1.17-1.169-1.17h-27.101a1.17 1.17 0 0 0-1.17 1.17V98.29c0 28.969 19.94 42.043 44.583 42.043 24.549 0 44.489-13.074 44.489-41.95V46.788ZM554.627 43.078c-10.749 0-19.207 3.364-25.063 10.654-.742.924-2.402.43-2.402-.756v-6.189a1.17 1.17 0 0 0-1.17-1.17h-25.878c-.646 0-1.169.524-1.169 1.17v89.931c0 .646.523 1.17 1.169 1.17h27.101a1.17 1.17 0 0 0 1.169-1.17V88.226c0-11.946 6.773-17.495 14.956-17.495 9.123 0 14.579 6.114 14.579 17.024v48.963c0 .646.523 1.17 1.169 1.17h27.101a1.17 1.17 0 0 0 1.169-1.17V77.315c0-21.351-14.296-34.237-32.731-34.237ZM639.48 43.078c-24.737 0-42.984 21.445-42.984 48.534 0 27.276 18.247 48.721 42.89 48.721 10.937 0 18.783-3.954 24.291-9.789.767-.812 2.233-.295 2.233.823v5.351c0 .646.523 1.17 1.169 1.17h26.067a1.17 1.17 0 0 0 1.169-1.17V3.615c0-.646-.523-1.17-1.169-1.17h-27.007a1.17 1.17 0 0 0-1.17 1.17v47.607c0 1.095-1.407 1.62-2.185.851-5.447-5.385-13.004-8.995-23.304-8.995Zm6.96 27.465c11.569 0 19.752 8.935 19.752 21.163 0 12.227-8.183 21.163-19.752 21.163-11.757 0-19.658-9.124-19.658-21.163 0-12.04 7.901-21.163 19.658-21.163Z"
    fill="#0A213B"
  />
  <path
    d="M707.514 122.792c0-9.688 7.854-17.542 17.542-17.542 9.688 0 17.541 7.854 17.541 17.542 0 9.688-7.853 17.541-17.541 17.541s-17.542-7.853-17.542-17.541Z"
    fill="#00A3D7"
  />
</svg>
