<svg fill="none" xmlns="http://www.w3.org/2000/svg" viewBox="0 0 254 48">
  <path
    d="M23.743 1.287C9.845 1.287 0 11.196 0 24.643 0 38.091 9.845 48 23.743 48c13.898 0 23.742-9.909 23.742-23.357 0-13.447-9.844-23.356-23.742-23.356Zm0 10.295c7.335 0 12.547 5.34 12.547 13.061 0 7.722-5.212 13.062-12.547 13.062-7.335 0-12.547-5.34-12.547-13.062 0-7.72 5.212-13.061 12.547-13.061ZM81.339 16.003a.4.4 0 0 0-.4-.4h-9.237a.4.4 0 0 0-.4.4v16.748c0 4.021-2.188 5.855-5.18 5.855-3.024 0-5.18-1.834-5.18-5.855V16.003a.4.4 0 0 0-.4-.4h-9.27a.4.4 0 0 0-.4.4V33.62c0 9.91 6.82 14.381 15.25 14.381 8.397 0 15.217-4.472 15.217-14.349V16.003ZM114.809 16.003a.4.4 0 0 0-.4-.4h-13.967a.4.4 0 0 1-.4-.4v-8.4a.4.4 0 0 0-.4-.4h-9.27a.4.4 0 0 0-.4.4v8.4a.4.4 0 0 1-.4.4h-5.087a.4.4 0 0 0-.4.4v8.112c0 .22.179.4.4.4h5.087c.22 0 .4.179.4.4v10.12c0 7.914 3.829 12.965 12.29 12.965 2.724 0 6.424-1.097 7.448-1.418a.39.39 0 0 0 .273-.376v-7.458c0-.93-1.013-1.505-1.854-1.11-1.164.547-2.423.968-3.615.968-2.542 0-4.472-1.223-4.472-4.858v-8.833a.4.4 0 0 1 .4-.4h13.967a.4.4 0 0 0 .4-.4v-8.112Z"
    fill="#F2F6FA"
  />
  <path
    d="M133.095 16.003a.4.4 0 0 0-.4-.4h-8.047a.4.4 0 0 1-.4-.4v-1.82c0-2.734 1.094-3.989 3.314-3.989 1.786 0 3.187.524 4.585 1.214.19.094.421.027.528-.155l4.003-6.8a.394.394 0 0 0-.106-.52C134.131 1.37 130.945 0 126.21 0c-7.367 0-12.032 4.665-12.032 13.158v33.605a.4.4 0 0 0 .4.4h9.27a.4.4 0 0 0 .4-.4V24.916a.4.4 0 0 1 .4-.4h8.047a.4.4 0 0 0 .4-.4v-8.112ZM166.443 16.003a.4.4 0 0 0-.4-.4h-9.238a.4.4 0 0 0-.4.4v16.748c0 4.021-2.187 5.855-5.179 5.855-3.024 0-5.18-1.834-5.18-5.855V16.003a.4.4 0 0 0-.4-.4h-9.27a.4.4 0 0 0-.4.4V33.62c0 9.91 6.821 14.381 15.25 14.381 8.397 0 15.217-4.472 15.217-14.349V16.003ZM189.706 14.735c-3.676 0-6.57 1.15-8.572 3.644-.254.316-.822.147-.822-.259v-2.117a.4.4 0 0 0-.4-.4h-8.852a.4.4 0 0 0-.4.4v30.76a.4.4 0 0 0 .4.4h9.27a.4.4 0 0 0 .4-.4V30.178c0-4.086 2.316-5.984 5.115-5.984 3.121 0 4.987 2.091 4.987 5.823v16.748a.4.4 0 0 0 .4.4h9.27a.4.4 0 0 0 .4-.4V26.445c0-7.303-4.89-11.71-11.196-11.71ZM218.729 14.735c-8.461 0-14.702 7.335-14.702 16.6 0 9.33 6.241 16.665 14.67 16.665 3.741 0 6.425-1.353 8.309-3.348.262-.278.764-.101.764.281v1.83a.4.4 0 0 0 .4.4h8.915a.4.4 0 0 0 .4-.4V1.236a.4.4 0 0 0-.4-.4h-9.237a.4.4 0 0 0-.4.4V17.52c0 .375-.481.555-.748.291-1.863-1.842-4.447-3.076-7.971-3.076Zm2.381 9.394c3.957 0 6.756 3.056 6.756 7.238 0 4.183-2.799 7.239-6.756 7.239-4.021 0-6.724-3.12-6.724-7.239 0-4.118 2.703-7.238 6.724-7.238Z"
    fill="#F2F6FA"
  />
  <path d="M242 42a6 6 0 1 1 12 0 6 6 0 0 1-12 0Z" fill="#00A3D7" />
</svg>
