<svg xmlns="http://www.w3.org/2000/svg" fill="none" viewBox="0 0 117 36"><path fill="#0F6FDE" d="M86.49 13.49h-1.664a.395.395 0 0 0-.391.287c-.082.246-.144.41-.165.513-.657 2.012-1.665 5.051-2.98 9.096a8.47 8.47 0 0 1-.268.657.206.206 0 0 1-.267.102.249.249 0 0 1-.103-.102 8.831 8.831 0 0 1-.267-.657 1146.293 1146.293 0 0 1-3.022-9.383.832.832 0 0 1-.062-.206.411.411 0 0 0-.39-.287h-1.645a.41.41 0 0 0-.391.534.697.697 0 0 0 .062.164c1.028 2.915 2.57 7.275 4.625 13.079.002.016.01.03.021.041a.34.34 0 0 1 0 .246c0 .02 0 .02-.02.041-.021.083-.062.185-.083.267a2.056 2.056 0 0 1-1.912 1.355h-1.727a.411.411 0 0 0-.41.411v1.376c0 .226.183.41.41.41h1.727a4.227 4.227 0 0 0 3.865-2.525.76.76 0 0 1 .082-.185c.021-.061 1.234-3.49 5.284-14.803a.297.297 0 0 0-.185-.39c-.062-.021-.082-.042-.123-.042ZM64.576 25.171c.391.13.801.192 1.213.185a4.78 4.78 0 0 0 3.269-1.355 3.31 3.31 0 0 0 .966-2.423v-1.068a.185.185 0 0 0-.226-.184c-.206.02-.308.02-.308.02l-1.296.164-2.57.39c-1.377.226-2.22.78-2.487 1.643-.066.206-.1.42-.103.636a2.132 2.132 0 0 0 1.542 1.992Zm7.75.904v.82a.41.41 0 0 1-.41.411h-1.337a.41.41 0 0 1-.41-.41l-.022-1.355a.206.206 0 0 0-.02-.062.099.099 0 0 0-.144 0c-.08.07-.156.145-.226.226-1.07 1.068-2.529 1.601-4.42 1.601-1.357 0-2.467-.37-3.33-1.088-.864-.718-1.275-1.725-1.275-2.997a3.927 3.927 0 0 1 .37-1.766c.22-.465.56-.862.986-1.15.367-.26.768-.468 1.193-.616.38-.136.773-.24 1.172-.308 1.994-.287 3.063-.431 3.269-.472.164-.02.822-.103 1.953-.267a.923.923 0 0 1 .226-.02.218.218 0 0 0 .185-.206v-.575c0-.862-.226-1.54-.679-2.012-.452-.472-1.295-.719-2.508-.719a5.39 5.39 0 0 0-1.644.226c-.407.124-.77.359-1.049.678-.188.237-.34.5-.452.78-.02.062-.041.123-.062.205a.076.076 0 0 1-.02.062.411.411 0 0 1-.412.328h-1.542a.427.427 0 0 1-.39-.43v-.083a5.27 5.27 0 0 1 .062-.39c.102-.397.261-.777.472-1.13a4 4 0 0 1 .925-1.026 5.317 5.317 0 0 1 1.604-.739 9.423 9.423 0 0 1 2.405-.287c3.722 0 5.53 1.478 5.53 4.476v8.295Zm30.489-12.279v13.059c0 .226.184.41.412.41h1.665a.41.41 0 0 0 .411-.41V13.797a.41.41 0 0 0-.411-.41h-1.665a.411.411 0 0 0-.412.41Zm0-4.147v1.663c0 .227.184.41.412.41h1.665a.41.41 0 0 0 .411-.41V9.65a.41.41 0 0 0-.411-.41h-1.665a.411.411 0 0 0-.412.41Zm10.259 5.913h3.516a.41.41 0 0 0 .411-.41v-1.376a.41.41 0 0 0-.411-.41h-3.516a.193.193 0 0 1-.205-.206V9.65a.411.411 0 0 0-.412-.41h-1.665a.41.41 0 0 0-.411.41v3.531a.193.193 0 0 1-.206.206h-1.521a.41.41 0 0 0-.411.41v1.376c0 .227.184.41.411.41h1.521a.193.193 0 0 1 .206.205v7.413a4.212 4.212 0 0 0 4.194 4.065h1.871a.41.41 0 0 0 .411-.41V25.48a.41.41 0 0 0-.411-.41h-1.871a1.727 1.727 0 0 1-1.727-1.725v-7.577a.243.243 0 0 1 .226-.205Zm-54.234-.719A5.605 5.605 0 0 0 53.35 9.24h-7.915a.41.41 0 0 0-.411.41v17.207c0 .226.184.41.41.41H47.1a.411.411 0 0 0 .411-.41v-6.18a.193.193 0 0 1 .206-.206h5.633a5.635 5.635 0 0 0 5.49-5.625Zm-2.179 0a3.415 3.415 0 0 1-3.413 3.409h-5.51a.193.193 0 0 1-.205-.206v-6.405a.193.193 0 0 1 .205-.206h5.51a3.415 3.415 0 0 1 3.413 3.409Zm35.279 5.565h6.25a.411.411 0 0 0 .41-.411v-1.376a.411.411 0 0 0-.41-.41h-6.25a.193.193 0 0 1-.206-.206v-6.364a.193.193 0 0 1 .206-.206h7.668a.41.41 0 0 0 .411-.41V9.65a.41.41 0 0 0-.41-.41h-9.951a.41.41 0 0 0-.411.41v17.206c0 .226.184.41.41.41h1.666a.41.41 0 0 0 .411-.41v-6.242c0-.113.092-.205.206-.205Z"/><path fill="#0F6FDE" fill-rule="evenodd" d="M18.023 36C8.07 36 0 27.941 0 18S8.07 0 18.023 0c9.954 0 18.024 8.059 18.024 18s-8.07 18-18.023 18Zm-.245-11.598v-3.58a.192.192 0 0 1 .205-.204h4.198a5.51 5.51 0 0 0 5.291-5.512 5.51 5.51 0 0 0-5.311-5.492H11.879a.41.41 0 0 0-.41.409v14.44c0 1.74 1.413 3.15 3.155 3.15a3.152 3.152 0 0 0 3.154-3.15c.027-.04.027-.06 0-.06Zm.205-8.488h3.973a.819.819 0 1 0 0-1.637h-5.387a.41.41 0 0 0-.41.41v9.756a1.535 1.535 0 0 1-3.071 0V11.434a.192.192 0 0 1 .204-.204h8.664a3.894 3.894 0 0 1 3.406 1.88 3.883 3.883 0 0 1 .072 3.887 3.893 3.893 0 0 1-3.335 2.005h-4.116a.193.193 0 0 1-.205-.204v-2.66c0-.116.088-.214.205-.224Z" clip-rule="evenodd"/></svg>