<svg xmlns="http://www.w3.org/2000/svg" viewBox="0 0 2000 2000" style="enable-background:new 0 0 2000 2000" xml:space="preserve"><linearGradient id="a" gradientUnits="userSpaceOnUse" x1="598.947" y1="1417.489" x2="1388.758" y2="627.678"><stop offset="0" style="stop-color:#147bd1"/><stop offset="1" style="stop-color:#00b8d9"/></linearGradient><path d="M1230.6 1093.9c.5 15.3 5 27.1 13.5 35.4 8.5 8.3 20 12.4 34.5 12.4 9.1 0 17-1.6 23.9-4.7 6.9-3.1 12.1-6.8 15.8-11 3.7-4.2 5.5-7.9 5.5-11 0-1.2-.4-2.1-1.3-2.7-.8-.6-1.8-1-3-1h-17.1c-1.6 0-2.7.2-3.3.5-.7.3-1.6 1.2-2.7 2.6-4.7 6-10.7 8.9-18.1 8.9-6.5 0-11.6-2.4-15.3-7.1-3.7-4.7-5.7-10.7-5.9-18v-1.6h64.5c1.4 0 2.6-.5 3.5-1.4.9-.9 1.4-2 1.4-3.3v-4.1c0-15.5-4.2-28-12.5-37.3-8.4-9.3-20.2-14-35.7-14-15 0-26.8 4.7-35.3 14-8.5 9.3-12.7 22.1-12.7 38.3l.3 5.1zm26.6-14c0-7.6 1.9-13.8 5.6-18.4 3.8-4.6 8.9-6.9 15.5-6.9s11.8 2.3 15.6 6.9c3.8 4.6 5.7 10.7 5.7 18.4v.4H1257v-.4zm185.3 47c-3.2-4-4.8-7.4-4.8-10.2 0-1.3.4-2.3 1.3-3.1.8-.8 1.8-1.2 3-1.2h15.9c1 0 1.9.5 2.7 1.6.6.5 2.1 1.8 4.4 3.7 2.3 1.9 4.9 3.5 7.8 4.6 2.9 1.1 6.1 1.7 9.6 1.7 5.2 0 9.4-1 12.6-3 3.2-2 4.9-4.9 4.9-8.6 0-2.6-.7-4.7-2.2-6.3-1.5-1.6-4.1-3.1-8-4.5-3.8-1.4-9.6-2.9-17.2-4.6-11-2.3-19.1-5.9-24.4-10.7-5.2-4.8-7.9-11.1-7.9-19 0-5.2 1.6-10.1 4.7-14.7s7.7-8.4 13.9-11.3c6.2-2.9 13.5-4.4 22.1-4.4 8.8 0 16.4 1.4 22.7 4.2 6.3 2.8 11.2 6.1 14.5 10 3.3 3.9 5 7.3 5 10.3 0 1.2-.4 2.2-1.3 3-.8.8-1.8 1.3-3 1.3h-14.6c-1.4 0-2.5-.5-3.3-1.6-.9-.6-2.4-1.8-4.4-3.6-2-1.8-4.2-3.1-6.7-4.2-2.5-1-5.4-1.6-8.9-1.6-4.8 0-8.5 1-11.1 3.1-2.6 2.1-3.9 4.8-3.9 8.2 0 2.3.6 4.3 1.8 5.8 1.2 1.6 3.7 3 7.5 4.4 3.8 1.4 9.4 2.8 16.9 4.2 23.3 4.5 35 14.7 35 30.5 0 9.2-4 16.6-12 22.3-8 5.7-19.1 8.6-33.3 8.6-9.8 0-18.1-1.5-24.7-4.5-6.5-3-11.4-6.5-14.6-10.4zm-99.8 0c-3.2-4-4.8-7.4-4.8-10.2 0-1.3.4-2.3 1.3-3.1.8-.8 1.8-1.2 3-1.2h15.9c1 0 1.9.5 2.7 1.6.6.5 2.1 1.8 4.4 3.7 2.3 1.9 4.9 3.5 7.8 4.6 2.9 1.1 6.1 1.7 9.6 1.7 5.2 0 9.4-1 12.6-3 3.2-2 4.9-4.9 4.9-8.6 0-2.6-.7-4.7-2.2-6.3-1.5-1.6-4.1-3.1-8-4.5-3.8-1.4-9.6-2.9-17.2-4.6-11-2.3-19.1-5.9-24.4-10.7-5.2-4.8-7.9-11.1-7.9-19 0-5.2 1.6-10.1 4.7-14.7s7.7-8.4 13.9-11.3c6.2-2.9 13.5-4.4 22.1-4.4 8.8 0 16.4 1.4 22.7 4.2 6.3 2.8 11.2 6.1 14.5 10 3.3 3.9 5 7.3 5 10.3 0 1.2-.4 2.2-1.3 3-.8.8-1.8 1.3-3 1.3h-14.6c-1.4 0-2.5-.5-3.3-1.6-.9-.6-2.4-1.8-4.4-3.6-2-1.8-4.2-3.1-6.7-4.2-2.5-1-5.4-1.6-8.9-1.6-4.8 0-8.5 1-11.1 3.1-2.6 2.1-3.9 4.8-3.9 8.2 0 2.3.6 4.3 1.8 5.8 1.2 1.6 3.7 3 7.5 4.4 3.8 1.4 9.4 2.8 16.9 4.2 23.3 4.5 35 14.7 35 30.5 0 9.2-4 16.6-12 22.3-8 5.7-19.1 8.6-33.3 8.6-9.8 0-18.1-1.5-24.7-4.5-6.6-3-11.5-6.5-14.6-10.4zm-131.7-169c-.9-.9-1.4-2-1.4-3.3V826c0-1.4.4-2.6 1.4-3.4.9-.8 2-1.3 3.3-1.3h16.3c1.4 0 2.6.4 3.4 1.3.8.8 1.3 2 1.3 3.4v128.7c0 1.3-.4 2.4-1.3 3.3-.8.9-2 1.4-3.4 1.4h-16.3c-1.3-.1-2.4-.6-3.3-1.5zm-39.8 78.9c10.2 0 18.9 1.8 25.9 5.4 7.1 3.6 12.3 8.1 15.7 13.3 3.4 5.2 5.3 10.3 5.5 15.1.1 1.3-.3 2.4-1.3 3.3-1 .9-2.1 1.4-3.4 1.4h-17.3c-1.4 0-2.5-.3-3.1-.9-.7-.6-1.3-1.6-1.9-3.2-1.9-4.9-4.5-8.5-7.7-10.7-3.2-2.2-7.2-3.3-12.1-3.3-6.6 0-11.8 2.1-15.4 6.2-3.7 4.1-5.7 10.5-5.9 19l-.2 7.2.2 6.4c.8 16.8 7.9 25.3 21.4 25.3 5.1 0 9.1-1.1 12.2-3.2 3.1-2.1 5.6-5.7 7.6-10.8.5-1.4 1.1-2.5 1.8-3.1.7-.6 1.8-1 3.2-1h17.3c1.3 0 2.4.5 3.4 1.4 1 .9 1.4 2 1.3 3.3-.3 4.5-2.1 9.4-5.4 14.7-3.4 5.2-8.6 9.7-15.5 13.5-7 3.8-15.7 5.6-26.2 5.6-14.3 0-25.6-4-34.1-11.9s-13-18.8-13.5-32.8l-.2-7.8.2-7.8c.5-14 5-24.9 13.5-32.8 8.3-7.9 19.7-11.8 34-11.8zm421.1 101.6c-.9-.9-1.4-2-1.4-3.3v-91.7c0-1.4.5-2.6 1.4-3.4.9-.8 2-1.3 3.3-1.3h16.1c1.4 0 2.6.4 3.4 1.3.8.8 1.3 2 1.3 3.4v8c7.9-9.7 18.7-14.6 32.5-14.6 11.9 0 21.4 3.9 28.4 11.7 7 7.8 10.5 18.5 10.5 32.1v54.6c0 1.3-.4 2.4-1.3 3.3-.8.9-2 1.4-3.4 1.4h-17.5c-1.3 0-2.4-.4-3.3-1.4-.9-.9-1.4-2-1.4-3.3v-53.4c0-7.5-1.8-13.4-5.5-17.6-3.7-4.2-9-6.3-15.8-6.3-6.6 0-11.9 2.1-15.9 6.4-4 4.3-6 10.1-6 17.5v53.4c0 1.3-.4 2.4-1.3 3.3-.8.9-2 1.4-3.4 1.4h-17.3c-1.4-.1-2.5-.6-3.4-1.5zm-681.4-123.6c-8.9-7.4-21.2-11.1-36.9-11.1h-52.1c-1.4 0-2.6.5-3.4 1.4-.8.9-1.3 2.1-1.3 3.5v126.5c0 1.3.4 2.4 1.4 3.3.9.9 2 1.4 3.3 1.4h18.7c1.4 0 2.6-.4 3.5-1.3.9-.8 1.4-2 1.4-3.4v-45.5H874c15.7 0 28-3.6 36.9-10.8 8.9-7.2 13.4-17.8 13.4-31.8.1-14-4.4-24.8-13.4-32.2zm-20.7 47.7c-4 3.6-9.7 5.3-17.2 5.3h-28v-42.4h28c7.8 0 13.6 1.9 17.4 5.6 3.8 3.8 5.7 9 5.7 15.7.1 7.1-1.9 12.3-5.9 15.8zm677.6-22.4c.9.9 1.4 2 1.4 3.3v91.7c0 1.3-.5 2.4-1.4 3.3-.9.9-2 1.4-3.3 1.4H1548c-1.3 0-2.4-.4-3.3-1.4-.9-.9-1.4-2-1.4-3.3v-91.7c0-1.4.5-2.6 1.4-3.4.9-.8 2-1.3 3.3-1.3h16.5c1.3 0 2.4.5 3.3 1.4zM1135.4 899c-12.4 1.9-22.2 5.6-29.3 11.1-7.1 5.4-10.7 12.6-10.7 21.4 0 5.4 1.6 10.4 4.8 15 3.2 4.5 7.5 8.1 13 10.8 5.5 2.7 11.6 4 18.2 4 7.8 0 14.3-1.3 19.4-4 5.2-2.7 9.2-6.1 12-10.2v7.6c0 1.3.5 2.4 1.4 3.3.9.9 2 1.4 3.3 1.4h16.1c1.4 0 2.6-.4 3.4-1.4.8-.9 1.3-2 1.3-3.3v-61c0-11.1-3.5-20.1-10.5-27-7-6.9-18.1-10.3-33.4-10.3-9.3 0-17.2 1.5-23.5 4.6-6.4 3-11 6.6-14.1 10.7-3 4.1-4.6 7.7-4.8 11 0 1.3.4 2.3 1.3 3.1.8.8 1.8 1.2 3 1.2h15.2c1.4 0 2.4-.8 2.9-2.3l3.2-3.2c1.6-1.6 3.7-3.2 6.3-4.8 2.6-1.6 6-2.3 10.3-2.3 6.2 0 10.8 1.4 13.6 4.3 2.8 2.9 4.3 7.1 4.3 12.6v4.1l-26.7 3.6zm26.8 12.5v3.9c0 8.8-2.3 15.5-6.8 20.2-4.5 4.7-10.4 7-17.5 7-4.8 0-8.9-1.1-12.3-3.4-3.4-2.3-5.2-5.5-5.2-9.6 0-7.6 7.4-12.6 22.3-15l19.5-3.1zm553.6 215.3c6.8 8.2 16.9 12.2 30.4 12.2 12.8 0 22.7-4.1 29.7-12.4v13.2c0 8.6-1.8 14.5-5.4 18-3.6 3.4-9.3 5.2-17.1 5.2-6 0-10.4-1.2-13.2-3.6-2.9-2.4-5-5.3-6.4-8.6-.5-1.6-1.2-2.6-2-3.2-.8-.6-1.8-.9-3-.9h-17.3c-1.3 0-2.4.4-3.3 1.3-.9.8-1.4 1.9-1.4 3.2 0 3.5 1.5 7.7 4.5 12.6 3 4.9 8 9.3 15.2 13.1 7.1 3.8 16.5 5.7 28 5.7 16.2 0 28.3-4 36.3-11.9 8-7.9 12.1-19 12.1-33.4l-.2-93.7c0-1.4-.5-2.6-1.4-3.5-.9-.9-2-1.4-3.3-1.4h-15.9c-1.3 0-2.4.5-3.4 1.4-1 .9-1.5 2.1-1.5 3.5v7.6c-3.4-4.4-7.6-7.9-12.8-10.5-5.2-2.6-11.2-3.9-18.1-3.9-13.3 0-23.5 4.2-30.3 12.6-6.9 8.4-10.6 19.6-11.1 33.4l-.2 5.2.2 5.2c.4 14.3 4.1 25.4 10.9 33.6zm15.6-43.4c.8-17.1 8.2-25.7 22.2-25.7 7.3 0 12.7 2.3 16.3 7 3.6 4.7 5.6 10.4 6 17.1.1 1 .2 3.1.2 6.2s-.1 5.2-.2 6.2c-.4 6.7-2.4 12.4-6 17.1-3.6 4.7-9.1 7-16.3 7-14.9 0-22.3-10.1-22.3-30.3l.1-4.6zm-187.5-62.5c-.9-.9-1.4-2-1.4-3.3v-14.2c0-1.4.4-2.6 1.4-3.5.9-.9 2-1.4 3.3-1.4h17.9c1.4 0 2.6.5 3.5 1.4.9.9 1.4 2.1 1.4 3.5v14.2c0 1.3-.5 2.4-1.5 3.3-1 .9-2.1 1.4-3.4 1.4h-17.9c-1.3-.1-2.4-.5-3.3-1.4zm-530.3-143.2c-.9-.9-1.4-2-1.4-3.3v-11.5c0-1.3.4-2.4 1.4-3.3.9-.9 2-1.4 3.3-1.4h15.4V826c0-1.4.4-2.6 1.4-3.4.9-.8 2-1.3 3.3-1.3h16.1c1.4 0 2.6.4 3.4 1.3.8.8 1.3 2 1.3 3.4v32.3h24.3c1.3 0 2.4.5 3.3 1.4.9.9 1.4 2 1.4 3.3v11.5c0 1.3-.5 2.4-1.4 3.3-.9.9-2 1.4-3.3 1.4h-24.3V921c0 5.6 1 9.8 2.9 12.6 1.9 2.9 5.1 4.3 9.5 4.3h13.6c1.4 0 2.6.4 3.4 1.3.8.8 1.3 2 1.3 3.4v12.2c0 1.3-.4 2.4-1.3 3.3-.8.9-2 1.4-3.4 1.4h-15.9c-11.8 0-20.7-3.1-26.6-9.2-6-6.2-8.9-15.2-8.9-27.1V879H1017c-1.4 0-2.5-.4-3.4-1.3zm-357.3 255.1V827.6c0-5.6 4.5-10.1 10.1-10.1s10.1 4.5 10.1 10.1v305.2c0 5.6-4.5 10.1-10.1 10.1s-10.1-4.6-10.1-10.1zm250.8-224 .2 8.6c.6 13.7 5.1 24.5 13.4 32.3 8.3 7.8 20.1 11.7 35.4 11.7 15.2 0 26.9-3.9 35.2-11.7 8.3-7.8 12.8-18.5 13.4-32.3.1-1.6.2-4.4.2-8.6 0-4.1-.1-7-.2-8.6-.7-13.6-5.2-24.3-13.6-32.2-8.4-7.8-20.1-11.8-35-11.8-15 0-26.8 3.9-35.2 11.8-8.4 7.8-13 18.6-13.6 32.2l-.2 8.6zm27-7.6c.3-8.3 2.3-14.6 6-18.9 3.8-4.3 9.1-6.5 15.9-6.5 6.7 0 12 2.2 15.7 6.5 3.8 4.3 5.8 10.7 6 18.9.1 1.3.2 3.8.2 7.6s-.1 6.3-.2 7.6c-.3 8.3-2.2 14.6-5.9 18.9-3.7 4.3-9 6.4-15.8 6.4s-12.2-2.1-15.9-6.4c-3.8-4.3-5.8-10.6-6-18.9l-.2-7.6.2-7.6zm-126.2-55c-.9-.9-1.4-2.1-1.4-3.5v-14.6c0-1.4.4-2.6 1.3-3.5.8-.9 2-1.4 3.4-1.4h99.3c1.4 0 2.6.5 3.5 1.4.9.9 1.4 2.1 1.4 3.5v14.6c0 1.4-.5 2.6-1.4 3.5-.9.9-2.1 1.4-3.5 1.4h-35.8v107.1c0 1.3-.4 2.4-1.3 3.3-.8.9-2 1.4-3.4 1.4h-18.3c-1.3 0-2.4-.4-3.3-1.4-.9-.9-1.4-2-1.4-3.3V847.5h-36c-1 0-2.1-.4-3.1-1.3zm-608.8 26.2 48.3-46.7s8.6-7.6 20.9-8.2H445.7c28.1.9 45.1 9.8 45.1 9.8 11.3 4.2 2.6 10.5 2.6 10.5l-29.6 28.8-5.5 5.4s-9.2 7.9-20.6 8.2H398s-11.1-.5-12.3 9.7V932s.7 9-4.5 14l-18.4 18.1-31.5 30.3c-1.6 1.6-3.6 2.7-5.8 3.3-2.4.6-4.6.5-4.8-2.7V891.4s1.2-10.3-10.6-11.3H201.7s-7.9-.6-2.6-7.7zm271.9 6.5 34.3-33.2c.3-.3.6-.5.9-.7 9.6-6 19.3 4.6 20.5 5.9l.3.3c2.1 2.1 27.9 28.5 29.1 66.5 1.2 39.6-23.5 104.4-123.4 107.2h-37.1c-9.6.9-9.8 10.2-9.8 10.2V1075.5c-.1 12.2-11.5 21.5-13.2 22.8-.2.1-.3.3-.4.4l-42.2 40.5c-2.5 2.6-4 2.6-4 2.6-5 .3-5.1-3.9-5.1-3.9V1033.7c1.2-11.7 10.2-19.8 11.3-20.7.1-.1.2-.1.2-.2l40.6-39.3.2-.2c9.5-10.5 24.6-11 24.6-11h52.6c15.6-1.1 29.3-7.8 37.8-26.4 0 0 11.8-28.8-15.7-48.3 0 0-4.5-3.1-2.7-7 .3-.7.7-1.3 1.2-1.7zm554.4 251.2c8.3 7.8 20.1 11.7 35.4 11.7 15.2 0 26.9-3.9 35.2-11.7 8.3-7.8 12.8-18.5 13.4-32.3.1-1.6.2-4.4.2-8.6 0-4.1-.1-7-.2-8.6-.7-13.6-5.2-24.3-13.6-32.2-8.4-7.8-20.1-11.8-35-11.8-15 0-26.8 3.9-35.2 11.8-8.4 7.8-13 18.6-13.6 32.2l-.2 8.6.2 8.6c.6 13.8 5.1 24.5 13.4 32.3zm13.4-48.4c.3-8.3 2.3-14.6 6-18.9 3.8-4.3 9.1-6.5 15.9-6.5 6.7 0 12 2.2 15.7 6.5 3.8 4.3 5.8 10.7 6 18.9.1 1.3.2 3.8.2 7.6s-.1 6.3-.2 7.6c-.3 8.3-2.2 14.6-5.9 18.9-3.7 4.3-9 6.4-15.8 6.4s-12.2-2.1-15.9-6.4c-3.8-4.3-5.8-10.6-6-18.9l-.2-7.6.2-7.6zm-34.3-41.7c.8.8 1.3 2 1.3 3.4v14.2c0 1.3-.4 2.4-1.3 3.3-.8.9-2 1.4-3.4 1.4h-15.4c-6.1 0-10.9 1.7-14.4 5.2s-5.2 8.3-5.2 14.4v53.2c0 1.3-.5 2.4-1.4 3.3-.9.9-2 1.4-3.3 1.4h-17.3c-1.3 0-2.4-.4-3.3-1.4-.9-.9-1.4-2-1.4-3.3v-91.5c0-1.4.4-2.6 1.4-3.5.9-.9 2-1.4 3.3-1.4H960c1.4 0 2.6.5 3.5 1.4.9.9 1.4 2.1 1.4 3.5v8c6.5-8.5 15.8-12.8 28-12.8h8.2c1.4-.1 2.6.4 3.4 1.2z" style="fill:url(#a)"/></svg>