<svg xmlns="http://www.w3.org/2000/svg" width="1000" height="1000"><defs><linearGradient id="a" gradientUnits="userSpaceOnUse" x1="598.947" y1="1417.489" x2="1388.758" y2="627.678" gradientTransform="scale(.5)"><stop offset="0" style="stop-color:#147bd1;stop-opacity:1"/><stop offset="1" style="stop-color:#00b8d9;stop-opacity:1"/></linearGradient></defs><path style="stroke:none;fill-rule:nonzero;fill:url(#a)" d="M615.3 546.95c.25 7.652 2.5 13.55 6.75 17.698 4.25 4.153 10 6.204 17.25 6.204 4.552 0 8.5-.801 11.95-2.352 3.45-1.55 6.05-3.398 7.898-5.5 1.852-2.102 2.75-3.95 2.75-5.5 0-.602-.199-1.05-.648-1.352a2.47 2.47 0 0 0-1.5-.5h-8.55c-.802 0-1.348.102-1.65.25-.35.153-.8.602-1.35 1.301-2.348 3-5.348 4.45-9.052 4.45-3.25 0-5.796-1.2-7.648-3.547-1.852-2.352-2.852-5.352-2.95-9v-.801h32.25c.7 0 1.302-.25 1.75-.7.45-.453.7-1 .7-1.652v-2.05c0-7.75-2.102-14-6.25-18.649-4.2-4.648-10.102-7-17.852-7-7.5 0-13.398 2.352-17.648 7s-6.352 11.05-6.352 19.148Zm13.302-7c0-3.802.949-6.9 2.796-9.2 1.903-2.3 4.454-3.45 7.75-3.45 3.301 0 5.903 1.15 7.801 3.45 1.903 2.3 2.852 5.352 2.852 9.2v.198H628.5v-.199Zm92.648 23.5c-1.602-2-2.398-3.7-2.398-5.098 0-.653.199-1.153.648-1.551.398-.403.898-.602 1.5-.602h7.95c.5 0 .948.25 1.35.801.302.25 1.052.898 2.2 1.852 1.148.949 2.45 1.75 3.898 2.296 1.454.551 3.051.852 4.801.852 2.602 0 4.7-.5 6.301-1.5 1.602-1 2.45-2.45 2.45-4.3 0-1.302-.348-2.348-1.098-3.15-.75-.8-2.051-1.55-4-2.25-1.903-.698-4.801-1.448-8.602-2.3-5.5-1.148-9.55-2.95-12.2-5.352-2.6-2.398-3.948-5.546-3.948-9.5 0-2.597.796-5.046 2.347-7.347s3.852-4.2 6.95-5.653c3.101-1.449 6.75-2.199 11.05-2.199 4.403 0 8.2.7 11.352 2.102 3.148 1.398 5.597 3.05 7.25 5 1.648 1.949 2.5 3.648 2.5 5.148 0 .602-.2 1.102-.653 1.5-.398.403-.898.653-1.5.653h-7.296c-.704 0-1.25-.25-1.653-.801-.449-.301-1.199-.903-2.199-1.801-1-.898-2.102-1.55-3.352-2.102-1.25-.5-2.699-.796-4.449-.796-2.398 0-4.25.5-5.55 1.546-1.297 1.051-1.95 2.403-1.95 4.102 0 1.148.301 2.148.903 2.898.597.801 1.847 1.5 3.75 2.204 1.898.699 4.699 1.398 8.449 2.097 11.648 2.25 17.5 7.352 17.5 15.25 0 4.602-2 8.301-6 11.153-4 2.847-9.551 4.296-16.653 4.296-4.898 0-9.046-.75-12.347-2.25-3.25-1.5-5.7-3.25-7.301-5.199Zm-49.898 0c-1.602-2-2.403-3.7-2.403-5.098 0-.653.2-1.153.653-1.551.398-.403.898-.602 1.5-.602h7.949c.5 0 .949.25 1.347.801.301.25 1.051.898 2.204 1.852 1.148.949 2.449 1.75 3.898 2.296 1.45.551 3.05.852 4.8.852 2.598 0 4.7-.5 6.302-1.5 1.597-1 2.449-2.45 2.449-4.3 0-1.302-.352-2.348-1.102-3.15-.75-.8-2.05-1.55-4-2.25-1.898-.698-4.8-1.448-8.597-2.3-5.5-1.148-9.551-2.95-12.204-5.352-2.597-2.398-3.949-5.546-3.949-9.5 0-2.597.801-5.046 2.352-7.347 1.55-2.301 3.847-4.2 6.949-5.653 3.102-1.449 6.75-2.199 11.05-2.199 4.4 0 8.2.7 11.348 2.102 3.153 1.398 5.602 3.05 7.25 5 1.653 1.949 2.5 3.648 2.5 5.148 0 .602-.199 1.102-.648 1.5-.398.403-.898.653-1.5.653h-7.3c-.7 0-1.25-.25-1.65-.801-.448-.301-1.198-.903-2.198-1.801-1-.898-2.102-1.55-3.352-2.102-1.25-.5-2.7-.796-4.45-.796-2.402 0-4.25.5-5.55 1.546-1.3 1.051-1.95 2.403-1.95 4.102 0 1.148.302 2.148.9 2.898.6.801 1.85 1.5 3.75 2.204 1.902.699 4.698 1.398 8.448 2.097 11.653 2.25 17.5 7.352 17.5 15.25 0 4.602-2 8.301-6 11.153-4 2.847-9.546 4.296-16.648 4.296-4.898 0-9.05-.75-12.352-2.25-3.296-1.5-5.75-3.25-7.296-5.199Zm-65.852-84.5c-.45-.45-.7-1-.7-1.65V413c0-.7.2-1.3.7-1.7.45-.402 1-.652 1.648-.652h8.153c.699 0 1.3.204 1.699.653.398.398.648 1 .648 1.699v64.352c0 .648-.199 1.199-.648 1.648-.398.45-1 .7-1.7.7h-8.152a2.54 2.54 0 0 1-1.648-.75Zm-19.898 39.448c5.097 0 9.449.903 12.949 2.704 3.55 1.796 6.148 4.046 7.847 6.648 1.704 2.602 2.653 5.148 2.75 7.55.051.65-.148 1.2-.648 1.65-.5.448-1.05.698-1.7.698h-8.652c-.699 0-1.25-.148-1.546-.449-.352-.3-.653-.8-.954-1.597-.949-2.454-2.25-4.25-3.847-5.352-1.602-1.102-3.602-1.648-6.051-1.648-3.3 0-5.898 1.046-7.7 3.097-1.85 2.051-2.85 5.25-2.948 9.5l-.102 3.602.102 3.199c.398 8.398 3.949 12.648 10.699 12.648 2.55 0 4.55-.546 6.097-1.597 1.551-1.051 2.801-2.852 3.801-5.403.25-.699.551-1.25.903-1.546.347-.301.898-.5 1.597-.5h8.653c.648 0 1.199.25 1.699.699.5.449.699 1 .648 1.648-.148 2.25-1.05 4.7-2.699 7.352-1.7 2.597-4.3 4.847-7.75 6.75-3.5 1.898-7.852 2.8-13.102 2.8-7.148 0-12.796-2-17.046-5.953-4.25-3.949-6.5-9.398-6.75-16.398l-.102-3.898.102-3.903c.25-7 2.5-12.449 6.75-16.398 4.148-3.95 9.847-5.903 17-5.903ZM796.148 569.2c-.449-.449-.699-1-.699-1.648v-45.852c0-.699.25-1.3.7-1.699.453-.398 1-.648 1.652-.648h8.05c.7 0 1.297.199 1.7.648.398.398.648 1 .648 1.7v4c3.95-4.848 9.352-7.302 16.25-7.302 5.95 0 10.7 1.954 14.2 5.852 3.5 3.898 5.25 9.25 5.25 16.05v27.302c0 .648-.2 1.199-.649 1.648-.398.45-1 .7-1.7.7h-8.75c-.652 0-1.198-.2-1.652-.7-.449-.45-.699-1-.699-1.648v-26.704c0-3.75-.898-6.699-2.75-8.796-1.847-2.102-4.5-3.153-7.898-3.153-3.301 0-5.95 1.051-7.95 3.2-2 2.152-3 5.05-3 8.75v26.703c0 .648-.203 1.199-.652 1.648-.398.45-1 .7-1.699.7h-8.648c-.704-.052-1.25-.302-1.704-.75ZM455.45 507.4c-4.449-3.7-10.597-5.547-18.449-5.547h-26.05c-.7 0-1.302.25-1.7.699a2.604 2.604 0 0 0-.648 1.75v63.25c0 .648.199 1.199.699 1.648.449.45 1 .7 1.648.7h9.352c.699 0 1.3-.2 1.75-.649.449-.398.699-1 .699-1.7V544.8H437c7.852 0 14-1.8 18.45-5.402 4.448-3.597 6.698-8.898 6.698-15.898.051-7-2.199-12.398-6.699-16.102Zm-10.347 23.851c-2 1.8-4.852 2.648-8.602 2.648h-14V512.7h14c3.898 0 6.8.95 8.7 2.801 1.902 1.898 2.85 4.5 2.85 7.852.052 3.546-.948 6.148-2.948 7.898Zm338.796-11.2c.454.45.704 1 .704 1.65v45.85c0 .65-.25 1.2-.704 1.65-.449.448-1 .698-1.648.698H774c-.648 0-1.2-.199-1.648-.699-.454-.449-.704-1-.704-1.648v-45.852c0-.699.25-1.3.704-1.699.449-.398 1-.648 1.648-.648h8.25c.648 0 1.2.25 1.648.699ZM567.7 449.5c-6.199.95-11.097 2.8-14.648 5.55-3.551 2.7-5.352 6.302-5.352 10.7 0 2.7.801 5.2 2.403 7.5 1.597 2.25 3.75 4.05 6.5 5.398 2.75 1.352 5.796 2 9.097 2 3.903 0 7.153-.648 9.7-2 2.601-1.347 4.601-3.046 6-5.097v3.8c0 .649.25 1.2.703 1.649.449.45 1 .7 1.648.7h8.05c.7 0 1.302-.2 1.7-.7.398-.45.648-1 .648-1.648v-30.5c0-5.551-1.75-10.051-5.25-13.5-3.5-3.454-9.046-5.153-16.699-5.153-4.648 0-8.597.75-11.75 2.301-3.199 1.5-5.5 3.3-7.05 5.352-1.5 2.046-2.297 3.847-2.399 5.5 0 .648.2 1.148.648 1.546.403.403.903.602 1.5.602h7.602c.7 0 1.2-.398 1.45-1.148l1.6-1.602c.802-.8 1.848-1.602 3.15-2.398 1.3-.801 3-1.153 5.152-1.153 3.097 0 5.398.7 6.796 2.153 1.403 1.449 2.153 3.546 2.153 6.296v2.051Zm13.403 6.25v1.95c0 4.402-1.153 7.75-3.403 10.1-2.25 2.348-5.199 3.5-8.75 3.5-2.398 0-4.449-.55-6.148-1.698-1.7-1.153-2.602-2.75-2.602-4.801 0-3.801 3.7-6.301 11.153-7.5Zm276.796 107.648c3.403 4.102 8.454 6.102 15.204 6.102 6.398 0 11.347-2.05 14.847-6.2v6.598c0 4.301-.898 7.25-2.699 9-1.8 1.704-4.648 2.602-8.55 2.602-3 0-5.2-.602-6.598-1.8a11.153 11.153 0 0 1-3.204-4.302c-.25-.796-.597-1.296-1-1.597-.398-.301-.898-.45-1.5-.45h-8.648c-.648 0-1.2.2-1.648.649-.454.398-.704.95-.704 1.602 0 1.75.75 3.847 2.25 6.296 1.5 2.454 4 4.653 7.602 6.551 3.55 1.903 8.25 2.852 14 2.852 8.102 0 14.148-2 18.148-5.95 4-3.953 6.051-9.5 6.051-16.703l-.097-46.847c0-.7-.25-1.301-.704-1.75-.449-.45-1-.7-1.648-.7h-7.95c-.652 0-1.198.25-1.698.7-.5.449-.75 1.05-.75 1.75v3.8a18.222 18.222 0 0 0-6.403-5.25c-2.597-1.3-5.597-1.953-9.05-1.953-6.649 0-11.75 2.102-15.149 6.301-3.45 4.2-5.3 9.801-5.55 16.7l-.098 2.601.097 2.602c.2 7.148 2.051 12.699 5.45 16.796ZM865.7 541.7c.403-8.55 4.102-12.847 11.102-12.847 3.648 0 6.347 1.148 8.148 3.5 1.801 2.347 2.801 5.199 3 8.546.051.5.102 1.551.102 3.102 0 1.55-.051 2.602-.102 3.102-.199 3.347-1.199 6.199-3 8.546-1.8 2.352-4.55 3.5-8.148 3.5-7.45 0-11.153-5.046-11.153-15.148Zm-93.75-31.25c-.449-.449-.699-1-.699-1.648v-7.102c0-.699.2-1.3.7-1.75.448-.449 1-.699 1.652-.699h8.949c.699 0 1.3.25 1.75.7.449.448.699 1.05.699 1.75v7.1c0 .65-.25 1.2-.75 1.65-.5.448-1.05.698-1.7.698h-8.948c-.653-.046-1.204-.25-1.653-.699Zm-265.148-71.597c-.45-.454-.7-1-.7-1.653v-5.75c0-.648.2-1.199.7-1.648.449-.45 1-.7 1.648-.7h7.7V413c0-.7.203-1.3.703-1.7.449-.402 1-.652 1.648-.652h8.05c.7 0 1.302.204 1.7.653.398.398.648 1 .648 1.699v16.148h12.153c.648 0 1.199.25 1.648.704.45.449.7 1 .7 1.648v5.75c0 .648-.25 1.2-.7 1.648-.449.454-1 .704-1.648.704h-12.153V460.5c0 2.8.5 4.898 1.454 6.3.949 1.45 2.546 2.15 4.75 2.15h6.796c.704 0 1.301.198 1.704.652.398.398.648 1 .648 1.699v6.097c0 .653-.2 1.204-.648 1.653-.403.449-1 .699-1.704.699h-7.949c-5.898 0-10.347-1.55-13.3-4.602-3-3.097-4.45-7.597-4.45-13.546V439.5H508.5c-.7 0-1.25-.2-1.7-.648ZM328.148 566.398V413.801c0-2.801 2.25-5.051 5.051-5.051s5.051 2.25 5.051 5.05v152.598c0 2.801-2.25 5.051-5.05 5.051-2.802 0-5.052-2.3-5.052-5.05Zm125.403-112 .097 4.301c.301 6.852 2.551 12.25 6.704 16.153 4.148 3.898 10.046 5.847 17.699 5.847 7.597 0 13.449-1.949 17.597-5.847 4.153-3.903 6.403-9.25 6.704-16.153.046-.8.097-2.199.097-4.3 0-2.047-.05-3.5-.097-4.297C502 443.3 499.75 437.949 495.55 434c-4.2-3.898-10.051-5.898-17.5-5.898-7.5 0-13.403 1.949-17.602 5.898-4.199 3.898-6.5 9.3-6.8 16.102Zm13.5-3.796c.148-4.153 1.148-7.301 3-9.454 1.898-2.148 4.55-3.25 7.949-3.25 3.352 0 6 1.102 7.852 3.25 1.898 2.153 2.898 5.352 3 9.454.046.648.097 1.898.097 3.796 0 1.903-.05 3.153-.097 3.801-.153 4.153-1.102 7.301-2.954 9.45-1.847 2.152-4.5 3.203-7.898 3.203-3.398 0-6.102-1.051-7.95-3.204-1.902-2.148-2.902-5.296-3-9.449l-.1-3.8Zm-63.102-27.5c-.449-.454-.699-1.051-.699-1.75v-7.301c0-.7.2-1.301.648-1.75.403-.45 1-.7 1.704-.7h49.648c.7 0 1.3.25 1.75.7.45.449.7 1.05.7 1.75v7.3c0 .7-.25 1.297-.7 1.75-.45.45-1.05.7-1.75.7h-17.898v53.55c0 .649-.204 1.2-.653 1.649-.398.45-1 .7-1.699.7h-9.148c-.653 0-1.204-.2-1.653-.7-.449-.45-.699-1-.699-1.648V423.75h-18c-.5 0-1.05-.2-1.55-.648ZM99.551 436.199l24.148-23.347s4.301-3.801 10.45-4.102h88.703c14.046.45 22.546 4.898 22.546 4.898 5.653 2.102 1.301 5.25 1.301 5.25l-14.8 14.403-2.75 2.699s-4.598 3.95-10.297 4.102H199s-5.55-.25-6.148 4.847V466s.347 4.5-2.25 7l-9.204 9.05-15.75 15.15c-.796.8-1.796 1.35-2.898 1.652-1.2.296-2.3.25-2.398-1.352v-51.8s.597-5.15-5.301-5.65h-54.2s-3.953-.3-1.3-3.85Zm135.949 3.25 17.148-16.597c.153-.153.301-.25.454-.352 4.796-3 9.648 2.3 10.25 2.95.046.05.097.1.148.152 1.05 1.046 13.95 14.25 14.55 33.25.598 19.796-11.75 52.199-61.698 53.597H197.8c-4.801.45-4.903 5.102-4.903 5.102v20.199c-.046 6.102-5.75 10.75-6.597 11.398-.102.051-.153.153-.2.204L165 569.602c-1.25 1.296-2 1.296-2 1.296-2.5.153-2.55-1.949-2.55-1.949V516.852c.6-5.852 5.1-9.903 5.652-10.352.046-.05.097-.05.097-.102L186.5 486.75l.102-.102c4.75-5.25 12.296-5.5 12.296-5.5H225.2c7.8-.546 14.652-3.898 18.902-13.199 0 0 5.898-14.398-7.852-24.148 0 0-2.25-1.551-1.352-3.5.153-.352.352-.653.602-.852Zm277.2 125.602c4.152 3.898 10.05 5.847 17.698 5.847 7.602 0 13.454-1.949 17.602-5.847 4.148-3.903 6.398-9.25 6.7-16.153.05-.796.1-2.199.1-4.296 0-2.051-.05-3.5-.1-4.301-.348-6.801-2.598-12.153-6.802-16.102-4.199-3.898-10.046-5.898-17.5-5.898-7.5 0-13.398 1.949-17.597 5.898-4.2 3.903-6.5 9.301-6.801 16.102l-.102 4.3.102 4.297c.3 6.903 2.55 12.25 6.7 16.153Zm6.698-24.2c.153-4.152 1.153-7.3 3-9.453 1.903-2.148 4.551-3.25 7.954-3.25 3.347 0 6 1.102 7.847 3.25 1.903 2.153 2.903 5.352 3 9.454.051.648.102 1.898.102 3.796 0 1.903-.051 3.153-.102 3.801-.148 4.153-1.097 7.301-2.949 9.45-1.852 2.152-4.5 3.203-7.898 3.203-3.403 0-6.102-1.051-7.954-3.204-1.898-2.148-2.898-5.296-3-9.449l-.097-3.8ZM502.25 520c.398.398.648 1 .648 1.7v7.1c0 .65-.199 1.2-.648 1.65-.398.448-1 .698-1.7.698h-7.698c-3.051 0-5.454.852-7.204 2.602s-2.597 4.148-2.597 7.2v26.6c0 .65-.25 1.2-.7 1.65-.453.448-1 .698-1.652.698h-8.648c-.653 0-1.2-.199-1.653-.699-.449-.449-.699-1-.699-1.648V521.8c0-.7.2-1.301.7-1.75.453-.45 1-.7 1.652-.7H480c.7 0 1.3.25 1.75.7.45.449.7 1.05.7 1.75v4c3.25-4.25 7.902-6.403 14-6.403h4.1c.7-.046 1.302.204 1.7.602Zm0 0"/></svg>