<svg xmlns="http://www.w3.org/2000/svg" width="300" height="300"><defs><linearGradient id="a" gradientUnits="userSpaceOnUse" x1="598.947" y1="1417.489" x2="1388.758" y2="627.678" gradientTransform="scale(.15)"><stop offset="0" style="stop-color:#147bd1;stop-opacity:1"/><stop offset="1" style="stop-color:#00b8d9;stop-opacity:1"/></linearGradient></defs><path style="stroke:none;fill-rule:nonzero;fill:url(#a)" d="M184.59 164.086c.074 2.293.75 4.062 2.023 5.309 1.278 1.246 3 1.859 5.176 1.859 1.367 0 2.55-.238 3.586-.703 1.035-.465 1.816-1.02 2.371-1.653.555-.628.824-1.183.824-1.648 0-.18-.058-.316-.195-.406a.738.738 0 0 0-.45-.149h-2.566c-.238 0-.406.032-.496.075-.101.046-.238.18-.402.39-.707.899-1.606 1.336-2.715 1.336-.976 0-1.742-.36-2.297-1.066-.554-.703-.855-1.606-.883-2.7v-.242h9.672c.211 0 .39-.074.528-.207.132-.136.21-.3.21-.496v-.613c0-2.328-.632-4.203-1.874-5.598-1.262-1.394-3.032-2.097-5.356-2.097-2.25 0-4.02.703-5.297 2.097-1.273 1.395-1.902 3.317-1.902 5.746Zm3.988-2.102c0-1.14.285-2.07.844-2.757.566-.692 1.332-1.036 2.324-1.036.988 0 1.77.344 2.34 1.036.57.687.855 1.601.855 2.757v.063h-6.39v-.063Zm27.797 7.051c-.48-.601-.719-1.11-.719-1.531 0-.195.059-.344.196-.465a.616.616 0 0 1 .449-.18h2.383c.152 0 .285.075.406.243.09.074.316.27.66.554a4.08 4.08 0 0 0 1.172.688c.433.168.914.258 1.437.258.782 0 1.41-.153 1.891-.454.48-.296.734-.734.734-1.289 0-.39-.105-.703-.328-.945-.226-.238-.617-.465-1.203-.676-.566-.207-1.437-.433-2.578-.687-1.648-.348-2.863-.887-3.66-1.606-.781-.718-1.184-1.664-1.184-2.851 0-.778.239-1.516.703-2.203.465-.692 1.157-1.262 2.086-1.696.93-.433 2.024-.66 3.317-.66 1.316 0 2.457.211 3.402.63.945.42 1.68.913 2.176 1.5.496.585.75 1.097.75 1.546 0 .18-.059.328-.195.45a.62.62 0 0 1-.45.194h-2.191a.563.563 0 0 1-.492-.242 6.12 6.12 0 0 1-.66-.539c-.301-.27-.633-.465-1.008-.629a3.557 3.557 0 0 0-1.332-.242c-.723 0-1.278.152-1.668.469-.39.312-.582.719-.582 1.226 0 .348.09.649.27.872.179.242.554.449 1.124.66.57.21 1.41.422 2.535.629 3.493.675 5.25 2.207 5.25 4.578 0 1.379-.601 2.488-1.8 3.343-1.2.856-2.868 1.29-4.996 1.29-1.47 0-2.715-.223-3.704-.676-.976-.45-1.71-.973-2.191-1.559Zm-14.969 0c-.48-.601-.722-1.11-.722-1.531 0-.195.062-.344.195-.465a.622.622 0 0 1 .45-.18h2.386c.148 0 .285.075.406.243.09.074.313.27.66.554a3.976 3.976 0 0 0 2.61.945c.78 0 1.41-.152 1.89-.453.48-.296.735-.734.735-1.289 0-.39-.106-.703-.332-.945-.223-.238-.614-.465-1.2-.676-.57-.207-1.437-.433-2.578-.687-1.652-.348-2.867-.887-3.66-1.606-.781-.718-1.187-1.664-1.187-2.851 0-.778.242-1.516.707-2.203.464-.692 1.156-1.262 2.086-1.696.93-.433 2.023-.66 3.312-.66 1.32 0 2.461.211 3.406.63.946.42 1.68.913 2.176 1.5.492.585.75 1.097.75 1.546 0 .18-.062.328-.195.45a.62.62 0 0 1-.45.194h-2.19a.57.57 0 0 1-.497-.242c-.133-.09-.36-.27-.66-.539-.3-.27-.629-.465-1.004-.629a3.563 3.563 0 0 0-1.336-.242c-.719 0-1.273.152-1.664.469-.39.312-.586.719-.586 1.226 0 .348.09.649.27.872.18.242.554.449 1.125.66.57.21 1.41.422 2.535.629 3.496.675 5.25 2.207 5.25 4.578 0 1.379-.598 2.488-1.797 3.343-1.203.856-2.867 1.29-4.996 1.29-1.473 0-2.715-.223-3.707-.676-.989-.45-1.723-.973-2.188-1.559Zm-19.758-25.351a.675.675 0 0 1-.207-.493v-19.293c0-.207.059-.386.207-.507a.731.731 0 0 1 .497-.196h2.445c.21 0 .39.059.512.196.117.12.195.3.195.507v19.305a.674.674 0 0 1-.195.496.665.665 0 0 1-.512.211h-2.445a.762.762 0 0 1-.497-.226Zm-5.968 11.836c1.53 0 2.836.27 3.886.808 1.063.543 1.844 1.219 2.356 1.996.508.781.793 1.547.824 2.266a.577.577 0 0 1-.195.496.76.76 0 0 1-.512.21h-2.594c-.21 0-.375-.046-.465-.136-.105-.09-.195-.238-.285-.48-.285-.735-.675-1.274-1.156-1.606-.48-.328-1.078-.496-1.812-.496-.993 0-1.774.317-2.313.934-.555.613-.855 1.574-.883 2.847l-.031 1.082.031.957c.117 2.524 1.184 3.797 3.207 3.797.766 0 1.367-.164 1.832-.48.465-.317.84-.856 1.14-1.621.075-.207.165-.375.27-.465.106-.09.27-.149.48-.149h2.595c.195 0 .36.075.511.211a.576.576 0 0 1 .196.493c-.047.675-.317 1.41-.813 2.207-.508.78-1.289 1.453-2.324 2.023-1.05.57-2.355.84-3.93.84-2.144 0-3.84-.598-5.117-1.785-1.273-1.184-1.95-2.82-2.023-4.918l-.032-1.172.032-1.168c.074-2.102.75-3.734 2.023-4.922 1.246-1.184 2.957-1.77 5.102-1.77Zm63.164 15.242a.69.69 0 0 1-.207-.496v-13.754c0-.211.074-.39.207-.512a.731.731 0 0 1 .496-.195h2.414c.21 0 .39.058.512.195.12.121.195.3.195.512v1.199c1.184-1.457 2.805-2.191 4.875-2.191 1.785 0 3.21.585 4.258 1.753 1.05 1.172 1.578 2.778 1.578 4.817v8.191c0 .196-.063.36-.195.492a.665.665 0 0 1-.512.211h-2.625a.624.624 0 0 1-.496-.21.675.675 0 0 1-.207-.493v-8.011c0-1.125-.274-2.008-.828-2.641-.555-.629-1.348-.945-2.368-.945-.992 0-1.785.316-2.386.96-.602.645-.899 1.516-.899 2.626v8.011c0 .196-.062.36-.195.492a.665.665 0 0 1-.512.211h-2.594a.782.782 0 0 1-.511-.222Zm-102.207-18.543c-1.336-1.11-3.184-1.664-5.535-1.664h-7.817c-.21 0-.39.074-.512.21a.783.783 0 0 0-.195.524v18.977c0 .195.063.359.211.496a.69.69 0 0 0 .496.207h2.805c.21 0 .39-.059.523-.196a.65.65 0 0 0 .211-.507v-6.825h4.278c2.351 0 4.199-.543 5.535-1.62 1.332-1.083 2.008-2.673 2.008-4.77.015-2.102-.66-3.723-2.008-4.832Zm-3.106 7.156c-.601.54-1.457.797-2.582.797h-4.199v-6.363h4.2c1.171 0 2.038.285 2.609.84.57.57.855 1.351.855 2.355.016 1.066-.285 1.848-.883 2.371Zm101.64-3.36c.134.133.208.301.208.497v13.754a.69.69 0 0 1-.207.496.69.69 0 0 1-.496.207h-2.477a.634.634 0 0 1-.496-.207.69.69 0 0 1-.207-.496v-13.754c0-.211.074-.39.207-.512a.731.731 0 0 1 .496-.195h2.477a.68.68 0 0 1 .496.21Zm-64.862-21.163c-1.86.285-3.329.84-4.395 1.664-1.062.808-1.605 1.89-1.605 3.21 0 .81.242 1.56.722 2.25.48.672 1.125 1.215 1.95 1.618.824.406 1.738.601 2.73.601 1.168 0 2.144-.195 2.91-.601.777-.403 1.379-.914 1.8-1.528v1.137c0 .195.075.363.208.496.137.137.3.211.496.211h2.414c.211 0 .39-.058.512-.21a.724.724 0 0 0 .195-.497v-9.148c0-1.664-.527-3.016-1.574-4.051-1.05-1.035-2.719-1.543-5.012-1.543-1.394 0-2.582.223-3.523.687-.961.454-1.653.993-2.117 1.606-.45.617-.692 1.156-.72 1.652 0 .196.06.344.196.465.117.117.27.18.45.18h2.28c.208 0 .36-.121.434-.348.074-.074.238-.238.48-.476.239-.243.555-.48.946-.723.39-.238.898-.344 1.543-.344.93 0 1.621.211 2.043.645.418.433.644 1.066.644 1.89v.614Zm4.02 1.875v.582c0 1.32-.345 2.328-1.02 3.03-.672.708-1.559 1.052-2.625 1.052-.72 0-1.332-.164-1.844-.512-.512-.344-.781-.824-.781-1.438 0-1.14 1.113-1.89 3.347-2.25Zm83.042 32.293c1.02 1.23 2.535 1.832 4.559 1.832 1.922 0 3.406-.618 4.457-1.864v1.98c0 1.294-.274 2.177-.813 2.704-.539.508-1.394.777-2.562.777-.903 0-1.563-.18-1.98-.539a3.35 3.35 0 0 1-.962-1.289c-.074-.242-.18-.39-.3-.48a.731.731 0 0 0-.45-.137h-2.593a.674.674 0 0 0-.497.195.62.62 0 0 0-.21.48c0 .524.226 1.157.675 1.891.45.735 1.2 1.395 2.282 1.965 1.062.57 2.472.856 4.199.856 2.43 0 4.246-.602 5.445-1.786 1.2-1.183 1.813-2.851 1.813-5.011l-.028-14.055c0-.21-.078-.39-.21-.523a.68.68 0 0 0-.497-.211h-2.383a.735.735 0 0 0-.511.21.68.68 0 0 0-.227.524v1.14a5.446 5.446 0 0 0-1.918-1.574c-.781-.39-1.68-.585-2.715-.585-1.996 0-3.523.628-4.547 1.89-1.035 1.262-1.59 2.942-1.664 5.012l-.03.777.03.781c.063 2.145.618 3.81 1.637 5.04Zm2.34-6.508c.117-2.567 1.23-3.856 3.328-3.856 1.098 0 1.906.344 2.445 1.047.54.707.84 1.563.903 2.567.011.152.027.464.027.93 0 .464-.016.78-.027.929-.063 1.008-.364 1.86-.903 2.566-.539.703-1.363 1.051-2.445 1.051-2.234 0-3.344-1.516-3.344-4.547Zm-28.125-9.375a.68.68 0 0 1-.211-.496v-2.13c0-.21.059-.39.21-.527.134-.132.302-.21.493-.21h2.688c.21 0 .39.078.523.21.137.137.211.317.211.528v2.129c0 .195-.074.359-.227.496a.739.739 0 0 1-.507.207h-2.688a.751.751 0 0 1-.492-.207Zm-79.547-21.48a.695.695 0 0 1-.21-.497v-1.726c0-.196.062-.36.21-.493a.68.68 0 0 1 .496-.21h2.309v-4.833c0-.207.062-.386.21-.507a.731.731 0 0 1 .497-.196h2.414c.21 0 .39.059.512.196.117.12.195.3.195.507v4.848h3.644c.196 0 .36.074.493.207.136.137.21.3.21.496v1.727a.68.68 0 0 1-.21.496.675.675 0 0 1-.493.207h-3.644v6.27c0 .84.148 1.472.433 1.89.286.438.766.645 1.426.645h2.04c.21 0 .39.062.507.195.121.121.195.3.195.512v1.828c0 .195-.058.36-.195.496a.65.65 0 0 1-.508.21h-2.386c-1.77 0-3.106-.464-3.989-1.378-.898-.934-1.336-2.281-1.336-4.067v-6.628h-2.308a.692.692 0 0 1-.512-.196Zm-53.594 38.265V124.14c0-.84.676-1.516 1.516-1.516s1.516.676 1.516 1.516v45.78c0 .84-.676 1.513-1.516 1.513s-1.516-.688-1.516-1.512Zm37.621-33.602.028 1.29c.09 2.054.765 3.675 2.011 4.843 1.247 1.172 3.016 1.758 5.31 1.758 2.28 0 4.034-.586 5.28-1.758 1.246-1.168 1.918-2.773 2.008-4.844.016-.238.031-.66.031-1.289 0-.617-.015-1.05-.03-1.289-.102-2.043-.778-3.644-2.04-4.832-1.258-1.168-3.016-1.77-5.25-1.77-2.25 0-4.02.587-5.277 1.77-1.262 1.172-1.953 2.79-2.043 4.832Zm4.047-1.14c.047-1.246.348-2.192.903-2.836.57-.645 1.363-.973 2.382-.973 1.008 0 1.801.328 2.356.973.57.644.871 1.605.902 2.836.016.195.028.57.028 1.14s-.012.946-.028 1.14c-.047 1.243-.332 2.188-.886 2.837-.555.644-1.348.957-2.372.957-1.02 0-1.828-.313-2.382-.957-.57-.649-.871-1.594-.903-2.836l-.027-1.14Zm-18.93-8.25a.728.728 0 0 1-.206-.524v-2.191c0-.211.058-.39.195-.524a.65.65 0 0 1 .508-.21h14.894c.211 0 .39.074.528.21a.722.722 0 0 1 .207.524v2.191c0 .207-.075.39-.207.524a.725.725 0 0 1-.528.21h-5.37v16.063a.671.671 0 0 1-.192.496.665.665 0 0 1-.512.211h-2.746a.611.611 0 0 1-.492-.21.673.673 0 0 1-.211-.497v-16.078h-5.403a.7.7 0 0 1-.464-.195Zm-91.32 3.93 7.246-7.005s1.29-1.14 3.137-1.23h26.61c4.214.137 6.765 1.469 6.765 1.469 1.695.633.39 1.578.39 1.578l-4.44 4.316-.825.813s-1.383 1.183-3.09 1.23H59.7s-1.664-.078-1.844 1.453v6.317s.106 1.347-.675 2.097l-2.758 2.715-4.727 4.547c-.242.238-.539.406-.87.496-.36.09-.688.074-.72-.406v-15.54s.18-1.546-1.59-1.694H30.255s-1.184-.09-.39-1.157Zm40.785.976 5.149-4.98c.043-.047.09-.075.133-.106 1.441-.898 2.894.691 3.074.887a.468.468 0 0 1 .047.043c.312.316 4.183 4.273 4.363 9.976.18 5.938-3.523 15.66-18.508 16.078H59.34c-1.442.137-1.469 1.532-1.469 1.532v6.058c-.016 1.832-1.726 3.227-1.98 3.422-.032.016-.047.043-.063.059l-6.328 6.074c-.375.39-.602.39-.602.39-.75.047-.761-.585-.761-.585V155.054c.18-1.753 1.527-2.968 1.691-3.105.016-.015.031-.015.031-.027l6.09-5.899c.016-.011.031-.027.031-.027 1.426-1.574 3.692-1.652 3.692-1.652H67.559c2.34-.164 4.394-1.168 5.671-3.957 0 0 1.77-4.32-2.355-7.246 0 0-.676-.465-.406-1.051a.66.66 0 0 1 .18-.254Zm83.16 37.68c1.247 1.168 3.016 1.754 5.313 1.754 2.277 0 4.035-.586 5.277-1.754 1.247-1.172 1.922-2.778 2.012-4.844.016-.242.031-.66.031-1.293 0-.613-.015-1.05-.03-1.29-.106-2.038-.782-3.644-2.04-4.827-1.262-1.172-3.016-1.774-5.25-1.774-2.25 0-4.02.586-5.281 1.774-1.262 1.168-1.95 2.789-2.04 4.828l-.03 1.289.03 1.293c.09 2.066.766 3.672 2.009 4.844Zm2.012-7.262c.043-1.242.344-2.188.899-2.832.57-.649 1.367-.977 2.386-.977 1.004 0 1.801.328 2.356.977.57.644.867 1.601.898 2.832.016.195.032.57.032 1.14s-.016.946-.032 1.141c-.043 1.246-.328 2.192-.882 2.836-.555.645-1.352.957-2.372.957-1.02 0-1.832-.312-2.386-.957-.57-.644-.867-1.59-.899-2.836l-.03-1.14ZM150.676 156c.12.121.195.3.195.512v2.129a.68.68 0 0 1-.195.496.676.676 0 0 1-.512.207h-2.309c-.914 0-1.636.258-2.16.781-.523.523-.78 1.246-.78 2.16v7.98a.68.68 0 0 1-.212.497.675.675 0 0 1-.492.207h-2.598a.626.626 0 0 1-.492-.207.68.68 0 0 1-.21-.496v-13.727c0-.21.058-.39.21-.523a.67.67 0 0 1 .492-.211H144c.21 0 .39.074.523.21a.71.71 0 0 1 .211.524v1.2c.977-1.274 2.371-1.919 4.2-1.919h1.23c.211-.015.39.059.512.18Zm0 0"/></svg>