<svg width="270" height="83" fill="none" xmlns="http://www.w3.org/2000/svg">
  <path
    d="M69.146 21.212v52.639h70.392M151.685 21.524v52.327h-8.41M225.815 21.524v52.327H154.8"
    stroke="#C7C7C7"
    strokeWidth="1.236"
    strokeLinecap="round"
    strokeDasharray="0.62 3.71"
  />
  <path
    d="M11.244 36.164c-.01-.078-.073-.122-.125-.122-.053 0-1.09-.023-1.09-.023s-.868-.892-.952-.992c-.084-.09-.251-.067-.314-.045l-.44.145a3.453 3.453 0 0 0-.21-.547c-.303-.624-.763-.959-1.308-.959-.042 0-.073 0-.115.011-.02-.022-.031-.044-.052-.056a1.128 1.128 0 0 0-.911-.39c-.702.022-1.403.569-1.979 1.528-.398.68-.701 1.528-.796 2.187-.806.267-1.371.457-1.392.457-.408.134-.419.145-.471.558C1.068 38.227 0 47.029 0 47.029l8.962 1.65 3.884-1.026c-.01 0-1.591-11.41-1.602-11.489Zm-3.37-.88c-.21.066-.44.144-.692.233 0-.379-.052-.914-.21-1.36.535.089.796.736.901 1.126Zm-1.163.378c-.471.157-.984.324-1.497.491.146-.591.419-1.171.754-1.561.125-.145.303-.302.502-.39.21.434.251 1.048.241 1.46Zm-.963-1.974a.65.65 0 0 1 .419.123c-.189.1-.377.256-.545.457-.45.513-.796 1.305-.932 2.075-.429.145-.848.279-1.225.401.252-1.215 1.204-3.023 2.283-3.056Z"
    fill="#95BF47"
  />
  <path
    d="M11.119 36.042c-.053 0-1.09-.022-1.09-.022s-.868-.892-.952-.993a.164.164 0 0 0-.115-.055V48.68l3.884-1.026-1.591-11.489c-.021-.078-.084-.123-.136-.123Z"
    fill="#5E8E3E"
  />
  <path
    d="m6.805 38.173-.45 1.796s-.503-.246-1.1-.201c-.879.056-.879.647-.879.792.053.803 2.031.981 2.146 2.866.084 1.484-.732 2.499-1.926 2.577-1.424.078-2.209-.814-2.209-.814l.304-1.372s.795.635 1.423.59c.409-.021.566-.39.545-.635-.063-1.048-1.675-.981-1.78-2.71-.084-1.45.806-2.911 2.774-3.045.765-.056 1.152.156 1.152.156Z"
    fill="#fff"
  />
  <path
    d="M18.102 42c-.45-.257-.68-.48-.68-.781 0-.38.324-.625.826-.625.587 0 1.11.257 1.11.257l.408-1.339s-.376-.312-1.486-.312c-1.55 0-2.628.948-2.628 2.275 0 .759.502 1.327 1.173 1.74.544.323.732.558.732.903 0 .357-.272.647-.774.647-.744 0-1.456-.412-1.456-.412l-.44 1.338s.65.468 1.749.468c1.591 0 2.743-.836 2.743-2.342-.01-.814-.586-1.394-1.277-1.818ZM24.446 39.176c-.785 0-1.402.402-1.874 1.004l-.02-.011.68-3.793h-1.77l-1.727 9.661h1.77l.586-3.302c.23-1.25.837-2.02 1.403-2.02.398 0 .555.29.555.703 0 .257-.021.58-.074.837l-.67 3.782h1.77l.69-3.905c.074-.412.126-.903.126-1.238.01-1.07-.513-1.718-1.445-1.718ZM29.911 39.177c-2.135 0-3.549 2.052-3.549 4.339 0 1.461.848 2.643 2.44 2.643 2.093 0 3.507-1.996 3.507-4.339.01-1.35-.733-2.643-2.398-2.643Zm-.869 5.544c-.607 0-.858-.547-.858-1.239 0-1.082.523-2.844 1.487-2.844.628 0 .837.58.837 1.138 0 1.16-.534 2.944-1.466 2.944ZM36.853 39.177c-1.194 0-1.874 1.127-1.874 1.127h-.021l.104-1.016h-1.57c-.073.68-.22 1.73-.356 2.51l-1.235 6.916h1.769l.492-2.8h.042s.366.246 1.036.246c2.084 0 3.445-2.276 3.445-4.574 0-1.271-.534-2.41-1.832-2.41Zm-1.696 5.566c-.461 0-.733-.279-.733-.279l.293-1.762c.21-1.182.785-1.963 1.403-1.963.544 0 .712.535.712 1.037 0 1.227-.68 2.967-1.675 2.967ZM41.218 36.465c-.565 0-1.015.48-1.015 1.093 0 .557.335.947.838.947h.02c.555 0 1.026-.401 1.037-1.092 0-.546-.346-.948-.88-.948ZM38.737 46.026h1.77l1.204-6.693h-1.78l-1.194 6.693ZM46.223 39.322h-1.236l.063-.313c.105-.647.461-1.216 1.058-1.216.314 0 .565.1.565.1l.346-1.483s-.304-.167-.964-.167c-.628 0-1.256.19-1.737.624-.608.547-.89 1.339-1.027 2.142l-.052.313h-.827l-.262 1.427h.827l-.942 5.288h1.77l.942-5.288h1.225l.25-1.428ZM50.494 39.333s-1.11 2.978-1.601 4.607h-.021c-.032-.525-.44-4.607-.44-4.607h-1.864l1.068 6.146c.021.134.01.223-.042.312-.209.424-.555.837-.963 1.138a3.997 3.997 0 0 1-1.005.535l.492 1.606c.356-.078 1.11-.401 1.738-1.026.806-.803 1.56-2.052 2.324-3.747l2.168-4.964h-1.854Z"
    fill="#000"
  />
  <path
    fillRule="evenodd"
    clipRule="evenodd"
    d="M23.613 2.879c0-.125.106-.225.223-.225h.293l4.674 4.793h.011V3.016c0-.125.094-.237.223-.237h1.406c.117 0 .223.112.223.237v8.4a.227.227 0 0 1-.223.225h-.187a.334.334 0 0 1-.153-.063l-4.627-4.955h-.012v4.655c0 .126-.093.238-.222.238h-1.394c-.118 0-.223-.112-.223-.238l-.012-8.4ZM4.206 9.643c1.288 0 2.343-1.123 2.343-2.483 0-1.374-1.055-2.51-2.343-2.51-1.277 0-2.331 1.136-2.331 2.51 0 1.36 1.054 2.483 2.33 2.483Zm0-6.99c2.343 0 4.217 2.01 4.217 4.507 0 2.496-1.874 4.48-4.217 4.48C1.863 11.64 0 9.656 0 7.16c0-2.497 1.863-4.506 4.206-4.506ZM12.747 6.523c.504 0 .926-.424.926-.986a.92.92 0 0 0-.926-.923h-1.113v1.91h1.113Zm-2.94-3.507c0-.125.094-.237.222-.237h2.824c1.44 0 2.624 1.248 2.624 2.758 0 1.548-1.184 2.809-2.613 2.809h-1.23v2.933c0 .125-.105.238-.222.238h-1.383c-.128 0-.222-.113-.222-.238V3.016ZM16.76 3.016c0-.125.093-.237.222-.237h4.85c.128 0 .222.112.222.237v1.36c0 .125-.094.238-.223.238h-3.244v1.548h2.67c.118 0 .223.112.223.237v1.36a.23.23 0 0 1-.223.237h-2.67v1.686h3.244c.13 0 .223.112.223.237v1.36c0 .126-.094.238-.223.238h-4.85c-.128 0-.222-.112-.222-.238V3.016ZM38.164 9.732c.457 0 .844-.4.844-.911 0-.5-.504-.874-.961-.874h-.949v1.785h1.066Zm-.152-3.408c.445 0 .82-.4.82-.899 0-.5-.375-.849-.82-.849h-.914v1.748h.914ZM35.27 3.016c0-.125.093-.237.222-.237h2.73c1.382 0 2.519 1.01 2.519 2.322 0 .961-.809 1.66-1.36 1.972.621.275 1.57.886 1.57 2.035 0 1.398-1.16 2.409-2.553 2.409h-2.906c-.129 0-.222-.112-.222-.237V3.016ZM46.462 8.521l-.89-2.06h-.013l-.878 2.06h1.78Zm-4.815 2.671 3.666-8.401c.035-.075.117-.137.2-.137h.117c.082 0 .164.062.199.137l3.667 8.401c.07.162-.024.325-.2.325h-1.3c-.21 0-.305-.075-.41-.312l-.422-.986h-3.186l-.422.998c-.058.15-.187.3-.421.3h-1.29c-.175 0-.268-.162-.198-.325ZM50.618 2.879c0-.125.106-.225.223-.225h.293l4.674 4.793h.011V3.016c0-.125.094-.237.223-.237h1.406c.117 0 .223.112.223.237v8.4a.227.227 0 0 1-.223.225h-.187a.332.332 0 0 1-.153-.063l-4.627-4.955h-.012v4.655c0 .126-.093.238-.222.238h-1.394c-.117 0-.223-.112-.223-.238l-.012-8.4ZM59.479 3.078c0-.162.117-.3.281-.3h1.37c.153 0 .281.138.281.3v3.283l2.602-3.457c.046-.063.152-.125.222-.125h1.476c.223 0 .34.274.211.462l-2.741 3.657 2.987 4.144c.129.188 0 .462-.223.462H64.33c-.082 0-.188-.05-.211-.087l-2.706-3.92v3.72c0 .162-.13.3-.281.3H59.76c-.164 0-.281-.138-.281-.3V3.078ZM67.52 3.016c0-.125.105-.237.222-.237h1.406c.117 0 .223.112.223.237v8.263c0 .126-.106.238-.223.238h-1.406c-.117 0-.222-.112-.222-.238V3.016ZM71.2 2.879c0-.125.106-.225.223-.225h.293l4.674 4.793h.012V3.016c0-.125.094-.237.223-.237h1.405c.118 0 .223.112.223.237v8.4a.227.227 0 0 1-.223.225h-.187a.335.335 0 0 1-.152-.063l-4.628-4.955h-.011v4.655c0 .126-.094.238-.223.238h-1.394c-.117 0-.223-.112-.223-.238l-.011-8.4ZM83.802 2.667c.984 0 2.062.437 2.859 1.173a.228.228 0 0 1 .023.337l-.925 1.049a.235.235 0 0 1-.316.012c-.446-.437-.961-.6-1.535-.6-1.277 0-2.308 1.15-2.308 2.522 0 1.36 1.043 2.484 2.32 2.484.339 0 .69-.05 1.042-.2v-.723h-.738A.22.22 0 0 1 84 8.496V7.26c0-.137.094-.237.223-.237h2.355c.117 0 .21.112.21.237l.012 3.358a.316.316 0 0 1-.093.2s-1.207.81-2.906.81c-2.331 0-4.205-1.972-4.205-4.468s1.874-4.493 4.205-4.493Z"
    fill="#101289"
  />
  <g clipPath="url(#a)" fillRule="evenodd" clipRule="evenodd">
    <path
      d="M194.176 48.71c-2.434 1.77-5.962 2.715-8.999 2.715-4.259 0-8.093-1.555-10.993-4.141-.228-.203-.024-.48.249-.322 3.131 1.798 7.001 2.88 10.999 2.88 2.697 0 5.663-.551 8.39-1.694.412-.173.757.266.354.561Z"
      fill="#F90"
    />
    <path
      d="M195.188 47.566c-.31-.392-2.057-.185-2.841-.093-.238.029-.275-.176-.06-.324 1.391-.966 3.674-.688 3.94-.364.266.326-.069 2.585-1.376 3.663-.201.165-.392.077-.303-.142.293-.724.952-2.345.64-2.74Z"
      fill="#F90"
    />
    <path
      d="M192.402 40.327v-.94c0-.142.11-.237.241-.237h4.26c.137 0 .247.097.247.237v.805c-.002.135-.117.31-.321.59l-2.208 3.111c.82-.02 1.686.101 2.43.515.168.094.213.23.226.365v1.003c0 .136-.153.297-.313.214-1.311-.678-3.052-.752-4.502.007-.147.08-.302-.08-.302-.216v-.952c0-.153.001-.414.156-.646l2.558-3.62h-2.226c-.136 0-.246-.096-.246-.236ZM176.86 46.188h-1.296a.244.244 0 0 1-.232-.218v-6.567c0-.13.111-.235.25-.235h1.209c.126.005.226.1.235.22v.858h.024c.315-.83.908-1.217 1.706-1.217.811 0 1.318.387 1.683 1.217.313-.83 1.026-1.217 1.79-1.217.543 0 1.138.221 1.501.718.41.553.326 1.355.326 2.059l-.002 4.144a.243.243 0 0 1-.25.238h-1.294a.244.244 0 0 1-.233-.238v-3.48c0-.277.025-.968-.037-1.231-.097-.44-.386-.565-.762-.565a.86.86 0 0 0-.775.538c-.133.331-.12.885-.12 1.258v3.48a.243.243 0 0 1-.25.238h-1.294a.243.243 0 0 1-.234-.238l-.001-3.48c0-.733.122-1.81-.799-1.81-.932 0-.895 1.05-.895 1.81v3.48a.243.243 0 0 1-.25.238M200.818 39.03c1.923 0 2.964 1.63 2.964 3.703 0 2.003-1.15 3.592-2.964 3.592-1.889 0-2.917-1.63-2.917-3.663 0-2.044 1.041-3.633 2.917-3.633Zm.011 1.34c-.956 0-1.016 1.285-1.016 2.086 0 .802-.013 2.515 1.005 2.515 1.004 0 1.052-1.382 1.052-2.224 0-.554-.024-1.216-.194-1.742-.145-.457-.435-.635-.847-.635ZM206.276 46.188h-1.291a.245.245 0 0 1-.233-.238l-.002-6.568a.245.245 0 0 1 .25-.214h1.201a.248.248 0 0 1 .232.183v1.004h.024c.362-.898.871-1.326 1.766-1.326.582 0 1.149.207 1.513.774.339.525.339 1.409.339 2.044v4.134c-.014.115-.122.207-.249.207h-1.3a.244.244 0 0 1-.23-.207v-3.567c0-.718.084-1.769-.811-1.769-.316 0-.605.209-.75.526-.182.401-.206.8-.206 1.243v3.536a.247.247 0 0 1-.253.238M189.006 43.051c0 .499.012.914-.243 1.357-.206.36-.534.581-.897.581-.497 0-.789-.374-.789-.926 0-1.091.99-1.289 1.929-1.289v.277Zm1.307 3.119a.273.273 0 0 1-.306.03c-.431-.352-.509-.516-.744-.853-.711.717-1.216.93-2.137.93-1.092 0-1.94-.663-1.94-1.993 0-1.038.569-1.746 1.382-2.091.704-.306 1.687-.36 2.438-.445v-.165c0-.304.023-.664-.159-.927-.157-.236-.459-.333-.727-.333-.494 0-.934.25-1.041.768-.022.116-.108.229-.226.234l-1.257-.133c-.105-.023-.224-.108-.193-.268.288-1.504 1.667-1.958 2.899-1.958.631 0 1.455.166 1.953.637.63.581.57 1.357.57 2.201v1.994c0 .6.252.862.489 1.186.082.115.1.254-.006.34-.264.218-.734.623-.993.85l-.002-.004M172.012 43.051c0 .499.013.914-.242 1.357-.206.36-.532.581-.897.581-.498 0-.788-.374-.788-.926 0-1.09.99-1.289 1.927-1.289v.277Zm1.308 3.119a.275.275 0 0 1-.307.03c-.43-.352-.507-.516-.744-.852-.711.716-1.214.93-2.136.93-1.09 0-1.94-.664-1.94-1.994 0-1.038.571-1.746 1.382-2.091.704-.306 1.686-.36 2.437-.445v-.165c0-.304.024-.664-.156-.927-.159-.236-.462-.333-.728-.333-.494 0-.935.25-1.043.769-.022.115-.107.228-.224.233l-1.258-.133c-.106-.023-.222-.108-.193-.268.29-1.504 1.666-1.958 2.899-1.958.63 0 1.454.166 1.952.637.631.581.571 1.357.571 2.201v1.994c0 .6.251.862.488 1.186.084.115.103.254-.003.34-.265.218-.735.623-.994.85l-.003-.004"
      fill="#000"
    />
  </g>
  <path
    fillRule="evenodd"
    clipRule="evenodd"
    d="M270 41.946c0-2.239-1.018-4.006-2.963-4.006-1.953 0-3.135 1.767-3.135 3.988 0 2.633 1.395 3.962 3.398 3.962.976 0 1.715-.236 2.273-.568v-1.75c-.558.298-1.198.482-2.011.482-.796 0-1.502-.298-1.592-1.33h4.014c0-.113.016-.568.016-.778Zm-4.054-.83c0-.99.566-1.4 1.083-1.4.501 0 1.034.41 1.034 1.4h-2.117ZM260.734 37.94c-.804 0-1.322.403-1.609.682l-.106-.542h-1.806v10.196l2.052-.464.008-2.474c.295.227.73.55 1.453.55 1.469 0 2.807-1.258 2.807-4.03-.009-2.536-1.363-3.918-2.799-3.918Zm-.493 6.025c-.484 0-.771-.184-.968-.411l-.008-3.244c.213-.254.509-.428.976-.428.747 0 1.264.891 1.264 2.037 0 1.172-.509 2.046-1.264 2.046ZM256.45 36.95v-1.774l-2.061.464v1.782l2.061-.472Z"
    fill="#6772E5"
  />
  <path d="M256.45 38.09h-2.061v7.651h2.061V38.09Z" fill="#6772E5" />
  <path
    fillRule="evenodd"
    clipRule="evenodd"
    d="m252.182 38.735-.131-.647h-1.773v7.652h2.052v-5.186c.484-.673 1.305-.55 1.559-.455v-2.011c-.262-.105-1.223-.297-1.707.647ZM248.078 36.192l-2.002.454-.009 7.004c0 1.294.911 2.247 2.126 2.247.673 0 1.166-.131 1.436-.288v-1.775c-.262.113-1.559.515-1.559-.779v-3.104h1.559V38.09h-1.559l.008-1.897ZM242.53 40.31c0-.341.263-.472.698-.472.623 0 1.411.2 2.035.56v-2.056a5.119 5.119 0 0 0-2.035-.402c-1.666 0-2.774.927-2.774 2.475 0 2.413 3.118 2.029 3.118 3.069 0 .402-.328.533-.787.533-.682 0-1.552-.297-2.241-.7V45.4c.763.35 1.535.498 2.241.498 1.707 0 2.88-.9 2.88-2.465-.008-2.606-3.135-2.143-3.135-3.122Z"
    fill="#6772E5"
  />
  <path
    d="M110.696 40.265h-1.352a.24.24 0 0 0-.232.212l-.06.402-.094-.145c-.293-.453-.946-.605-1.597-.605-1.494 0-2.77 1.207-3.018 2.898-.13.844.054 1.65.503 2.213.412.517 1.001.733 1.703.733 1.204 0 1.872-.825 1.872-.825l-.061.401c-.023.152.088.29.233.29h1.217c.193 0 .357-.15.388-.353l.731-4.931c.022-.153-.088-.29-.233-.29Zm-1.884 2.804c-.131.823-.744 1.376-1.526 1.376-.392 0-.706-.135-.908-.39-.2-.252-.275-.61-.212-1.011.122-.816.745-1.386 1.515-1.386.384 0 .696.135.902.392.207.259.288.62.229 1.019ZM117.897 40.266h-1.359a.387.387 0 0 0-.325.183l-1.874 2.941-.795-2.826a.395.395 0 0 0-.375-.299h-1.336c-.162 0-.275.17-.223.332l1.496 4.68-1.407 2.115c-.111.166.001.396.192.396h1.358a.385.385 0 0 0 .322-.18l4.519-6.949c.108-.166-.003-.393-.193-.393ZM102.257 37.482h-2.824a.401.401 0 0 0-.387.353l-1.142 7.713c-.022.152.088.29.233.29h1.348a.4.4 0 0 0 .387-.352l.308-2.081a.401.401 0 0 1 .388-.353h.893c1.86 0 2.933-.96 3.214-2.86.126-.83.005-1.484-.36-1.941-.402-.503-1.114-.769-2.058-.769Zm.326 2.817c-.155 1.08-.929 1.08-1.677 1.08h-.426l.298-2.016a.242.242 0 0 1 .233-.212h.195c.51 0 .991 0 1.239.31.149.185.194.46.138.838Z"
    fill="#003087"
  />
  <path
    d="M130.834 40.265h-1.352a.24.24 0 0 0-.232.212l-.06.402-.094-.145c-.293-.453-.946-.605-1.597-.605-1.494 0-2.77 1.206-3.018 2.898-.129.844.054 1.65.503 2.213.413.517 1.001.732 1.703.732 1.204 0 1.872-.824 1.872-.824l-.061.4c-.022.153.088.29.233.29h1.217c.193 0 .358-.149.388-.352l.731-4.931c.022-.153-.088-.29-.233-.29Zm-1.884 2.804c-.131.823-.744 1.375-1.526 1.375-.392 0-.706-.134-.908-.389-.2-.252-.275-.611-.212-1.011.122-.816.745-1.386 1.515-1.386.384 0 .696.135.902.392.207.259.288.62.229 1.019ZM122.395 37.482h-2.824a.4.4 0 0 0-.387.352l-1.142 7.714c-.022.152.088.29.232.29h1.449a.28.28 0 0 0 .271-.247l.324-2.187a.401.401 0 0 1 .388-.353h.893c1.86 0 2.933-.959 3.214-2.86.126-.83.005-1.483-.36-1.94-.402-.504-1.113-.77-2.058-.77Zm.326 2.817c-.155 1.08-.929 1.08-1.677 1.08h-.426l.299-2.017a.24.24 0 0 1 .232-.211h.195c.51 0 .991 0 1.239.31.149.184.194.459.138.838ZM132.428 37.693l-1.159 7.855c-.022.152.088.29.233.29h1.165c.193 0 .357-.15.388-.353l1.142-7.714c.023-.152-.088-.29-.232-.29h-1.304a.24.24 0 0 0-.233.212Z"
    fill="#009CDE"
  />
  <path
    opacity=".68"
    d="M92.365 37.886c.153-1.033 0-1.736-.525-2.372-.577-.7-1.62-1.001-2.953-1.001h-3.873a.566.566 0 0 0-.547.498l-1.612 10.895c-.032.215.124.409.328.409h2.39l-.164 1.115c-.028.188.108.358.287.358h2.015a.495.495 0 0 0 .478-.436l.02-.11.38-2.564.024-.142a.495.495 0 0 1 .479-.436h.301c1.952 0 3.48-.845 3.927-3.288.187-1.022.09-1.874-.403-2.473-.15-.181-.335-.331-.552-.453Z"
    fill="#009CDE"
  />
  <path
    d="M92.365 37.886c.153-1.033 0-1.736-.525-2.372-.577-.7-1.62-1.001-2.953-1.001h-3.873a.566.566 0 0 0-.547.498l-1.612 10.895c-.032.215.124.41.328.41h2.39l.601-4.058-.019.127a.564.564 0 0 1 .546-.498h1.136c2.231 0 3.978-.966 4.489-3.76a6.57 6.57 0 0 0 .04-.241Z"
    fill="#012169"
  />
  <path
    d="M86.82 37.9a.514.514 0 0 1 .269-.386.46.46 0 0 1 .209-.05h3.035c.36 0 .695.025 1.002.077a4.185 4.185 0 0 1 .496.118c.04.012.077.025.115.038.15.053.29.116.42.189.152-1.033-.001-1.736-.525-2.372-.578-.7-1.62-1.001-2.954-1.001h-3.873a.566.566 0 0 0-.547.498l-1.612 10.895c-.032.215.124.41.328.41h2.39l.601-4.058.645-4.359Z"
    fill="#003087"
  />
  <path
    d="M116.403 11.7h-2.172V5.933h-1.479V4.055h1.479V2.72c0-1.583.654-2.719 2.82-2.719.458 0 1.178.098 1.178.098v1.744h-.756c-.77 0-1.07.25-1.07.939v1.274h1.797l-.16 1.878h-1.637V11.7Zm4.983-7.795-.096.002c-2.014 0-2.936 1.614-2.936 3.905 0 2.885 1.196 4.04 2.951 4.04 1.005 0 1.665-.45 2.066-1.29v1.14h2.066V4.055h-2.066v1.176c-.327-.757-1.006-1.318-1.985-1.327Zm.525 1.807c.846 0 1.354.628 1.354 1.697l.002 1.092c0 .72-.42 1.564-1.356 1.564-1.439 0-1.4-1.656-1.4-2.207 0-1.855.766-2.146 1.4-2.146Zm4.36 2.167c0-.929-.042-3.969 3.676-3.969 1.492 0 2.116.506 2.116.506l-.501 1.654s-.623-.365-1.434-.365c-1.038 0-1.701.642-1.701 1.77l.001.81c0 1.084.64 1.808 1.703 1.808.738 0 1.419-.369 1.419-.369l.5 1.62s-.57.51-2.093.51c-3.539 0-3.686-2.728-3.686-3.975Zm17.903-3.972c2.014 0 2.95 1.614 2.95 3.905 0 2.885-1.195 4.04-2.951 4.04-1.004 0-1.747-.45-2.148-1.29v1.14l-2.04-.002V.232l2.166-.2v5.096c.312-.892 1.34-1.22 2.023-1.22Zm-.607 1.805c-.846 0-1.416.628-1.416 1.697l-.002 1.092c-.001.72.395 1.564 1.418 1.564 1.439 0 1.401-1.656 1.401-2.207 0-1.855-.767-2.146-1.401-2.146Zm-7.747-1.799c-2.284 0-3.49 1.327-3.49 3.685v.438c0 3.06 1.694 3.848 3.712 3.848 1.963 0 2.851-.585 2.851-.585l-.405-1.557s-1.045.473-2.186.473c-1.183 0-1.691-.32-1.822-1.532h4.586V7.434c0-2.557-1.353-3.52-3.246-3.52Zm.055 1.56c.791 0 1.303.516 1.275 1.714h-2.666c.047-1.26.599-1.714 1.391-1.714Zm15.567-1.57c-2.345 0-3.58 1.408-3.58 3.932 0 3.462 2.129 4.02 3.584 4.02 2.131 0 3.549-1.223 3.549-3.989 0-2.879-1.594-3.963-3.553-3.963Zm-.029 1.815c1.031 0 1.44.822 1.44 1.758v.805c0 1.134-.572 1.79-1.444 1.79-.816 0-1.389-.614-1.389-1.79v-.805c0-1.254.682-1.758 1.393-1.758Zm7.897-1.815c-2.346 0-3.581 1.408-3.581 3.932 0 3.462 2.129 4.02 3.585 4.02 2.131 0 3.549-1.223 3.549-3.989 0-2.879-1.595-3.963-3.553-3.963Zm-.03 1.815c1.032 0 1.44.822 1.44 1.758v.805c0 1.134-.572 1.79-1.444 1.79-.815 0-1.389-.614-1.389-1.79v-.805c0-1.254.682-1.758 1.393-1.758Zm4.401 5.982V.232l2.172-.2v7.686l2.155-3.663h2.293l-2.247 3.794 2.334 3.851h-2.3l-2.235-3.74v3.74h-2.172Z"
    fill="#1877F2"
  />
  <path
    d="M28.344 55.785v11.89a6.175 6.175 0 0 0 6.178 6.176h30.886M254.158 55.785v11.89a6.175 6.175 0 0 1-6.178 6.176h-18.739M107.768 55.785v14.017M189.373 55.785v14.017"
    stroke="#C7C7C7"
    strokeWidth="1.236"
    strokeLinecap="round"
    strokeDasharray="0.62 3.71"
  />
  <path
    d="M222.175 9.103a1.567 1.567 0 0 1-.011-.227c0-.655.204-1.167.613-1.534.409-.368.86-.552 1.355-.552.652 0 1.106.264 1.361.792l-3.318 1.521Zm4.746-.934c-.007-.775-.281-1.404-.821-1.888-.54-.483-1.218-.725-2.035-.725-.518 0-1.009.122-1.474.366-.465.243-.854.623-1.169 1.138-.315.516-.473 1.113-.473 1.792 0 .983.304 1.774.911 2.373.608.6 1.335.899 2.182.899.967 0 1.807-.392 2.52-1.175l-.743-.875c-.435.56-.988.84-1.659.84s-1.201-.256-1.591-.768l4.364-1.953-.012-.024ZM219.504 5.951a2.732 2.732 0 0 0-.827.983V5.652h-1.259v6.375h1.259V9.296c0-.727.158-1.306.473-1.738.315-.431.783-.647 1.406-.647h.067l-.011-1.354c-.39.008-.759.14-1.108.395ZM231.436 8.78a3.461 3.461 0 0 0-.568-.336 6.109 6.109 0 0 0-.545-.215 9.704 9.704 0 0 0-.647-.192 2.7 2.7 0 0 1-.568-.204.476.476 0 0 1-.292-.455c0-.232.093-.406.281-.522.187-.115.431-.173.731-.173.569 0 1.098.172 1.586.515l.472-.995c-.615-.431-1.267-.647-1.957-.647-.69 0-1.25.178-1.682.534-.431.355-.646.829-.646 1.42 0 .839.622 1.438 1.867 1.797.03.008.075.024.135.048.794.256 1.192.544 1.192.863a.669.669 0 0 1-.248.534c-.164.14-.389.21-.674.21-.653 0-1.327-.28-2.025-.84l-.607 1.043c.36.304.774.54 1.243.707.468.168.92.252 1.355.252.645 0 1.173-.182 1.586-.546.412-.363.618-.848.618-1.456 0-.607-.202-1.054-.607-1.342ZM214.768 7.84c-.266.299-.767.449-1.501.449h-1.541V4.933h1.35c.719 0 1.248.12 1.585.36.338.24.506.649.506 1.228 0 .58-.133 1.019-.399 1.318Zm.939-3.458c-.547-.487-1.417-.731-2.609-.731h-2.699v8.377h1.327V9.57h1.394c1.155 0 2.012-.236 2.57-.707.559-.471.838-1.214.838-2.229 0-1.014-.273-1.766-.821-2.253ZM234.991 10.961c-.27 0-.48-.09-.63-.27-.15-.18-.225-.42-.225-.724V6.73h1.575V5.652h-1.575V3.651h-1.259v6.28c0 .67.189 1.204.568 1.6.378.395.835.593 1.372.593.536 0 1.025-.212 1.467-.635l-.517-.947c-.247.28-.506.42-.776.42ZM240.756 10.356c-.345.387-.764.58-1.259.58-.495 0-.926-.19-1.294-.574-.367-.384-.551-.881-.551-1.492 0-.612.18-1.121.54-1.529.36-.407.791-.61 1.294-.61.502 0 .925.203 1.27.61.345.408.518.916.518 1.523 0 .607-.173 1.104-.518 1.492Zm.495-3.602c-.51-.798-1.158-1.198-1.945-1.198-.788 0-1.47.295-2.047.887-.578.591-.867 1.382-.867 2.373 0 .99.282 1.79.844 2.397.562.607 1.222.91 1.98.91.374 0 .748-.097 1.119-.293.371-.196.676-.477.916-.845v1.043h1.26V5.652h-1.26v1.102Z"
    fill="#1F0047"
  />
  <path
    d="M261.183 10.344c-.356.388-.807.581-1.355.581-.547 0-.999-.193-1.355-.581-.356-.388-.534-.889-.534-1.504s.178-1.117.534-1.504c.356-.388.808-.582 1.355-.582.548 0 .999.194 1.355.582.357.387.535.888.535 1.504 0 .615-.178 1.116-.535 1.504Zm-1.355-4.788c-.9 0-1.649.317-2.249.953-.6.635-.9 1.412-.9 2.33 0 .92.3 1.697.9 2.332.6.635 1.349.953 2.249.953.9 0 1.65-.318 2.25-.953.6-.635.899-1.412.899-2.331s-.299-1.696-.899-2.331c-.6-.636-1.35-.953-2.25-.953ZM268.026 10.35c-.368.383-.799.575-1.294.575s-.914-.193-1.259-.58c-.345-.388-.518-.886-.518-1.493 0-.607.173-1.113.518-1.516.345-.404.768-.606 1.271-.606.502 0 .933.202 1.293.606.36.403.54.91.54 1.522 0 .611-.184 1.108-.551 1.492Zm.956-3.907c-.57-.591-1.256-.887-2.058-.887-.803 0-1.451.403-1.946 1.21V5.652h-1.26v8.701h1.26V11.07c.6.704 1.276 1.055 2.03 1.055.753 0 1.413-.308 1.979-.923.566-.615.85-1.414.85-2.397 0-.983-.285-1.77-.855-2.361ZM253.746 5.557c-.42 0-.811.112-1.175.336a2.071 2.071 0 0 0-.815.923V3.149h-1.26v8.88h1.26V8.576c0-.591.161-1.04.483-1.348a1.592 1.592 0 0 1 1.136-.461c.915 0 1.372.587 1.372 1.761v3.5h1.26V8.121c0-.831-.208-1.466-.624-1.906-.416-.439-.962-.659-1.637-.659ZM248.99 8.001c-.409-.375-1.016-.667-1.822-.875-.807-.207-1.333-.401-1.581-.58-.247-.18-.371-.44-.371-.78s.124-.593.371-.76c.248-.169.564-.253.951-.253.386 0 .777.072 1.175.216.397.144.712.328.945.552l.708-1.067a3.845 3.845 0 0 0-1.282-.743 4.446 4.446 0 0 0-1.496-.264c-.78 0-1.434.21-1.962.63-.529.419-.793 1.016-.793 1.791 0 .775.232 1.35.697 1.726.232.2.499.361.798.485.3.124.739.26 1.317.407.577.148.984.312 1.22.492s.354.431.354.755a.937.937 0 0 1-.377.779c-.251.196-.59.293-1.018.293-.854 0-1.679-.367-2.474-1.102l-.832 1.067c.952.902 2.043 1.354 3.273 1.354.839 0 1.518-.228 2.035-.683.518-.456.776-1.049.776-1.78 0-.731-.204-1.284-.612-1.66Z"
    fill="#E2066F"
  />
  <path
    d="M198.942 11.32a5.386 5.386 0 0 1 1.072-.374 5.06 5.06 0 0 1 .599-.099c-.113.379-.238.755-.373 1.129.005.072.009.145.01.218a4.091 4.091 0 0 1 1.684 0c.001-.073.004-.146.01-.218-.135-.374-.26-.75-.373-1.129a5.04 5.04 0 0 1 1.671.473 5.337 5.337 0 0 1 1.842 1.45c1.298-1.195 2.121-2.96 2.121-4.931 0-3.597-2.737-6.513-6.113-6.513-3.376 0-6.113 2.916-6.113 6.513 0 1.97.823 3.736 2.121 4.93a5.336 5.336 0 0 1 1.842-1.449Z"
    fill="#A0DBE8"
  />
  <path
    d="M199.345 12.498c.287-.135.59-.238.905-.304a3.156 3.156 0 0 0-.01-.218c.135-.374.26-.75.373-1.128a5.04 5.04 0 0 0-1.375.344l.446.115-.339 1.191ZM198.294 13.2c.011-.121.018-.243.018-.367 0-.075.057-.135.127-.135h.111l.392-1.378a5.337 5.337 0 0 0-1.842 1.449c.285.262.593.497.921.7.088-.093.179-.183.273-.269ZM203.242 11.32l.392 1.378h.111c.07 0 .127.06.127.135 0 .123.006.246.018.367.094.086.185.176.272.27.328-.204.637-.439.922-.702a5.337 5.337 0 0 0-1.842-1.448ZM202.5 11.307l.446-.115a5.324 5.324 0 0 0-.776-.245 5.095 5.095 0 0 0-.599-.098c.113.377.238.753.373 1.127a3.946 3.946 0 0 0-.011.218c.316.066.619.17.906.304l-.339-1.19Z"
    fill="#525353"
  />
  <path
    d="M201.092 12.7h.861a3.889 3.889 0 0 1-.019-.505 4.091 4.091 0 0 0-1.684 0c.004.167-.002.335-.019.504h.861ZM198.021 13.47c.072.044.143.087.216.128.025-.13.045-.263.057-.397a4.837 4.837 0 0 0-.273.27Z"
    fill="#000"
  />
  <path
    d="M199.288 12.7h.943c.017-.17.024-.338.019-.506-.315.067-.618.17-.905.305l-.057.2ZM203.89 13.201c.012.134.031.267.057.397.073-.04.144-.084.215-.128a4.507 4.507 0 0 0-.272-.269ZM202.896 12.7l-.057-.2a4.095 4.095 0 0 0-.906-.306 4.08 4.08 0 0 0 .02.505h.943Z"
    fill="#000"
  />
  <path
    d="m199.288 12.699.057-.2.339-1.191-.446-.115c-.1.04-.199.082-.296.129l-.392 1.376h.738ZM202.839 12.499l.057.2h.738l-.392-1.377a4.916 4.916 0 0 0-.296-.13l-.446.116.339 1.19Z"
    fill="#AA9678"
  />
  <path
    d="m198.563 12.977.011-.008h-.011v.008ZM201.092 12.969h-2.518l-.011.008a4.284 4.284 0 0 1-.093.747 5.786 5.786 0 0 0 2.622.628V12.97Z"
    fill="#C0B098"
  />
  <path
    d="M203.621 12.969h-.011l.011.008v-.008ZM203.61 12.969h-2.518v1.383c.938 0 1.827-.226 2.622-.628a4.283 4.283 0 0 1-.093-.747l-.011-.008Z"
    fill="#AA9678"
  />
  <path
    d="M203.89 13.201a3.722 3.722 0 0 1-.018-.367c0-.074-.057-.134-.127-.134h-5.306c-.07 0-.127.06-.127.135a4.053 4.053 0 0 1-.075.763c.077.043.155.086.233.125.052-.242.084-.491.093-.745v-.009h5.057l.001.009c.008.254.04.503.092.745.079-.04.157-.082.234-.125a3.725 3.725 0 0 1-.057-.397Z"
    fill="#8B7460"
  />
  <path d="M202.842 11.766Z" fill="#525353" />
  <path
    d="m202.983 11.91.001.004-.001-.004s-.062-.049-.141-.14c.079.091.141.14.141.14Z"
    fill="#AA9678"
  />
  <path d="M204.849 6.026ZM205.097 7.901v-.002.002Z" fill="#fff" />
  <path
    d="m205.162 6.39-.003-.005a2.189 2.189 0 0 0-.157-.206l-.001-.002c-.025-.028-.049-.055-.074-.08a1.645 1.645 0 0 0-.029-.027l-.047-.045v.605l.217 1.061.008.025.151.18.001-.002h.158l.001-.047c0-.5-.077-.981-.217-1.432l-.008-.026ZM205.097 7.899v-.002.002Z"
    fill="#BBBCBD"
  />
  <path
    d="m205.09 7.797.001.005v.003c.003.025.004.05.005.077l.001.014V7.9l-.001.015a.916.916 0 0 1-.005.075v.004L205.09 8a.872.872 0 0 1-.014.077h.001v-.002l.15-.178-.151-.179c.006.025.01.052.014.079Z"
    fill="#676A6A"
  />
  <path
    d="m205.09 8.001.001-.01a.923.923 0 0 0 .005-.075l.001-.017-.001-.016a.955.955 0 0 0-.005-.077l-.001-.009a.916.916 0 0 0-.014-.079l-.008-.025a.517.517 0 0 0-.057-.133l-.01-.015a.242.242 0 0 0-.051-.057l-.013-.009a.202.202 0 0 0-.029-.016l-.014-.006a.133.133 0 0 0-.043-.008.14.14 0 0 0-.057.014.21.21 0 0 0-.03.016l-.012.009a.248.248 0 0 0-.032.031l-.02.026a.487.487 0 0 0-.067.148l-.002.007a.791.791 0 0 0-.026.184v.012h.001c0 .248.11.45.246.45a.143.143 0 0 0 .077-.024.175.175 0 0 0 .026-.019c.005-.003.009-.008.014-.013a.297.297 0 0 0 .031-.036l.019-.03.012-.021a.467.467 0 0 0 .019-.043l.006-.016A.616.616 0 0 0 205.09 8Zm-.23-.162c-.051 0-.093-.076-.093-.169 0-.093.042-.168.093-.168.05 0 .092.075.092.168 0 .093-.042.169-.092.169Z"
    fill="#000"
  />
  <path
    d="M204.86 7.822c.051 0 .092-.071.092-.16 0-.088-.041-.16-.092-.16s-.093.072-.093.16c0 .089.042.16.093.16Z"
    fill="#fff"
  />
  <path
    d="M204.633 7.692a.483.483 0 0 1 .067-.148l.02-.026a.247.247 0 0 1 .032-.031l.012-.009a.2.2 0 0 1 .043-.022.14.14 0 0 1 .044-.008.13.13 0 0 1 .043.008l.014.006c.01.004.019.01.029.016l.013.009a.241.241 0 0 1 .051.057l.01.015a.517.517 0 0 1 .057.133l-.217-1.06-.218 1.06Z"
    fill="#909393"
  />
  <path
    d="M201.966 7.889a.661.661 0 0 0-.004-.063v-.001a.606.606 0 0 0-.01-.06v-.002a.554.554 0 0 0-.015-.058v-.001a.855.855 0 0 0-.046-.11.604.604 0 0 0-.283-.264h-.001a.557.557 0 0 0-.103-.034h-.003a.55.55 0 0 0-.219 0h-.004a.529.529 0 0 0-.101.032l-.003.001a.53.53 0 0 0-.093.052h-.001a.59.59 0 0 0-.083.07l-.001.002h-.002a.607.607 0 0 0-.104.142l-.002.002a.786.786 0 0 0-.023.05l-.003.005a.76.76 0 0 0-.017.049l-.003.01a.38.38 0 0 0-.012.047l-.003.013a.737.737 0 0 0-.007.048l-.003.014a.674.674 0 0 0 .041.297.597.597 0 0 0 .251.302c.016.01.032.018.048.026l.004.002a.529.529 0 0 0 .047.019l.007.003.045.012.012.004.045.007.013.002a.542.542 0 0 0 .382-.101.599.599 0 0 0 .209-.27.648.648 0 0 0 .045-.239V7.89Zm-.576-.072c-.119 0-.216-.103-.216-.23 0-.128.097-.23.216-.23.12 0 .217.102.217.23 0 .127-.097.23-.217.23Z"
    fill="#000"
  />
  <path
    d="M201.39 7.817c.12 0 .217-.103.217-.23 0-.128-.097-.231-.217-.231-.119 0-.216.103-.216.23 0 .128.097.23.216.23Z"
    fill="#fff"
  />
  <path
    d="M200.994 7.452h.002l.001-.003.396-1.291V5.852a3.178 3.178 0 0 0-2.098.256c-.311.152-.6.35-.86.587h-.001c-.07.064-.137.13-.202.199l-.037.038a4.266 4.266 0 0 0-.178.204l-.037.047a4.068 4.068 0 0 0-.167.223l-.014.02c-.05.073-.099.148-.145.225l-.028.045c-.037.064-.073.13-.107.195H199.325l1.669-.439Z"
    fill="#BBBCBD"
  />
  <path
    d="m202.52 7.307.009-.151.007-.205V6.746a8.044 8.044 0 0 0-.014-.41l-.001-.001-.001-.001-.004-.003a.023.023 0 0 0-.005-.003l-.134-.082-.003-.002a1.814 1.814 0 0 0-.038-.022l-.026-.016a.027.027 0 0 1-.005-.003l-.019-.011a3.514 3.514 0 0 0-.254-.127 4.325 4.325 0 0 0-.638-.213V6.158l.393 1.293v.001a.604.604 0 0 1 .15.25v.002a.554.554 0 0 1 .015.057v.002c.004.02.008.04.01.06v.001c.002.02.004.042.004.063l.001.004h.482c.032-.188.055-.378.069-.569l.002-.015Z"
    fill="#E2DDDB"
  />
  <path d="m203.149 6.85-.001.002.001-.001Z" fill="#FBB040" />
  <path
    d="M201.97 9.737a27.53 27.53 0 0 0 .481-.527c.402-.465.697-.9.875-1.46a.575.575 0 0 0 .013-.051l.001-.01a.868.868 0 0 0 .013-.07l.004-.052c-.044-.244-.131-.48-.207-.715v.002l-.002-.002c-.014-.015-.03-.029-.045-.043a3.868 3.868 0 0 0-.581-.473c.008.137.013.274.014.41v.047l-.001.159a7.013 7.013 0 0 1-.006.205l-.009.151-.002.016a5.993 5.993 0 0 1-.069.569l-.057.284c-.118.51-.358.973-.555 1.451a6.398 6.398 0 0 0-.146.385l-.012.037c.062-.069.116-.128.158-.172l.133-.14Z"
    fill="#FBB040"
  />
  <path
    d="M200.997 7.448a.591.591 0 0 1 .083-.069h.001a.531.531 0 0 1 .093-.052h.003a.528.528 0 0 1 .101-.033h.004a.537.537 0 0 1 .219 0h.003c.035.008.07.02.103.033l.001.001c.067.03.128.072.179.124V7.45l-.393-1.293-.397 1.29Z"
    fill="#909393"
  />
  <path
    d="M200.857 8.129a.671.671 0 0 1-.031-.111l-.001-.003a.66.66 0 0 1-.007-.182l.002-.015.007-.047.003-.014c.004-.016.007-.032.012-.047l.003-.01a.426.426 0 0 1 .02-.054.469.469 0 0 1 .024-.05l.001-.001a.607.607 0 0 1 .104-.143l-1.669.44h-.003l1.653.43a.635.635 0 0 1-.117-.192l-.001-.002Z"
    fill="#676A6A"
  />
  <path
    d="M204.612 7.794a.805.805 0 0 1 .019-.096l.002-.009.218-1.06v-.606c-.178-.156-.369-.242-.567-.242-.251 0-.484.147-.659.33-.191.199-.339.449-.459.702l-.016.034.109.104c.081.079.161.16.24.243l.108.117.114.124a23.796 23.796 0 0 1 .204.234c.057.067.114.135.17.204l.018.021h.491l.001-.012a.825.825 0 0 1 .007-.088ZM203.15 6.852l-.001-.001-.001.001.002.002v-.002Z"
    fill="#E2DDDB"
  />
  <path
    d="m197.222 8.562.005-.012a4.86 4.86 0 0 1 .102-.261l.032-.072c.029-.067.061-.134.093-.2l.04-.08.024-.044a4.67 4.67 0 0 1 .108-.195l.027-.045c.047-.077.095-.153.146-.226l.013-.02c.054-.076.11-.15.168-.223l.037-.046a4.27 4.27 0 0 1 .178-.205l.037-.038a3.76 3.76 0 0 1 .202-.199c.275-.98 1.115-1.694 2.109-1.694.401 0 .799.123 1.14.345.35.228.635.562.82.952l.003.006.014.029h.001l.001.002a3.653 3.653 0 0 1 .581.473c.015.014.031.028.045.043l.001-.002h.001l.015-.034c.14-.942.53-1.621.99-1.621.347 0 .654.385.844.978l.002.007h.001c.054.063.106.131.157.206l.003.005.007.026-.007-.031c-.572-1.806-2.175-3.106-4.063-3.106-2.367 0-4.287 2.046-4.287 4.569 0 .497.075.976.213 1.422l.001-.003a5.047 5.047 0 0 1 .196-.706Z"
    fill="#525353"
  />
  <path
    d="m205.227 7.898-.15.178v.001a.626.626 0 0 1-.021.067l-.006.016a.482.482 0 0 1-.019.043l-.012.021a.274.274 0 0 1-.05.066c-.005.005-.009.01-.014.013a.167.167 0 0 1-.026.019l-.01.006a.144.144 0 0 1-.067.018c-.136 0-.246-.202-.246-.45h-.494.001c.091.114.181.228.27.343l.003.004a17.673 17.673 0 0 1 .269.357l.237.327.022.032.247.348.001.003c.141-.445.22-.92.225-1.414h-.159l-.001.002Z"
    fill="#fff"
  />
  <path
    d="m200.448 5.789.034-.003a3.185 3.185 0 0 1 .911.066V5.968v-.116c.156.039.433.12.639.212.086.039.171.081.254.127l.019.011.005.003.026.016.038.023.003.002.133.081.006.004.004.002-.014-.03-.003-.005a2.325 2.325 0 0 0-.82-.95 2.1 2.1 0 0 0-1.14-.346c-.994 0-1.834.713-2.109 1.693.26-.237.55-.436.861-.587a3.242 3.242 0 0 1 1.153-.32ZM203.625 6.11c.175-.182.408-.33.659-.33.198 0 .389.086.567.243v.002l.047.045.029.027.074.08.001.002h-.001l-.002-.007c-.19-.593-.497-.978-.844-.978-.46 0-.85.679-.99 1.621l.001-.001a2.66 2.66 0 0 1 .459-.704Z"
    fill="#000"
  />
  <path
    d="M199.565 12.109c.039.016.079.03.118.045a4.044 4.044 0 0 0 3.018-.073l.078-.036a5.04 5.04 0 0 0 .125-.059c.037-.018.074-.036.11-.056l-.026.004c-.154.019-.307.02-.456-.003-.882-.135-1.078-.588-1.05-1.06a2.148 2.148 0 0 1-.193-.134c-.679-.524-1.082-1.083-1.082-1.083s.524.43 1.306.752l.048.02c.037-.135.08-.262.118-.376l.013-.037c.043-.13.093-.258.145-.385.197-.478.437-.94.555-1.45l.057-.286h-.483v.006a.65.65 0 0 1-.098.343.584.584 0 0 1-.253.222.546.546 0 0 1-.284.045l-.014-.002a.572.572 0 0 1-.045-.008l-.012-.003a.476.476 0 0 1-.099-.035l-.004-.002a.512.512 0 0 1-.047-.025h-.001a.574.574 0 0 1-.134-.111l-1.653-.43h-1.803c-.008.015-.017.029-.024.044l-.04.08a3.766 3.766 0 0 0-.125.272 4.872 4.872 0 0 0-.103.261l-.004.012a5.452 5.452 0 0 0-.197.706 4.576 4.576 0 0 0 1.559 2.275l.064.046a4.106 4.106 0 0 0 .916.52Z"
    fill="#fff"
  />
  <path
    d="M202.525 10.69a1.336 1.336 0 0 0 .101.725 1.598 1.598 0 0 0 .159.28l.057.074c.079.096.141.149.141.149l.001.004.004.011c.009 0 .017-.002.026-.003.191-.026.384-.081.574-.154a3.65 3.65 0 0 0 .288-.123l.086-.045c.982-.506 1.805-1.4 1.805-1.4-1.234.646-2.44.62-3.242.482Z"
    fill="#9F2255"
  />
  <path
    d="M204.891 8.927c-.078-.11-.157-.218-.237-.327l-.012-.017a17.344 17.344 0 0 0-.256-.34l-.003-.004a16.085 16.085 0 0 0-.662-.802 21.106 21.106 0 0 0-.114-.125l-.108-.117a10.73 10.73 0 0 0-.349-.347l-.001.002c.078.237.166.477.21.724.012.065.021.128.029.189.108.856-.149 1.415-.558 2.15l-.091.162a1.59 1.59 0 0 0-.214.616c.802.138 2.008.163 3.242-.483 0 0-.242-.379-.607-.9a32.178 32.178 0 0 0-.246-.349l-.023-.032Z"
    fill="#E2066F"
  />
  <path
    d="M202.983 11.918s-.062-.052-.141-.148a2.187 2.187 0 0 1-.102-.14 1.717 1.717 0 0 1-.115-.215 1.459 1.459 0 0 1-.098-.34 1.335 1.335 0 0 1 .024-.53c.035-.147.095-.304.188-.47l.001-.002.089-.16c.409-.735.667-1.294.559-2.15a3.493 3.493 0 0 0-.029-.188 1.507 1.507 0 0 1-.019.115l-.002.009a.614.614 0 0 1-.012.05c-.178.56-.473.996-.875 1.461a17.152 17.152 0 0 1-.481.527l-.133.14a8.062 8.062 0 0 0-.158.173c-.038.114-.081.242-.118.376l-.049-.02a5.657 5.657 0 0 1-1.305-.752s.403.559 1.081 1.083c.066.05.131.095.194.134-.028.471.168.925 1.05 1.06.149.023.302.022.456.003l-.004-.011-.001-.005Z"
    fill="#000"
  />
  <rect
    x="124.587"
    y="62.638"
    width="19.934"
    height="19.934"
    rx="9.967"
    fill="{colors.theme}"
  />
  <path
    opacity=".3"
    d="M130.817 77.588h7.475v-6.23h-7.475v6.23Zm3.737-4.36c.686 0 1.246.56 1.246 1.246a1.25 1.25 0 0 1-1.246 1.245c-.685 0-1.245-.56-1.245-1.245 0-.686.56-1.246 1.245-1.246Z"
    fill="#fff"
  />
  <path
    d="M138.292 70.113h-.623v-1.246a3.116 3.116 0 0 0-6.229 0v1.246h-.623a1.25 1.25 0 0 0-1.246 1.246v6.23c0 .684.56 1.245 1.246 1.245h7.475a1.25 1.25 0 0 0 1.246-1.246v-6.23a1.25 1.25 0 0 0-1.246-1.245Zm-5.606-1.246c0-1.034.834-1.869 1.868-1.869 1.034 0 1.869.835 1.869 1.87v1.245h-3.737v-1.246Zm5.606 8.721h-7.475v-6.23h7.475v6.23Zm-3.738-1.869a1.25 1.25 0 0 0 1.246-1.245 1.25 1.25 0 0 0-1.246-1.246 1.25 1.25 0 0 0-1.246 1.246 1.25 1.25 0 0 0 1.246 1.245Z"
    fill="#fff"
  />
  <defs>
    <clipPath id="a">
      <path
        fill="#fff"
        transform="translate(168.193 38.966)"
        d="M0 0h41.883v12.459H0z"
      />
    </clipPath>
  </defs>
</svg>
